<?xml version='1.0' encoding='utf-8'?>
<mlt LC_NUMERIC="C" producer="main_bin" version="6.24.0" root="/home/renec/Drive/Higgsino/new_project">
 <profile frame_rate_num="25" sample_aspect_num="1" display_aspect_den="9" colorspace="709" progressive="1" description="HD 1080p 25 fps" display_aspect_num="16" frame_rate_den="1" width="1920" height="1080" sample_aspect_den="1"/>
 <producer id="producer12" in="00:00:00.000" out="00:00:03.960">
  <property name="length">00:00:04.000</property>
  <property name="eof">pause</property>
  <property name="resource">vid_files/2_mnist/input_output/input_output%03d.png</property>
  <property name="ttl">1</property>
  <property name="aspect_ratio">1</property>
  <property name="progressive">1</property>
  <property name="seekable">1</property>
  <property name="meta.media.width">1920</property>
  <property name="meta.media.height">1020</property>
  <property name="mlt_service">qimage</property>
  <property name="kdenlive:clipname">input_output</property>
  <property name="luma_duration">25</property>
  <property name="fade">0</property>
  <property name="crop">0</property>
  <property name="loop">0</property>
  <property name="kdenlive:duration">00:00:04.000</property>
  <property name="kdenlive:folderid">-1</property>
  <property name="kdenlive:id">2</property>
  <property name="kdenlive:file_hash">548e270c3c6764dfce2817ad89c951e7</property>
  <property name="global_feed">1</property>
 </producer>
 <producer id="producer13" in="00:00:00.000" out="00:00:03.960">
  <property name="length">00:00:04.000</property>
  <property name="eof">pause</property>
  <property name="resource">vid_files/2_mnist/input_output_number/input_output_number%03d.png</property>
  <property name="ttl">1</property>
  <property name="aspect_ratio">1</property>
  <property name="progressive">1</property>
  <property name="seekable">1</property>
  <property name="meta.media.width">1920</property>
  <property name="meta.media.height">1020</property>
  <property name="mlt_service">qimage</property>
  <property name="kdenlive:clipname">input_output_number</property>
  <property name="luma_duration">25</property>
  <property name="fade">0</property>
  <property name="crop">0</property>
  <property name="loop">0</property>
  <property name="kdenlive:duration">00:00:04.000</property>
  <property name="kdenlive:folderid">-1</property>
  <property name="kdenlive:id">3</property>
  <property name="kdenlive:file_hash">878c7ce4ee445daa6a712346183d80f3</property>
  <property name="global_feed">1</property>
 </producer>
 <producer id="producer14" in="00:00:00.000" out="00:00:05.960">
  <property name="length">00:00:06.000</property>
  <property name="eof">pause</property>
  <property name="resource">vid_files/2_mnist/dataset/dataset%03d.png</property>
  <property name="ttl">1</property>
  <property name="aspect_ratio">1</property>
  <property name="progressive">1</property>
  <property name="seekable">1</property>
  <property name="meta.media.width">1920</property>
  <property name="meta.media.height">1020</property>
  <property name="mlt_service">qimage</property>
  <property name="kdenlive:clipname">dataset</property>
  <property name="luma_duration">25</property>
  <property name="fade">0</property>
  <property name="crop">0</property>
  <property name="loop">0</property>
  <property name="kdenlive:duration">00:00:06.000</property>
  <property name="kdenlive:folderid">-1</property>
  <property name="kdenlive:id">4</property>
  <property name="kdenlive:file_hash">df790f910955514aad43574b52d96cc2</property>
  <property name="global_feed">1</property>
 </producer>
 <producer id="producer15" in="00:00:00.000" out="00:00:03.960">
  <property name="length">00:00:04.000</property>
  <property name="eof">pause</property>
  <property name="resource">vid_files/2_mnist/data_set_split/data_set_split%03d.png</property>
  <property name="ttl">1</property>
  <property name="aspect_ratio">1</property>
  <property name="progressive">1</property>
  <property name="seekable">1</property>
  <property name="meta.media.width">1920</property>
  <property name="meta.media.height">1020</property>
  <property name="mlt_service">qimage</property>
  <property name="kdenlive:clipname">data_set_split</property>
  <property name="luma_duration">25</property>
  <property name="fade">0</property>
  <property name="crop">0</property>
  <property name="loop">0</property>
  <property name="kdenlive:duration">00:00:04.000</property>
  <property name="kdenlive:folderid">-1</property>
  <property name="kdenlive:id">5</property>
  <property name="kdenlive:file_hash">ded27bc5fdf4fb68b1497e5d231c6918</property>
  <property name="global_feed">1</property>
 </producer>
 <producer id="producer16" in="00:00:00.000" out="00:00:05.160">
  <property name="length">00:00:05.200</property>
  <property name="eof">pause</property>
  <property name="resource">vid_files/2_mnist/w1/w%04d.png?begin=1000</property>
  <property name="ttl">1</property>
  <property name="aspect_ratio">1</property>
  <property name="progressive">1</property>
  <property name="seekable">1</property>
  <property name="begin">1000</property>
  <property name="meta.media.width">1920</property>
  <property name="meta.media.height">1020</property>
  <property name="mlt_service">qimage</property>
  <property name="kdenlive:clipname">w</property>
  <property name="luma_duration">25</property>
  <property name="fade">0</property>
  <property name="crop">0</property>
  <property name="loop">0</property>
  <property name="kdenlive:duration">00:00:05.200</property>
  <property name="kdenlive:folderid">-1</property>
  <property name="kdenlive:id">6</property>
  <property name="kdenlive:file_hash">f8a4b7dc80ea0de6a8f277e4aef74be6</property>
  <property name="global_feed">1</property>
 </producer>
 <producer id="producer17" in="00:00:00.000" out="00:00:05.160">
  <property name="length">00:00:05.200</property>
  <property name="eof">pause</property>
  <property name="resource">vid_files/2_mnist/w2/w%04d.png?begin=2000</property>
  <property name="ttl">1</property>
  <property name="aspect_ratio">1</property>
  <property name="progressive">1</property>
  <property name="seekable">1</property>
  <property name="begin">2000</property>
  <property name="meta.media.width">1920</property>
  <property name="meta.media.height">1020</property>
  <property name="mlt_service">qimage</property>
  <property name="kdenlive:clipname">w</property>
  <property name="luma_duration">25</property>
  <property name="fade">0</property>
  <property name="crop">0</property>
  <property name="loop">0</property>
  <property name="kdenlive:duration">00:00:05.200</property>
  <property name="kdenlive:folderid">-1</property>
  <property name="kdenlive:id">7</property>
  <property name="kdenlive:file_hash">d7fc8808f2681455525c310ff4791cef</property>
  <property name="global_feed">1</property>
 </producer>
 <producer id="producer18" in="00:00:00.000" out="00:00:05.160">
  <property name="length">00:00:05.200</property>
  <property name="eof">pause</property>
  <property name="resource">vid_files/2_mnist/w3/w%04d.png?begin=3000</property>
  <property name="ttl">1</property>
  <property name="aspect_ratio">1</property>
  <property name="progressive">1</property>
  <property name="seekable">1</property>
  <property name="begin">3000</property>
  <property name="meta.media.width">1920</property>
  <property name="meta.media.height">1020</property>
  <property name="mlt_service">qimage</property>
  <property name="kdenlive:clipname">w</property>
  <property name="luma_duration">25</property>
  <property name="fade">0</property>
  <property name="crop">0</property>
  <property name="loop">0</property>
  <property name="kdenlive:duration">00:00:05.200</property>
  <property name="kdenlive:folderid">-1</property>
  <property name="kdenlive:id">8</property>
  <property name="kdenlive:file_hash">72086352dfd862d9e28a28137ed81856</property>
  <property name="global_feed">1</property>
  <property name="softness">0</property>
 </producer>
 <producer id="producer19" in="00:00:00.000" out="00:00:05.160">
  <property name="length">00:00:05.200</property>
  <property name="eof">pause</property>
  <property name="resource">vid_files/2_mnist/r1/r%04d.png?begin=1000</property>
  <property name="ttl">1</property>
  <property name="aspect_ratio">1</property>
  <property name="progressive">1</property>
  <property name="seekable">1</property>
  <property name="begin">1000</property>
  <property name="meta.media.width">1920</property>
  <property name="meta.media.height">1020</property>
  <property name="mlt_service">qimage</property>
  <property name="kdenlive:clipname">r</property>
  <property name="luma_duration">25</property>
  <property name="fade">0</property>
  <property name="crop">0</property>
  <property name="loop">0</property>
  <property name="kdenlive:duration">00:00:05.200</property>
  <property name="kdenlive:folderid">-1</property>
  <property name="kdenlive:id">9</property>
  <property name="kdenlive:file_hash">8b087fae369646d11e409e7b797bf87c</property>
  <property name="global_feed">1</property>
 </producer>
 <producer id="producer20" in="00:00:00.000" out="00:00:03.960">
  <property name="length">00:00:04.000</property>
  <property name="eof">pause</property>
  <property name="resource">vid_files/3_bias_variance_decompose/intro/intro%03d.png</property>
  <property name="ttl">1</property>
  <property name="aspect_ratio">1</property>
  <property name="progressive">1</property>
  <property name="seekable">1</property>
  <property name="meta.media.width">1920</property>
  <property name="meta.media.height">1020</property>
  <property name="mlt_service">qimage</property>
  <property name="kdenlive:clipname">intro</property>
  <property name="luma_duration">25</property>
  <property name="fade">0</property>
  <property name="crop">0</property>
  <property name="loop">0</property>
  <property name="kdenlive:duration">00:00:04.000</property>
  <property name="kdenlive:folderid">-1</property>
  <property name="kdenlive:id">10</property>
  <property name="kdenlive:file_hash">ed0c137f943194f9f62e8970782fea72</property>
  <property name="global_feed">1</property>
 </producer>
 <producer id="producer21" in="00:00:00.000" out="00:00:02.760">
  <property name="length">00:00:02.800</property>
  <property name="eof">pause</property>
  <property name="resource">vid_files/3_bias_variance_decompose/thrower_bias/thrower_bias%03d.png</property>
  <property name="ttl">1</property>
  <property name="aspect_ratio">1</property>
  <property name="progressive">1</property>
  <property name="seekable">1</property>
  <property name="meta.media.width">1920</property>
  <property name="meta.media.height">1080</property>
  <property name="mlt_service">qimage</property>
  <property name="kdenlive:clipname">thrower_bias</property>
  <property name="luma_duration">25</property>
  <property name="fade">0</property>
  <property name="crop">0</property>
  <property name="loop">0</property>
  <property name="kdenlive:duration">00:00:02.800</property>
  <property name="kdenlive:folderid">-1</property>
  <property name="kdenlive:id">11</property>
  <property name="kdenlive:file_hash">578a86d369a789bf3fa3a2a07d1810f0</property>
  <property name="global_feed">1</property>
 </producer>
 <producer id="producer22" in="00:00:00.000" out="00:00:02.760">
  <property name="length">00:00:02.800</property>
  <property name="eof">pause</property>
  <property name="resource">vid_files/3_bias_variance_decompose/thrower_var/thrower_var%03d.png</property>
  <property name="ttl">1</property>
  <property name="aspect_ratio">1</property>
  <property name="progressive">1</property>
  <property name="seekable">1</property>
  <property name="meta.media.width">1920</property>
  <property name="meta.media.height">1020</property>
  <property name="mlt_service">qimage</property>
  <property name="kdenlive:clipname">thrower_var</property>
  <property name="luma_duration">25</property>
  <property name="fade">0</property>
  <property name="crop">0</property>
  <property name="loop">0</property>
  <property name="kdenlive:duration">00:00:02.800</property>
  <property name="kdenlive:folderid">-1</property>
  <property name="kdenlive:id">12</property>
  <property name="kdenlive:file_hash">2f258abd6f59c7e654ad748cda7e23bc</property>
  <property name="global_feed">1</property>
 </producer>
 <producer id="producer11" in="00:00:00.000" out="00:00:54.000">
  <property name="length">1351</property>
  <property name="eof">pause</property>
  <property name="resource">vid_files/0_clips/2021-08-16 10-43-10.mp4</property>
  <property name="audio_index">1</property>
  <property name="video_index">0</property>
  <property name="mute_on_pause">0</property>
  <property name="mlt_service">avformat-novalidate</property>
  <property name="meta.media.nb_streams">2</property>
  <property name="meta.media.0.stream.type">video</property>
  <property name="meta.media.0.stream.frame_rate">30</property>
  <property name="meta.media.0.stream.sample_aspect_ratio">0</property>
  <property name="meta.media.0.codec.width">1280</property>
  <property name="meta.media.0.codec.height">720</property>
  <property name="meta.media.0.codec.rotate">0</property>
  <property name="meta.media.0.codec.frame_rate">30</property>
  <property name="meta.media.0.codec.pix_fmt">yuv420p</property>
  <property name="meta.media.0.codec.sample_aspect_ratio">1</property>
  <property name="meta.media.0.codec.colorspace">709</property>
  <property name="meta.media.0.codec.color_trc">1</property>
  <property name="meta.media.0.codec.name">h264</property>
  <property name="meta.media.0.codec.long_name">H.264 / AVC / MPEG-4 AVC / MPEG-4 part 10</property>
  <property name="meta.media.0.codec.bit_rate">3472406</property>
  <property name="meta.attr.0.stream.handler_name.markup">VideoHandler</property>
  <property name="meta.media.1.stream.type">audio</property>
  <property name="meta.media.1.codec.sample_fmt">fltp</property>
  <property name="meta.media.1.codec.sample_rate">48000</property>
  <property name="meta.media.1.codec.channels">2</property>
  <property name="meta.media.1.codec.name">aac</property>
  <property name="meta.media.1.codec.long_name">AAC (Advanced Audio Coding)</property>
  <property name="meta.media.1.codec.bit_rate">192168</property>
  <property name="meta.attr.1.stream.handler_name.markup">SoundHandler</property>
  <property name="meta.attr.major_brand.markup">isom</property>
  <property name="meta.attr.minor_version.markup">512</property>
  <property name="meta.attr.compatible_brands.markup">isomiso2avc1mp41</property>
  <property name="meta.attr.encoder.markup">Lavf58.29.100</property>
  <property name="seekable">1</property>
  <property name="meta.media.sample_aspect_num">1</property>
  <property name="meta.media.sample_aspect_den">1</property>
  <property name="aspect_ratio">1</property>
  <property name="kdenlive:clipname"/>
  <property name="kdenlive:folderid">-1</property>
  <property name="meta.media.frame_rate_num">30</property>
  <property name="meta.media.frame_rate_den">1</property>
  <property name="meta.media.colorspace">709</property>
  <property name="meta.media.color_trc">1</property>
  <property name="meta.media.width">1280</property>
  <property name="meta.media.height">720</property>
  <property name="meta.media.color_range">mpeg</property>
  <property name="kdenlive:id">13</property>
  <property name="kdenlive:file_size">24810046</property>
  <property name="kdenlive:file_hash">07a909afecc89b1dfc78769b144f4808</property>
  <property name="meta.media.top_field_first">0</property>
  <property name="meta.media.progressive">1</property>
  <property name="global_feed">1</property>
 </producer>
 <producer id="producer23" in="00:00:00.000" out="00:00:12.760">
  <property name="length">320</property>
  <property name="eof">pause</property>
  <property name="resource">vid_files/0_clips/2021-08-16 11-00-16.mp4</property>
  <property name="audio_index">1</property>
  <property name="video_index">0</property>
  <property name="mute_on_pause">0</property>
  <property name="mlt_service">avformat-novalidate</property>
  <property name="meta.media.nb_streams">2</property>
  <property name="meta.media.0.stream.type">video</property>
  <property name="meta.media.0.stream.frame_rate">30</property>
  <property name="meta.media.0.stream.sample_aspect_ratio">0</property>
  <property name="meta.media.0.codec.width">1280</property>
  <property name="meta.media.0.codec.height">720</property>
  <property name="meta.media.0.codec.rotate">0</property>
  <property name="meta.media.0.codec.frame_rate">30</property>
  <property name="meta.media.0.codec.pix_fmt">yuv420p</property>
  <property name="meta.media.0.codec.sample_aspect_ratio">1</property>
  <property name="meta.media.0.codec.colorspace">709</property>
  <property name="meta.media.0.codec.color_trc">1</property>
  <property name="meta.media.0.codec.name">h264</property>
  <property name="meta.media.0.codec.long_name">H.264 / AVC / MPEG-4 AVC / MPEG-4 part 10</property>
  <property name="meta.media.0.codec.bit_rate">3938459</property>
  <property name="meta.attr.0.stream.handler_name.markup">VideoHandler</property>
  <property name="meta.media.1.stream.type">audio</property>
  <property name="meta.media.1.codec.sample_fmt">fltp</property>
  <property name="meta.media.1.codec.sample_rate">48000</property>
  <property name="meta.media.1.codec.channels">2</property>
  <property name="meta.media.1.codec.name">aac</property>
  <property name="meta.media.1.codec.long_name">AAC (Advanced Audio Coding)</property>
  <property name="meta.media.1.codec.bit_rate">192721</property>
  <property name="meta.attr.1.stream.handler_name.markup">SoundHandler</property>
  <property name="meta.attr.major_brand.markup">isom</property>
  <property name="meta.attr.minor_version.markup">512</property>
  <property name="meta.attr.compatible_brands.markup">isomiso2avc1mp41</property>
  <property name="meta.attr.encoder.markup">Lavf58.29.100</property>
  <property name="seekable">1</property>
  <property name="meta.media.sample_aspect_num">1</property>
  <property name="meta.media.sample_aspect_den">1</property>
  <property name="aspect_ratio">1</property>
  <property name="kdenlive:clipname"/>
  <property name="kdenlive:folderid">-1</property>
  <property name="meta.media.frame_rate_num">30</property>
  <property name="meta.media.frame_rate_den">1</property>
  <property name="meta.media.colorspace">709</property>
  <property name="meta.media.color_trc">1</property>
  <property name="meta.media.width">1280</property>
  <property name="meta.media.height">720</property>
  <property name="meta.media.color_range">mpeg</property>
  <property name="kdenlive:id">14</property>
  <property name="kdenlive:file_size">6623284</property>
  <property name="kdenlive:file_hash">5b4d67648268b0cdddfcab501efc1792</property>
  <property name="kdenlive:audio_max">15</property>
  <property name="meta.media.top_field_first">0</property>
  <property name="meta.media.progressive">1</property>
  <property name="global_feed">1</property>
 </producer>
 <producer id="producer24" in="00:00:00.000" out="00:00:36.040">
  <property name="length">902</property>
  <property name="eof">pause</property>
  <property name="resource">vid_files/0_clips/2021-08-16 11-05-49.mp4</property>
  <property name="audio_index">1</property>
  <property name="video_index">0</property>
  <property name="mute_on_pause">0</property>
  <property name="mlt_service">avformat-novalidate</property>
  <property name="meta.media.nb_streams">2</property>
  <property name="meta.media.0.stream.type">video</property>
  <property name="meta.media.0.stream.frame_rate">30</property>
  <property name="meta.media.0.stream.sample_aspect_ratio">0</property>
  <property name="meta.media.0.codec.width">1280</property>
  <property name="meta.media.0.codec.height">720</property>
  <property name="meta.media.0.codec.rotate">0</property>
  <property name="meta.media.0.codec.frame_rate">30</property>
  <property name="meta.media.0.codec.pix_fmt">yuv420p</property>
  <property name="meta.media.0.codec.sample_aspect_ratio">1</property>
  <property name="meta.media.0.codec.colorspace">709</property>
  <property name="meta.media.0.codec.color_trc">1</property>
  <property name="meta.media.0.codec.name">h264</property>
  <property name="meta.media.0.codec.long_name">H.264 / AVC / MPEG-4 AVC / MPEG-4 part 10</property>
  <property name="meta.media.0.codec.bit_rate">3469853</property>
  <property name="meta.attr.0.stream.handler_name.markup">VideoHandler</property>
  <property name="meta.media.1.stream.type">audio</property>
  <property name="meta.media.1.codec.sample_fmt">fltp</property>
  <property name="meta.media.1.codec.sample_rate">48000</property>
  <property name="meta.media.1.codec.channels">2</property>
  <property name="meta.media.1.codec.name">aac</property>
  <property name="meta.media.1.codec.long_name">AAC (Advanced Audio Coding)</property>
  <property name="meta.media.1.codec.bit_rate">192260</property>
  <property name="meta.attr.1.stream.handler_name.markup">SoundHandler</property>
  <property name="meta.attr.major_brand.markup">isom</property>
  <property name="meta.attr.minor_version.markup">512</property>
  <property name="meta.attr.compatible_brands.markup">isomiso2avc1mp41</property>
  <property name="meta.attr.encoder.markup">Lavf58.29.100</property>
  <property name="seekable">1</property>
  <property name="meta.media.sample_aspect_num">1</property>
  <property name="meta.media.sample_aspect_den">1</property>
  <property name="aspect_ratio">1</property>
  <property name="kdenlive:clipname"/>
  <property name="kdenlive:folderid">-1</property>
  <property name="meta.media.frame_rate_num">30</property>
  <property name="meta.media.frame_rate_den">1</property>
  <property name="meta.media.colorspace">709</property>
  <property name="meta.media.color_trc">1</property>
  <property name="meta.media.width">1280</property>
  <property name="meta.media.height">720</property>
  <property name="meta.media.color_range">mpeg</property>
  <property name="kdenlive:id">15</property>
  <property name="kdenlive:file_size">16549260</property>
  <property name="kdenlive:file_hash">5f1873c7f5584eb87993b2c9dc119fa4</property>
  <property name="kdenlive:audio_max">15</property>
  <property name="meta.media.top_field_first">0</property>
  <property name="meta.media.progressive">1</property>
  <property name="global_feed">1</property>
 </producer>
 <producer id="producer0" in="00:00:00.000" out="00:00:04.960">
  <property name="length">00:00:05.000</property>
  <property name="eof">pause</property>
  <property name="resource">vid_files/1/animation/animation000.png</property>
  <property name="ttl">25</property>
  <property name="aspect_ratio">1</property>
  <property name="progressive">1</property>
  <property name="seekable">1</property>
  <property name="meta.media.width">1920</property>
  <property name="meta.media.height">1080</property>
  <property name="mlt_service">qimage</property>
  <property name="kdenlive:clipname"/>
  <property name="kdenlive:duration">00:00:05.000</property>
  <property name="kdenlive:folderid">-1</property>
  <property name="kdenlive:id">16</property>
  <property name="kdenlive:file_size">10595</property>
  <property name="kdenlive:file_hash">f62c0484c21e5f9e37a76817b59ea7a8</property>
 </producer>
 <producer id="producer1" in="00:00:00.000" out="00:00:05.200">
  <property name="length">131</property>
  <property name="eof">pause</property>
  <property name="resource">vid_files/1/animation/animation001.png</property>
  <property name="ttl">25</property>
  <property name="aspect_ratio">1</property>
  <property name="progressive">1</property>
  <property name="seekable">1</property>
  <property name="meta.media.width">1920</property>
  <property name="meta.media.height">1080</property>
  <property name="mlt_service">qimage</property>
  <property name="kdenlive:clipname"/>
  <property name="kdenlive:duration">00:00:05.000</property>
  <property name="kdenlive:folderid">-1</property>
  <property name="kdenlive:id">17</property>
  <property name="kdenlive:file_size">25827</property>
  <property name="kdenlive:file_hash">776ea7db334d42e03d440079a155b05a</property>
 </producer>
 <producer id="producer2" in="00:00:00.000" out="00:00:04.960">
  <property name="length">00:00:05.000</property>
  <property name="eof">pause</property>
  <property name="resource">vid_files/1/animation/animation002.png</property>
  <property name="ttl">25</property>
  <property name="aspect_ratio">1</property>
  <property name="progressive">1</property>
  <property name="seekable">1</property>
  <property name="meta.media.width">1920</property>
  <property name="meta.media.height">1080</property>
  <property name="mlt_service">qimage</property>
  <property name="kdenlive:clipname"/>
  <property name="kdenlive:duration">00:00:05.000</property>
  <property name="kdenlive:folderid">-1</property>
  <property name="kdenlive:id">18</property>
  <property name="kdenlive:file_size">28987</property>
  <property name="kdenlive:file_hash">5d7cbb06452fa44004a9b08abf474c56</property>
 </producer>
 <producer id="producer3" in="00:00:00.000" out="00:00:04.960">
  <property name="length">00:00:05.000</property>
  <property name="eof">pause</property>
  <property name="resource">vid_files/1/animation/animation003.png</property>
  <property name="ttl">25</property>
  <property name="aspect_ratio">1</property>
  <property name="progressive">1</property>
  <property name="seekable">1</property>
  <property name="meta.media.width">1920</property>
  <property name="meta.media.height">1080</property>
  <property name="mlt_service">qimage</property>
  <property name="kdenlive:clipname"/>
  <property name="kdenlive:duration">00:00:05.000</property>
  <property name="kdenlive:folderid">-1</property>
  <property name="kdenlive:id">19</property>
  <property name="kdenlive:file_size">43600</property>
  <property name="kdenlive:file_hash">ceec777fc2e6719327dade26528ea887</property>
 </producer>
 <producer id="producer4" in="00:00:00.000" out="00:00:04.960">
  <property name="length">00:00:05.000</property>
  <property name="eof">pause</property>
  <property name="resource">vid_files/1/animation/animation004.png</property>
  <property name="ttl">25</property>
  <property name="aspect_ratio">1</property>
  <property name="progressive">1</property>
  <property name="seekable">1</property>
  <property name="meta.media.width">1920</property>
  <property name="meta.media.height">1080</property>
  <property name="mlt_service">qimage</property>
  <property name="kdenlive:clipname"/>
  <property name="kdenlive:duration">00:00:05.000</property>
  <property name="kdenlive:folderid">-1</property>
  <property name="kdenlive:id">20</property>
  <property name="kdenlive:file_size">50412</property>
  <property name="kdenlive:file_hash">a708c798b2bd1ef7fad90ac1e4e59068</property>
 </producer>
 <producer id="producer5" in="00:00:00.000" out="00:00:04.960">
  <property name="length">00:00:05.000</property>
  <property name="eof">pause</property>
  <property name="resource">vid_files/1/animation/animation005.png</property>
  <property name="ttl">25</property>
  <property name="aspect_ratio">1</property>
  <property name="progressive">1</property>
  <property name="seekable">1</property>
  <property name="meta.media.width">1920</property>
  <property name="meta.media.height">1080</property>
  <property name="mlt_service">qimage</property>
  <property name="kdenlive:clipname"/>
  <property name="kdenlive:duration">00:00:05.000</property>
  <property name="kdenlive:folderid">-1</property>
  <property name="kdenlive:id">21</property>
  <property name="kdenlive:file_size">56353</property>
  <property name="kdenlive:file_hash">7fa1057195af07d0ec243681ac5f4681</property>
 </producer>
 <producer id="producer6" in="00:00:00.000" out="00:00:04.960">
  <property name="length">00:00:05.000</property>
  <property name="eof">pause</property>
  <property name="resource">vid_files/1/animation/animation006.png</property>
  <property name="ttl">25</property>
  <property name="aspect_ratio">1</property>
  <property name="progressive">1</property>
  <property name="seekable">1</property>
  <property name="meta.media.width">1920</property>
  <property name="meta.media.height">1080</property>
  <property name="mlt_service">qimage</property>
  <property name="kdenlive:clipname"/>
  <property name="kdenlive:duration">00:00:05.000</property>
  <property name="kdenlive:folderid">-1</property>
  <property name="kdenlive:id">22</property>
  <property name="kdenlive:file_size">58120</property>
  <property name="kdenlive:file_hash">7c9b852476329dc6159fabeab6d3ec62</property>
 </producer>
 <producer id="producer7" in="00:00:00.000" out="00:00:04.960">
  <property name="length">00:00:05.000</property>
  <property name="eof">pause</property>
  <property name="resource">vid_files/1/animation/animation007.png</property>
  <property name="ttl">25</property>
  <property name="aspect_ratio">1</property>
  <property name="progressive">1</property>
  <property name="seekable">1</property>
  <property name="meta.media.width">1920</property>
  <property name="meta.media.height">1080</property>
  <property name="mlt_service">qimage</property>
  <property name="kdenlive:clipname"/>
  <property name="kdenlive:duration">00:00:05.000</property>
  <property name="kdenlive:folderid">-1</property>
  <property name="kdenlive:id">23</property>
  <property name="kdenlive:file_size">62412</property>
  <property name="kdenlive:file_hash">8dcceaa7da14c09eec9ba0fea4d8a2a3</property>
 </producer>
 <producer id="producer8" in="00:00:00.000" out="00:00:04.960">
  <property name="length">00:00:05.000</property>
  <property name="eof">pause</property>
  <property name="resource">vid_files/1/animation/animation008.png</property>
  <property name="ttl">25</property>
  <property name="aspect_ratio">1</property>
  <property name="progressive">1</property>
  <property name="seekable">1</property>
  <property name="meta.media.width">1920</property>
  <property name="meta.media.height">1080</property>
  <property name="mlt_service">qimage</property>
  <property name="kdenlive:clipname"/>
  <property name="kdenlive:duration">00:00:05.000</property>
  <property name="kdenlive:folderid">-1</property>
  <property name="kdenlive:id">24</property>
  <property name="kdenlive:file_size">62712</property>
  <property name="kdenlive:file_hash">b9a73cba3500f7e7137f923c8b1275ad</property>
 </producer>
 <producer id="producer9" in="00:00:00.000" out="00:00:04.960">
  <property name="length">00:00:05.000</property>
  <property name="eof">pause</property>
  <property name="resource">vid_files/1/animation/animation009.png</property>
  <property name="ttl">25</property>
  <property name="aspect_ratio">1</property>
  <property name="progressive">1</property>
  <property name="seekable">1</property>
  <property name="meta.media.width">1920</property>
  <property name="meta.media.height">1080</property>
  <property name="mlt_service">qimage</property>
  <property name="kdenlive:clipname"/>
  <property name="kdenlive:duration">00:00:05.000</property>
  <property name="kdenlive:folderid">-1</property>
  <property name="kdenlive:id">25</property>
  <property name="kdenlive:file_size">64953</property>
  <property name="kdenlive:file_hash">8d9bac018884d6666fa33980e68656e8</property>
 </producer>
 <producer id="producer46" in="00:00:00.000" out="00:00:05.320">
  <property name="length">00:00:05.360</property>
  <property name="eof">pause</property>
  <property name="resource">vid_files/10_chapters/3b1b.png</property>
  <property name="ttl">25</property>
  <property name="aspect_ratio">1</property>
  <property name="progressive">1</property>
  <property name="seekable">1</property>
  <property name="meta.media.width">1920</property>
  <property name="meta.media.height">1080</property>
  <property name="mlt_service">qimage</property>
  <property name="kdenlive:clipname"/>
  <property name="kdenlive:duration">00:00:05.000</property>
  <property name="kdenlive:folderid">-1</property>
  <property name="kdenlive:id">26</property>
  <property name="kdenlive:file_size">81239</property>
  <property name="kdenlive:file_hash">02b5dfe2ed6d365b2a6053b8240bf8df</property>
  <property name="global_feed">1</property>
 </producer>
 <producer id="producer25" in="00:00:00.000" out="00:00:54.000">
  <property name="length">1351</property>
  <property name="eof">pause</property>
  <property name="resource">vid_files/0_clips/2021-08-16 10-43-10.mp4</property>
  <property name="audio_index">1</property>
  <property name="video_index">0</property>
  <property name="mute_on_pause">0</property>
  <property name="mlt_service">avformat-novalidate</property>
  <property name="meta.media.nb_streams">2</property>
  <property name="meta.media.0.stream.type">video</property>
  <property name="meta.media.0.stream.frame_rate">30</property>
  <property name="meta.media.0.stream.sample_aspect_ratio">0</property>
  <property name="meta.media.0.codec.width">1280</property>
  <property name="meta.media.0.codec.height">720</property>
  <property name="meta.media.0.codec.rotate">0</property>
  <property name="meta.media.0.codec.frame_rate">30</property>
  <property name="meta.media.0.codec.pix_fmt">yuv420p</property>
  <property name="meta.media.0.codec.sample_aspect_ratio">1</property>
  <property name="meta.media.0.codec.colorspace">709</property>
  <property name="meta.media.0.codec.color_trc">1</property>
  <property name="meta.media.0.codec.name">h264</property>
  <property name="meta.media.0.codec.long_name">H.264 / AVC / MPEG-4 AVC / MPEG-4 part 10</property>
  <property name="meta.media.0.codec.bit_rate">3472406</property>
  <property name="meta.attr.0.stream.handler_name.markup">VideoHandler</property>
  <property name="meta.media.1.stream.type">audio</property>
  <property name="meta.media.1.codec.sample_fmt">fltp</property>
  <property name="meta.media.1.codec.sample_rate">48000</property>
  <property name="meta.media.1.codec.channels">2</property>
  <property name="meta.media.1.codec.name">aac</property>
  <property name="meta.media.1.codec.long_name">AAC (Advanced Audio Coding)</property>
  <property name="meta.media.1.codec.bit_rate">192168</property>
  <property name="meta.attr.1.stream.handler_name.markup">SoundHandler</property>
  <property name="meta.attr.major_brand.markup">isom</property>
  <property name="meta.attr.minor_version.markup">512</property>
  <property name="meta.attr.compatible_brands.markup">isomiso2avc1mp41</property>
  <property name="meta.attr.encoder.markup">Lavf58.29.100</property>
  <property name="seekable">1</property>
  <property name="meta.media.sample_aspect_num">1</property>
  <property name="meta.media.sample_aspect_den">1</property>
  <property name="aspect_ratio">1</property>
  <property name="kdenlive:clipname"/>
  <property name="kdenlive:folderid">-1</property>
  <property name="meta.media.frame_rate_num">30</property>
  <property name="meta.media.frame_rate_den">1</property>
  <property name="meta.media.colorspace">709</property>
  <property name="meta.media.color_trc">1</property>
  <property name="meta.media.width">1280</property>
  <property name="meta.media.height">720</property>
  <property name="meta.media.color_range">mpeg</property>
  <property name="kdenlive:id">27</property>
  <property name="kdenlive:file_size">24810046</property>
  <property name="kdenlive:file_hash">07a909afecc89b1dfc78769b144f4808</property>
 </producer>
 <producer id="producer26" in="00:00:00.000" out="00:00:12.760">
  <property name="length">320</property>
  <property name="eof">pause</property>
  <property name="resource">vid_files/0_clips/2021-08-16 11-00-16.mp4</property>
  <property name="audio_index">1</property>
  <property name="video_index">0</property>
  <property name="mute_on_pause">0</property>
  <property name="mlt_service">avformat-novalidate</property>
  <property name="meta.media.nb_streams">2</property>
  <property name="meta.media.0.stream.type">video</property>
  <property name="meta.media.0.stream.frame_rate">30</property>
  <property name="meta.media.0.stream.sample_aspect_ratio">0</property>
  <property name="meta.media.0.codec.width">1280</property>
  <property name="meta.media.0.codec.height">720</property>
  <property name="meta.media.0.codec.rotate">0</property>
  <property name="meta.media.0.codec.frame_rate">30</property>
  <property name="meta.media.0.codec.pix_fmt">yuv420p</property>
  <property name="meta.media.0.codec.sample_aspect_ratio">1</property>
  <property name="meta.media.0.codec.colorspace">709</property>
  <property name="meta.media.0.codec.color_trc">1</property>
  <property name="meta.media.0.codec.name">h264</property>
  <property name="meta.media.0.codec.long_name">H.264 / AVC / MPEG-4 AVC / MPEG-4 part 10</property>
  <property name="meta.media.0.codec.bit_rate">3938459</property>
  <property name="meta.attr.0.stream.handler_name.markup">VideoHandler</property>
  <property name="meta.media.1.stream.type">audio</property>
  <property name="meta.media.1.codec.sample_fmt">fltp</property>
  <property name="meta.media.1.codec.sample_rate">48000</property>
  <property name="meta.media.1.codec.channels">2</property>
  <property name="meta.media.1.codec.name">aac</property>
  <property name="meta.media.1.codec.long_name">AAC (Advanced Audio Coding)</property>
  <property name="meta.media.1.codec.bit_rate">192721</property>
  <property name="meta.attr.1.stream.handler_name.markup">SoundHandler</property>
  <property name="meta.attr.major_brand.markup">isom</property>
  <property name="meta.attr.minor_version.markup">512</property>
  <property name="meta.attr.compatible_brands.markup">isomiso2avc1mp41</property>
  <property name="meta.attr.encoder.markup">Lavf58.29.100</property>
  <property name="seekable">1</property>
  <property name="meta.media.sample_aspect_num">1</property>
  <property name="meta.media.sample_aspect_den">1</property>
  <property name="aspect_ratio">1</property>
  <property name="kdenlive:clipname"/>
  <property name="kdenlive:folderid">-1</property>
  <property name="meta.media.frame_rate_num">30</property>
  <property name="meta.media.frame_rate_den">1</property>
  <property name="meta.media.colorspace">709</property>
  <property name="meta.media.color_trc">1</property>
  <property name="meta.media.width">1280</property>
  <property name="meta.media.height">720</property>
  <property name="meta.media.color_range">mpeg</property>
  <property name="kdenlive:id">28</property>
  <property name="kdenlive:file_size">6623284</property>
  <property name="kdenlive:file_hash">5b4d67648268b0cdddfcab501efc1792</property>
 </producer>
 <producer id="producer27" in="00:00:00.000" out="00:00:36.040">
  <property name="length">902</property>
  <property name="eof">pause</property>
  <property name="resource">vid_files/0_clips/2021-08-16 11-05-49.mp4</property>
  <property name="audio_index">1</property>
  <property name="video_index">0</property>
  <property name="mute_on_pause">0</property>
  <property name="mlt_service">avformat-novalidate</property>
  <property name="meta.media.nb_streams">2</property>
  <property name="meta.media.0.stream.type">video</property>
  <property name="meta.media.0.stream.frame_rate">30</property>
  <property name="meta.media.0.stream.sample_aspect_ratio">0</property>
  <property name="meta.media.0.codec.width">1280</property>
  <property name="meta.media.0.codec.height">720</property>
  <property name="meta.media.0.codec.rotate">0</property>
  <property name="meta.media.0.codec.frame_rate">30</property>
  <property name="meta.media.0.codec.pix_fmt">yuv420p</property>
  <property name="meta.media.0.codec.sample_aspect_ratio">1</property>
  <property name="meta.media.0.codec.colorspace">709</property>
  <property name="meta.media.0.codec.color_trc">1</property>
  <property name="meta.media.0.codec.name">h264</property>
  <property name="meta.media.0.codec.long_name">H.264 / AVC / MPEG-4 AVC / MPEG-4 part 10</property>
  <property name="meta.media.0.codec.bit_rate">3469853</property>
  <property name="meta.attr.0.stream.handler_name.markup">VideoHandler</property>
  <property name="meta.media.1.stream.type">audio</property>
  <property name="meta.media.1.codec.sample_fmt">fltp</property>
  <property name="meta.media.1.codec.sample_rate">48000</property>
  <property name="meta.media.1.codec.channels">2</property>
  <property name="meta.media.1.codec.name">aac</property>
  <property name="meta.media.1.codec.long_name">AAC (Advanced Audio Coding)</property>
  <property name="meta.media.1.codec.bit_rate">192260</property>
  <property name="meta.attr.1.stream.handler_name.markup">SoundHandler</property>
  <property name="meta.attr.major_brand.markup">isom</property>
  <property name="meta.attr.minor_version.markup">512</property>
  <property name="meta.attr.compatible_brands.markup">isomiso2avc1mp41</property>
  <property name="meta.attr.encoder.markup">Lavf58.29.100</property>
  <property name="seekable">1</property>
  <property name="meta.media.sample_aspect_num">1</property>
  <property name="meta.media.sample_aspect_den">1</property>
  <property name="aspect_ratio">1</property>
  <property name="kdenlive:clipname"/>
  <property name="kdenlive:folderid">-1</property>
  <property name="meta.media.frame_rate_num">30</property>
  <property name="meta.media.frame_rate_den">1</property>
  <property name="meta.media.colorspace">709</property>
  <property name="meta.media.color_trc">1</property>
  <property name="meta.media.width">1280</property>
  <property name="meta.media.height">720</property>
  <property name="meta.media.color_range">mpeg</property>
  <property name="kdenlive:id">29</property>
  <property name="kdenlive:file_size">16549260</property>
  <property name="kdenlive:file_hash">5f1873c7f5584eb87993b2c9dc119fa4</property>
  <property name="meta.media.top_field_first">0</property>
  <property name="meta.media.progressive">1</property>
 </producer>
 <producer id="producer28" in="00:00:00.000" out="00:01:02.760">
  <property name="length">1570</property>
  <property name="eof">pause</property>
  <property name="resource">vid_files/0_clips/2021-08-16 11-39-31.mp4</property>
  <property name="audio_index">1</property>
  <property name="video_index">0</property>
  <property name="mute_on_pause">0</property>
  <property name="mlt_service">avformat-novalidate</property>
  <property name="meta.media.nb_streams">2</property>
  <property name="meta.media.0.stream.type">video</property>
  <property name="meta.media.0.stream.frame_rate">30</property>
  <property name="meta.media.0.stream.sample_aspect_ratio">0</property>
  <property name="meta.media.0.codec.width">1280</property>
  <property name="meta.media.0.codec.height">720</property>
  <property name="meta.media.0.codec.rotate">0</property>
  <property name="meta.media.0.codec.frame_rate">30</property>
  <property name="meta.media.0.codec.pix_fmt">yuv420p</property>
  <property name="meta.media.0.codec.sample_aspect_ratio">1</property>
  <property name="meta.media.0.codec.colorspace">709</property>
  <property name="meta.media.0.codec.color_trc">1</property>
  <property name="meta.media.0.codec.name">h264</property>
  <property name="meta.media.0.codec.long_name">H.264 / AVC / MPEG-4 AVC / MPEG-4 part 10</property>
  <property name="meta.media.0.codec.bit_rate">3810981</property>
  <property name="meta.attr.0.stream.handler_name.markup">VideoHandler</property>
  <property name="meta.media.1.stream.type">audio</property>
  <property name="meta.media.1.codec.sample_fmt">fltp</property>
  <property name="meta.media.1.codec.sample_rate">48000</property>
  <property name="meta.media.1.codec.channels">2</property>
  <property name="meta.media.1.codec.name">aac</property>
  <property name="meta.media.1.codec.long_name">AAC (Advanced Audio Coding)</property>
  <property name="meta.media.1.codec.bit_rate">192145</property>
  <property name="meta.attr.1.stream.handler_name.markup">SoundHandler</property>
  <property name="meta.attr.major_brand.markup">isom</property>
  <property name="meta.attr.minor_version.markup">512</property>
  <property name="meta.attr.compatible_brands.markup">isomiso2avc1mp41</property>
  <property name="meta.attr.encoder.markup">Lavf58.29.100</property>
  <property name="seekable">1</property>
  <property name="meta.media.sample_aspect_num">1</property>
  <property name="meta.media.sample_aspect_den">1</property>
  <property name="aspect_ratio">1</property>
  <property name="kdenlive:clipname"/>
  <property name="kdenlive:folderid">-1</property>
  <property name="meta.media.frame_rate_num">30</property>
  <property name="meta.media.frame_rate_den">1</property>
  <property name="meta.media.colorspace">709</property>
  <property name="meta.media.color_trc">1</property>
  <property name="meta.media.width">1280</property>
  <property name="meta.media.height">720</property>
  <property name="meta.media.color_range">mpeg</property>
  <property name="kdenlive:id">30</property>
  <property name="kdenlive:file_size">31493113</property>
  <property name="kdenlive:file_hash">f58cb3cf41ad699d7986d53c1d1573fb</property>
  <property name="kdenlive:audio_max">17</property>
  <property name="meta.media.top_field_first">0</property>
  <property name="meta.media.progressive">1</property>
  <property name="global_feed">1</property>
 </producer>
 <producer id="producer29" in="00:00:00.000" out="00:00:51.280">
  <property name="length">1283</property>
  <property name="eof">pause</property>
  <property name="resource">vid_files/0_clips/2021-08-16 11-43-29.mp4</property>
  <property name="audio_index">1</property>
  <property name="video_index">0</property>
  <property name="mute_on_pause">0</property>
  <property name="mlt_service">avformat-novalidate</property>
  <property name="meta.media.nb_streams">2</property>
  <property name="meta.media.0.stream.type">video</property>
  <property name="meta.media.0.stream.frame_rate">30</property>
  <property name="meta.media.0.stream.sample_aspect_ratio">0</property>
  <property name="meta.media.0.codec.width">1280</property>
  <property name="meta.media.0.codec.height">720</property>
  <property name="meta.media.0.codec.rotate">0</property>
  <property name="meta.media.0.codec.frame_rate">30</property>
  <property name="meta.media.0.codec.pix_fmt">yuv420p</property>
  <property name="meta.media.0.codec.sample_aspect_ratio">1</property>
  <property name="meta.media.0.codec.colorspace">709</property>
  <property name="meta.media.0.codec.color_trc">1</property>
  <property name="meta.media.0.codec.name">h264</property>
  <property name="meta.media.0.codec.long_name">H.264 / AVC / MPEG-4 AVC / MPEG-4 part 10</property>
  <property name="meta.media.0.codec.bit_rate">3650537</property>
  <property name="meta.attr.0.stream.handler_name.markup">VideoHandler</property>
  <property name="meta.media.1.stream.type">audio</property>
  <property name="meta.media.1.codec.sample_fmt">fltp</property>
  <property name="meta.media.1.codec.sample_rate">48000</property>
  <property name="meta.media.1.codec.channels">2</property>
  <property name="meta.media.1.codec.name">aac</property>
  <property name="meta.media.1.codec.long_name">AAC (Advanced Audio Coding)</property>
  <property name="meta.media.1.codec.bit_rate">192167</property>
  <property name="meta.attr.1.stream.handler_name.markup">SoundHandler</property>
  <property name="meta.attr.major_brand.markup">isom</property>
  <property name="meta.attr.minor_version.markup">512</property>
  <property name="meta.attr.compatible_brands.markup">isomiso2avc1mp41</property>
  <property name="meta.attr.encoder.markup">Lavf58.29.100</property>
  <property name="seekable">1</property>
  <property name="meta.media.sample_aspect_num">1</property>
  <property name="meta.media.sample_aspect_den">1</property>
  <property name="aspect_ratio">1</property>
  <property name="kdenlive:clipname"/>
  <property name="kdenlive:folderid">-1</property>
  <property name="meta.media.frame_rate_num">30</property>
  <property name="meta.media.frame_rate_den">1</property>
  <property name="meta.media.colorspace">709</property>
  <property name="meta.media.color_trc">1</property>
  <property name="meta.media.width">1280</property>
  <property name="meta.media.height">720</property>
  <property name="meta.media.color_range">mpeg</property>
  <property name="kdenlive:id">31</property>
  <property name="kdenlive:file_size">24713548</property>
  <property name="kdenlive:file_hash">502678ebb8544310237ccbd92dfc59bf</property>
  <property name="kdenlive:audio_max">18</property>
  <property name="meta.media.top_field_first">0</property>
  <property name="meta.media.progressive">1</property>
  <property name="global_feed">1</property>
 </producer>
 <producer id="producer30" in="00:00:00.000" out="00:00:27.280">
  <property name="length">683</property>
  <property name="eof">pause</property>
  <property name="resource">vid_files/0_clips/2021-08-16 11-44-25.mp4</property>
  <property name="audio_index">1</property>
  <property name="video_index">0</property>
  <property name="mute_on_pause">0</property>
  <property name="mlt_service">avformat-novalidate</property>
  <property name="meta.media.nb_streams">2</property>
  <property name="meta.media.0.stream.type">video</property>
  <property name="meta.media.0.stream.frame_rate">30</property>
  <property name="meta.media.0.stream.sample_aspect_ratio">0</property>
  <property name="meta.media.0.codec.width">1280</property>
  <property name="meta.media.0.codec.height">720</property>
  <property name="meta.media.0.codec.rotate">0</property>
  <property name="meta.media.0.codec.frame_rate">30</property>
  <property name="meta.media.0.codec.pix_fmt">yuv420p</property>
  <property name="meta.media.0.codec.sample_aspect_ratio">1</property>
  <property name="meta.media.0.codec.colorspace">709</property>
  <property name="meta.media.0.codec.color_trc">1</property>
  <property name="meta.media.0.codec.name">h264</property>
  <property name="meta.media.0.codec.long_name">H.264 / AVC / MPEG-4 AVC / MPEG-4 part 10</property>
  <property name="meta.media.0.codec.bit_rate">3660157</property>
  <property name="meta.attr.0.stream.handler_name.markup">VideoHandler</property>
  <property name="meta.media.1.stream.type">audio</property>
  <property name="meta.media.1.codec.sample_fmt">fltp</property>
  <property name="meta.media.1.codec.sample_rate">48000</property>
  <property name="meta.media.1.codec.channels">2</property>
  <property name="meta.media.1.codec.name">aac</property>
  <property name="meta.media.1.codec.long_name">AAC (Advanced Audio Coding)</property>
  <property name="meta.media.1.codec.bit_rate">192349</property>
  <property name="meta.attr.1.stream.handler_name.markup">SoundHandler</property>
  <property name="meta.attr.major_brand.markup">isom</property>
  <property name="meta.attr.minor_version.markup">512</property>
  <property name="meta.attr.compatible_brands.markup">isomiso2avc1mp41</property>
  <property name="meta.attr.encoder.markup">Lavf58.29.100</property>
  <property name="seekable">1</property>
  <property name="meta.media.sample_aspect_num">1</property>
  <property name="meta.media.sample_aspect_den">1</property>
  <property name="aspect_ratio">1</property>
  <property name="kdenlive:clipname"/>
  <property name="kdenlive:folderid">-1</property>
  <property name="meta.media.frame_rate_num">30</property>
  <property name="meta.media.frame_rate_den">1</property>
  <property name="meta.media.colorspace">709</property>
  <property name="meta.media.color_trc">1</property>
  <property name="meta.media.width">1280</property>
  <property name="meta.media.height">720</property>
  <property name="meta.media.color_range">mpeg</property>
  <property name="kdenlive:id">32</property>
  <property name="kdenlive:file_size">13192503</property>
  <property name="kdenlive:file_hash">4118eda80937cf65bdbe950f704ea6d7</property>
  <property name="kdenlive:audio_max">15</property>
  <property name="meta.media.top_field_first">0</property>
  <property name="meta.media.progressive">1</property>
  <property name="global_feed">1</property>
 </producer>
 <producer id="producer31" in="00:00:00.000" out="00:00:38.200">
  <property name="length">956</property>
  <property name="eof">pause</property>
  <property name="resource">vid_files/0_clips/2021-08-16 11-44-58.mp4</property>
  <property name="audio_index">1</property>
  <property name="video_index">0</property>
  <property name="mute_on_pause">0</property>
  <property name="mlt_service">avformat-novalidate</property>
  <property name="meta.media.nb_streams">2</property>
  <property name="meta.media.0.stream.type">video</property>
  <property name="meta.media.0.stream.frame_rate">30</property>
  <property name="meta.media.0.stream.sample_aspect_ratio">0</property>
  <property name="meta.media.0.codec.width">1280</property>
  <property name="meta.media.0.codec.height">720</property>
  <property name="meta.media.0.codec.rotate">0</property>
  <property name="meta.media.0.codec.frame_rate">30</property>
  <property name="meta.media.0.codec.pix_fmt">yuv420p</property>
  <property name="meta.media.0.codec.sample_aspect_ratio">1</property>
  <property name="meta.media.0.codec.colorspace">709</property>
  <property name="meta.media.0.codec.color_trc">1</property>
  <property name="meta.media.0.codec.name">h264</property>
  <property name="meta.media.0.codec.long_name">H.264 / AVC / MPEG-4 AVC / MPEG-4 part 10</property>
  <property name="meta.media.0.codec.bit_rate">3668943</property>
  <property name="meta.attr.0.stream.handler_name.markup">VideoHandler</property>
  <property name="meta.media.1.stream.type">audio</property>
  <property name="meta.media.1.codec.sample_fmt">fltp</property>
  <property name="meta.media.1.codec.sample_rate">48000</property>
  <property name="meta.media.1.codec.channels">2</property>
  <property name="meta.media.1.codec.name">aac</property>
  <property name="meta.media.1.codec.long_name">AAC (Advanced Audio Coding)</property>
  <property name="meta.media.1.codec.bit_rate">192236</property>
  <property name="meta.attr.1.stream.handler_name.markup">SoundHandler</property>
  <property name="meta.attr.major_brand.markup">isom</property>
  <property name="meta.attr.minor_version.markup">512</property>
  <property name="meta.attr.compatible_brands.markup">isomiso2avc1mp41</property>
  <property name="meta.attr.encoder.markup">Lavf58.29.100</property>
  <property name="seekable">1</property>
  <property name="meta.media.sample_aspect_num">1</property>
  <property name="meta.media.sample_aspect_den">1</property>
  <property name="aspect_ratio">1</property>
  <property name="kdenlive:clipname"/>
  <property name="kdenlive:folderid">-1</property>
  <property name="meta.media.frame_rate_num">30</property>
  <property name="meta.media.frame_rate_den">1</property>
  <property name="meta.media.colorspace">709</property>
  <property name="meta.media.color_trc">1</property>
  <property name="meta.media.width">1280</property>
  <property name="meta.media.height">720</property>
  <property name="meta.media.color_range">mpeg</property>
  <property name="kdenlive:id">33</property>
  <property name="kdenlive:file_size">18495072</property>
  <property name="kdenlive:file_hash">8f603ff06d4b9e6a6e679c28da114e2f</property>
  <property name="kdenlive:audio_max">13</property>
  <property name="global_feed">1</property>
 </producer>
 <producer id="producer32" in="00:00:00.000" out="00:00:36.440">
  <property name="length">912</property>
  <property name="eof">pause</property>
  <property name="resource">vid_files/0_clips/2021-08-16 11-45-41.mp4</property>
  <property name="audio_index">1</property>
  <property name="video_index">0</property>
  <property name="mute_on_pause">0</property>
  <property name="mlt_service">avformat-novalidate</property>
  <property name="meta.media.nb_streams">2</property>
  <property name="meta.media.0.stream.type">video</property>
  <property name="meta.media.0.stream.frame_rate">30</property>
  <property name="meta.media.0.stream.sample_aspect_ratio">0</property>
  <property name="meta.media.0.codec.width">1280</property>
  <property name="meta.media.0.codec.height">720</property>
  <property name="meta.media.0.codec.rotate">0</property>
  <property name="meta.media.0.codec.frame_rate">30</property>
  <property name="meta.media.0.codec.pix_fmt">yuv420p</property>
  <property name="meta.media.0.codec.sample_aspect_ratio">1</property>
  <property name="meta.media.0.codec.colorspace">709</property>
  <property name="meta.media.0.codec.color_trc">1</property>
  <property name="meta.media.0.codec.name">h264</property>
  <property name="meta.media.0.codec.long_name">H.264 / AVC / MPEG-4 AVC / MPEG-4 part 10</property>
  <property name="meta.media.0.codec.bit_rate">3674899</property>
  <property name="meta.attr.0.stream.handler_name.markup">VideoHandler</property>
  <property name="meta.media.1.stream.type">audio</property>
  <property name="meta.media.1.codec.sample_fmt">fltp</property>
  <property name="meta.media.1.codec.sample_rate">48000</property>
  <property name="meta.media.1.codec.channels">2</property>
  <property name="meta.media.1.codec.name">aac</property>
  <property name="meta.media.1.codec.long_name">AAC (Advanced Audio Coding)</property>
  <property name="meta.media.1.codec.bit_rate">192245</property>
  <property name="meta.attr.1.stream.handler_name.markup">SoundHandler</property>
  <property name="meta.attr.major_brand.markup">isom</property>
  <property name="meta.attr.minor_version.markup">512</property>
  <property name="meta.attr.compatible_brands.markup">isomiso2avc1mp41</property>
  <property name="meta.attr.encoder.markup">Lavf58.29.100</property>
  <property name="seekable">1</property>
  <property name="meta.media.sample_aspect_num">1</property>
  <property name="meta.media.sample_aspect_den">1</property>
  <property name="aspect_ratio">1</property>
  <property name="kdenlive:clipname"/>
  <property name="kdenlive:folderid">-1</property>
  <property name="meta.media.frame_rate_num">30</property>
  <property name="meta.media.frame_rate_den">1</property>
  <property name="meta.media.colorspace">709</property>
  <property name="meta.media.color_trc">1</property>
  <property name="meta.media.width">1280</property>
  <property name="meta.media.height">720</property>
  <property name="meta.media.color_range">mpeg</property>
  <property name="kdenlive:id">34</property>
  <property name="kdenlive:file_size">17667492</property>
  <property name="kdenlive:file_hash">0e3d7817a5f8bfa89a64e1343f9ba1e9</property>
  <property name="kdenlive:audio_max">13</property>
  <property name="global_feed">1</property>
 </producer>
 <producer id="producer33" in="00:00:00.000" out="00:03:45.280">
  <property name="length">5633</property>
  <property name="eof">pause</property>
  <property name="resource">vid_files/0_clips/2021-08-16 11-55-32.mp4</property>
  <property name="audio_index">1</property>
  <property name="video_index">0</property>
  <property name="mute_on_pause">0</property>
  <property name="mlt_service">avformat-novalidate</property>
  <property name="meta.media.nb_streams">2</property>
  <property name="meta.media.0.stream.type">video</property>
  <property name="meta.media.0.stream.frame_rate">30</property>
  <property name="meta.media.0.stream.sample_aspect_ratio">0</property>
  <property name="meta.media.0.codec.width">1280</property>
  <property name="meta.media.0.codec.height">720</property>
  <property name="meta.media.0.codec.rotate">0</property>
  <property name="meta.media.0.codec.frame_rate">30</property>
  <property name="meta.media.0.codec.pix_fmt">yuv420p</property>
  <property name="meta.media.0.codec.sample_aspect_ratio">1</property>
  <property name="meta.media.0.codec.colorspace">709</property>
  <property name="meta.media.0.codec.color_trc">1</property>
  <property name="meta.media.0.codec.name">h264</property>
  <property name="meta.media.0.codec.long_name">H.264 / AVC / MPEG-4 AVC / MPEG-4 part 10</property>
  <property name="meta.media.0.codec.bit_rate">4033900</property>
  <property name="meta.attr.0.stream.handler_name.markup">VideoHandler</property>
  <property name="meta.media.1.stream.type">audio</property>
  <property name="meta.media.1.codec.sample_fmt">fltp</property>
  <property name="meta.media.1.codec.sample_rate">48000</property>
  <property name="meta.media.1.codec.channels">2</property>
  <property name="meta.media.1.codec.name">aac</property>
  <property name="meta.media.1.codec.long_name">AAC (Advanced Audio Coding)</property>
  <property name="meta.media.1.codec.bit_rate">192043</property>
  <property name="meta.attr.1.stream.handler_name.markup">SoundHandler</property>
  <property name="meta.attr.major_brand.markup">isom</property>
  <property name="meta.attr.minor_version.markup">512</property>
  <property name="meta.attr.compatible_brands.markup">isomiso2avc1mp41</property>
  <property name="meta.attr.encoder.markup">Lavf58.29.100</property>
  <property name="seekable">1</property>
  <property name="meta.media.sample_aspect_num">1</property>
  <property name="meta.media.sample_aspect_den">1</property>
  <property name="aspect_ratio">1</property>
  <property name="kdenlive:clipname"/>
  <property name="kdenlive:folderid">-1</property>
  <property name="meta.media.frame_rate_num">30</property>
  <property name="meta.media.frame_rate_den">1</property>
  <property name="meta.media.colorspace">709</property>
  <property name="meta.media.color_trc">1</property>
  <property name="meta.media.width">1280</property>
  <property name="meta.media.height">720</property>
  <property name="meta.media.color_range">mpeg</property>
  <property name="kdenlive:id">35</property>
  <property name="kdenlive:file_size">119278269</property>
  <property name="kdenlive:file_hash">c60e4b4037ec881ea1a30dda2bd6a1a0</property>
  <property name="kdenlive:audio_max">11</property>
  <property name="global_feed">1</property>
 </producer>
 <producer id="producer34" in="00:00:00.000" out="00:00:34.040">
  <property name="length">852</property>
  <property name="eof">pause</property>
  <property name="resource">vid_files/0_clips/2021-08-16 12-00-10.mp4</property>
  <property name="audio_index">1</property>
  <property name="video_index">0</property>
  <property name="mute_on_pause">0</property>
  <property name="mlt_service">avformat-novalidate</property>
  <property name="meta.media.nb_streams">2</property>
  <property name="meta.media.0.stream.type">video</property>
  <property name="meta.media.0.stream.frame_rate">30</property>
  <property name="meta.media.0.stream.sample_aspect_ratio">0</property>
  <property name="meta.media.0.codec.width">1280</property>
  <property name="meta.media.0.codec.height">720</property>
  <property name="meta.media.0.codec.rotate">0</property>
  <property name="meta.media.0.codec.frame_rate">30</property>
  <property name="meta.media.0.codec.pix_fmt">yuv420p</property>
  <property name="meta.media.0.codec.sample_aspect_ratio">1</property>
  <property name="meta.media.0.codec.colorspace">709</property>
  <property name="meta.media.0.codec.color_trc">1</property>
  <property name="meta.media.0.codec.name">h264</property>
  <property name="meta.media.0.codec.long_name">H.264 / AVC / MPEG-4 AVC / MPEG-4 part 10</property>
  <property name="meta.media.0.codec.bit_rate">4109638</property>
  <property name="meta.attr.0.stream.handler_name.markup">VideoHandler</property>
  <property name="meta.media.1.stream.type">audio</property>
  <property name="meta.media.1.codec.sample_fmt">fltp</property>
  <property name="meta.media.1.codec.sample_rate">48000</property>
  <property name="meta.media.1.codec.channels">2</property>
  <property name="meta.media.1.codec.name">aac</property>
  <property name="meta.media.1.codec.long_name">AAC (Advanced Audio Coding)</property>
  <property name="meta.media.1.codec.bit_rate">192280</property>
  <property name="meta.attr.1.stream.handler_name.markup">SoundHandler</property>
  <property name="meta.attr.major_brand.markup">isom</property>
  <property name="meta.attr.minor_version.markup">512</property>
  <property name="meta.attr.compatible_brands.markup">isomiso2avc1mp41</property>
  <property name="meta.attr.encoder.markup">Lavf58.29.100</property>
  <property name="seekable">1</property>
  <property name="meta.media.sample_aspect_num">1</property>
  <property name="meta.media.sample_aspect_den">1</property>
  <property name="aspect_ratio">1</property>
  <property name="kdenlive:clipname"/>
  <property name="kdenlive:folderid">-1</property>
  <property name="meta.media.frame_rate_num">30</property>
  <property name="meta.media.frame_rate_den">1</property>
  <property name="meta.media.colorspace">709</property>
  <property name="meta.media.color_trc">1</property>
  <property name="meta.media.width">1280</property>
  <property name="meta.media.height">720</property>
  <property name="meta.media.color_range">mpeg</property>
  <property name="kdenlive:id">36</property>
  <property name="kdenlive:file_size">18355878</property>
  <property name="kdenlive:file_hash">3cdd261788a7f0e6be099eb185e2abc2</property>
  <property name="kdenlive:audio_max">14</property>
  <property name="global_feed">1</property>
 </producer>
 <producer id="producer35" in="00:00:00.000" out="00:00:42.520">
  <property name="length">1064</property>
  <property name="eof">pause</property>
  <property name="resource">vid_files/0_clips/2021-08-16 12-01-28.mp4</property>
  <property name="audio_index">1</property>
  <property name="video_index">0</property>
  <property name="mute_on_pause">0</property>
  <property name="mlt_service">avformat-novalidate</property>
  <property name="meta.media.nb_streams">2</property>
  <property name="meta.media.0.stream.type">video</property>
  <property name="meta.media.0.stream.frame_rate">30</property>
  <property name="meta.media.0.stream.sample_aspect_ratio">0</property>
  <property name="meta.media.0.codec.width">1280</property>
  <property name="meta.media.0.codec.height">720</property>
  <property name="meta.media.0.codec.rotate">0</property>
  <property name="meta.media.0.codec.frame_rate">30</property>
  <property name="meta.media.0.codec.pix_fmt">yuv420p</property>
  <property name="meta.media.0.codec.sample_aspect_ratio">1</property>
  <property name="meta.media.0.codec.colorspace">709</property>
  <property name="meta.media.0.codec.color_trc">1</property>
  <property name="meta.media.0.codec.name">h264</property>
  <property name="meta.media.0.codec.long_name">H.264 / AVC / MPEG-4 AVC / MPEG-4 part 10</property>
  <property name="meta.media.0.codec.bit_rate">4230224</property>
  <property name="meta.attr.0.stream.handler_name.markup">VideoHandler</property>
  <property name="meta.media.1.stream.type">audio</property>
  <property name="meta.media.1.codec.sample_fmt">fltp</property>
  <property name="meta.media.1.codec.sample_rate">48000</property>
  <property name="meta.media.1.codec.channels">2</property>
  <property name="meta.media.1.codec.name">aac</property>
  <property name="meta.media.1.codec.long_name">AAC (Advanced Audio Coding)</property>
  <property name="meta.media.1.codec.bit_rate">192206</property>
  <property name="meta.attr.1.stream.handler_name.markup">SoundHandler</property>
  <property name="meta.attr.major_brand.markup">isom</property>
  <property name="meta.attr.minor_version.markup">512</property>
  <property name="meta.attr.compatible_brands.markup">isomiso2avc1mp41</property>
  <property name="meta.attr.encoder.markup">Lavf58.29.100</property>
  <property name="seekable">1</property>
  <property name="meta.media.sample_aspect_num">1</property>
  <property name="meta.media.sample_aspect_den">1</property>
  <property name="aspect_ratio">1</property>
  <property name="kdenlive:clipname"/>
  <property name="kdenlive:folderid">-1</property>
  <property name="meta.media.frame_rate_num">30</property>
  <property name="meta.media.frame_rate_den">1</property>
  <property name="meta.media.colorspace">709</property>
  <property name="meta.media.color_trc">1</property>
  <property name="meta.media.width">1280</property>
  <property name="meta.media.height">720</property>
  <property name="meta.media.color_range">mpeg</property>
  <property name="kdenlive:id">37</property>
  <property name="kdenlive:file_size">23577499</property>
  <property name="kdenlive:file_hash">2201247ec78ce23104e56911a157024f</property>
  <property name="kdenlive:audio_max">15</property>
  <property name="meta.media.top_field_first">0</property>
  <property name="meta.media.progressive">1</property>
  <property name="global_feed">1</property>
 </producer>
 <producer id="producer36" in="00:00:00.000" out="00:00:47.560">
  <property name="length">1190</property>
  <property name="eof">pause</property>
  <property name="resource">vid_files/0_clips/2021-08-16 12-02-21.mp4</property>
  <property name="audio_index">1</property>
  <property name="video_index">0</property>
  <property name="mute_on_pause">0</property>
  <property name="mlt_service">avformat-novalidate</property>
  <property name="meta.media.nb_streams">2</property>
  <property name="meta.media.0.stream.type">video</property>
  <property name="meta.media.0.stream.frame_rate">30</property>
  <property name="meta.media.0.stream.sample_aspect_ratio">0</property>
  <property name="meta.media.0.codec.width">1280</property>
  <property name="meta.media.0.codec.height">720</property>
  <property name="meta.media.0.codec.rotate">0</property>
  <property name="meta.media.0.codec.frame_rate">30</property>
  <property name="meta.media.0.codec.pix_fmt">yuv420p</property>
  <property name="meta.media.0.codec.sample_aspect_ratio">1</property>
  <property name="meta.media.0.codec.colorspace">709</property>
  <property name="meta.media.0.codec.color_trc">1</property>
  <property name="meta.media.0.codec.name">h264</property>
  <property name="meta.media.0.codec.long_name">H.264 / AVC / MPEG-4 AVC / MPEG-4 part 10</property>
  <property name="meta.media.0.codec.bit_rate">4030159</property>
  <property name="meta.attr.0.stream.handler_name.markup">VideoHandler</property>
  <property name="meta.media.1.stream.type">audio</property>
  <property name="meta.media.1.codec.sample_fmt">fltp</property>
  <property name="meta.media.1.codec.sample_rate">48000</property>
  <property name="meta.media.1.codec.channels">2</property>
  <property name="meta.media.1.codec.name">aac</property>
  <property name="meta.media.1.codec.long_name">AAC (Advanced Audio Coding)</property>
  <property name="meta.media.1.codec.bit_rate">192199</property>
  <property name="meta.attr.1.stream.handler_name.markup">SoundHandler</property>
  <property name="meta.attr.major_brand.markup">isom</property>
  <property name="meta.attr.minor_version.markup">512</property>
  <property name="meta.attr.compatible_brands.markup">isomiso2avc1mp41</property>
  <property name="meta.attr.encoder.markup">Lavf58.29.100</property>
  <property name="seekable">1</property>
  <property name="meta.media.sample_aspect_num">1</property>
  <property name="meta.media.sample_aspect_den">1</property>
  <property name="aspect_ratio">1</property>
  <property name="kdenlive:clipname"/>
  <property name="kdenlive:folderid">-1</property>
  <property name="meta.media.frame_rate_num">30</property>
  <property name="meta.media.frame_rate_den">1</property>
  <property name="meta.media.colorspace">709</property>
  <property name="meta.media.color_trc">1</property>
  <property name="meta.media.width">1280</property>
  <property name="meta.media.height">720</property>
  <property name="meta.media.color_range">mpeg</property>
  <property name="kdenlive:id">38</property>
  <property name="kdenlive:file_size">25175078</property>
  <property name="kdenlive:file_hash">d0796d11130392d6814bac26c724b549</property>
  <property name="kdenlive:audio_max">13</property>
  <property name="global_feed">1</property>
 </producer>
 <producer id="producer37" in="00:00:00.000" out="00:00:10.440">
  <property name="length">262</property>
  <property name="eof">pause</property>
  <property name="resource">vid_files/0_clips/2021-08-16 12-03-44.mp4</property>
  <property name="audio_index">1</property>
  <property name="video_index">0</property>
  <property name="mute_on_pause">0</property>
  <property name="mlt_service">avformat-novalidate</property>
  <property name="meta.media.nb_streams">2</property>
  <property name="meta.media.0.stream.type">video</property>
  <property name="meta.media.0.stream.frame_rate">30</property>
  <property name="meta.media.0.stream.sample_aspect_ratio">0</property>
  <property name="meta.media.0.codec.width">1280</property>
  <property name="meta.media.0.codec.height">720</property>
  <property name="meta.media.0.codec.rotate">0</property>
  <property name="meta.media.0.codec.frame_rate">30</property>
  <property name="meta.media.0.codec.pix_fmt">yuv420p</property>
  <property name="meta.media.0.codec.sample_aspect_ratio">1</property>
  <property name="meta.media.0.codec.colorspace">709</property>
  <property name="meta.media.0.codec.color_trc">1</property>
  <property name="meta.media.0.codec.name">h264</property>
  <property name="meta.media.0.codec.long_name">H.264 / AVC / MPEG-4 AVC / MPEG-4 part 10</property>
  <property name="meta.media.0.codec.bit_rate">4215471</property>
  <property name="meta.attr.0.stream.handler_name.markup">VideoHandler</property>
  <property name="meta.media.1.stream.type">audio</property>
  <property name="meta.media.1.codec.sample_fmt">fltp</property>
  <property name="meta.media.1.codec.sample_rate">48000</property>
  <property name="meta.media.1.codec.channels">2</property>
  <property name="meta.media.1.codec.name">aac</property>
  <property name="meta.media.1.codec.long_name">AAC (Advanced Audio Coding)</property>
  <property name="meta.media.1.codec.bit_rate">192857</property>
  <property name="meta.attr.1.stream.handler_name.markup">SoundHandler</property>
  <property name="meta.attr.major_brand.markup">isom</property>
  <property name="meta.attr.minor_version.markup">512</property>
  <property name="meta.attr.compatible_brands.markup">isomiso2avc1mp41</property>
  <property name="meta.attr.encoder.markup">Lavf58.29.100</property>
  <property name="seekable">1</property>
  <property name="meta.media.sample_aspect_num">1</property>
  <property name="meta.media.sample_aspect_den">1</property>
  <property name="aspect_ratio">1</property>
  <property name="kdenlive:clipname"/>
  <property name="kdenlive:folderid">-1</property>
  <property name="meta.media.frame_rate_num">30</property>
  <property name="meta.media.frame_rate_den">1</property>
  <property name="meta.media.colorspace">709</property>
  <property name="meta.media.color_trc">1</property>
  <property name="meta.media.width">1280</property>
  <property name="meta.media.height">720</property>
  <property name="meta.media.color_range">mpeg</property>
  <property name="kdenlive:id">39</property>
  <property name="kdenlive:file_size">5797203</property>
  <property name="kdenlive:file_hash">9fc07229c85c90693b700b9a4f3c9211</property>
  <property name="kdenlive:audio_max">14</property>
  <property name="global_feed">1</property>
 </producer>
 <producer id="producer38" in="00:00:00.000" out="00:00:27.120">
  <property name="length">679</property>
  <property name="eof">pause</property>
  <property name="resource">vid_files/0_clips/2021-08-16 12-04-03.mp4</property>
  <property name="audio_index">1</property>
  <property name="video_index">0</property>
  <property name="mute_on_pause">0</property>
  <property name="mlt_service">avformat-novalidate</property>
  <property name="meta.media.nb_streams">2</property>
  <property name="meta.media.0.stream.type">video</property>
  <property name="meta.media.0.stream.frame_rate">30</property>
  <property name="meta.media.0.stream.sample_aspect_ratio">0</property>
  <property name="meta.media.0.codec.width">1280</property>
  <property name="meta.media.0.codec.height">720</property>
  <property name="meta.media.0.codec.rotate">0</property>
  <property name="meta.media.0.codec.frame_rate">30</property>
  <property name="meta.media.0.codec.pix_fmt">yuv420p</property>
  <property name="meta.media.0.codec.sample_aspect_ratio">1</property>
  <property name="meta.media.0.codec.colorspace">709</property>
  <property name="meta.media.0.codec.color_trc">1</property>
  <property name="meta.media.0.codec.name">h264</property>
  <property name="meta.media.0.codec.long_name">H.264 / AVC / MPEG-4 AVC / MPEG-4 part 10</property>
  <property name="meta.media.0.codec.bit_rate">4172585</property>
  <property name="meta.attr.0.stream.handler_name.markup">VideoHandler</property>
  <property name="meta.media.1.stream.type">audio</property>
  <property name="meta.media.1.codec.sample_fmt">fltp</property>
  <property name="meta.media.1.codec.sample_rate">48000</property>
  <property name="meta.media.1.codec.channels">2</property>
  <property name="meta.media.1.codec.name">aac</property>
  <property name="meta.media.1.codec.long_name">AAC (Advanced Audio Coding)</property>
  <property name="meta.media.1.codec.bit_rate">192343</property>
  <property name="meta.attr.1.stream.handler_name.markup">SoundHandler</property>
  <property name="meta.attr.major_brand.markup">isom</property>
  <property name="meta.attr.minor_version.markup">512</property>
  <property name="meta.attr.compatible_brands.markup">isomiso2avc1mp41</property>
  <property name="meta.attr.encoder.markup">Lavf58.29.100</property>
  <property name="seekable">1</property>
  <property name="meta.media.sample_aspect_num">1</property>
  <property name="meta.media.sample_aspect_den">1</property>
  <property name="aspect_ratio">1</property>
  <property name="kdenlive:clipname"/>
  <property name="kdenlive:folderid">-1</property>
  <property name="meta.media.frame_rate_num">30</property>
  <property name="meta.media.frame_rate_den">1</property>
  <property name="meta.media.colorspace">709</property>
  <property name="meta.media.color_trc">1</property>
  <property name="meta.media.width">1280</property>
  <property name="meta.media.height">720</property>
  <property name="meta.media.color_range">mpeg</property>
  <property name="kdenlive:id">40</property>
  <property name="kdenlive:file_size">14852065</property>
  <property name="kdenlive:file_hash">dc36f3e908d2e4d5e40f1e3f01615d08</property>
  <property name="kdenlive:audio_max">13</property>
  <property name="global_feed">1</property>
 </producer>
 <producer id="producer39" in="00:00:00.000" out="00:01:03.080">
  <property name="length">1578</property>
  <property name="eof">pause</property>
  <property name="resource">vid_files/0_clips/2021-08-16 12-06-30.mp4</property>
  <property name="audio_index">1</property>
  <property name="video_index">0</property>
  <property name="mute_on_pause">0</property>
  <property name="mlt_service">avformat-novalidate</property>
  <property name="meta.media.nb_streams">2</property>
  <property name="meta.media.0.stream.type">video</property>
  <property name="meta.media.0.stream.frame_rate">30</property>
  <property name="meta.media.0.stream.sample_aspect_ratio">0</property>
  <property name="meta.media.0.codec.width">1280</property>
  <property name="meta.media.0.codec.height">720</property>
  <property name="meta.media.0.codec.rotate">0</property>
  <property name="meta.media.0.codec.frame_rate">30</property>
  <property name="meta.media.0.codec.pix_fmt">yuv420p</property>
  <property name="meta.media.0.codec.sample_aspect_ratio">1</property>
  <property name="meta.media.0.codec.colorspace">709</property>
  <property name="meta.media.0.codec.color_trc">1</property>
  <property name="meta.media.0.codec.name">h264</property>
  <property name="meta.media.0.codec.long_name">H.264 / AVC / MPEG-4 AVC / MPEG-4 part 10</property>
  <property name="meta.media.0.codec.bit_rate">4098190</property>
  <property name="meta.attr.0.stream.handler_name.markup">VideoHandler</property>
  <property name="meta.media.1.stream.type">audio</property>
  <property name="meta.media.1.codec.sample_fmt">fltp</property>
  <property name="meta.media.1.codec.sample_rate">48000</property>
  <property name="meta.media.1.codec.channels">2</property>
  <property name="meta.media.1.codec.name">aac</property>
  <property name="meta.media.1.codec.long_name">AAC (Advanced Audio Coding)</property>
  <property name="meta.media.1.codec.bit_rate">192138</property>
  <property name="meta.attr.1.stream.handler_name.markup">SoundHandler</property>
  <property name="meta.attr.major_brand.markup">isom</property>
  <property name="meta.attr.minor_version.markup">512</property>
  <property name="meta.attr.compatible_brands.markup">isomiso2avc1mp41</property>
  <property name="meta.attr.encoder.markup">Lavf58.29.100</property>
  <property name="seekable">1</property>
  <property name="meta.media.sample_aspect_num">1</property>
  <property name="meta.media.sample_aspect_den">1</property>
  <property name="aspect_ratio">1</property>
  <property name="kdenlive:clipname"/>
  <property name="kdenlive:folderid">-1</property>
  <property name="meta.media.frame_rate_num">30</property>
  <property name="meta.media.frame_rate_den">1</property>
  <property name="meta.media.colorspace">709</property>
  <property name="meta.media.color_trc">1</property>
  <property name="meta.media.width">1280</property>
  <property name="meta.media.height">720</property>
  <property name="meta.media.color_range">mpeg</property>
  <property name="kdenlive:id">41</property>
  <property name="kdenlive:file_size">33927028</property>
  <property name="kdenlive:file_hash">01f10cd022a2d3f80133f6e4ed9e7460</property>
  <property name="kdenlive:audio_max">15</property>
  <property name="global_feed">1</property>
 </producer>
 <producer id="producer40" in="00:00:00.000" out="00:01:01.040">
  <property name="length">1527</property>
  <property name="eof">pause</property>
  <property name="resource">vid_files/0_clips/2021-08-16 12-29-52.mp4</property>
  <property name="audio_index">1</property>
  <property name="video_index">0</property>
  <property name="mute_on_pause">0</property>
  <property name="mlt_service">avformat-novalidate</property>
  <property name="meta.media.nb_streams">2</property>
  <property name="meta.media.0.stream.type">video</property>
  <property name="meta.media.0.stream.frame_rate">30</property>
  <property name="meta.media.0.stream.sample_aspect_ratio">0</property>
  <property name="meta.media.0.codec.width">1280</property>
  <property name="meta.media.0.codec.height">720</property>
  <property name="meta.media.0.codec.rotate">0</property>
  <property name="meta.media.0.codec.frame_rate">30</property>
  <property name="meta.media.0.codec.pix_fmt">yuv420p</property>
  <property name="meta.media.0.codec.sample_aspect_ratio">1</property>
  <property name="meta.media.0.codec.colorspace">709</property>
  <property name="meta.media.0.codec.color_trc">1</property>
  <property name="meta.media.0.codec.name">h264</property>
  <property name="meta.media.0.codec.long_name">H.264 / AVC / MPEG-4 AVC / MPEG-4 part 10</property>
  <property name="meta.media.0.codec.bit_rate">5273403</property>
  <property name="meta.attr.0.stream.handler_name.markup">VideoHandler</property>
  <property name="meta.media.1.stream.type">audio</property>
  <property name="meta.media.1.codec.sample_fmt">fltp</property>
  <property name="meta.media.1.codec.sample_rate">48000</property>
  <property name="meta.media.1.codec.channels">2</property>
  <property name="meta.media.1.codec.name">aac</property>
  <property name="meta.media.1.codec.long_name">AAC (Advanced Audio Coding)</property>
  <property name="meta.media.1.codec.bit_rate">192158</property>
  <property name="meta.attr.1.stream.handler_name.markup">SoundHandler</property>
  <property name="meta.attr.major_brand.markup">isom</property>
  <property name="meta.attr.minor_version.markup">512</property>
  <property name="meta.attr.compatible_brands.markup">isomiso2avc1mp41</property>
  <property name="meta.attr.encoder.markup">Lavf58.29.100</property>
  <property name="seekable">1</property>
  <property name="meta.media.sample_aspect_num">1</property>
  <property name="meta.media.sample_aspect_den">1</property>
  <property name="aspect_ratio">1</property>
  <property name="kdenlive:clipname"/>
  <property name="kdenlive:folderid">-1</property>
  <property name="meta.media.frame_rate_num">30</property>
  <property name="meta.media.frame_rate_den">1</property>
  <property name="meta.media.colorspace">709</property>
  <property name="meta.media.color_trc">1</property>
  <property name="meta.media.width">1280</property>
  <property name="meta.media.height">720</property>
  <property name="meta.media.color_range">mpeg</property>
  <property name="kdenlive:id">42</property>
  <property name="kdenlive:file_size">41787275</property>
  <property name="kdenlive:file_hash">56305276afc2292f6d3a150f4bf41c94</property>
  <property name="kdenlive:audio_max">14</property>
  <property name="global_feed">1</property>
 </producer>
 <producer id="producer41" in="00:00:00.000" out="00:00:34.080">
  <property name="length">853</property>
  <property name="eof">pause</property>
  <property name="resource">vid_files/0_clips/2021-08-16 12-31-01.mp4</property>
  <property name="audio_index">1</property>
  <property name="video_index">0</property>
  <property name="mute_on_pause">0</property>
  <property name="mlt_service">avformat-novalidate</property>
  <property name="meta.media.nb_streams">2</property>
  <property name="meta.media.0.stream.type">video</property>
  <property name="meta.media.0.stream.frame_rate">30</property>
  <property name="meta.media.0.stream.sample_aspect_ratio">0</property>
  <property name="meta.media.0.codec.width">1280</property>
  <property name="meta.media.0.codec.height">720</property>
  <property name="meta.media.0.codec.rotate">0</property>
  <property name="meta.media.0.codec.frame_rate">30</property>
  <property name="meta.media.0.codec.pix_fmt">yuv420p</property>
  <property name="meta.media.0.codec.sample_aspect_ratio">1</property>
  <property name="meta.media.0.codec.colorspace">709</property>
  <property name="meta.media.0.codec.color_trc">1</property>
  <property name="meta.media.0.codec.name">h264</property>
  <property name="meta.media.0.codec.long_name">H.264 / AVC / MPEG-4 AVC / MPEG-4 part 10</property>
  <property name="meta.media.0.codec.bit_rate">5635550</property>
  <property name="meta.attr.0.stream.handler_name.markup">VideoHandler</property>
  <property name="meta.media.1.stream.type">audio</property>
  <property name="meta.media.1.codec.sample_fmt">fltp</property>
  <property name="meta.media.1.codec.sample_rate">48000</property>
  <property name="meta.media.1.codec.channels">2</property>
  <property name="meta.media.1.codec.name">aac</property>
  <property name="meta.media.1.codec.long_name">AAC (Advanced Audio Coding)</property>
  <property name="meta.media.1.codec.bit_rate">192282</property>
  <property name="meta.attr.1.stream.handler_name.markup">SoundHandler</property>
  <property name="meta.attr.major_brand.markup">isom</property>
  <property name="meta.attr.minor_version.markup">512</property>
  <property name="meta.attr.compatible_brands.markup">isomiso2avc1mp41</property>
  <property name="meta.attr.encoder.markup">Lavf58.29.100</property>
  <property name="seekable">1</property>
  <property name="meta.media.sample_aspect_num">1</property>
  <property name="meta.media.sample_aspect_den">1</property>
  <property name="aspect_ratio">1</property>
  <property name="kdenlive:clipname"/>
  <property name="kdenlive:folderid">-1</property>
  <property name="meta.media.frame_rate_num">30</property>
  <property name="meta.media.frame_rate_den">1</property>
  <property name="meta.media.colorspace">709</property>
  <property name="meta.media.color_trc">1</property>
  <property name="meta.media.width">1280</property>
  <property name="meta.media.height">720</property>
  <property name="meta.media.color_range">mpeg</property>
  <property name="kdenlive:id">43</property>
  <property name="kdenlive:file_size">24902306</property>
  <property name="kdenlive:file_hash">798724fdf0d31c7504719a9ea30912c8</property>
  <property name="kdenlive:audio_max">15</property>
  <property name="global_feed">1</property>
  <property name="meta.media.top_field_first">0</property>
  <property name="meta.media.progressive">1</property>
 </producer>
 <producer id="producer10" in="00:00:00.000" out="00:00:03.960">
  <property name="length">00:00:04.000</property>
  <property name="eof">pause</property>
  <property name="resource">vid_files/10_chapters/switch/switch%03d.png</property>
  <property name="ttl">1</property>
  <property name="aspect_ratio">1</property>
  <property name="progressive">1</property>
  <property name="seekable">1</property>
  <property name="meta.media.width">1920</property>
  <property name="meta.media.height">1080</property>
  <property name="mlt_service">qimage</property>
  <property name="kdenlive:clipname">switch</property>
  <property name="luma_duration">25</property>
  <property name="fade">0</property>
  <property name="crop">0</property>
  <property name="loop">0</property>
  <property name="kdenlive:duration">00:00:04.000</property>
  <property name="kdenlive:folderid">-1</property>
  <property name="kdenlive:id">44</property>
  <property name="kdenlive:file_hash">161c2e0e6a3cb3bb54b7638878c837e7</property>
  <property name="global_feed">1</property>
 </producer>
 <producer id="producer42" in="00:00:00.000" out="00:00:04.960">
  <property name="length">00:00:05.000</property>
  <property name="eof">pause</property>
  <property name="resource">vid_files/10_chapters/chapter1.png</property>
  <property name="ttl">25</property>
  <property name="aspect_ratio">1</property>
  <property name="progressive">1</property>
  <property name="seekable">1</property>
  <property name="meta.media.width">1920</property>
  <property name="meta.media.height">1080</property>
  <property name="mlt_service">qimage</property>
  <property name="kdenlive:clipname"/>
  <property name="kdenlive:duration">00:00:05.000</property>
  <property name="kdenlive:folderid">-1</property>
  <property name="kdenlive:id">45</property>
  <property name="kdenlive:file_size">87786</property>
  <property name="kdenlive:file_hash">ef0b63250260b200ca26a14f9af29387</property>
 </producer>
 <producer id="producer43" in="00:00:00.000" out="00:00:01.960">
  <property name="length">00:00:02.000</property>
  <property name="eof">pause</property>
  <property name="resource">vid_files/10_chapters/switch_white/switch_white%03d.png</property>
  <property name="ttl">1</property>
  <property name="aspect_ratio">1</property>
  <property name="progressive">1</property>
  <property name="seekable">1</property>
  <property name="meta.media.width">1920</property>
  <property name="meta.media.height">1080</property>
  <property name="mlt_service">qimage</property>
  <property name="kdenlive:clipname">switch_white</property>
  <property name="luma_duration">25</property>
  <property name="fade">0</property>
  <property name="crop">0</property>
  <property name="loop">0</property>
  <property name="kdenlive:duration">00:00:02.000</property>
  <property name="kdenlive:folderid">-1</property>
  <property name="kdenlive:id">46</property>
  <property name="kdenlive:file_hash">23e29cf534864da9bdbd4882f32876b4</property>
  <property name="global_feed">1</property>
 </producer>
 <producer id="producer44" in="00:00:00.000" out="00:00:05.560">
  <property name="length">00:00:05.600</property>
  <property name="eof">pause</property>
  <property name="resource">vid_files/10_chapters/chap1_/chap1_%03d.png</property>
  <property name="ttl">1</property>
  <property name="aspect_ratio">1</property>
  <property name="progressive">1</property>
  <property name="seekable">1</property>
  <property name="meta.media.width">1920</property>
  <property name="meta.media.height">1080</property>
  <property name="mlt_service">qimage</property>
  <property name="kdenlive:clipname">chap1_</property>
  <property name="luma_duration">25</property>
  <property name="fade">0</property>
  <property name="crop">0</property>
  <property name="loop">0</property>
  <property name="kdenlive:duration">00:00:05.600</property>
  <property name="kdenlive:folderid">-1</property>
  <property name="kdenlive:id">47</property>
  <property name="kdenlive:file_hash">8baac1e97b76941dae0c9017fd0abb2b</property>
  <property name="global_feed">1</property>
 </producer>
 <producer id="producer45" in="00:00:00.000" out="00:00:03.960">
  <property name="length">00:00:04.000</property>
  <property name="eof">pause</property>
  <property name="resource">vid_files/10_chapters/3b1b/3b1b%03d.png</property>
  <property name="ttl">1</property>
  <property name="aspect_ratio">1</property>
  <property name="progressive">1</property>
  <property name="seekable">1</property>
  <property name="meta.media.width">1920</property>
  <property name="meta.media.height">1080</property>
  <property name="mlt_service">qimage</property>
  <property name="kdenlive:clipname">3b1b</property>
  <property name="luma_duration">25</property>
  <property name="fade">0</property>
  <property name="crop">0</property>
  <property name="loop">0</property>
  <property name="kdenlive:duration">00:00:04.000</property>
  <property name="kdenlive:folderid">-1</property>
  <property name="kdenlive:id">48</property>
  <property name="kdenlive:file_hash">fc482708ff9003a2519dc616a33a317c</property>
  <property name="global_feed">1</property>
 </producer>
 <producer id="producer47" in="00:00:00.000" out="00:00:07.000">
  <property name="length">176</property>
  <property name="eof">pause</property>
  <property name="resource">vid_files/2_mnist/classroom.png</property>
  <property name="ttl">25</property>
  <property name="aspect_ratio">1</property>
  <property name="progressive">1</property>
  <property name="seekable">1</property>
  <property name="meta.media.width">1920</property>
  <property name="meta.media.height">1020</property>
  <property name="mlt_service">qimage</property>
  <property name="kdenlive:clipname"/>
  <property name="kdenlive:duration">00:00:05.000</property>
  <property name="kdenlive:folderid">-1</property>
  <property name="kdenlive:id">49</property>
  <property name="kdenlive:file_size">2700948</property>
  <property name="kdenlive:file_hash">6e656ace0769deeb575a03a5cc366927</property>
 </producer>
 <producer id="producer48" in="00:00:00.000" out="00:00:32.840">
  <property name="length">822</property>
  <property name="eof">pause</property>
  <property name="resource">vid_files/0_clips/2021-08-17 08-14-28.mp4</property>
  <property name="audio_index">1</property>
  <property name="video_index">0</property>
  <property name="mute_on_pause">0</property>
  <property name="mlt_service">avformat-novalidate</property>
  <property name="meta.media.nb_streams">2</property>
  <property name="meta.media.0.stream.type">video</property>
  <property name="meta.media.0.stream.frame_rate">30</property>
  <property name="meta.media.0.stream.sample_aspect_ratio">0</property>
  <property name="meta.media.0.codec.width">1280</property>
  <property name="meta.media.0.codec.height">720</property>
  <property name="meta.media.0.codec.rotate">0</property>
  <property name="meta.media.0.codec.frame_rate">30</property>
  <property name="meta.media.0.codec.pix_fmt">yuv420p</property>
  <property name="meta.media.0.codec.sample_aspect_ratio">1</property>
  <property name="meta.media.0.codec.colorspace">709</property>
  <property name="meta.media.0.codec.color_trc">1</property>
  <property name="meta.media.0.codec.name">h264</property>
  <property name="meta.media.0.codec.long_name">H.264 / AVC / MPEG-4 AVC / MPEG-4 part 10</property>
  <property name="meta.media.0.codec.bit_rate">741925</property>
  <property name="meta.attr.0.stream.handler_name.markup">VideoHandler</property>
  <property name="meta.media.1.stream.type">audio</property>
  <property name="meta.media.1.codec.sample_fmt">fltp</property>
  <property name="meta.media.1.codec.sample_rate">48000</property>
  <property name="meta.media.1.codec.channels">2</property>
  <property name="meta.media.1.codec.name">aac</property>
  <property name="meta.media.1.codec.long_name">AAC (Advanced Audio Coding)</property>
  <property name="meta.media.1.codec.bit_rate">192290</property>
  <property name="meta.attr.1.stream.handler_name.markup">SoundHandler</property>
  <property name="meta.attr.major_brand.markup">isom</property>
  <property name="meta.attr.minor_version.markup">512</property>
  <property name="meta.attr.compatible_brands.markup">isomiso2avc1mp41</property>
  <property name="meta.attr.encoder.markup">Lavf58.29.100</property>
  <property name="seekable">1</property>
  <property name="meta.media.sample_aspect_num">1</property>
  <property name="meta.media.sample_aspect_den">1</property>
  <property name="aspect_ratio">1</property>
  <property name="kdenlive:clipname"/>
  <property name="kdenlive:folderid">-1</property>
  <property name="meta.media.frame_rate_num">30</property>
  <property name="meta.media.frame_rate_den">1</property>
  <property name="meta.media.colorspace">709</property>
  <property name="meta.media.color_trc">1</property>
  <property name="meta.media.width">1280</property>
  <property name="meta.media.height">720</property>
  <property name="meta.media.color_range">mpeg</property>
  <property name="kdenlive:id">50</property>
  <property name="kdenlive:file_size">3873756</property>
  <property name="kdenlive:file_hash">0dc5aa6fbeb249bea24fca55364f973a</property>
  <property name="kdenlive:audio_max">16</property>
  <property name="meta.media.top_field_first">0</property>
  <property name="meta.media.progressive">1</property>
  <property name="global_feed">1</property>
 </producer>
 <producer id="producer49" in="00:00:00.000" out="00:00:09.080">
  <property name="length">228</property>
  <property name="eof">pause</property>
  <property name="resource">vid_files/0_clips/2021-08-17 08-15-47.mp4</property>
  <property name="audio_index">1</property>
  <property name="video_index">0</property>
  <property name="mute_on_pause">0</property>
  <property name="mlt_service">avformat-novalidate</property>
  <property name="meta.media.nb_streams">2</property>
  <property name="meta.media.0.stream.type">video</property>
  <property name="meta.media.0.stream.frame_rate">30</property>
  <property name="meta.media.0.stream.sample_aspect_ratio">0</property>
  <property name="meta.media.0.codec.width">1280</property>
  <property name="meta.media.0.codec.height">720</property>
  <property name="meta.media.0.codec.rotate">0</property>
  <property name="meta.media.0.codec.frame_rate">30</property>
  <property name="meta.media.0.codec.pix_fmt">yuv420p</property>
  <property name="meta.media.0.codec.sample_aspect_ratio">1</property>
  <property name="meta.media.0.codec.colorspace">709</property>
  <property name="meta.media.0.codec.color_trc">1</property>
  <property name="meta.media.0.codec.name">h264</property>
  <property name="meta.media.0.codec.long_name">H.264 / AVC / MPEG-4 AVC / MPEG-4 part 10</property>
  <property name="meta.media.0.codec.bit_rate">863989</property>
  <property name="meta.attr.0.stream.handler_name.markup">VideoHandler</property>
  <property name="meta.media.1.stream.type">audio</property>
  <property name="meta.media.1.codec.sample_fmt">fltp</property>
  <property name="meta.media.1.codec.sample_rate">48000</property>
  <property name="meta.media.1.codec.channels">2</property>
  <property name="meta.media.1.codec.name">aac</property>
  <property name="meta.media.1.codec.long_name">AAC (Advanced Audio Coding)</property>
  <property name="meta.media.1.codec.bit_rate">193044</property>
  <property name="meta.attr.1.stream.handler_name.markup">SoundHandler</property>
  <property name="meta.attr.major_brand.markup">isom</property>
  <property name="meta.attr.minor_version.markup">512</property>
  <property name="meta.attr.compatible_brands.markup">isomiso2avc1mp41</property>
  <property name="meta.attr.encoder.markup">Lavf58.29.100</property>
  <property name="seekable">1</property>
  <property name="meta.media.sample_aspect_num">1</property>
  <property name="meta.media.sample_aspect_den">1</property>
  <property name="aspect_ratio">1</property>
  <property name="kdenlive:clipname"/>
  <property name="kdenlive:folderid">-1</property>
  <property name="meta.media.frame_rate_num">30</property>
  <property name="meta.media.frame_rate_den">1</property>
  <property name="meta.media.colorspace">709</property>
  <property name="meta.media.color_trc">1</property>
  <property name="meta.media.width">1280</property>
  <property name="meta.media.height">720</property>
  <property name="meta.media.color_range">mpeg</property>
  <property name="kdenlive:id">51</property>
  <property name="kdenlive:file_size">1216084</property>
  <property name="kdenlive:file_hash">0829a20dbd2e7dd36ea45389ece9a5af</property>
  <property name="kdenlive:audio_max">20</property>
  <property name="global_feed">1</property>
 </producer>
 <producer id="producer50" in="00:00:00.000" out="00:00:12.680">
  <property name="length">318</property>
  <property name="eof">pause</property>
  <property name="resource">vid_files/0_clips/2021-08-17 08-16-20.mp4</property>
  <property name="audio_index">1</property>
  <property name="video_index">0</property>
  <property name="mute_on_pause">0</property>
  <property name="mlt_service">avformat-novalidate</property>
  <property name="meta.media.nb_streams">2</property>
  <property name="meta.media.0.stream.type">video</property>
  <property name="meta.media.0.stream.frame_rate">30</property>
  <property name="meta.media.0.stream.sample_aspect_ratio">0</property>
  <property name="meta.media.0.codec.width">1280</property>
  <property name="meta.media.0.codec.height">720</property>
  <property name="meta.media.0.codec.rotate">0</property>
  <property name="meta.media.0.codec.frame_rate">30</property>
  <property name="meta.media.0.codec.pix_fmt">yuv420p</property>
  <property name="meta.media.0.codec.sample_aspect_ratio">1</property>
  <property name="meta.media.0.codec.colorspace">709</property>
  <property name="meta.media.0.codec.color_trc">1</property>
  <property name="meta.media.0.codec.name">h264</property>
  <property name="meta.media.0.codec.long_name">H.264 / AVC / MPEG-4 AVC / MPEG-4 part 10</property>
  <property name="meta.media.0.codec.bit_rate">784722</property>
  <property name="meta.attr.0.stream.handler_name.markup">VideoHandler</property>
  <property name="meta.media.1.stream.type">audio</property>
  <property name="meta.media.1.codec.sample_fmt">fltp</property>
  <property name="meta.media.1.codec.sample_rate">48000</property>
  <property name="meta.media.1.codec.channels">2</property>
  <property name="meta.media.1.codec.name">aac</property>
  <property name="meta.media.1.codec.long_name">AAC (Advanced Audio Coding)</property>
  <property name="meta.media.1.codec.bit_rate">192746</property>
  <property name="meta.attr.1.stream.handler_name.markup">SoundHandler</property>
  <property name="meta.attr.major_brand.markup">isom</property>
  <property name="meta.attr.minor_version.markup">512</property>
  <property name="meta.attr.compatible_brands.markup">isomiso2avc1mp41</property>
  <property name="meta.attr.encoder.markup">Lavf58.29.100</property>
  <property name="seekable">1</property>
  <property name="meta.media.sample_aspect_num">1</property>
  <property name="meta.media.sample_aspect_den">1</property>
  <property name="aspect_ratio">1</property>
  <property name="kdenlive:clipname"/>
  <property name="kdenlive:folderid">-1</property>
  <property name="meta.media.frame_rate_num">30</property>
  <property name="meta.media.frame_rate_den">1</property>
  <property name="meta.media.colorspace">709</property>
  <property name="meta.media.color_trc">1</property>
  <property name="meta.media.width">1280</property>
  <property name="meta.media.height">720</property>
  <property name="meta.media.color_range">mpeg</property>
  <property name="kdenlive:id">52</property>
  <property name="kdenlive:file_size">1569203</property>
  <property name="kdenlive:file_hash">6bf44511079979af780ce72bd6acb350</property>
  <property name="kdenlive:audio_max">20</property>
  <property name="meta.media.top_field_first">0</property>
  <property name="meta.media.progressive">1</property>
  <property name="global_feed">1</property>
 </producer>
 <producer id="producer51" in="00:00:00.000" out="00:00:27.920">
  <property name="length">699</property>
  <property name="eof">pause</property>
  <property name="resource">vid_files/0_clips/2021-08-17 08-18-10.mp4</property>
  <property name="audio_index">1</property>
  <property name="video_index">0</property>
  <property name="mute_on_pause">0</property>
  <property name="mlt_service">avformat-novalidate</property>
  <property name="meta.media.nb_streams">2</property>
  <property name="meta.media.0.stream.type">video</property>
  <property name="meta.media.0.stream.frame_rate">30</property>
  <property name="meta.media.0.stream.sample_aspect_ratio">0</property>
  <property name="meta.media.0.codec.width">1280</property>
  <property name="meta.media.0.codec.height">720</property>
  <property name="meta.media.0.codec.rotate">0</property>
  <property name="meta.media.0.codec.frame_rate">30</property>
  <property name="meta.media.0.codec.pix_fmt">yuv420p</property>
  <property name="meta.media.0.codec.sample_aspect_ratio">1</property>
  <property name="meta.media.0.codec.colorspace">709</property>
  <property name="meta.media.0.codec.color_trc">1</property>
  <property name="meta.media.0.codec.name">h264</property>
  <property name="meta.media.0.codec.long_name">H.264 / AVC / MPEG-4 AVC / MPEG-4 part 10</property>
  <property name="meta.media.0.codec.bit_rate">803830</property>
  <property name="meta.attr.0.stream.handler_name.markup">VideoHandler</property>
  <property name="meta.media.1.stream.type">audio</property>
  <property name="meta.media.1.codec.sample_fmt">fltp</property>
  <property name="meta.media.1.codec.sample_rate">48000</property>
  <property name="meta.media.1.codec.channels">2</property>
  <property name="meta.media.1.codec.name">aac</property>
  <property name="meta.media.1.codec.long_name">AAC (Advanced Audio Coding)</property>
  <property name="meta.media.1.codec.bit_rate">192342</property>
  <property name="meta.attr.1.stream.handler_name.markup">SoundHandler</property>
  <property name="meta.attr.major_brand.markup">isom</property>
  <property name="meta.attr.minor_version.markup">512</property>
  <property name="meta.attr.compatible_brands.markup">isomiso2avc1mp41</property>
  <property name="meta.attr.encoder.markup">Lavf58.29.100</property>
  <property name="seekable">1</property>
  <property name="meta.media.sample_aspect_num">1</property>
  <property name="meta.media.sample_aspect_den">1</property>
  <property name="aspect_ratio">1</property>
  <property name="kdenlive:clipname"/>
  <property name="kdenlive:folderid">-1</property>
  <property name="meta.media.frame_rate_num">30</property>
  <property name="meta.media.frame_rate_den">1</property>
  <property name="meta.media.colorspace">709</property>
  <property name="meta.media.color_trc">1</property>
  <property name="meta.media.width">1280</property>
  <property name="meta.media.height">720</property>
  <property name="meta.media.color_range">mpeg</property>
  <property name="kdenlive:id">53</property>
  <property name="kdenlive:file_size">3512613</property>
  <property name="kdenlive:file_hash">7514eb046151d1001087d78c783a590d</property>
  <property name="kdenlive:audio_max">17</property>
  <property name="global_feed">1</property>
 </producer>
 <producer id="producer52" in="00:00:00.000" out="00:00:13.240">
  <property name="length">332</property>
  <property name="eof">pause</property>
  <property name="resource">vid_files/0_clips/2021-08-17 08-19-05.mp4</property>
  <property name="audio_index">1</property>
  <property name="video_index">0</property>
  <property name="mute_on_pause">0</property>
  <property name="mlt_service">avformat-novalidate</property>
  <property name="meta.media.nb_streams">2</property>
  <property name="meta.media.0.stream.type">video</property>
  <property name="meta.media.0.stream.frame_rate">30</property>
  <property name="meta.media.0.stream.sample_aspect_ratio">0</property>
  <property name="meta.media.0.codec.width">1280</property>
  <property name="meta.media.0.codec.height">720</property>
  <property name="meta.media.0.codec.rotate">0</property>
  <property name="meta.media.0.codec.frame_rate">30</property>
  <property name="meta.media.0.codec.pix_fmt">yuv420p</property>
  <property name="meta.media.0.codec.sample_aspect_ratio">1</property>
  <property name="meta.media.0.codec.colorspace">709</property>
  <property name="meta.media.0.codec.color_trc">1</property>
  <property name="meta.media.0.codec.name">h264</property>
  <property name="meta.media.0.codec.long_name">H.264 / AVC / MPEG-4 AVC / MPEG-4 part 10</property>
  <property name="meta.media.0.codec.bit_rate">808786</property>
  <property name="meta.attr.0.stream.handler_name.markup">VideoHandler</property>
  <property name="meta.media.1.stream.type">audio</property>
  <property name="meta.media.1.codec.sample_fmt">fltp</property>
  <property name="meta.media.1.codec.sample_rate">48000</property>
  <property name="meta.media.1.codec.channels">2</property>
  <property name="meta.media.1.codec.name">aac</property>
  <property name="meta.media.1.codec.long_name">AAC (Advanced Audio Coding)</property>
  <property name="meta.media.1.codec.bit_rate">192687</property>
  <property name="meta.attr.1.stream.handler_name.markup">SoundHandler</property>
  <property name="meta.attr.major_brand.markup">isom</property>
  <property name="meta.attr.minor_version.markup">512</property>
  <property name="meta.attr.compatible_brands.markup">isomiso2avc1mp41</property>
  <property name="meta.attr.encoder.markup">Lavf58.29.100</property>
  <property name="seekable">1</property>
  <property name="meta.media.sample_aspect_num">1</property>
  <property name="meta.media.sample_aspect_den">1</property>
  <property name="aspect_ratio">1</property>
  <property name="kdenlive:clipname"/>
  <property name="kdenlive:folderid">-1</property>
  <property name="meta.media.frame_rate_num">30</property>
  <property name="meta.media.frame_rate_den">1</property>
  <property name="meta.media.colorspace">709</property>
  <property name="meta.media.color_trc">1</property>
  <property name="meta.media.width">1280</property>
  <property name="meta.media.height">720</property>
  <property name="meta.media.color_range">mpeg</property>
  <property name="kdenlive:id">54</property>
  <property name="kdenlive:file_size">1679204</property>
  <property name="kdenlive:file_hash">8a6e44340f6abf24f09c4c935215b934</property>
  <property name="kdenlive:audio_max">16</property>
  <property name="global_feed">1</property>
 </producer>
 <producer id="producer53" in="00:00:00.000" out="00:02:04.640">
  <property name="length">3117</property>
  <property name="eof">pause</property>
  <property name="resource">vid_files/0_clips/2021-08-17 08-20-27.mp4</property>
  <property name="audio_index">1</property>
  <property name="video_index">0</property>
  <property name="mute_on_pause">0</property>
  <property name="mlt_service">avformat-novalidate</property>
  <property name="meta.media.nb_streams">2</property>
  <property name="meta.media.0.stream.type">video</property>
  <property name="meta.media.0.stream.frame_rate">30</property>
  <property name="meta.media.0.stream.sample_aspect_ratio">0</property>
  <property name="meta.media.0.codec.width">1280</property>
  <property name="meta.media.0.codec.height">720</property>
  <property name="meta.media.0.codec.rotate">0</property>
  <property name="meta.media.0.codec.frame_rate">30</property>
  <property name="meta.media.0.codec.pix_fmt">yuv420p</property>
  <property name="meta.media.0.codec.sample_aspect_ratio">1</property>
  <property name="meta.media.0.codec.colorspace">709</property>
  <property name="meta.media.0.codec.color_trc">1</property>
  <property name="meta.media.0.codec.name">h264</property>
  <property name="meta.media.0.codec.long_name">H.264 / AVC / MPEG-4 AVC / MPEG-4 part 10</property>
  <property name="meta.media.0.codec.bit_rate">704748</property>
  <property name="meta.attr.0.stream.handler_name.markup">VideoHandler</property>
  <property name="meta.media.1.stream.type">audio</property>
  <property name="meta.media.1.codec.sample_fmt">fltp</property>
  <property name="meta.media.1.codec.sample_rate">48000</property>
  <property name="meta.media.1.codec.channels">2</property>
  <property name="meta.media.1.codec.name">aac</property>
  <property name="meta.media.1.codec.long_name">AAC (Advanced Audio Coding)</property>
  <property name="meta.media.1.codec.bit_rate">192076</property>
  <property name="meta.attr.1.stream.handler_name.markup">SoundHandler</property>
  <property name="meta.attr.major_brand.markup">isom</property>
  <property name="meta.attr.minor_version.markup">512</property>
  <property name="meta.attr.compatible_brands.markup">isomiso2avc1mp41</property>
  <property name="meta.attr.encoder.markup">Lavf58.29.100</property>
  <property name="seekable">1</property>
  <property name="meta.media.sample_aspect_num">1</property>
  <property name="meta.media.sample_aspect_den">1</property>
  <property name="aspect_ratio">1</property>
  <property name="kdenlive:clipname"/>
  <property name="kdenlive:folderid">-1</property>
  <property name="meta.media.frame_rate_num">30</property>
  <property name="meta.media.frame_rate_den">1</property>
  <property name="meta.media.colorspace">709</property>
  <property name="meta.media.color_trc">1</property>
  <property name="meta.media.width">1280</property>
  <property name="meta.media.height">720</property>
  <property name="meta.media.color_range">mpeg</property>
  <property name="kdenlive:id">55</property>
  <property name="kdenlive:file_size">14112247</property>
  <property name="kdenlive:file_hash">27edcc9c284e39ce24fe50122442948c</property>
  <property name="kdenlive:audio_max">16</property>
  <property name="global_feed">1</property>
 </producer>
 <producer id="producer54" in="00:00:00.000" out="00:00:31.480">
  <property name="length">788</property>
  <property name="eof">pause</property>
  <property name="resource">vid_files/0_clips/2021-08-17 08-22-37.mp4</property>
  <property name="audio_index">1</property>
  <property name="video_index">0</property>
  <property name="mute_on_pause">0</property>
  <property name="mlt_service">avformat-novalidate</property>
  <property name="meta.media.nb_streams">2</property>
  <property name="meta.media.0.stream.type">video</property>
  <property name="meta.media.0.stream.frame_rate">30</property>
  <property name="meta.media.0.stream.sample_aspect_ratio">0</property>
  <property name="meta.media.0.codec.width">1280</property>
  <property name="meta.media.0.codec.height">720</property>
  <property name="meta.media.0.codec.rotate">0</property>
  <property name="meta.media.0.codec.frame_rate">30</property>
  <property name="meta.media.0.codec.pix_fmt">yuv420p</property>
  <property name="meta.media.0.codec.sample_aspect_ratio">1</property>
  <property name="meta.media.0.codec.colorspace">709</property>
  <property name="meta.media.0.codec.color_trc">1</property>
  <property name="meta.media.0.codec.name">h264</property>
  <property name="meta.media.0.codec.long_name">H.264 / AVC / MPEG-4 AVC / MPEG-4 part 10</property>
  <property name="meta.media.0.codec.bit_rate">708815</property>
  <property name="meta.attr.0.stream.handler_name.markup">VideoHandler</property>
  <property name="meta.media.1.stream.type">audio</property>
  <property name="meta.media.1.codec.sample_fmt">fltp</property>
  <property name="meta.media.1.codec.sample_rate">48000</property>
  <property name="meta.media.1.codec.channels">2</property>
  <property name="meta.media.1.codec.name">aac</property>
  <property name="meta.media.1.codec.long_name">AAC (Advanced Audio Coding)</property>
  <property name="meta.media.1.codec.bit_rate">192300</property>
  <property name="meta.attr.1.stream.handler_name.markup">SoundHandler</property>
  <property name="meta.attr.major_brand.markup">isom</property>
  <property name="meta.attr.minor_version.markup">512</property>
  <property name="meta.attr.compatible_brands.markup">isomiso2avc1mp41</property>
  <property name="meta.attr.encoder.markup">Lavf58.29.100</property>
  <property name="seekable">1</property>
  <property name="meta.media.sample_aspect_num">1</property>
  <property name="meta.media.sample_aspect_den">1</property>
  <property name="aspect_ratio">1</property>
  <property name="kdenlive:clipname"/>
  <property name="kdenlive:folderid">-1</property>
  <property name="meta.media.frame_rate_num">30</property>
  <property name="meta.media.frame_rate_den">1</property>
  <property name="meta.media.colorspace">709</property>
  <property name="meta.media.color_trc">1</property>
  <property name="meta.media.width">1280</property>
  <property name="meta.media.height">720</property>
  <property name="meta.media.color_range">mpeg</property>
  <property name="kdenlive:id">56</property>
  <property name="kdenlive:file_size">3582361</property>
  <property name="kdenlive:file_hash">682840df867ff12b1452693704c492ed</property>
  <property name="kdenlive:audio_max">17</property>
  <property name="global_feed">1</property>
 </producer>
 <producer id="producer55" in="00:00:00.000" out="00:00:15.920">
  <property name="length">399</property>
  <property name="eof">pause</property>
  <property name="resource">vid_files/0_clips/2021-08-17 08-24-27.mp4</property>
  <property name="audio_index">1</property>
  <property name="video_index">0</property>
  <property name="mute_on_pause">0</property>
  <property name="mlt_service">avformat-novalidate</property>
  <property name="meta.media.nb_streams">2</property>
  <property name="meta.media.0.stream.type">video</property>
  <property name="meta.media.0.stream.frame_rate">30</property>
  <property name="meta.media.0.stream.sample_aspect_ratio">0</property>
  <property name="meta.media.0.codec.width">1280</property>
  <property name="meta.media.0.codec.height">720</property>
  <property name="meta.media.0.codec.rotate">0</property>
  <property name="meta.media.0.codec.frame_rate">30</property>
  <property name="meta.media.0.codec.pix_fmt">yuv420p</property>
  <property name="meta.media.0.codec.sample_aspect_ratio">1</property>
  <property name="meta.media.0.codec.colorspace">709</property>
  <property name="meta.media.0.codec.color_trc">1</property>
  <property name="meta.media.0.codec.name">h264</property>
  <property name="meta.media.0.codec.long_name">H.264 / AVC / MPEG-4 AVC / MPEG-4 part 10</property>
  <property name="meta.media.0.codec.bit_rate">998170</property>
  <property name="meta.attr.0.stream.handler_name.markup">VideoHandler</property>
  <property name="meta.media.1.stream.type">audio</property>
  <property name="meta.media.1.codec.sample_fmt">fltp</property>
  <property name="meta.media.1.codec.sample_rate">48000</property>
  <property name="meta.media.1.codec.channels">2</property>
  <property name="meta.media.1.codec.name">aac</property>
  <property name="meta.media.1.codec.long_name">AAC (Advanced Audio Coding)</property>
  <property name="meta.media.1.codec.bit_rate">192566</property>
  <property name="meta.attr.1.stream.handler_name.markup">SoundHandler</property>
  <property name="meta.attr.major_brand.markup">isom</property>
  <property name="meta.attr.minor_version.markup">512</property>
  <property name="meta.attr.compatible_brands.markup">isomiso2avc1mp41</property>
  <property name="meta.attr.encoder.markup">Lavf58.29.100</property>
  <property name="seekable">1</property>
  <property name="meta.media.sample_aspect_num">1</property>
  <property name="meta.media.sample_aspect_den">1</property>
  <property name="aspect_ratio">1</property>
  <property name="kdenlive:clipname"/>
  <property name="kdenlive:folderid">-1</property>
  <property name="meta.media.frame_rate_num">30</property>
  <property name="meta.media.frame_rate_den">1</property>
  <property name="meta.media.colorspace">709</property>
  <property name="meta.media.color_trc">1</property>
  <property name="meta.media.width">1280</property>
  <property name="meta.media.height">720</property>
  <property name="meta.media.color_range">mpeg</property>
  <property name="kdenlive:id">57</property>
  <property name="kdenlive:file_size">2393691</property>
  <property name="kdenlive:file_hash">ae7aee1d0d45064a1d6b3667a5c4523b</property>
  <property name="kdenlive:audio_max">18</property>
  <property name="global_feed">1</property>
 </producer>
 <producer id="producer56" in="00:00:00.000" out="00:00:19.600">
  <property name="length">491</property>
  <property name="eof">pause</property>
  <property name="resource">vid_files/0_clips/2021-08-17 08-24-49.mp4</property>
  <property name="audio_index">1</property>
  <property name="video_index">0</property>
  <property name="mute_on_pause">0</property>
  <property name="mlt_service">avformat-novalidate</property>
  <property name="meta.media.nb_streams">2</property>
  <property name="meta.media.0.stream.type">video</property>
  <property name="meta.media.0.stream.frame_rate">30</property>
  <property name="meta.media.0.stream.sample_aspect_ratio">0</property>
  <property name="meta.media.0.codec.width">1280</property>
  <property name="meta.media.0.codec.height">720</property>
  <property name="meta.media.0.codec.rotate">0</property>
  <property name="meta.media.0.codec.frame_rate">30</property>
  <property name="meta.media.0.codec.pix_fmt">yuv420p</property>
  <property name="meta.media.0.codec.sample_aspect_ratio">1</property>
  <property name="meta.media.0.codec.colorspace">709</property>
  <property name="meta.media.0.codec.color_trc">1</property>
  <property name="meta.media.0.codec.name">h264</property>
  <property name="meta.media.0.codec.long_name">H.264 / AVC / MPEG-4 AVC / MPEG-4 part 10</property>
  <property name="meta.media.0.codec.bit_rate">1142813</property>
  <property name="meta.attr.0.stream.handler_name.markup">VideoHandler</property>
  <property name="meta.media.1.stream.type">audio</property>
  <property name="meta.media.1.codec.sample_fmt">fltp</property>
  <property name="meta.media.1.codec.sample_rate">48000</property>
  <property name="meta.media.1.codec.channels">2</property>
  <property name="meta.media.1.codec.name">aac</property>
  <property name="meta.media.1.codec.long_name">AAC (Advanced Audio Coding)</property>
  <property name="meta.media.1.codec.bit_rate">192475</property>
  <property name="meta.attr.1.stream.handler_name.markup">SoundHandler</property>
  <property name="meta.attr.major_brand.markup">isom</property>
  <property name="meta.attr.minor_version.markup">512</property>
  <property name="meta.attr.compatible_brands.markup">isomiso2avc1mp41</property>
  <property name="meta.attr.encoder.markup">Lavf58.29.100</property>
  <property name="seekable">1</property>
  <property name="meta.media.sample_aspect_num">1</property>
  <property name="meta.media.sample_aspect_den">1</property>
  <property name="aspect_ratio">1</property>
  <property name="kdenlive:clipname"/>
  <property name="kdenlive:folderid">-1</property>
  <property name="meta.media.frame_rate_num">30</property>
  <property name="meta.media.frame_rate_den">1</property>
  <property name="meta.media.colorspace">709</property>
  <property name="meta.media.color_trc">1</property>
  <property name="meta.media.width">1280</property>
  <property name="meta.media.height">720</property>
  <property name="meta.media.color_range">mpeg</property>
  <property name="kdenlive:id">58</property>
  <property name="kdenlive:file_size">3298283</property>
  <property name="kdenlive:file_hash">c414307c0f39991ab61a8c7121e39c3d</property>
  <property name="kdenlive:audio_max">19</property>
  <property name="global_feed">1</property>
 </producer>
 <producer id="producer57" in="00:00:00.000" out="00:00:21.480">
  <property name="length">538</property>
  <property name="eof">pause</property>
  <property name="resource">vid_files/0_clips/2021-08-17 08-25-38.mp4</property>
  <property name="audio_index">1</property>
  <property name="video_index">0</property>
  <property name="mute_on_pause">0</property>
  <property name="mlt_service">avformat-novalidate</property>
  <property name="meta.media.nb_streams">2</property>
  <property name="meta.media.0.stream.type">video</property>
  <property name="meta.media.0.stream.frame_rate">30</property>
  <property name="meta.media.0.stream.sample_aspect_ratio">0</property>
  <property name="meta.media.0.codec.width">1280</property>
  <property name="meta.media.0.codec.height">720</property>
  <property name="meta.media.0.codec.rotate">0</property>
  <property name="meta.media.0.codec.frame_rate">30</property>
  <property name="meta.media.0.codec.pix_fmt">yuv420p</property>
  <property name="meta.media.0.codec.sample_aspect_ratio">1</property>
  <property name="meta.media.0.codec.colorspace">709</property>
  <property name="meta.media.0.codec.color_trc">1</property>
  <property name="meta.media.0.codec.name">h264</property>
  <property name="meta.media.0.codec.long_name">H.264 / AVC / MPEG-4 AVC / MPEG-4 part 10</property>
  <property name="meta.media.0.codec.bit_rate">1237529</property>
  <property name="meta.attr.0.stream.handler_name.markup">VideoHandler</property>
  <property name="meta.media.1.stream.type">audio</property>
  <property name="meta.media.1.codec.sample_fmt">fltp</property>
  <property name="meta.media.1.codec.sample_rate">48000</property>
  <property name="meta.media.1.codec.channels">2</property>
  <property name="meta.media.1.codec.name">aac</property>
  <property name="meta.media.1.codec.long_name">AAC (Advanced Audio Coding)</property>
  <property name="meta.media.1.codec.bit_rate">192445</property>
  <property name="meta.attr.1.stream.handler_name.markup">SoundHandler</property>
  <property name="meta.attr.major_brand.markup">isom</property>
  <property name="meta.attr.minor_version.markup">512</property>
  <property name="meta.attr.compatible_brands.markup">isomiso2avc1mp41</property>
  <property name="meta.attr.encoder.markup">Lavf58.29.100</property>
  <property name="seekable">1</property>
  <property name="meta.media.sample_aspect_num">1</property>
  <property name="meta.media.sample_aspect_den">1</property>
  <property name="aspect_ratio">1</property>
  <property name="kdenlive:clipname"/>
  <property name="kdenlive:folderid">-1</property>
  <property name="meta.media.frame_rate_num">30</property>
  <property name="meta.media.frame_rate_den">1</property>
  <property name="meta.media.colorspace">709</property>
  <property name="meta.media.color_trc">1</property>
  <property name="meta.media.width">1280</property>
  <property name="meta.media.height">720</property>
  <property name="meta.media.color_range">mpeg</property>
  <property name="kdenlive:id">59</property>
  <property name="kdenlive:file_size">3866140</property>
  <property name="kdenlive:file_hash">7bbcea7890c9724c0370dde35d47b921</property>
  <property name="kdenlive:audio_max">20</property>
  <property name="global_feed">1</property>
 </producer>
 <producer id="producer58" in="00:00:00.000" out="00:00:04.080">
  <property name="length">103</property>
  <property name="eof">pause</property>
  <property name="resource">vid_files/0_clips/2021-08-17 08-27-52.mp4</property>
  <property name="audio_index">1</property>
  <property name="video_index">0</property>
  <property name="mute_on_pause">0</property>
  <property name="mlt_service">avformat-novalidate</property>
  <property name="meta.media.nb_streams">2</property>
  <property name="meta.media.0.stream.type">video</property>
  <property name="meta.media.0.stream.frame_rate">30</property>
  <property name="meta.media.0.stream.sample_aspect_ratio">0</property>
  <property name="meta.media.0.codec.width">1280</property>
  <property name="meta.media.0.codec.height">720</property>
  <property name="meta.media.0.codec.rotate">0</property>
  <property name="meta.media.0.codec.frame_rate">30</property>
  <property name="meta.media.0.codec.pix_fmt">yuv420p</property>
  <property name="meta.media.0.codec.sample_aspect_ratio">1</property>
  <property name="meta.media.0.codec.colorspace">709</property>
  <property name="meta.media.0.codec.color_trc">1</property>
  <property name="meta.media.0.codec.name">h264</property>
  <property name="meta.media.0.codec.long_name">H.264 / AVC / MPEG-4 AVC / MPEG-4 part 10</property>
  <property name="meta.media.0.codec.bit_rate">1072401</property>
  <property name="meta.attr.0.stream.handler_name.markup">VideoHandler</property>
  <property name="meta.media.1.stream.type">audio</property>
  <property name="meta.media.1.codec.sample_fmt">fltp</property>
  <property name="meta.media.1.codec.sample_rate">48000</property>
  <property name="meta.media.1.codec.channels">2</property>
  <property name="meta.media.1.codec.name">aac</property>
  <property name="meta.media.1.codec.long_name">AAC (Advanced Audio Coding)</property>
  <property name="meta.media.1.codec.bit_rate">193026</property>
  <property name="meta.attr.1.stream.handler_name.markup">SoundHandler</property>
  <property name="meta.attr.major_brand.markup">isom</property>
  <property name="meta.attr.minor_version.markup">512</property>
  <property name="meta.attr.compatible_brands.markup">isomiso2avc1mp41</property>
  <property name="meta.attr.encoder.markup">Lavf58.29.100</property>
  <property name="seekable">1</property>
  <property name="meta.media.sample_aspect_num">1</property>
  <property name="meta.media.sample_aspect_den">1</property>
  <property name="aspect_ratio">1</property>
  <property name="kdenlive:clipname"/>
  <property name="kdenlive:folderid">-1</property>
  <property name="meta.media.frame_rate_num">30</property>
  <property name="meta.media.frame_rate_den">1</property>
  <property name="meta.media.colorspace">709</property>
  <property name="meta.media.color_trc">1</property>
  <property name="meta.media.width">1280</property>
  <property name="meta.media.height">720</property>
  <property name="meta.media.color_range">mpeg</property>
  <property name="kdenlive:id">60</property>
  <property name="kdenlive:file_size">657785</property>
  <property name="kdenlive:file_hash">420d05b6e49c79bc0b04e21e9a49f41f</property>
  <property name="kdenlive:audio_max">27</property>
  <property name="global_feed">1</property>
 </producer>
 <producer id="producer59" in="00:00:00.000" out="00:02:05.520">
  <property name="length">3139</property>
  <property name="eof">pause</property>
  <property name="resource">vid_files/0_clips/2021-08-17 08-28-14.mp4</property>
  <property name="audio_index">1</property>
  <property name="video_index">0</property>
  <property name="mute_on_pause">0</property>
  <property name="mlt_service">avformat-novalidate</property>
  <property name="meta.media.nb_streams">2</property>
  <property name="meta.media.0.stream.type">video</property>
  <property name="meta.media.0.stream.frame_rate">30</property>
  <property name="meta.media.0.stream.sample_aspect_ratio">0</property>
  <property name="meta.media.0.codec.width">1280</property>
  <property name="meta.media.0.codec.height">720</property>
  <property name="meta.media.0.codec.rotate">0</property>
  <property name="meta.media.0.codec.frame_rate">30</property>
  <property name="meta.media.0.codec.pix_fmt">yuv420p</property>
  <property name="meta.media.0.codec.sample_aspect_ratio">1</property>
  <property name="meta.media.0.codec.colorspace">709</property>
  <property name="meta.media.0.codec.color_trc">1</property>
  <property name="meta.media.0.codec.name">h264</property>
  <property name="meta.media.0.codec.long_name">H.264 / AVC / MPEG-4 AVC / MPEG-4 part 10</property>
  <property name="meta.media.0.codec.bit_rate">820320</property>
  <property name="meta.attr.0.stream.handler_name.markup">VideoHandler</property>
  <property name="meta.media.1.stream.type">audio</property>
  <property name="meta.media.1.codec.sample_fmt">fltp</property>
  <property name="meta.media.1.codec.sample_rate">48000</property>
  <property name="meta.media.1.codec.channels">2</property>
  <property name="meta.media.1.codec.name">aac</property>
  <property name="meta.media.1.codec.long_name">AAC (Advanced Audio Coding)</property>
  <property name="meta.media.1.codec.bit_rate">192078</property>
  <property name="meta.attr.1.stream.handler_name.markup">SoundHandler</property>
  <property name="meta.attr.major_brand.markup">isom</property>
  <property name="meta.attr.minor_version.markup">512</property>
  <property name="meta.attr.compatible_brands.markup">isomiso2avc1mp41</property>
  <property name="meta.attr.encoder.markup">Lavf58.29.100</property>
  <property name="seekable">1</property>
  <property name="meta.media.sample_aspect_num">1</property>
  <property name="meta.media.sample_aspect_den">1</property>
  <property name="aspect_ratio">1</property>
  <property name="kdenlive:clipname"/>
  <property name="kdenlive:folderid">-1</property>
  <property name="meta.media.frame_rate_num">30</property>
  <property name="meta.media.frame_rate_den">1</property>
  <property name="meta.media.colorspace">709</property>
  <property name="meta.media.color_trc">1</property>
  <property name="meta.media.width">1280</property>
  <property name="meta.media.height">720</property>
  <property name="meta.media.color_range">mpeg</property>
  <property name="kdenlive:id">61</property>
  <property name="kdenlive:file_size">16028020</property>
  <property name="kdenlive:file_hash">92ddf2d69e7f4c3137262eda6a174c75</property>
  <property name="kdenlive:audio_max">14</property>
  <property name="global_feed">1</property>
 </producer>
 <producer id="producer60" in="00:00:00.000" out="00:00:39.040">
  <property name="length">977</property>
  <property name="eof">pause</property>
  <property name="resource">vid_files/0_clips/2021-08-17 08-30-29.mp4</property>
  <property name="audio_index">1</property>
  <property name="video_index">0</property>
  <property name="mute_on_pause">0</property>
  <property name="mlt_service">avformat-novalidate</property>
  <property name="meta.media.nb_streams">2</property>
  <property name="meta.media.0.stream.type">video</property>
  <property name="meta.media.0.stream.frame_rate">30</property>
  <property name="meta.media.0.stream.sample_aspect_ratio">0</property>
  <property name="meta.media.0.codec.width">1280</property>
  <property name="meta.media.0.codec.height">720</property>
  <property name="meta.media.0.codec.rotate">0</property>
  <property name="meta.media.0.codec.frame_rate">30</property>
  <property name="meta.media.0.codec.pix_fmt">yuv420p</property>
  <property name="meta.media.0.codec.sample_aspect_ratio">1</property>
  <property name="meta.media.0.codec.colorspace">709</property>
  <property name="meta.media.0.codec.color_trc">1</property>
  <property name="meta.media.0.codec.name">h264</property>
  <property name="meta.media.0.codec.long_name">H.264 / AVC / MPEG-4 AVC / MPEG-4 part 10</property>
  <property name="meta.media.0.codec.bit_rate">813305</property>
  <property name="meta.attr.0.stream.handler_name.markup">VideoHandler</property>
  <property name="meta.media.1.stream.type">audio</property>
  <property name="meta.media.1.codec.sample_fmt">fltp</property>
  <property name="meta.media.1.codec.sample_rate">48000</property>
  <property name="meta.media.1.codec.channels">2</property>
  <property name="meta.media.1.codec.name">aac</property>
  <property name="meta.media.1.codec.long_name">AAC (Advanced Audio Coding)</property>
  <property name="meta.media.1.codec.bit_rate">192231</property>
  <property name="meta.attr.1.stream.handler_name.markup">SoundHandler</property>
  <property name="meta.attr.major_brand.markup">isom</property>
  <property name="meta.attr.minor_version.markup">512</property>
  <property name="meta.attr.compatible_brands.markup">isomiso2avc1mp41</property>
  <property name="meta.attr.encoder.markup">Lavf58.29.100</property>
  <property name="seekable">1</property>
  <property name="meta.media.sample_aspect_num">1</property>
  <property name="meta.media.sample_aspect_den">1</property>
  <property name="aspect_ratio">1</property>
  <property name="kdenlive:clipname"/>
  <property name="kdenlive:folderid">-1</property>
  <property name="meta.media.frame_rate_num">30</property>
  <property name="meta.media.frame_rate_den">1</property>
  <property name="meta.media.colorspace">709</property>
  <property name="meta.media.color_trc">1</property>
  <property name="meta.media.width">1280</property>
  <property name="meta.media.height">720</property>
  <property name="meta.media.color_range">mpeg</property>
  <property name="kdenlive:id">62</property>
  <property name="kdenlive:file_size">4953025</property>
  <property name="kdenlive:file_hash">777cba7b7b166918c079da572d242563</property>
  <property name="kdenlive:audio_max">16</property>
  <property name="global_feed">1</property>
 </producer>
 <producer id="producer61" in="00:00:00.000" out="00:00:07.960">
  <property name="length">00:00:08.000</property>
  <property name="eof">pause</property>
  <property name="resource">vid_files/9_pol_example/train_error_graph_theory/train_error_graph_theory%03d.png</property>
  <property name="ttl">1</property>
  <property name="aspect_ratio">1</property>
  <property name="progressive">1</property>
  <property name="seekable">1</property>
  <property name="meta.media.width">1500</property>
  <property name="meta.media.height">600</property>
  <property name="mlt_service">qimage</property>
  <property name="kdenlive:clipname">train_error_graph_theory</property>
  <property name="luma_duration">25</property>
  <property name="fade">0</property>
  <property name="crop">0</property>
  <property name="loop">0</property>
  <property name="kdenlive:duration">00:00:08.000</property>
  <property name="kdenlive:folderid">-1</property>
  <property name="kdenlive:id">63</property>
  <property name="kdenlive:file_hash">75b291d6b2ff5db861a98054e59fd350</property>
  <property name="global_feed">1</property>
 </producer>
 <producer id="producer62" in="00:00:00.000" out="00:00:35.000">
  <property name="length">876</property>
  <property name="eof">pause</property>
  <property name="resource">0xffffffff</property>
  <property name="aspect_ratio">1</property>
  <property name="mlt_service">color</property>
  <property name="kdenlive:clipname">Color Clip</property>
  <property name="kdenlive:duration">00:00:05.000</property>
  <property name="kdenlive:folderid">-1</property>
  <property name="kdenlive:id">64</property>
  <property name="mlt_image_format">rgb24</property>
  <property name="kdenlive:file_hash">039b56a692cd66eefeea44a17539e5a2</property>
  <property name="global_feed">1</property>
 </producer>
 <producer id="producer63" in="00:00:00.000" out="00:00:07.960">
  <property name="length">00:00:08.000</property>
  <property name="eof">pause</property>
  <property name="resource">vid_files/9_pol_example/train_error_graph_theory_val/train_error_graph_theory_val%03d.png</property>
  <property name="ttl">1</property>
  <property name="aspect_ratio">1</property>
  <property name="progressive">1</property>
  <property name="seekable">1</property>
  <property name="meta.media.width">1500</property>
  <property name="meta.media.height">600</property>
  <property name="mlt_service">qimage</property>
  <property name="kdenlive:clipname">train_error_graph_theory_val</property>
  <property name="luma_duration">25</property>
  <property name="fade">0</property>
  <property name="crop">0</property>
  <property name="loop">0</property>
  <property name="kdenlive:duration">00:00:08.000</property>
  <property name="kdenlive:folderid">-1</property>
  <property name="kdenlive:id">65</property>
  <property name="kdenlive:file_hash">e096fd76c9c1926c50df72e9862fdfa7</property>
  <property name="global_feed">1</property>
 </producer>
 <producer id="producer64" in="00:00:00.000" out="00:00:04.960">
  <property name="length">00:00:05.000</property>
  <property name="eof">pause</property>
  <property name="resource">vid_files/10_chapters/graph_intro/graph_intro000.png</property>
  <property name="ttl">25</property>
  <property name="aspect_ratio">1</property>
  <property name="progressive">1</property>
  <property name="seekable">1</property>
  <property name="meta.media.width">1920</property>
  <property name="meta.media.height">1080</property>
  <property name="mlt_service">qimage</property>
  <property name="kdenlive:clipname"/>
  <property name="kdenlive:duration">00:00:05.000</property>
  <property name="kdenlive:folderid">-1</property>
  <property name="kdenlive:id">66</property>
  <property name="kdenlive:file_size">9350</property>
  <property name="kdenlive:file_hash">62121468fee5ff81707b33073d4b095b</property>
  <property name="global_feed">1</property>
 </producer>
 <producer id="producer65" in="00:00:00.000" out="00:00:00.760">
  <property name="length">00:00:00.800</property>
  <property name="eof">pause</property>
  <property name="resource">vid_files/10_chapters/graph_intro/graph_intro%03d.png</property>
  <property name="ttl">1</property>
  <property name="aspect_ratio">1</property>
  <property name="progressive">1</property>
  <property name="seekable">1</property>
  <property name="meta.media.width">1920</property>
  <property name="meta.media.height">1080</property>
  <property name="mlt_service">qimage</property>
  <property name="kdenlive:clipname">graph_intro</property>
  <property name="luma_duration">25</property>
  <property name="fade">0</property>
  <property name="crop">0</property>
  <property name="loop">0</property>
  <property name="kdenlive:duration">00:00:00.800</property>
  <property name="kdenlive:folderid">-1</property>
  <property name="kdenlive:id">67</property>
  <property name="kdenlive:file_hash">1da2d41ecb8eec03b356cbd3f353fb16</property>
  <property name="global_feed">1</property>
 </producer>
 <producer id="producer66" in="00:00:00.000" out="00:00:05.560">
  <property name="length">00:00:05.600</property>
  <property name="eof">pause</property>
  <property name="resource">vid_files/10_chapters/chap2_/chap2_%03d.png</property>
  <property name="ttl">1</property>
  <property name="aspect_ratio">1</property>
  <property name="progressive">1</property>
  <property name="seekable">1</property>
  <property name="meta.media.width">1920</property>
  <property name="meta.media.height">1080</property>
  <property name="mlt_service">qimage</property>
  <property name="kdenlive:clipname">chap2_</property>
  <property name="luma_duration">25</property>
  <property name="fade">0</property>
  <property name="crop">0</property>
  <property name="loop">0</property>
  <property name="kdenlive:duration">00:00:05.600</property>
  <property name="kdenlive:folderid">-1</property>
  <property name="kdenlive:id">68</property>
  <property name="kdenlive:file_hash">27a4c3509abac3bcda5f2cd3fe7faba1</property>
  <property name="global_feed">1</property>
 </producer>
 <producer id="producer67" in="00:00:00.000" out="00:00:07.680">
  <property name="length">193</property>
  <property name="eof">pause</property>
  <property name="resource">vid_files/3_bias_variance_decompose/thrower_bias/thrower_bias069.png</property>
  <property name="ttl">25</property>
  <property name="aspect_ratio">1</property>
  <property name="progressive">1</property>
  <property name="seekable">1</property>
  <property name="meta.media.width">1920</property>
  <property name="meta.media.height">1080</property>
  <property name="mlt_service">qimage</property>
  <property name="kdenlive:clipname"/>
  <property name="kdenlive:duration">00:00:05.000</property>
  <property name="kdenlive:folderid">-1</property>
  <property name="kdenlive:id">69</property>
  <property name="kdenlive:file_size">26894</property>
  <property name="kdenlive:file_hash">dd5b9a97a8e32b73113b60a694f5bca9</property>
 </producer>
 <producer id="producer68" in="00:00:00.000" out="00:00:07.840">
  <property name="length">197</property>
  <property name="eof">pause</property>
  <property name="resource">vid_files/3_bias_variance_decompose/intro/intro099.png</property>
  <property name="ttl">25</property>
  <property name="aspect_ratio">1</property>
  <property name="progressive">1</property>
  <property name="seekable">1</property>
  <property name="meta.media.width">1920</property>
  <property name="meta.media.height">1080</property>
  <property name="mlt_service">qimage</property>
  <property name="kdenlive:clipname"/>
  <property name="kdenlive:duration">00:00:05.000</property>
  <property name="kdenlive:folderid">-1</property>
  <property name="kdenlive:id">70</property>
  <property name="kdenlive:file_size">25539</property>
  <property name="kdenlive:file_hash">e0f814d7dff72287b308f835b36281a2</property>
 </producer>
 <producer id="producer69" in="00:00:00.000" out="00:00:11.120">
  <property name="length">279</property>
  <property name="eof">pause</property>
  <property name="resource">vid_files/3_bias_variance_decompose/thrower_var/thrower_var069.png</property>
  <property name="ttl">25</property>
  <property name="aspect_ratio">1</property>
  <property name="progressive">1</property>
  <property name="seekable">1</property>
  <property name="meta.media.width">1920</property>
  <property name="meta.media.height">1080</property>
  <property name="mlt_service">qimage</property>
  <property name="kdenlive:clipname"/>
  <property name="kdenlive:duration">00:00:05.000</property>
  <property name="kdenlive:folderid">-1</property>
  <property name="kdenlive:id">71</property>
  <property name="kdenlive:file_size">27004</property>
  <property name="kdenlive:file_hash">32732383765ae92e6351bb38f87983c3</property>
 </producer>
 <producer id="producer70" in="00:00:00.000" out="00:00:07.960">
  <property name="length">00:00:08.000</property>
  <property name="eof">pause</property>
  <property name="resource">vid_files/9_pol_example/train_error_graph_theory_val_vb/train_error_graph_theory_val_vb%03d.png</property>
  <property name="ttl">1</property>
  <property name="aspect_ratio">1</property>
  <property name="progressive">1</property>
  <property name="seekable">1</property>
  <property name="meta.media.width">1500</property>
  <property name="meta.media.height">600</property>
  <property name="mlt_service">qimage</property>
  <property name="kdenlive:clipname">train_error_graph_theory_val_vb</property>
  <property name="luma_duration">25</property>
  <property name="fade">0</property>
  <property name="crop">0</property>
  <property name="loop">0</property>
  <property name="kdenlive:duration">00:00:08.000</property>
  <property name="kdenlive:folderid">-1</property>
  <property name="kdenlive:id">72</property>
  <property name="kdenlive:file_hash">c4a7265ecab85364a7197930947a1f39</property>
  <property name="global_feed">1</property>
 </producer>
 <producer id="producer71" in="00:00:00.000" out="00:00:02.760">
  <property name="length">00:00:02.800</property>
  <property name="eof">pause</property>
  <property name="resource">vid_files/3_bias_variance_decompose/thrower_both/thrower_both%03d.png</property>
  <property name="ttl">1</property>
  <property name="aspect_ratio">1</property>
  <property name="progressive">1</property>
  <property name="seekable">1</property>
  <property name="meta.media.width">1920</property>
  <property name="meta.media.height">1080</property>
  <property name="mlt_service">qimage</property>
  <property name="kdenlive:clipname">thrower_both</property>
  <property name="luma_duration">25</property>
  <property name="fade">0</property>
  <property name="crop">0</property>
  <property name="loop">0</property>
  <property name="kdenlive:duration">00:00:02.800</property>
  <property name="kdenlive:folderid">-1</property>
  <property name="kdenlive:id">73</property>
  <property name="kdenlive:file_hash">610f37948f4b01c7f68acac602229213</property>
  <property name="global_feed">1</property>
 </producer>
 <producer id="producer72" in="00:00:00.000" out="00:00:04.960">
  <property name="length">00:00:05.000</property>
  <property name="eof">pause</property>
  <property name="resource">vid_files/3_bias_variance_decompose/thrower_both/thrower_both040.png</property>
  <property name="ttl">25</property>
  <property name="aspect_ratio">1</property>
  <property name="progressive">1</property>
  <property name="seekable">1</property>
  <property name="meta.media.width">1920</property>
  <property name="meta.media.height">1080</property>
  <property name="mlt_service">qimage</property>
  <property name="kdenlive:clipname"/>
  <property name="kdenlive:duration">00:00:05.000</property>
  <property name="kdenlive:folderid">-1</property>
  <property name="kdenlive:id">74</property>
  <property name="kdenlive:file_size">46849</property>
  <property name="kdenlive:file_hash">fa35f757257061218c2092049b807d9e</property>
 </producer>
 <producer id="producer73" in="00:00:00.000" out="00:00:03.960">
  <property name="length">00:00:04.000</property>
  <property name="eof">pause</property>
  <property name="resource">vid_files/2_mnist/feed_dataset/feed_dataset%03d.png</property>
  <property name="ttl">1</property>
  <property name="aspect_ratio">1</property>
  <property name="progressive">1</property>
  <property name="seekable">1</property>
  <property name="meta.media.width">1920</property>
  <property name="meta.media.height">1080</property>
  <property name="mlt_service">qimage</property>
  <property name="kdenlive:clipname">feed_dataset</property>
  <property name="luma_duration">25</property>
  <property name="fade">0</property>
  <property name="crop">0</property>
  <property name="loop">0</property>
  <property name="kdenlive:duration">00:00:04.000</property>
  <property name="kdenlive:folderid">-1</property>
  <property name="kdenlive:id">75</property>
  <property name="kdenlive:file_hash">79b05176eb1f0a071558fc9a1080a8e2</property>
  <property name="global_feed">1</property>
 </producer>
 <producer id="producer74" in="00:00:00.000" out="00:00:03.960">
  <property name="length">00:00:04.000</property>
  <property name="eof">pause</property>
  <property name="resource">vid_files/2_mnist/eval/eval%03d.png</property>
  <property name="ttl">1</property>
  <property name="aspect_ratio">1</property>
  <property name="progressive">1</property>
  <property name="seekable">1</property>
  <property name="meta.media.width">1920</property>
  <property name="meta.media.height">1080</property>
  <property name="mlt_service">qimage</property>
  <property name="kdenlive:clipname">eval</property>
  <property name="luma_duration">25</property>
  <property name="fade">0</property>
  <property name="crop">0</property>
  <property name="loop">0</property>
  <property name="kdenlive:duration">00:00:04.000</property>
  <property name="kdenlive:folderid">-1</property>
  <property name="kdenlive:id">76</property>
  <property name="kdenlive:file_hash">ce0ba68ac5659f9c5ae48cef9002f3e9</property>
  <property name="global_feed">1</property>
 </producer>
 <producer id="producer75" in="00:00:00.000" out="00:00:04.960">
  <property name="length">00:00:05.000</property>
  <property name="eof">pause</property>
  <property name="resource">vid_files/3_bias_variance_decompose/src/y.png</property>
  <property name="ttl">25</property>
  <property name="aspect_ratio">1</property>
  <property name="progressive">1</property>
  <property name="seekable">1</property>
  <property name="meta.media.width">46</property>
  <property name="meta.media.height">64</property>
  <property name="mlt_service">qimage</property>
  <property name="kdenlive:clipname"/>
  <property name="kdenlive:duration">00:00:05.000</property>
  <property name="kdenlive:folderid">-1</property>
  <property name="kdenlive:id">77</property>
  <property name="kdenlive:file_size">1039</property>
  <property name="kdenlive:file_hash">7904cce03c0c2101963e1a23e9954ea4</property>
 </producer>
 <producer id="producer76" in="00:00:00.000" out="00:00:04.760">
  <property name="length">00:00:04.800</property>
  <property name="eof">pause</property>
  <property name="resource">vid_files/0_draw/arrow/arrow%03d.png</property>
  <property name="ttl">1</property>
  <property name="aspect_ratio">1</property>
  <property name="progressive">1</property>
  <property name="seekable">1</property>
  <property name="meta.media.width">800</property>
  <property name="meta.media.height">800</property>
  <property name="mlt_service">qimage</property>
  <property name="kdenlive:clipname">arrow</property>
  <property name="luma_duration">25</property>
  <property name="fade">0</property>
  <property name="crop">0</property>
  <property name="loop">0</property>
  <property name="kdenlive:duration">00:00:04.800</property>
  <property name="kdenlive:folderid">-1</property>
  <property name="kdenlive:id">78</property>
  <property name="kdenlive:file_hash">7bc9d11c6ab316ea4471b769bb8a7ca3</property>
  <property name="global_feed">1</property>
 </producer>
 <producer id="producer77" in="00:00:00.000" out="00:00:04.960">
  <property name="length">00:00:05.000</property>
  <property name="eof">pause</property>
  <property name="resource">vid_files/3_bias_variance_decompose/src/y_hat_b.png</property>
  <property name="ttl">25</property>
  <property name="aspect_ratio">1</property>
  <property name="progressive">1</property>
  <property name="seekable">1</property>
  <property name="meta.media.width">80</property>
  <property name="meta.media.height">89</property>
  <property name="mlt_service">qimage</property>
  <property name="kdenlive:clipname"/>
  <property name="kdenlive:duration">00:00:05.000</property>
  <property name="kdenlive:folderid">-1</property>
  <property name="kdenlive:id">79</property>
  <property name="kdenlive:file_size">1976</property>
  <property name="kdenlive:file_hash">fae435dd32c4cc8c3b6eb50b9e4db701</property>
 </producer>
 <producer id="producer78" in="00:00:00.000" out="00:00:05.200">
  <property name="length">00:00:05.240</property>
  <property name="eof">pause</property>
  <property name="resource">vid_files/3_bias_variance_decompose/src/bias.png</property>
  <property name="ttl">25</property>
  <property name="aspect_ratio">1</property>
  <property name="progressive">1</property>
  <property name="seekable">1</property>
  <property name="meta.media.width">757</property>
  <property name="meta.media.height">100</property>
  <property name="mlt_service">qimage</property>
  <property name="kdenlive:clipname"/>
  <property name="kdenlive:duration">00:00:05.000</property>
  <property name="kdenlive:folderid">-1</property>
  <property name="kdenlive:id">80</property>
  <property name="kdenlive:file_size">8067</property>
  <property name="kdenlive:file_hash">89d8c0ecf8fb0f1a62dcb649531ca35d</property>
  <property name="global_feed">1</property>
 </producer>
 <producer id="producer79" in="00:00:00.000" out="00:00:04.960">
  <property name="length">00:00:05.000</property>
  <property name="eof">pause</property>
  <property name="resource">vid_files/3_bias_variance_decompose/src/y_hat.png</property>
  <property name="ttl">25</property>
  <property name="aspect_ratio">1</property>
  <property name="progressive">1</property>
  <property name="seekable">1</property>
  <property name="meta.media.width">46</property>
  <property name="meta.media.height">89</property>
  <property name="mlt_service">qimage</property>
  <property name="kdenlive:clipname"/>
  <property name="kdenlive:duration">00:00:05.000</property>
  <property name="kdenlive:folderid">-1</property>
  <property name="kdenlive:id">81</property>
  <property name="kdenlive:file_size">1231</property>
  <property name="kdenlive:file_hash">3b09286a2efb13c2d73e1e3fc069246d</property>
 </producer>
 <producer id="producer80" in="00:00:00.000" out="00:00:08.040">
  <property name="length">202</property>
  <property name="eof">pause</property>
  <property name="resource">vid_files/3_bias_variance_decompose/src/var.png</property>
  <property name="ttl">25</property>
  <property name="aspect_ratio">1</property>
  <property name="progressive">1</property>
  <property name="seekable">1</property>
  <property name="meta.media.width">963</property>
  <property name="meta.media.height">107</property>
  <property name="mlt_service">qimage</property>
  <property name="kdenlive:clipname"/>
  <property name="kdenlive:duration">00:00:05.000</property>
  <property name="kdenlive:folderid">-1</property>
  <property name="kdenlive:id">82</property>
  <property name="kdenlive:file_size">9611</property>
  <property name="kdenlive:file_hash">fa70a6b4b8601552769b7c08565cc809</property>
 </producer>
 <producer id="producer81" in="00:00:00.000" out="00:00:03.960">
  <property name="length">00:00:04.000</property>
  <property name="eof">pause</property>
  <property name="resource">vid_files/9_pol_example/draw_true_fuction/draw_true_fuction%03d.png</property>
  <property name="ttl">1</property>
  <property name="aspect_ratio">1</property>
  <property name="progressive">1</property>
  <property name="seekable">1</property>
  <property name="meta.media.width">1500</property>
  <property name="meta.media.height">600</property>
  <property name="mlt_service">qimage</property>
  <property name="kdenlive:clipname">draw_true_fuction</property>
  <property name="luma_duration">25</property>
  <property name="fade">0</property>
  <property name="crop">0</property>
  <property name="loop">0</property>
  <property name="kdenlive:duration">00:00:04.000</property>
  <property name="kdenlive:folderid">-1</property>
  <property name="kdenlive:id">83</property>
  <property name="kdenlive:file_hash">9f335f3efda2700d76d482b50e015266</property>
  <property name="global_feed">1</property>
 </producer>
 <producer id="producer82" in="00:00:00.000" out="00:00:42.840">
  <property name="length">1072</property>
  <property name="eof">pause</property>
  <property name="resource">vid_files/9_pol_example/draw_true_fuction/draw_true_fuction099.png</property>
  <property name="ttl">25</property>
  <property name="aspect_ratio">1</property>
  <property name="progressive">1</property>
  <property name="seekable">1</property>
  <property name="meta.media.width">1500</property>
  <property name="meta.media.height">600</property>
  <property name="mlt_service">qimage</property>
  <property name="kdenlive:clipname"/>
  <property name="kdenlive:duration">00:00:05.000</property>
  <property name="kdenlive:folderid">-1</property>
  <property name="kdenlive:id">84</property>
  <property name="kdenlive:file_size">34828</property>
  <property name="kdenlive:file_hash">4feba725d1ff80b6e48174d496fd771f</property>
  <property name="global_feed">1</property>
 </producer>
 <producer id="producer83" in="00:00:00.000" out="00:00:03.960">
  <property name="length">00:00:04.000</property>
  <property name="eof">pause</property>
  <property name="resource">vid_files/9_pol_example/draw_data_points/draw_data_points%03d.png</property>
  <property name="ttl">1</property>
  <property name="aspect_ratio">1</property>
  <property name="progressive">1</property>
  <property name="seekable">1</property>
  <property name="meta.media.width">1500</property>
  <property name="meta.media.height">600</property>
  <property name="mlt_service">qimage</property>
  <property name="kdenlive:clipname">draw_data_points</property>
  <property name="luma_duration">25</property>
  <property name="fade">0</property>
  <property name="crop">0</property>
  <property name="loop">0</property>
  <property name="kdenlive:duration">00:00:04.000</property>
  <property name="kdenlive:folderid">-1</property>
  <property name="kdenlive:id">85</property>
  <property name="kdenlive:file_hash">5619bd48fa442dd941ac92cbd9b76555</property>
  <property name="global_feed">1</property>
 </producer>
 <producer id="producer84" in="00:00:00.000" out="00:00:08.480">
  <property name="length">213</property>
  <property name="eof">pause</property>
  <property name="resource">vid_files/3_bias_variance_decompose/src/poly_true.png</property>
  <property name="ttl">25</property>
  <property name="aspect_ratio">1</property>
  <property name="progressive">1</property>
  <property name="seekable">1</property>
  <property name="meta.media.width">827</property>
  <property name="meta.media.height">102</property>
  <property name="mlt_service">qimage</property>
  <property name="kdenlive:clipname"/>
  <property name="kdenlive:duration">00:00:05.000</property>
  <property name="kdenlive:folderid">-1</property>
  <property name="kdenlive:id">86</property>
  <property name="kdenlive:file_size">7180</property>
  <property name="kdenlive:file_hash">9ab39175ed347ca9891c9688734767ec</property>
 </producer>
 <producer id="producer85" in="00:00:00.000" out="00:00:08.080">
  <property name="length">203</property>
  <property name="eof">pause</property>
  <property name="resource">vid_files/3_bias_variance_decompose/src/poly_second.png</property>
  <property name="ttl">25</property>
  <property name="aspect_ratio">1</property>
  <property name="progressive">1</property>
  <property name="seekable">1</property>
  <property name="meta.media.width">800</property>
  <property name="meta.media.height">102</property>
  <property name="mlt_service">qimage</property>
  <property name="kdenlive:clipname"/>
  <property name="kdenlive:duration">00:00:05.000</property>
  <property name="kdenlive:folderid">-1</property>
  <property name="kdenlive:id">87</property>
  <property name="kdenlive:file_size">6526</property>
  <property name="kdenlive:file_hash">0f54111730855466f1077b6cd825cc9e</property>
  <property name="global_feed">1</property>
 </producer>
 <producer id="producer86" in="00:00:00.000" out="00:00:08.080">
  <property name="length">203</property>
  <property name="eof">pause</property>
  <property name="resource">vid_files/3_bias_variance_decompose/src/n_poly.png</property>
  <property name="ttl">25</property>
  <property name="aspect_ratio">1</property>
  <property name="progressive">1</property>
  <property name="seekable">1</property>
  <property name="meta.media.width">1466</property>
  <property name="meta.media.height">107</property>
  <property name="mlt_service">qimage</property>
  <property name="kdenlive:clipname"/>
  <property name="kdenlive:duration">00:00:05.000</property>
  <property name="kdenlive:folderid">-1</property>
  <property name="kdenlive:id">88</property>
  <property name="kdenlive:file_size">10653</property>
  <property name="kdenlive:file_hash">3611c06a7a213326068326f9923c6e68</property>
 </producer>
 <producer id="producer87" in="00:00:00.000" out="00:00:07.960">
  <property name="length">00:00:08.000</property>
  <property name="eof">pause</property>
  <property name="resource">vid_files/9_pol_example/fitting_2_poly/fitting_2_poly%03d.png</property>
  <property name="ttl">1</property>
  <property name="aspect_ratio">1</property>
  <property name="progressive">1</property>
  <property name="seekable">1</property>
  <property name="meta.media.width">1500</property>
  <property name="meta.media.height">600</property>
  <property name="mlt_service">qimage</property>
  <property name="kdenlive:clipname">fitting_2_poly</property>
  <property name="luma_duration">25</property>
  <property name="fade">0</property>
  <property name="crop">0</property>
  <property name="loop">0</property>
  <property name="kdenlive:duration">00:00:08.000</property>
  <property name="kdenlive:folderid">-1</property>
  <property name="kdenlive:id">89</property>
  <property name="kdenlive:file_hash">2ce56babe57a7082cf34662e43b24756</property>
  <property name="global_feed">1</property>
 </producer>
 <producer id="producer88" in="00:00:00.000" out="00:00:16.800">
  <property name="length">500</property>
  <property name="eof">pause</property>
  <property name="resource">vid_files/9_pol_example/train_error_02/train_error_%05d.png?begin=2000</property>
  <property name="ttl">1</property>
  <property name="aspect_ratio">1</property>
  <property name="progressive">1</property>
  <property name="seekable">1</property>
  <property name="begin">2000</property>
  <property name="meta.media.width">1239</property>
  <property name="meta.media.height">538</property>
  <property name="mlt_service">qimage</property>
  <property name="kdenlive:clipname">train_error_</property>
  <property name="luma_duration">25</property>
  <property name="fade">0</property>
  <property name="crop">0</property>
  <property name="loop">0</property>
  <property name="kdenlive:duration">00:00:16.840</property>
  <property name="kdenlive:folderid">-1</property>
  <property name="kdenlive:id">90</property>
  <property name="kdenlive:file_hash">6df852ab147e7f548cf8f7b7aefe6db7</property>
  <property name="global_feed">1</property>
 </producer>
 <producer id="producer89" in="00:00:00.000" out="00:00:11.960">
  <property name="length">00:00:12.000</property>
  <property name="eof">pause</property>
  <property name="resource">vid_files/9_pol_example/train_error/train_error%03d.png</property>
  <property name="ttl">1</property>
  <property name="aspect_ratio">1</property>
  <property name="progressive">1</property>
  <property name="seekable">1</property>
  <property name="meta.media.width">1231</property>
  <property name="meta.media.height">537</property>
  <property name="mlt_service">qimage</property>
  <property name="kdenlive:clipname">train_error</property>
  <property name="luma_duration">25</property>
  <property name="fade">0</property>
  <property name="crop">0</property>
  <property name="loop">0</property>
  <property name="kdenlive:duration">00:00:12.000</property>
  <property name="kdenlive:folderid">-1</property>
  <property name="kdenlive:id">91</property>
  <property name="kdenlive:file_hash">978449064b570790218b20a0691ea7d8</property>
  <property name="global_feed">1</property>
 </producer>
 <producer id="producer90" in="00:00:00.000" out="00:00:19.960">
  <property name="length">00:00:20.000</property>
  <property name="eof">pause</property>
  <property name="resource">vid_files/9_pol_example/res/res%03d.png</property>
  <property name="ttl">1</property>
  <property name="aspect_ratio">1</property>
  <property name="progressive">1</property>
  <property name="seekable">1</property>
  <property name="meta.media.width">1500</property>
  <property name="meta.media.height">600</property>
  <property name="mlt_service">qimage</property>
  <property name="kdenlive:clipname">res</property>
  <property name="luma_duration">25</property>
  <property name="fade">0</property>
  <property name="crop">0</property>
  <property name="loop">0</property>
  <property name="kdenlive:duration">00:00:20.000</property>
  <property name="kdenlive:folderid">-1</property>
  <property name="kdenlive:id">92</property>
  <property name="kdenlive:file_hash">4abf26c17e08377977c6d5c715cb4c97</property>
  <property name="global_feed">1</property>
 </producer>
 <producer id="producer91" in="00:00:00.000" out="00:00:05.040">
  <property name="length">127</property>
  <property name="eof">pause</property>
  <property name="resource">vid_files/0_clips/2021-08-18 11-11-21.mp4</property>
  <property name="audio_index">1</property>
  <property name="video_index">0</property>
  <property name="mute_on_pause">0</property>
  <property name="mlt_service">avformat-novalidate</property>
  <property name="meta.media.nb_streams">2</property>
  <property name="meta.media.0.stream.type">video</property>
  <property name="meta.media.0.stream.frame_rate">30</property>
  <property name="meta.media.0.stream.sample_aspect_ratio">0</property>
  <property name="meta.media.0.codec.width">1280</property>
  <property name="meta.media.0.codec.height">720</property>
  <property name="meta.media.0.codec.rotate">0</property>
  <property name="meta.media.0.codec.frame_rate">30</property>
  <property name="meta.media.0.codec.pix_fmt">yuv420p</property>
  <property name="meta.media.0.codec.sample_aspect_ratio">1</property>
  <property name="meta.media.0.codec.colorspace">709</property>
  <property name="meta.media.0.codec.color_trc">1</property>
  <property name="meta.media.0.codec.name">h264</property>
  <property name="meta.media.0.codec.long_name">H.264 / AVC / MPEG-4 AVC / MPEG-4 part 10</property>
  <property name="meta.media.0.codec.bit_rate">647154</property>
  <property name="meta.attr.0.stream.handler_name.markup">VideoHandler</property>
  <property name="meta.media.1.stream.type">audio</property>
  <property name="meta.media.1.codec.sample_fmt">fltp</property>
  <property name="meta.media.1.codec.sample_rate">48000</property>
  <property name="meta.media.1.codec.channels">2</property>
  <property name="meta.media.1.codec.name">aac</property>
  <property name="meta.media.1.codec.long_name">AAC (Advanced Audio Coding)</property>
  <property name="meta.media.1.codec.bit_rate">193827</property>
  <property name="meta.attr.1.stream.handler_name.markup">SoundHandler</property>
  <property name="meta.attr.major_brand.markup">isom</property>
  <property name="meta.attr.minor_version.markup">512</property>
  <property name="meta.attr.compatible_brands.markup">isomiso2avc1mp41</property>
  <property name="meta.attr.encoder.markup">Lavf58.29.100</property>
  <property name="seekable">1</property>
  <property name="meta.media.sample_aspect_num">1</property>
  <property name="meta.media.sample_aspect_den">1</property>
  <property name="aspect_ratio">1</property>
  <property name="kdenlive:clipname"/>
  <property name="kdenlive:folderid">-1</property>
  <property name="meta.media.frame_rate_num">30</property>
  <property name="meta.media.frame_rate_den">1</property>
  <property name="meta.media.colorspace">709</property>
  <property name="meta.media.color_trc">1</property>
  <property name="meta.media.width">1280</property>
  <property name="meta.media.height">720</property>
  <property name="meta.media.color_range">mpeg</property>
  <property name="kdenlive:id">93</property>
  <property name="kdenlive:file_size">541009</property>
  <property name="kdenlive:file_hash">4b65f1ac37846746260fea614b572076</property>
  <property name="kdenlive:audio_max">17</property>
  <property name="meta.media.top_field_first">0</property>
  <property name="meta.media.progressive">1</property>
  <property name="global_feed">1</property>
 </producer>
 <producer id="producer92" in="00:00:00.000" out="00:00:04.240">
  <property name="length">107</property>
  <property name="eof">pause</property>
  <property name="resource">vid_files/0_clips/2021-08-18 11-11-42.mp4</property>
  <property name="audio_index">1</property>
  <property name="video_index">0</property>
  <property name="mute_on_pause">0</property>
  <property name="mlt_service">avformat-novalidate</property>
  <property name="meta.media.nb_streams">2</property>
  <property name="meta.media.0.stream.type">video</property>
  <property name="meta.media.0.stream.frame_rate">30</property>
  <property name="meta.media.0.stream.sample_aspect_ratio">0</property>
  <property name="meta.media.0.codec.width">1280</property>
  <property name="meta.media.0.codec.height">720</property>
  <property name="meta.media.0.codec.rotate">0</property>
  <property name="meta.media.0.codec.frame_rate">30</property>
  <property name="meta.media.0.codec.pix_fmt">yuv420p</property>
  <property name="meta.media.0.codec.sample_aspect_ratio">1</property>
  <property name="meta.media.0.codec.colorspace">709</property>
  <property name="meta.media.0.codec.color_trc">1</property>
  <property name="meta.media.0.codec.name">h264</property>
  <property name="meta.media.0.codec.long_name">H.264 / AVC / MPEG-4 AVC / MPEG-4 part 10</property>
  <property name="meta.media.0.codec.bit_rate">747847</property>
  <property name="meta.attr.0.stream.handler_name.markup">VideoHandler</property>
  <property name="meta.media.1.stream.type">audio</property>
  <property name="meta.media.1.codec.sample_fmt">fltp</property>
  <property name="meta.media.1.codec.sample_rate">48000</property>
  <property name="meta.media.1.codec.channels">2</property>
  <property name="meta.media.1.codec.name">aac</property>
  <property name="meta.media.1.codec.long_name">AAC (Advanced Audio Coding)</property>
  <property name="meta.media.1.codec.bit_rate">192926</property>
  <property name="meta.attr.1.stream.handler_name.markup">SoundHandler</property>
  <property name="meta.attr.major_brand.markup">isom</property>
  <property name="meta.attr.minor_version.markup">512</property>
  <property name="meta.attr.compatible_brands.markup">isomiso2avc1mp41</property>
  <property name="meta.attr.encoder.markup">Lavf58.29.100</property>
  <property name="seekable">1</property>
  <property name="meta.media.sample_aspect_num">1</property>
  <property name="meta.media.sample_aspect_den">1</property>
  <property name="aspect_ratio">1</property>
  <property name="kdenlive:clipname"/>
  <property name="kdenlive:folderid">-1</property>
  <property name="meta.media.frame_rate_num">30</property>
  <property name="meta.media.frame_rate_den">1</property>
  <property name="meta.media.colorspace">709</property>
  <property name="meta.media.color_trc">1</property>
  <property name="meta.media.width">1280</property>
  <property name="meta.media.height">720</property>
  <property name="meta.media.color_range">mpeg</property>
  <property name="kdenlive:id">94</property>
  <property name="kdenlive:file_size">505751</property>
  <property name="kdenlive:file_hash">cbd5add79e8fe4082ff1a141155d8290</property>
  <property name="kdenlive:audio_max">20</property>
  <property name="meta.media.top_field_first">0</property>
  <property name="meta.media.progressive">1</property>
  <property name="global_feed">1</property>
 </producer>
 <producer id="producer93" in="00:00:00.000" out="00:00:01.480">
  <property name="length">38</property>
  <property name="eof">pause</property>
  <property name="resource">vid_files/0_clips/2021-08-18 11-13-39.mp4</property>
  <property name="audio_index">1</property>
  <property name="video_index">0</property>
  <property name="mute_on_pause">0</property>
  <property name="mlt_service">avformat-novalidate</property>
  <property name="meta.media.nb_streams">2</property>
  <property name="meta.media.0.stream.type">video</property>
  <property name="meta.media.0.stream.frame_rate">30</property>
  <property name="meta.media.0.stream.sample_aspect_ratio">0</property>
  <property name="meta.media.0.codec.width">1280</property>
  <property name="meta.media.0.codec.height">720</property>
  <property name="meta.media.0.codec.rotate">0</property>
  <property name="meta.media.0.codec.frame_rate">30</property>
  <property name="meta.media.0.codec.pix_fmt">yuv420p</property>
  <property name="meta.media.0.codec.sample_aspect_ratio">1</property>
  <property name="meta.media.0.codec.colorspace">709</property>
  <property name="meta.media.0.codec.color_trc">1</property>
  <property name="meta.media.0.codec.name">h264</property>
  <property name="meta.media.0.codec.long_name">H.264 / AVC / MPEG-4 AVC / MPEG-4 part 10</property>
  <property name="meta.media.0.codec.bit_rate">1124026</property>
  <property name="meta.attr.0.stream.handler_name.markup">VideoHandler</property>
  <property name="meta.media.1.stream.type">audio</property>
  <property name="meta.media.1.codec.sample_fmt">fltp</property>
  <property name="meta.media.1.codec.sample_rate">48000</property>
  <property name="meta.media.1.codec.channels">2</property>
  <property name="meta.media.1.codec.name">aac</property>
  <property name="meta.media.1.codec.long_name">AAC (Advanced Audio Coding)</property>
  <property name="meta.media.1.codec.bit_rate">196298</property>
  <property name="meta.attr.1.stream.handler_name.markup">SoundHandler</property>
  <property name="meta.attr.major_brand.markup">isom</property>
  <property name="meta.attr.minor_version.markup">512</property>
  <property name="meta.attr.compatible_brands.markup">isomiso2avc1mp41</property>
  <property name="meta.attr.encoder.markup">Lavf58.29.100</property>
  <property name="seekable">1</property>
  <property name="meta.media.sample_aspect_num">1</property>
  <property name="meta.media.sample_aspect_den">1</property>
  <property name="aspect_ratio">1</property>
  <property name="kdenlive:clipname"/>
  <property name="kdenlive:folderid">-1</property>
  <property name="meta.media.frame_rate_num">30</property>
  <property name="meta.media.frame_rate_den">1</property>
  <property name="meta.media.colorspace">709</property>
  <property name="meta.media.color_trc">1</property>
  <property name="meta.media.width">1280</property>
  <property name="meta.media.height">720</property>
  <property name="meta.media.color_range">mpeg</property>
  <property name="kdenlive:id">95</property>
  <property name="kdenlive:file_size">248830</property>
  <property name="kdenlive:file_hash">51be9ee11f54f581dc5454f746d53f33</property>
  <property name="kdenlive:audio_max">23</property>
  <property name="global_feed">1</property>
 </producer>
 <producer id="producer94" in="00:00:00.000" out="00:00:11.240">
  <property name="length">282</property>
  <property name="eof">pause</property>
  <property name="resource">vid_files/0_clips/2021-08-18 11-23-09.mp4</property>
  <property name="audio_index">1</property>
  <property name="video_index">0</property>
  <property name="mute_on_pause">0</property>
  <property name="mlt_service">avformat-novalidate</property>
  <property name="meta.media.nb_streams">2</property>
  <property name="meta.media.0.stream.type">video</property>
  <property name="meta.media.0.stream.frame_rate">30</property>
  <property name="meta.media.0.stream.sample_aspect_ratio">0</property>
  <property name="meta.media.0.codec.width">1280</property>
  <property name="meta.media.0.codec.height">720</property>
  <property name="meta.media.0.codec.rotate">0</property>
  <property name="meta.media.0.codec.frame_rate">30</property>
  <property name="meta.media.0.codec.pix_fmt">yuv420p</property>
  <property name="meta.media.0.codec.sample_aspect_ratio">1</property>
  <property name="meta.media.0.codec.colorspace">709</property>
  <property name="meta.media.0.codec.color_trc">1</property>
  <property name="meta.media.0.codec.name">h264</property>
  <property name="meta.media.0.codec.long_name">H.264 / AVC / MPEG-4 AVC / MPEG-4 part 10</property>
  <property name="meta.media.0.codec.bit_rate">729335</property>
  <property name="meta.attr.0.stream.handler_name.markup">VideoHandler</property>
  <property name="meta.media.1.stream.type">audio</property>
  <property name="meta.media.1.codec.sample_fmt">fltp</property>
  <property name="meta.media.1.codec.sample_rate">48000</property>
  <property name="meta.media.1.codec.channels">2</property>
  <property name="meta.media.1.codec.name">aac</property>
  <property name="meta.media.1.codec.long_name">AAC (Advanced Audio Coding)</property>
  <property name="meta.media.1.codec.bit_rate">192866</property>
  <property name="meta.attr.1.stream.handler_name.markup">SoundHandler</property>
  <property name="meta.attr.major_brand.markup">isom</property>
  <property name="meta.attr.minor_version.markup">512</property>
  <property name="meta.attr.compatible_brands.markup">isomiso2avc1mp41</property>
  <property name="meta.attr.encoder.markup">Lavf58.29.100</property>
  <property name="seekable">1</property>
  <property name="meta.media.sample_aspect_num">1</property>
  <property name="meta.media.sample_aspect_den">1</property>
  <property name="aspect_ratio">1</property>
  <property name="kdenlive:clipname"/>
  <property name="kdenlive:folderid">-1</property>
  <property name="meta.media.frame_rate_num">30</property>
  <property name="meta.media.frame_rate_den">1</property>
  <property name="meta.media.colorspace">709</property>
  <property name="meta.media.color_trc">1</property>
  <property name="meta.media.width">1280</property>
  <property name="meta.media.height">720</property>
  <property name="meta.media.color_range">mpeg</property>
  <property name="kdenlive:id">96</property>
  <property name="kdenlive:file_size">1314525</property>
  <property name="kdenlive:file_hash">66f83fd486df6f7dd0fa46f18b55f620</property>
  <property name="kdenlive:audio_max">14</property>
  <property name="global_feed">1</property>
  <property name="meta.media.top_field_first">0</property>
  <property name="meta.media.progressive">1</property>
 </producer>
 <producer id="producer95" in="00:00:00.000" out="00:01:19.160">
  <property name="length">1980</property>
  <property name="eof">pause</property>
  <property name="resource">vid_files/0_clips/2021-08-18 11-23-31.mp4</property>
  <property name="audio_index">1</property>
  <property name="video_index">0</property>
  <property name="mute_on_pause">0</property>
  <property name="mlt_service">avformat-novalidate</property>
  <property name="meta.media.nb_streams">2</property>
  <property name="meta.media.0.stream.type">video</property>
  <property name="meta.media.0.stream.frame_rate">30</property>
  <property name="meta.media.0.stream.sample_aspect_ratio">0</property>
  <property name="meta.media.0.codec.width">1280</property>
  <property name="meta.media.0.codec.height">720</property>
  <property name="meta.media.0.codec.rotate">0</property>
  <property name="meta.media.0.codec.frame_rate">30</property>
  <property name="meta.media.0.codec.pix_fmt">yuv420p</property>
  <property name="meta.media.0.codec.sample_aspect_ratio">1</property>
  <property name="meta.media.0.codec.colorspace">709</property>
  <property name="meta.media.0.codec.color_trc">1</property>
  <property name="meta.media.0.codec.name">h264</property>
  <property name="meta.media.0.codec.long_name">H.264 / AVC / MPEG-4 AVC / MPEG-4 part 10</property>
  <property name="meta.media.0.codec.bit_rate">625100</property>
  <property name="meta.attr.0.stream.handler_name.markup">VideoHandler</property>
  <property name="meta.media.1.stream.type">audio</property>
  <property name="meta.media.1.codec.sample_fmt">fltp</property>
  <property name="meta.media.1.codec.sample_rate">48000</property>
  <property name="meta.media.1.codec.channels">2</property>
  <property name="meta.media.1.codec.name">aac</property>
  <property name="meta.media.1.codec.long_name">AAC (Advanced Audio Coding)</property>
  <property name="meta.media.1.codec.bit_rate">192122</property>
  <property name="meta.attr.1.stream.handler_name.markup">SoundHandler</property>
  <property name="meta.attr.major_brand.markup">isom</property>
  <property name="meta.attr.minor_version.markup">512</property>
  <property name="meta.attr.compatible_brands.markup">isomiso2avc1mp41</property>
  <property name="meta.attr.encoder.markup">Lavf58.29.100</property>
  <property name="seekable">1</property>
  <property name="meta.media.sample_aspect_num">1</property>
  <property name="meta.media.sample_aspect_den">1</property>
  <property name="aspect_ratio">1</property>
  <property name="kdenlive:clipname"/>
  <property name="kdenlive:folderid">-1</property>
  <property name="meta.media.frame_rate_num">30</property>
  <property name="meta.media.frame_rate_den">1</property>
  <property name="meta.media.colorspace">709</property>
  <property name="meta.media.color_trc">1</property>
  <property name="meta.media.width">1280</property>
  <property name="meta.media.height">720</property>
  <property name="meta.media.color_range">mpeg</property>
  <property name="kdenlive:id">97</property>
  <property name="kdenlive:file_size">8177313</property>
  <property name="kdenlive:file_hash">c4b488d99446f9688d3e1f283f2cff3c</property>
  <property name="kdenlive:audio_max">16</property>
  <property name="global_feed">1</property>
 </producer>
 <producer id="producer96" in="00:00:00.000" out="00:00:04.200">
  <property name="length">106</property>
  <property name="eof">pause</property>
  <property name="resource">vid_files/0_clips/2021-08-18 11-24-54.mp4</property>
  <property name="audio_index">1</property>
  <property name="video_index">0</property>
  <property name="mute_on_pause">0</property>
  <property name="mlt_service">avformat-novalidate</property>
  <property name="meta.media.nb_streams">2</property>
  <property name="meta.media.0.stream.type">video</property>
  <property name="meta.media.0.stream.frame_rate">30</property>
  <property name="meta.media.0.stream.sample_aspect_ratio">0</property>
  <property name="meta.media.0.codec.width">1280</property>
  <property name="meta.media.0.codec.height">720</property>
  <property name="meta.media.0.codec.rotate">0</property>
  <property name="meta.media.0.codec.frame_rate">30</property>
  <property name="meta.media.0.codec.pix_fmt">yuv420p</property>
  <property name="meta.media.0.codec.sample_aspect_ratio">1</property>
  <property name="meta.media.0.codec.colorspace">709</property>
  <property name="meta.media.0.codec.color_trc">1</property>
  <property name="meta.media.0.codec.name">h264</property>
  <property name="meta.media.0.codec.long_name">H.264 / AVC / MPEG-4 AVC / MPEG-4 part 10</property>
  <property name="meta.media.0.codec.bit_rate">521935</property>
  <property name="meta.attr.0.stream.handler_name.markup">VideoHandler</property>
  <property name="meta.media.1.stream.type">audio</property>
  <property name="meta.media.1.codec.sample_fmt">fltp</property>
  <property name="meta.media.1.codec.sample_rate">48000</property>
  <property name="meta.media.1.codec.channels">2</property>
  <property name="meta.media.1.codec.name">aac</property>
  <property name="meta.media.1.codec.long_name">AAC (Advanced Audio Coding)</property>
  <property name="meta.media.1.codec.bit_rate">194328</property>
  <property name="meta.attr.1.stream.handler_name.markup">SoundHandler</property>
  <property name="meta.attr.major_brand.markup">isom</property>
  <property name="meta.attr.minor_version.markup">512</property>
  <property name="meta.attr.compatible_brands.markup">isomiso2avc1mp41</property>
  <property name="meta.attr.encoder.markup">Lavf58.29.100</property>
  <property name="seekable">1</property>
  <property name="meta.media.sample_aspect_num">1</property>
  <property name="meta.media.sample_aspect_den">1</property>
  <property name="aspect_ratio">1</property>
  <property name="kdenlive:clipname"/>
  <property name="kdenlive:folderid">-1</property>
  <property name="meta.media.frame_rate_num">30</property>
  <property name="meta.media.frame_rate_den">1</property>
  <property name="meta.media.colorspace">709</property>
  <property name="meta.media.color_trc">1</property>
  <property name="meta.media.width">1280</property>
  <property name="meta.media.height">720</property>
  <property name="meta.media.color_range">mpeg</property>
  <property name="kdenlive:id">98</property>
  <property name="kdenlive:file_size">383269</property>
  <property name="kdenlive:file_hash">b2f0f69a922c908e44de34e4e3d8fc66</property>
  <property name="kdenlive:audio_max">19</property>
  <property name="global_feed">1</property>
 </producer>
 <producer id="producer97" in="00:00:00.000" out="00:00:07.120">
  <property name="length">179</property>
  <property name="eof">pause</property>
  <property name="resource">vid_files/0_clips/2021-08-18 11-25-02.mp4</property>
  <property name="audio_index">1</property>
  <property name="video_index">0</property>
  <property name="mute_on_pause">0</property>
  <property name="mlt_service">avformat-novalidate</property>
  <property name="meta.media.nb_streams">2</property>
  <property name="meta.media.0.stream.type">video</property>
  <property name="meta.media.0.stream.frame_rate">30</property>
  <property name="meta.media.0.stream.sample_aspect_ratio">0</property>
  <property name="meta.media.0.codec.width">1280</property>
  <property name="meta.media.0.codec.height">720</property>
  <property name="meta.media.0.codec.rotate">0</property>
  <property name="meta.media.0.codec.frame_rate">30</property>
  <property name="meta.media.0.codec.pix_fmt">yuv420p</property>
  <property name="meta.media.0.codec.sample_aspect_ratio">1</property>
  <property name="meta.media.0.codec.colorspace">709</property>
  <property name="meta.media.0.codec.color_trc">1</property>
  <property name="meta.media.0.codec.name">h264</property>
  <property name="meta.media.0.codec.long_name">H.264 / AVC / MPEG-4 AVC / MPEG-4 part 10</property>
  <property name="meta.media.0.codec.bit_rate">585050</property>
  <property name="meta.attr.0.stream.handler_name.markup">VideoHandler</property>
  <property name="meta.media.1.stream.type">audio</property>
  <property name="meta.media.1.codec.sample_fmt">fltp</property>
  <property name="meta.media.1.codec.sample_rate">48000</property>
  <property name="meta.media.1.codec.channels">2</property>
  <property name="meta.media.1.codec.name">aac</property>
  <property name="meta.media.1.codec.long_name">AAC (Advanced Audio Coding)</property>
  <property name="meta.media.1.codec.bit_rate">193339</property>
  <property name="meta.attr.1.stream.handler_name.markup">SoundHandler</property>
  <property name="meta.attr.major_brand.markup">isom</property>
  <property name="meta.attr.minor_version.markup">512</property>
  <property name="meta.attr.compatible_brands.markup">isomiso2avc1mp41</property>
  <property name="meta.attr.encoder.markup">Lavf58.29.100</property>
  <property name="seekable">1</property>
  <property name="meta.media.sample_aspect_num">1</property>
  <property name="meta.media.sample_aspect_den">1</property>
  <property name="aspect_ratio">1</property>
  <property name="kdenlive:clipname"/>
  <property name="kdenlive:folderid">-1</property>
  <property name="meta.media.frame_rate_num">30</property>
  <property name="meta.media.frame_rate_den">1</property>
  <property name="meta.media.colorspace">709</property>
  <property name="meta.media.color_trc">1</property>
  <property name="meta.media.width">1280</property>
  <property name="meta.media.height">720</property>
  <property name="meta.media.color_range">mpeg</property>
  <property name="kdenlive:id">99</property>
  <property name="kdenlive:file_size">704529</property>
  <property name="kdenlive:file_hash">ec23ceadfa88d8ff9824f48d08948a6e</property>
  <property name="kdenlive:audio_max">22</property>
  <property name="global_feed">1</property>
 </producer>
 <producer id="producer98" in="00:00:00.000" out="00:01:06.960">
  <property name="length">1675</property>
  <property name="eof">pause</property>
  <property name="resource">vid_files/0_clips/2021-08-18 11-25-17.mp4</property>
  <property name="audio_index">1</property>
  <property name="video_index">0</property>
  <property name="mute_on_pause">0</property>
  <property name="mlt_service">avformat-novalidate</property>
  <property name="meta.media.nb_streams">2</property>
  <property name="meta.media.0.stream.type">video</property>
  <property name="meta.media.0.stream.frame_rate">30</property>
  <property name="meta.media.0.stream.sample_aspect_ratio">0</property>
  <property name="meta.media.0.codec.width">1280</property>
  <property name="meta.media.0.codec.height">720</property>
  <property name="meta.media.0.codec.rotate">0</property>
  <property name="meta.media.0.codec.frame_rate">30</property>
  <property name="meta.media.0.codec.pix_fmt">yuv420p</property>
  <property name="meta.media.0.codec.sample_aspect_ratio">1</property>
  <property name="meta.media.0.codec.colorspace">709</property>
  <property name="meta.media.0.codec.color_trc">1</property>
  <property name="meta.media.0.codec.name">h264</property>
  <property name="meta.media.0.codec.long_name">H.264 / AVC / MPEG-4 AVC / MPEG-4 part 10</property>
  <property name="meta.media.0.codec.bit_rate">662052</property>
  <property name="meta.attr.0.stream.handler_name.markup">VideoHandler</property>
  <property name="meta.media.1.stream.type">audio</property>
  <property name="meta.media.1.codec.sample_fmt">fltp</property>
  <property name="meta.media.1.codec.sample_rate">48000</property>
  <property name="meta.media.1.codec.channels">2</property>
  <property name="meta.media.1.codec.name">aac</property>
  <property name="meta.media.1.codec.long_name">AAC (Advanced Audio Coding)</property>
  <property name="meta.media.1.codec.bit_rate">192143</property>
  <property name="meta.attr.1.stream.handler_name.markup">SoundHandler</property>
  <property name="meta.attr.major_brand.markup">isom</property>
  <property name="meta.attr.minor_version.markup">512</property>
  <property name="meta.attr.compatible_brands.markup">isomiso2avc1mp41</property>
  <property name="meta.attr.encoder.markup">Lavf58.29.100</property>
  <property name="seekable">1</property>
  <property name="meta.media.sample_aspect_num">1</property>
  <property name="meta.media.sample_aspect_den">1</property>
  <property name="aspect_ratio">1</property>
  <property name="kdenlive:clipname"/>
  <property name="kdenlive:folderid">-1</property>
  <property name="meta.media.frame_rate_num">30</property>
  <property name="meta.media.frame_rate_den">1</property>
  <property name="meta.media.colorspace">709</property>
  <property name="meta.media.color_trc">1</property>
  <property name="meta.media.width">1280</property>
  <property name="meta.media.height">720</property>
  <property name="meta.media.color_range">mpeg</property>
  <property name="kdenlive:id">100</property>
  <property name="kdenlive:file_size">7227206</property>
  <property name="kdenlive:file_hash">0226ef984f3578a8e92c73e5e8fb329b</property>
  <property name="kdenlive:audio_max">16</property>
  <property name="global_feed">1</property>
 </producer>
 <producer id="producer99" in="00:00:00.000" out="00:00:26.840">
  <property name="length">672</property>
  <property name="eof">pause</property>
  <property name="resource">vid_files/0_clips/2021-08-18 11-26-30.mp4</property>
  <property name="audio_index">1</property>
  <property name="video_index">0</property>
  <property name="mute_on_pause">0</property>
  <property name="mlt_service">avformat-novalidate</property>
  <property name="meta.media.nb_streams">2</property>
  <property name="meta.media.0.stream.type">video</property>
  <property name="meta.media.0.stream.frame_rate">30</property>
  <property name="meta.media.0.stream.sample_aspect_ratio">0</property>
  <property name="meta.media.0.codec.width">1280</property>
  <property name="meta.media.0.codec.height">720</property>
  <property name="meta.media.0.codec.rotate">0</property>
  <property name="meta.media.0.codec.frame_rate">30</property>
  <property name="meta.media.0.codec.pix_fmt">yuv420p</property>
  <property name="meta.media.0.codec.sample_aspect_ratio">1</property>
  <property name="meta.media.0.codec.colorspace">709</property>
  <property name="meta.media.0.codec.color_trc">1</property>
  <property name="meta.media.0.codec.name">h264</property>
  <property name="meta.media.0.codec.long_name">H.264 / AVC / MPEG-4 AVC / MPEG-4 part 10</property>
  <property name="meta.media.0.codec.bit_rate">808399</property>
  <property name="meta.attr.0.stream.handler_name.markup">VideoHandler</property>
  <property name="meta.media.1.stream.type">audio</property>
  <property name="meta.media.1.codec.sample_fmt">fltp</property>
  <property name="meta.media.1.codec.sample_rate">48000</property>
  <property name="meta.media.1.codec.channels">2</property>
  <property name="meta.media.1.codec.name">aac</property>
  <property name="meta.media.1.codec.long_name">AAC (Advanced Audio Coding)</property>
  <property name="meta.media.1.codec.bit_rate">192338</property>
  <property name="meta.attr.1.stream.handler_name.markup">SoundHandler</property>
  <property name="meta.attr.major_brand.markup">isom</property>
  <property name="meta.attr.minor_version.markup">512</property>
  <property name="meta.attr.compatible_brands.markup">isomiso2avc1mp41</property>
  <property name="meta.attr.encoder.markup">Lavf58.29.100</property>
  <property name="seekable">1</property>
  <property name="meta.media.sample_aspect_num">1</property>
  <property name="meta.media.sample_aspect_den">1</property>
  <property name="aspect_ratio">1</property>
  <property name="kdenlive:clipname"/>
  <property name="kdenlive:folderid">-1</property>
  <property name="meta.media.frame_rate_num">30</property>
  <property name="meta.media.frame_rate_den">1</property>
  <property name="meta.media.colorspace">709</property>
  <property name="meta.media.color_trc">1</property>
  <property name="meta.media.width">1280</property>
  <property name="meta.media.height">720</property>
  <property name="meta.media.color_range">mpeg</property>
  <property name="kdenlive:id">101</property>
  <property name="kdenlive:file_size">3389982</property>
  <property name="kdenlive:file_hash">a64c8c418ca7315ab5a7c5eb04d78c64</property>
  <property name="kdenlive:audio_max">17</property>
  <property name="global_feed">1</property>
 </producer>
 <producer id="producer100" in="00:00:00.000" out="00:00:39.880">
  <property name="length">998</property>
  <property name="eof">pause</property>
  <property name="resource">vid_files/0_clips/2021-08-18 11-27-02.mp4</property>
  <property name="audio_index">1</property>
  <property name="video_index">0</property>
  <property name="mute_on_pause">0</property>
  <property name="mlt_service">avformat-novalidate</property>
  <property name="meta.media.nb_streams">2</property>
  <property name="meta.media.0.stream.type">video</property>
  <property name="meta.media.0.stream.frame_rate">30</property>
  <property name="meta.media.0.stream.sample_aspect_ratio">0</property>
  <property name="meta.media.0.codec.width">1280</property>
  <property name="meta.media.0.codec.height">720</property>
  <property name="meta.media.0.codec.rotate">0</property>
  <property name="meta.media.0.codec.frame_rate">30</property>
  <property name="meta.media.0.codec.pix_fmt">yuv420p</property>
  <property name="meta.media.0.codec.sample_aspect_ratio">1</property>
  <property name="meta.media.0.codec.colorspace">709</property>
  <property name="meta.media.0.codec.color_trc">1</property>
  <property name="meta.media.0.codec.name">h264</property>
  <property name="meta.media.0.codec.long_name">H.264 / AVC / MPEG-4 AVC / MPEG-4 part 10</property>
  <property name="meta.media.0.codec.bit_rate">742093</property>
  <property name="meta.attr.0.stream.handler_name.markup">VideoHandler</property>
  <property name="meta.media.1.stream.type">audio</property>
  <property name="meta.media.1.codec.sample_fmt">fltp</property>
  <property name="meta.media.1.codec.sample_rate">48000</property>
  <property name="meta.media.1.codec.channels">2</property>
  <property name="meta.media.1.codec.name">aac</property>
  <property name="meta.media.1.codec.long_name">AAC (Advanced Audio Coding)</property>
  <property name="meta.media.1.codec.bit_rate">192243</property>
  <property name="meta.attr.1.stream.handler_name.markup">SoundHandler</property>
  <property name="meta.attr.major_brand.markup">isom</property>
  <property name="meta.attr.minor_version.markup">512</property>
  <property name="meta.attr.compatible_brands.markup">isomiso2avc1mp41</property>
  <property name="meta.attr.encoder.markup">Lavf58.29.100</property>
  <property name="seekable">1</property>
  <property name="meta.media.sample_aspect_num">1</property>
  <property name="meta.media.sample_aspect_den">1</property>
  <property name="aspect_ratio">1</property>
  <property name="kdenlive:clipname"/>
  <property name="kdenlive:folderid">-1</property>
  <property name="meta.media.frame_rate_num">30</property>
  <property name="meta.media.frame_rate_den">1</property>
  <property name="meta.media.colorspace">709</property>
  <property name="meta.media.color_trc">1</property>
  <property name="meta.media.width">1280</property>
  <property name="meta.media.height">720</property>
  <property name="meta.media.color_range">mpeg</property>
  <property name="kdenlive:id">102</property>
  <property name="kdenlive:file_size">4703601</property>
  <property name="kdenlive:file_hash">465ad0dc4efc5d44b32f32682f0da77b</property>
  <property name="kdenlive:audio_max">18</property>
  <property name="global_feed">1</property>
 </producer>
 <producer id="producer101" in="00:00:00.000" out="00:00:36.800">
  <property name="length">921</property>
  <property name="eof">pause</property>
  <property name="resource">vid_files/0_clips/2021-08-18 11-27-44.mp4</property>
  <property name="audio_index">1</property>
  <property name="video_index">0</property>
  <property name="mute_on_pause">0</property>
  <property name="mlt_service">avformat-novalidate</property>
  <property name="meta.media.nb_streams">2</property>
  <property name="meta.media.0.stream.type">video</property>
  <property name="meta.media.0.stream.frame_rate">30</property>
  <property name="meta.media.0.stream.sample_aspect_ratio">0</property>
  <property name="meta.media.0.codec.width">1280</property>
  <property name="meta.media.0.codec.height">720</property>
  <property name="meta.media.0.codec.rotate">0</property>
  <property name="meta.media.0.codec.frame_rate">30</property>
  <property name="meta.media.0.codec.pix_fmt">yuv420p</property>
  <property name="meta.media.0.codec.sample_aspect_ratio">1</property>
  <property name="meta.media.0.codec.colorspace">709</property>
  <property name="meta.media.0.codec.color_trc">1</property>
  <property name="meta.media.0.codec.name">h264</property>
  <property name="meta.media.0.codec.long_name">H.264 / AVC / MPEG-4 AVC / MPEG-4 part 10</property>
  <property name="meta.media.0.codec.bit_rate">690731</property>
  <property name="meta.attr.0.stream.handler_name.markup">VideoHandler</property>
  <property name="meta.media.1.stream.type">audio</property>
  <property name="meta.media.1.codec.sample_fmt">fltp</property>
  <property name="meta.media.1.codec.sample_rate">48000</property>
  <property name="meta.media.1.codec.channels">2</property>
  <property name="meta.media.1.codec.name">aac</property>
  <property name="meta.media.1.codec.long_name">AAC (Advanced Audio Coding)</property>
  <property name="meta.media.1.codec.bit_rate">192262</property>
  <property name="meta.attr.1.stream.handler_name.markup">SoundHandler</property>
  <property name="meta.attr.major_brand.markup">isom</property>
  <property name="meta.attr.minor_version.markup">512</property>
  <property name="meta.attr.compatible_brands.markup">isomiso2avc1mp41</property>
  <property name="meta.attr.encoder.markup">Lavf58.29.100</property>
  <property name="seekable">1</property>
  <property name="meta.media.sample_aspect_num">1</property>
  <property name="meta.media.sample_aspect_den">1</property>
  <property name="aspect_ratio">1</property>
  <property name="kdenlive:clipname"/>
  <property name="kdenlive:folderid">-1</property>
  <property name="meta.media.frame_rate_num">30</property>
  <property name="meta.media.frame_rate_den">1</property>
  <property name="meta.media.colorspace">709</property>
  <property name="meta.media.color_trc">1</property>
  <property name="meta.media.width">1280</property>
  <property name="meta.media.height">720</property>
  <property name="meta.media.color_range">mpeg</property>
  <property name="kdenlive:id">103</property>
  <property name="kdenlive:file_size">4105553</property>
  <property name="kdenlive:file_hash">d230a4acdbd367393b1f7596b4d643cb</property>
  <property name="kdenlive:audio_max">19</property>
  <property name="global_feed">1</property>
 </producer>
 <producer id="producer102" in="00:00:00.000" out="00:00:04.960">
  <property name="length">00:00:05.000</property>
  <property name="eof">pause</property>
  <property name="resource">vid_files/2_mnist/dataset/dataset149.png</property>
  <property name="ttl">25</property>
  <property name="aspect_ratio">1</property>
  <property name="progressive">1</property>
  <property name="seekable">1</property>
  <property name="meta.media.width">1920</property>
  <property name="meta.media.height">1080</property>
  <property name="mlt_service">qimage</property>
  <property name="kdenlive:clipname"/>
  <property name="kdenlive:duration">00:00:05.000</property>
  <property name="kdenlive:folderid">-1</property>
  <property name="kdenlive:id">104</property>
  <property name="kdenlive:file_size">34561</property>
  <property name="kdenlive:file_hash">bf2e66438e5e7e0ebfcab4d9fb117a91</property>
 </producer>
 <producer id="producer103" in="00:00:00.000" out="00:00:04.960">
  <property name="length">00:00:05.000</property>
  <property name="eof">pause</property>
  <property name="resource">vid_files/2_mnist/dataset/dataset068.png</property>
  <property name="ttl">25</property>
  <property name="aspect_ratio">1</property>
  <property name="progressive">1</property>
  <property name="seekable">1</property>
  <property name="meta.media.width">1920</property>
  <property name="meta.media.height">1080</property>
  <property name="mlt_service">qimage</property>
  <property name="kdenlive:clipname"/>
  <property name="kdenlive:duration">00:00:05.000</property>
  <property name="kdenlive:folderid">-1</property>
  <property name="kdenlive:id">105</property>
  <property name="kdenlive:file_size">30938</property>
  <property name="kdenlive:file_hash">98ed16257deb9fb96efe3093310bb731</property>
 </producer>
 <producer id="producer104" in="00:00:00.000" out="00:00:04.960">
  <property name="length">00:00:05.000</property>
  <property name="eof">pause</property>
  <property name="resource">vid_files/2_mnist/dataset/dataset086.png</property>
  <property name="ttl">25</property>
  <property name="aspect_ratio">1</property>
  <property name="progressive">1</property>
  <property name="seekable">1</property>
  <property name="meta.media.width">1920</property>
  <property name="meta.media.height">1080</property>
  <property name="mlt_service">qimage</property>
  <property name="kdenlive:clipname"/>
  <property name="kdenlive:duration">00:00:05.000</property>
  <property name="kdenlive:folderid">-1</property>
  <property name="kdenlive:id">106</property>
  <property name="kdenlive:file_size">34095</property>
  <property name="kdenlive:file_hash">25b4109c38b82708d9a4589177695c8c</property>
 </producer>
 <producer id="producer105" in="00:00:00.000" out="00:00:13.920">
  <property name="length">349</property>
  <property name="eof">pause</property>
  <property name="resource">vid_files/2_mnist/data_set_split/data_set_split099.png</property>
  <property name="ttl">25</property>
  <property name="aspect_ratio">1</property>
  <property name="progressive">1</property>
  <property name="seekable">1</property>
  <property name="meta.media.width">1920</property>
  <property name="meta.media.height">1080</property>
  <property name="mlt_service">qimage</property>
  <property name="kdenlive:clipname"/>
  <property name="kdenlive:duration">00:00:05.000</property>
  <property name="kdenlive:folderid">-1</property>
  <property name="kdenlive:id">107</property>
  <property name="kdenlive:file_size">23465</property>
  <property name="kdenlive:file_hash">92308f7eff6f6719dc341d23d364b9aa</property>
 </producer>
 <producer id="producer106" in="00:00:00.000" out="00:00:04.960">
  <property name="length">00:00:05.000</property>
  <property name="eof">pause</property>
  <property name="resource">vid_files/2_mnist/data_set_split/data_set_split099.png</property>
  <property name="ttl">25</property>
  <property name="aspect_ratio">1</property>
  <property name="progressive">1</property>
  <property name="seekable">1</property>
  <property name="meta.media.width">1920</property>
  <property name="meta.media.height">1080</property>
  <property name="mlt_service">qimage</property>
  <property name="kdenlive:clipname"/>
  <property name="kdenlive:duration">00:00:05.000</property>
  <property name="kdenlive:folderid">-1</property>
  <property name="kdenlive:id">108</property>
  <property name="kdenlive:file_size">23465</property>
  <property name="kdenlive:file_hash">92308f7eff6f6719dc341d23d364b9aa</property>
 </producer>
 <producer id="producer107" in="00:00:00.000" out="00:00:13.920">
  <property name="length">349</property>
  <property name="eof">pause</property>
  <property name="resource">vid_files/9_pol_example/train_error_graph_theory_val/train_error_graph_theory_val199.png</property>
  <property name="ttl">25</property>
  <property name="aspect_ratio">1</property>
  <property name="progressive">1</property>
  <property name="seekable">1</property>
  <property name="meta.media.width">1500</property>
  <property name="meta.media.height">600</property>
  <property name="mlt_service">qimage</property>
  <property name="kdenlive:clipname"/>
  <property name="kdenlive:duration">00:00:05.000</property>
  <property name="kdenlive:folderid">-1</property>
  <property name="kdenlive:id">109</property>
  <property name="kdenlive:file_size">47620</property>
  <property name="kdenlive:file_hash">a76987a9b9c05bb8fff081cc2f5421b5</property>
 </producer>
 <producer id="producer108" in="00:00:00.000" out="00:00:06.360">
  <property name="length">00:00:06.400</property>
  <property name="eof">pause</property>
  <property name="resource">vid_files/3_bias_variance_decompose/totale/totale%03d.png</property>
  <property name="ttl">1</property>
  <property name="aspect_ratio">1</property>
  <property name="progressive">1</property>
  <property name="seekable">1</property>
  <property name="meta.media.width">1920</property>
  <property name="meta.media.height">200</property>
  <property name="mlt_service">qimage</property>
  <property name="kdenlive:clipname">totale</property>
  <property name="luma_duration">25</property>
  <property name="fade">0</property>
  <property name="crop">0</property>
  <property name="loop">0</property>
  <property name="kdenlive:duration">00:00:06.400</property>
  <property name="kdenlive:folderid">-1</property>
  <property name="kdenlive:id">110</property>
  <property name="kdenlive:file_hash">73c40b915717865f56d08534a4caff07</property>
  <property name="global_feed">1</property>
 </producer>
 <producer id="producer109" in="00:00:00.000" out="00:00:04.000">
  <property name="length">00:00:04.040</property>
  <property name="eof">pause</property>
  <property name="resource">/home/renec/Drive/Higgsino/ASSETS/C4D/remndered/NO/NO %04d.png</property>
  <property name="ttl">1</property>
  <property name="aspect_ratio">1</property>
  <property name="progressive">1</property>
  <property name="seekable">1</property>
  <property name="meta.media.width">1920</property>
  <property name="meta.media.height">1080</property>
  <property name="mlt_service">qimage</property>
  <property name="kdenlive:clipname">NO </property>
  <property name="luma_duration">25</property>
  <property name="fade">0</property>
  <property name="crop">0</property>
  <property name="loop">0</property>
  <property name="kdenlive:duration">00:00:04.040</property>
  <property name="kdenlive:folderid">-1</property>
  <property name="kdenlive:id">111</property>
  <property name="kdenlive:file_hash">07333e8f45a810a48ad220fc5c213765</property>
  <property name="global_feed">1</property>
 </producer>
 <producer id="producer110" in="00:00:00.000" out="00:00:04.960">
  <property name="length">00:00:05.000</property>
  <property name="eof">pause</property>
  <property name="resource">vid_files/3_bias_variance_decompose/totale/totale159.png</property>
  <property name="ttl">25</property>
  <property name="aspect_ratio">1</property>
  <property name="progressive">1</property>
  <property name="seekable">1</property>
  <property name="meta.media.width">1920</property>
  <property name="meta.media.height">200</property>
  <property name="mlt_service">qimage</property>
  <property name="kdenlive:clipname"/>
  <property name="kdenlive:duration">00:00:05.000</property>
  <property name="kdenlive:folderid">-1</property>
  <property name="kdenlive:id">112</property>
  <property name="kdenlive:file_size">16065</property>
  <property name="kdenlive:file_hash">c7300917f532e4a7cb0ce30da302e046</property>
 </producer>
 <producer id="producer111" in="00:00:00.000" out="00:00:05.560">
  <property name="length">00:00:05.600</property>
  <property name="eof">pause</property>
  <property name="resource">vid_files/10_chapters/chap3_/chap3_%03d.png</property>
  <property name="ttl">1</property>
  <property name="aspect_ratio">1</property>
  <property name="progressive">1</property>
  <property name="seekable">1</property>
  <property name="meta.media.width">1920</property>
  <property name="meta.media.height">1080</property>
  <property name="mlt_service">qimage</property>
  <property name="kdenlive:clipname">chap3_</property>
  <property name="luma_duration">25</property>
  <property name="fade">0</property>
  <property name="crop">0</property>
  <property name="loop">0</property>
  <property name="kdenlive:duration">00:00:05.600</property>
  <property name="kdenlive:folderid">-1</property>
  <property name="kdenlive:id">113</property>
  <property name="kdenlive:file_hash">3a3f67c29e772e1f7740fe10971ebf11</property>
  <property name="global_feed">1</property>
 </producer>
 <producer id="producer112" in="00:00:00.000" out="00:00:07.000">
  <property name="length">176</property>
  <property name="eof">pause</property>
  <property name="resource">vid_files/9_pol_example/train_error_graph_theory_val_vb/train_error_graph_theory_val_vb199.png</property>
  <property name="ttl">25</property>
  <property name="aspect_ratio">1</property>
  <property name="progressive">1</property>
  <property name="seekable">1</property>
  <property name="meta.media.width">1500</property>
  <property name="meta.media.height">600</property>
  <property name="mlt_service">qimage</property>
  <property name="kdenlive:clipname"/>
  <property name="kdenlive:duration">00:00:05.000</property>
  <property name="kdenlive:folderid">-1</property>
  <property name="kdenlive:id">114</property>
  <property name="kdenlive:file_size">56595</property>
  <property name="kdenlive:file_hash">884cec0d1d8342f8ff81144240f2059d</property>
 </producer>
 <producer id="producer113" in="00:00:00.000" out="00:00:05.560">
  <property name="length">00:00:05.600</property>
  <property name="eof">pause</property>
  <property name="resource">vid_files/10_chapters/chap4_/chap4_%03d.png</property>
  <property name="ttl">1</property>
  <property name="aspect_ratio">1</property>
  <property name="progressive">1</property>
  <property name="seekable">1</property>
  <property name="meta.media.width">1920</property>
  <property name="meta.media.height">1080</property>
  <property name="mlt_service">qimage</property>
  <property name="kdenlive:clipname">chap4_</property>
  <property name="luma_duration">25</property>
  <property name="fade">0</property>
  <property name="crop">0</property>
  <property name="loop">0</property>
  <property name="kdenlive:duration">00:00:05.600</property>
  <property name="kdenlive:folderid">-1</property>
  <property name="kdenlive:id">115</property>
  <property name="kdenlive:file_hash">90a2f6028b33c39d499b87b6b7577151</property>
  <property name="global_feed">1</property>
 </producer>
 <producer id="producer114" in="00:00:00.000" out="00:00:16.080">
  <property name="length">403</property>
  <property name="eof">pause</property>
  <property name="resource">vid_files/9_pol_example/draw_data_points/draw_data_points000.png</property>
  <property name="ttl">25</property>
  <property name="aspect_ratio">1</property>
  <property name="progressive">1</property>
  <property name="seekable">1</property>
  <property name="meta.media.width">1500</property>
  <property name="meta.media.height">600</property>
  <property name="mlt_service">qimage</property>
  <property name="kdenlive:clipname"/>
  <property name="kdenlive:duration">00:00:05.000</property>
  <property name="kdenlive:folderid">-1</property>
  <property name="kdenlive:id">116</property>
  <property name="kdenlive:file_size">37676</property>
  <property name="kdenlive:file_hash">ab2d678e316d9189dce20135191c3745</property>
  <property name="global_feed">1</property>
 </producer>
 <producer id="producer115" in="00:00:00.000" out="00:00:04.960">
  <property name="length">00:00:05.000</property>
  <property name="eof">pause</property>
  <property name="resource">vid_files/9_pol_example/draw_data_points/draw_data_points099.png</property>
  <property name="ttl">25</property>
  <property name="aspect_ratio">1</property>
  <property name="progressive">1</property>
  <property name="seekable">1</property>
  <property name="meta.media.width">1500</property>
  <property name="meta.media.height">600</property>
  <property name="mlt_service">qimage</property>
  <property name="kdenlive:clipname"/>
  <property name="kdenlive:duration">00:00:05.000</property>
  <property name="kdenlive:folderid">-1</property>
  <property name="kdenlive:id">117</property>
  <property name="kdenlive:file_size">37521</property>
  <property name="kdenlive:file_hash">0e670f21642eef1cab6cf7fa727db8c7</property>
  <property name="global_feed">1</property>
 </producer>
 <producer id="producer144" in="00:00:00.000" out="00:00:04.960">
  <property name="length">00:00:05.000</property>
  <property name="eof">pause</property>
  <property name="resource">vid_files/3_bias_variance_decompose/src/0_poly.png</property>
  <property name="ttl">25</property>
  <property name="aspect_ratio">1</property>
  <property name="progressive">1</property>
  <property name="seekable">1</property>
  <property name="meta.media.width">257</property>
  <property name="meta.media.height">89</property>
  <property name="mlt_service">qimage</property>
  <property name="kdenlive:clipname"/>
  <property name="kdenlive:duration">00:00:05.000</property>
  <property name="kdenlive:folderid">-1</property>
  <property name="kdenlive:id">118</property>
  <property name="kdenlive:file_size">3254</property>
  <property name="kdenlive:file_hash">ccccf55d6bc4f106acb5b8903f6b8171</property>
  <property name="global_feed">1</property>
 </producer>
 <producer id="producer145" in="00:00:00.000" out="00:00:04.960">
  <property name="length">00:00:05.000</property>
  <property name="eof">pause</property>
  <property name="resource">vid_files/3_bias_variance_decompose/src/5_poly.png</property>
  <property name="ttl">25</property>
  <property name="aspect_ratio">1</property>
  <property name="progressive">1</property>
  <property name="seekable">1</property>
  <property name="meta.media.width">1318</property>
  <property name="meta.media.height">102</property>
  <property name="mlt_service">qimage</property>
  <property name="kdenlive:clipname"/>
  <property name="kdenlive:duration">00:00:05.000</property>
  <property name="kdenlive:folderid">-1</property>
  <property name="kdenlive:id">119</property>
  <property name="kdenlive:file_size">9077</property>
  <property name="kdenlive:file_hash">73a623a7f96cf7915f60bf00d0567432</property>
  <property name="global_feed">1</property>
 </producer>
 <producer id="producer118" in="00:00:00.000" out="00:00:10.360">
  <property name="length">260</property>
  <property name="eof">pause</property>
  <property name="resource">vid_files/9_pol_example/with_test.png</property>
  <property name="ttl">25</property>
  <property name="aspect_ratio">1</property>
  <property name="progressive">1</property>
  <property name="seekable">1</property>
  <property name="meta.media.width">1500</property>
  <property name="meta.media.height">600</property>
  <property name="mlt_service">qimage</property>
  <property name="kdenlive:clipname"/>
  <property name="kdenlive:duration">00:00:05.000</property>
  <property name="kdenlive:folderid">-1</property>
  <property name="kdenlive:id">120</property>
  <property name="kdenlive:file_size">54086</property>
  <property name="kdenlive:file_hash">601ea42746dcb0a02affc72e81a05fc4</property>
 </producer>
 <producer id="producer119" in="00:00:00.000" out="00:00:04.960">
  <property name="length">00:00:05.000</property>
  <property name="eof">pause</property>
  <property name="resource">vid_files/9_pol_example/fitting_2_poly/fitting_2_poly199.png</property>
  <property name="ttl">25</property>
  <property name="aspect_ratio">1</property>
  <property name="progressive">1</property>
  <property name="seekable">1</property>
  <property name="meta.media.width">1500</property>
  <property name="meta.media.height">600</property>
  <property name="mlt_service">qimage</property>
  <property name="kdenlive:clipname"/>
  <property name="kdenlive:duration">00:00:05.000</property>
  <property name="kdenlive:folderid">-1</property>
  <property name="kdenlive:id">121</property>
  <property name="kdenlive:file_size">55338</property>
  <property name="kdenlive:file_hash">38a2e60dfbe1b200fab90f8b6c6f0bd6</property>
 </producer>
 <producer id="producer120" in="00:00:00.000" out="00:00:09.480">
  <property name="length">238</property>
  <property name="eof">pause</property>
  <property name="resource">vid_files/legend.png</property>
  <property name="ttl">25</property>
  <property name="aspect_ratio">1</property>
  <property name="progressive">1</property>
  <property name="seekable">1</property>
  <property name="meta.media.width">1116</property>
  <property name="meta.media.height">115</property>
  <property name="mlt_service">qimage</property>
  <property name="kdenlive:clipname"/>
  <property name="kdenlive:duration">00:00:05.000</property>
  <property name="kdenlive:folderid">-1</property>
  <property name="kdenlive:id">122</property>
  <property name="kdenlive:file_size">10114</property>
  <property name="kdenlive:file_hash">7b646d4b2fc06ed825b145ca47e5b863</property>
 </producer>
 <producer id="producer121" in="00:00:00.000" out="00:00:05.640">
  <property name="length">142</property>
  <property name="eof">pause</property>
  <property name="resource">vid_files/9_pol_example/0_pol.png</property>
  <property name="ttl">25</property>
  <property name="aspect_ratio">1</property>
  <property name="progressive">1</property>
  <property name="seekable">1</property>
  <property name="meta.media.width">1980</property>
  <property name="meta.media.height">500</property>
  <property name="mlt_service">qimage</property>
  <property name="kdenlive:clipname"/>
  <property name="kdenlive:duration">00:00:05.000</property>
  <property name="kdenlive:folderid">-1</property>
  <property name="kdenlive:id">123</property>
  <property name="kdenlive:file_size">32290</property>
  <property name="kdenlive:file_hash">c0bc45635c3e5b868eeec6255adf85e3</property>
 </producer>
 <producer id="producer122" in="00:00:00.000" out="00:00:08.920">
  <property name="length">224</property>
  <property name="eof">pause</property>
  <property name="resource">vid_files/9_pol_example/5_pol.png</property>
  <property name="ttl">25</property>
  <property name="aspect_ratio">1</property>
  <property name="progressive">1</property>
  <property name="seekable">1</property>
  <property name="meta.media.width">1980</property>
  <property name="meta.media.height">500</property>
  <property name="mlt_service">qimage</property>
  <property name="kdenlive:clipname"/>
  <property name="kdenlive:duration">00:00:05.000</property>
  <property name="kdenlive:folderid">-1</property>
  <property name="kdenlive:id">124</property>
  <property name="kdenlive:file_size">39135</property>
  <property name="kdenlive:file_hash">a392be2c5eeafdf3baf6311a2f8882b8</property>
 </producer>
 <producer id="producer123" in="00:00:00.000" out="00:00:05.640">
  <property name="length">142</property>
  <property name="eof">pause</property>
  <property name="resource">vid_files/9_pol_example/Hej1.png</property>
  <property name="ttl">25</property>
  <property name="aspect_ratio">1</property>
  <property name="progressive">1</property>
  <property name="seekable">1</property>
  <property name="meta.media.width">1500</property>
  <property name="meta.media.height">600</property>
  <property name="mlt_service">qimage</property>
  <property name="kdenlive:clipname"/>
  <property name="kdenlive:duration">00:00:05.000</property>
  <property name="kdenlive:folderid">-1</property>
  <property name="kdenlive:id">125</property>
  <property name="kdenlive:file_size">19211</property>
  <property name="kdenlive:file_hash">42e09cea269a6f7639cabcc93158c214</property>
  <property name="global_feed">1</property>
 </producer>
 <producer id="producer124" in="00:00:00.000" out="00:00:11.680">
  <property name="length">293</property>
  <property name="eof">pause</property>
  <property name="resource">vid_files/9_pol_example/Hej2.png</property>
  <property name="ttl">25</property>
  <property name="aspect_ratio">1</property>
  <property name="progressive">1</property>
  <property name="seekable">1</property>
  <property name="meta.media.width">1500</property>
  <property name="meta.media.height">600</property>
  <property name="mlt_service">qimage</property>
  <property name="kdenlive:clipname"/>
  <property name="kdenlive:duration">00:00:05.000</property>
  <property name="kdenlive:folderid">-1</property>
  <property name="kdenlive:id">126</property>
  <property name="kdenlive:file_size">39186</property>
  <property name="kdenlive:file_hash">5ce84e4b1c7656c8b2a3adea5aa3fda3</property>
 </producer>
 <producer id="producer125" in="00:00:00.000" out="00:00:07.960">
  <property name="length">00:00:08.000</property>
  <property name="eof">pause</property>
  <property name="resource">vid_files/9_pol_example/math_example/math_example%03d.png</property>
  <property name="ttl">1</property>
  <property name="aspect_ratio">1</property>
  <property name="progressive">1</property>
  <property name="seekable">1</property>
  <property name="meta.media.width">1980</property>
  <property name="meta.media.height">300</property>
  <property name="mlt_service">qimage</property>
  <property name="kdenlive:clipname">math_example</property>
  <property name="luma_duration">25</property>
  <property name="fade">0</property>
  <property name="crop">0</property>
  <property name="loop">0</property>
  <property name="kdenlive:duration">00:00:08.000</property>
  <property name="kdenlive:folderid">-1</property>
  <property name="kdenlive:id">127</property>
  <property name="kdenlive:file_hash">edcd3a434feabfe9091aaaca13c84496</property>
  <property name="global_feed">1</property>
 </producer>
 <producer id="producer126" in="00:00:00.000" out="00:00:07.520">
  <property name="length">189</property>
  <property name="eof">pause</property>
  <property name="resource">vid_files/0_draw/New Project(1).png</property>
  <property name="ttl">25</property>
  <property name="aspect_ratio">1</property>
  <property name="progressive">1</property>
  <property name="seekable">1</property>
  <property name="meta.media.width">428</property>
  <property name="meta.media.height">288</property>
  <property name="mlt_service">qimage</property>
  <property name="kdenlive:clipname"/>
  <property name="kdenlive:duration">00:00:05.000</property>
  <property name="kdenlive:folderid">-1</property>
  <property name="kdenlive:id">128</property>
  <property name="kdenlive:file_size">23355</property>
  <property name="kdenlive:file_hash">0b3ec70ef24c68a8119c64145f1dc81e</property>
 </producer>
 <producer id="producer127" in="00:00:00.000" out="00:00:05.960">
  <property name="length">150</property>
  <property name="eof">pause</property>
  <property name="resource">vid_files/0_draw/New Project(2).png</property>
  <property name="ttl">25</property>
  <property name="aspect_ratio">1</property>
  <property name="progressive">1</property>
  <property name="seekable">1</property>
  <property name="meta.media.width">428</property>
  <property name="meta.media.height">288</property>
  <property name="mlt_service">qimage</property>
  <property name="kdenlive:clipname"/>
  <property name="kdenlive:duration">00:00:05.000</property>
  <property name="kdenlive:folderid">-1</property>
  <property name="kdenlive:id">129</property>
  <property name="kdenlive:file_size">16899</property>
  <property name="kdenlive:file_hash">2553c0b00c4c184c1203c9eab5d157ab</property>
 </producer>
 <producer id="producer128" in="00:00:00.000" out="00:00:04.960">
  <property name="length">00:00:05.000</property>
  <property name="eof">pause</property>
  <property name="resource">vid_files/0_draw/New Project(3).png</property>
  <property name="ttl">25</property>
  <property name="aspect_ratio">1</property>
  <property name="progressive">1</property>
  <property name="seekable">1</property>
  <property name="meta.media.width">335</property>
  <property name="meta.media.height">261</property>
  <property name="mlt_service">qimage</property>
  <property name="kdenlive:clipname"/>
  <property name="kdenlive:duration">00:00:05.000</property>
  <property name="kdenlive:folderid">-1</property>
  <property name="kdenlive:id">130</property>
  <property name="kdenlive:file_size">22700</property>
  <property name="kdenlive:file_hash">9a321b0bcb6da664340f48f98ec0b298</property>
 </producer>
 <producer id="producer129" in="00:00:00.000" out="00:00:04.960">
  <property name="length">00:00:05.000</property>
  <property name="eof">pause</property>
  <property name="resource">vid_files/0_draw/New Project(4).png</property>
  <property name="ttl">25</property>
  <property name="aspect_ratio">1</property>
  <property name="progressive">1</property>
  <property name="seekable">1</property>
  <property name="meta.media.width">335</property>
  <property name="meta.media.height">261</property>
  <property name="mlt_service">qimage</property>
  <property name="kdenlive:clipname"/>
  <property name="kdenlive:duration">00:00:05.000</property>
  <property name="kdenlive:folderid">-1</property>
  <property name="kdenlive:id">131</property>
  <property name="kdenlive:file_size">15389</property>
  <property name="kdenlive:file_hash">48056092799e2566d3924b0d4c098462</property>
 </producer>
 <producer id="producer130" in="00:00:00.000" out="00:00:15.720">
  <property name="length">394</property>
  <property name="eof">pause</property>
  <property name="resource">vid_files/0_clips/2021-08-18 21-03-02.mp4</property>
  <property name="audio_index">1</property>
  <property name="video_index">0</property>
  <property name="mute_on_pause">0</property>
  <property name="mlt_service">avformat-novalidate</property>
  <property name="meta.media.nb_streams">2</property>
  <property name="meta.media.0.stream.type">video</property>
  <property name="meta.media.0.stream.frame_rate">30</property>
  <property name="meta.media.0.stream.sample_aspect_ratio">0</property>
  <property name="meta.media.0.codec.width">1280</property>
  <property name="meta.media.0.codec.height">720</property>
  <property name="meta.media.0.codec.rotate">0</property>
  <property name="meta.media.0.codec.frame_rate">30</property>
  <property name="meta.media.0.codec.pix_fmt">yuv420p</property>
  <property name="meta.media.0.codec.sample_aspect_ratio">1</property>
  <property name="meta.media.0.codec.colorspace">709</property>
  <property name="meta.media.0.codec.color_trc">1</property>
  <property name="meta.media.0.codec.name">h264</property>
  <property name="meta.media.0.codec.long_name">H.264 / AVC / MPEG-4 AVC / MPEG-4 part 10</property>
  <property name="meta.media.0.codec.bit_rate">1231062</property>
  <property name="meta.attr.0.stream.handler_name.markup">VideoHandler</property>
  <property name="meta.media.1.stream.type">audio</property>
  <property name="meta.media.1.codec.sample_fmt">fltp</property>
  <property name="meta.media.1.codec.sample_rate">48000</property>
  <property name="meta.media.1.codec.channels">2</property>
  <property name="meta.media.1.codec.name">aac</property>
  <property name="meta.media.1.codec.long_name">AAC (Advanced Audio Coding)</property>
  <property name="meta.media.1.codec.bit_rate">192610</property>
  <property name="meta.attr.1.stream.handler_name.markup">SoundHandler</property>
  <property name="meta.attr.major_brand.markup">isom</property>
  <property name="meta.attr.minor_version.markup">512</property>
  <property name="meta.attr.compatible_brands.markup">isomiso2avc1mp41</property>
  <property name="meta.attr.encoder.markup">Lavf58.29.100</property>
  <property name="seekable">1</property>
  <property name="meta.media.sample_aspect_num">1</property>
  <property name="meta.media.sample_aspect_den">1</property>
  <property name="aspect_ratio">1</property>
  <property name="kdenlive:clipname"/>
  <property name="kdenlive:folderid">-1</property>
  <property name="meta.media.frame_rate_num">30</property>
  <property name="meta.media.frame_rate_den">1</property>
  <property name="meta.media.colorspace">709</property>
  <property name="meta.media.color_trc">1</property>
  <property name="meta.media.width">1280</property>
  <property name="meta.media.height">720</property>
  <property name="meta.media.color_range">mpeg</property>
  <property name="kdenlive:id">132</property>
  <property name="kdenlive:file_size">2822467</property>
  <property name="kdenlive:file_hash">f56eeafbe1031bdf90c74d462358f818</property>
  <property name="kdenlive:audio_max">16</property>
  <property name="meta.media.top_field_first">0</property>
  <property name="meta.media.progressive">1</property>
  <property name="global_feed">1</property>
 </producer>
 <producer id="producer131" in="00:00:00.000" out="00:00:04.440">
  <property name="length">112</property>
  <property name="eof">pause</property>
  <property name="resource">vid_files/0_clips/2021-08-18 21-03-21.mp4</property>
  <property name="audio_index">1</property>
  <property name="video_index">0</property>
  <property name="mute_on_pause">0</property>
  <property name="mlt_service">avformat-novalidate</property>
  <property name="meta.media.nb_streams">2</property>
  <property name="meta.media.0.stream.type">video</property>
  <property name="meta.media.0.stream.frame_rate">30</property>
  <property name="meta.media.0.stream.sample_aspect_ratio">0</property>
  <property name="meta.media.0.codec.width">1280</property>
  <property name="meta.media.0.codec.height">720</property>
  <property name="meta.media.0.codec.rotate">0</property>
  <property name="meta.media.0.codec.frame_rate">30</property>
  <property name="meta.media.0.codec.pix_fmt">yuv420p</property>
  <property name="meta.media.0.codec.sample_aspect_ratio">1</property>
  <property name="meta.media.0.codec.colorspace">709</property>
  <property name="meta.media.0.codec.color_trc">1</property>
  <property name="meta.media.0.codec.name">h264</property>
  <property name="meta.media.0.codec.long_name">H.264 / AVC / MPEG-4 AVC / MPEG-4 part 10</property>
  <property name="meta.media.0.codec.bit_rate">1178081</property>
  <property name="meta.attr.0.stream.handler_name.markup">VideoHandler</property>
  <property name="meta.media.1.stream.type">audio</property>
  <property name="meta.media.1.codec.sample_fmt">fltp</property>
  <property name="meta.media.1.codec.sample_rate">48000</property>
  <property name="meta.media.1.codec.channels">2</property>
  <property name="meta.media.1.codec.name">aac</property>
  <property name="meta.media.1.codec.long_name">AAC (Advanced Audio Coding)</property>
  <property name="meta.media.1.codec.bit_rate">194067</property>
  <property name="meta.attr.1.stream.handler_name.markup">SoundHandler</property>
  <property name="meta.attr.major_brand.markup">isom</property>
  <property name="meta.attr.minor_version.markup">512</property>
  <property name="meta.attr.compatible_brands.markup">isomiso2avc1mp41</property>
  <property name="meta.attr.encoder.markup">Lavf58.29.100</property>
  <property name="seekable">1</property>
  <property name="meta.media.sample_aspect_num">1</property>
  <property name="meta.media.sample_aspect_den">1</property>
  <property name="aspect_ratio">1</property>
  <property name="kdenlive:clipname"/>
  <property name="kdenlive:folderid">-1</property>
  <property name="meta.media.frame_rate_num">30</property>
  <property name="meta.media.frame_rate_den">1</property>
  <property name="meta.media.colorspace">709</property>
  <property name="meta.media.color_trc">1</property>
  <property name="meta.media.width">1280</property>
  <property name="meta.media.height">720</property>
  <property name="meta.media.color_range">mpeg</property>
  <property name="kdenlive:id">133</property>
  <property name="kdenlive:file_size">770653</property>
  <property name="kdenlive:file_hash">ef2cb54f7cabe5c075ce8308b6ec09af</property>
  <property name="kdenlive:audio_max">17</property>
  <property name="global_feed">1</property>
 </producer>
 <producer id="producer132" in="00:00:00.000" out="00:00:10.680">
  <property name="length">268</property>
  <property name="eof">pause</property>
  <property name="resource">vid_files/0_clips/2021-08-18 21-03-28.mp4</property>
  <property name="audio_index">1</property>
  <property name="video_index">0</property>
  <property name="mute_on_pause">0</property>
  <property name="mlt_service">avformat-novalidate</property>
  <property name="meta.media.nb_streams">2</property>
  <property name="meta.media.0.stream.type">video</property>
  <property name="meta.media.0.stream.frame_rate">30</property>
  <property name="meta.media.0.stream.sample_aspect_ratio">0</property>
  <property name="meta.media.0.codec.width">1280</property>
  <property name="meta.media.0.codec.height">720</property>
  <property name="meta.media.0.codec.rotate">0</property>
  <property name="meta.media.0.codec.frame_rate">30</property>
  <property name="meta.media.0.codec.pix_fmt">yuv420p</property>
  <property name="meta.media.0.codec.sample_aspect_ratio">1</property>
  <property name="meta.media.0.codec.colorspace">709</property>
  <property name="meta.media.0.codec.color_trc">1</property>
  <property name="meta.media.0.codec.name">h264</property>
  <property name="meta.media.0.codec.long_name">H.264 / AVC / MPEG-4 AVC / MPEG-4 part 10</property>
  <property name="meta.media.0.codec.bit_rate">1154089</property>
  <property name="meta.attr.0.stream.handler_name.markup">VideoHandler</property>
  <property name="meta.media.1.stream.type">audio</property>
  <property name="meta.media.1.codec.sample_fmt">fltp</property>
  <property name="meta.media.1.codec.sample_rate">48000</property>
  <property name="meta.media.1.codec.channels">2</property>
  <property name="meta.media.1.codec.name">aac</property>
  <property name="meta.media.1.codec.long_name">AAC (Advanced Audio Coding)</property>
  <property name="meta.media.1.codec.bit_rate">192901</property>
  <property name="meta.attr.1.stream.handler_name.markup">SoundHandler</property>
  <property name="meta.attr.major_brand.markup">isom</property>
  <property name="meta.attr.minor_version.markup">512</property>
  <property name="meta.attr.compatible_brands.markup">isomiso2avc1mp41</property>
  <property name="meta.attr.encoder.markup">Lavf58.29.100</property>
  <property name="seekable">1</property>
  <property name="meta.media.sample_aspect_num">1</property>
  <property name="meta.media.sample_aspect_den">1</property>
  <property name="aspect_ratio">1</property>
  <property name="kdenlive:clipname"/>
  <property name="kdenlive:folderid">-1</property>
  <property name="meta.media.frame_rate_num">30</property>
  <property name="meta.media.frame_rate_den">1</property>
  <property name="meta.media.colorspace">709</property>
  <property name="meta.media.color_trc">1</property>
  <property name="meta.media.width">1280</property>
  <property name="meta.media.height">720</property>
  <property name="meta.media.color_range">mpeg</property>
  <property name="kdenlive:id">134</property>
  <property name="kdenlive:file_size">1812907</property>
  <property name="kdenlive:file_hash">03ca5ab47d01fcf1f26685e55a584334</property>
  <property name="kdenlive:audio_max">18</property>
  <property name="meta.media.top_field_first">0</property>
  <property name="meta.media.progressive">1</property>
  <property name="global_feed">1</property>
 </producer>
 <producer id="producer133" in="00:00:00.000" out="00:00:24.960">
  <property name="length">625</property>
  <property name="eof">pause</property>
  <property name="resource">vid_files/0_clips/2021-08-18 21-03-41.mp4</property>
  <property name="audio_index">1</property>
  <property name="video_index">0</property>
  <property name="mute_on_pause">0</property>
  <property name="mlt_service">avformat-novalidate</property>
  <property name="meta.media.nb_streams">2</property>
  <property name="meta.media.0.stream.type">video</property>
  <property name="meta.media.0.stream.frame_rate">30</property>
  <property name="meta.media.0.stream.sample_aspect_ratio">0</property>
  <property name="meta.media.0.codec.width">1280</property>
  <property name="meta.media.0.codec.height">720</property>
  <property name="meta.media.0.codec.rotate">0</property>
  <property name="meta.media.0.codec.frame_rate">30</property>
  <property name="meta.media.0.codec.pix_fmt">yuv420p</property>
  <property name="meta.media.0.codec.sample_aspect_ratio">1</property>
  <property name="meta.media.0.codec.colorspace">709</property>
  <property name="meta.media.0.codec.color_trc">1</property>
  <property name="meta.media.0.codec.name">h264</property>
  <property name="meta.media.0.codec.long_name">H.264 / AVC / MPEG-4 AVC / MPEG-4 part 10</property>
  <property name="meta.media.0.codec.bit_rate">1219421</property>
  <property name="meta.attr.0.stream.handler_name.markup">VideoHandler</property>
  <property name="meta.media.1.stream.type">audio</property>
  <property name="meta.media.1.codec.sample_fmt">fltp</property>
  <property name="meta.media.1.codec.sample_rate">48000</property>
  <property name="meta.media.1.codec.channels">2</property>
  <property name="meta.media.1.codec.name">aac</property>
  <property name="meta.media.1.codec.long_name">AAC (Advanced Audio Coding)</property>
  <property name="meta.media.1.codec.bit_rate">192387</property>
  <property name="meta.attr.1.stream.handler_name.markup">SoundHandler</property>
  <property name="meta.attr.major_brand.markup">isom</property>
  <property name="meta.attr.minor_version.markup">512</property>
  <property name="meta.attr.compatible_brands.markup">isomiso2avc1mp41</property>
  <property name="meta.attr.encoder.markup">Lavf58.29.100</property>
  <property name="seekable">1</property>
  <property name="meta.media.sample_aspect_num">1</property>
  <property name="meta.media.sample_aspect_den">1</property>
  <property name="aspect_ratio">1</property>
  <property name="kdenlive:clipname"/>
  <property name="kdenlive:folderid">-1</property>
  <property name="meta.media.frame_rate_num">30</property>
  <property name="meta.media.frame_rate_den">1</property>
  <property name="meta.media.colorspace">709</property>
  <property name="meta.media.color_trc">1</property>
  <property name="meta.media.width">1280</property>
  <property name="meta.media.height">720</property>
  <property name="meta.media.color_range">mpeg</property>
  <property name="kdenlive:id">135</property>
  <property name="kdenlive:file_size">4438806</property>
  <property name="kdenlive:file_hash">3849a1c7e0b4ac1932fcfa3b5bbcdd2a</property>
  <property name="kdenlive:audio_max">18</property>
  <property name="global_feed">1</property>
 </producer>
 <producer id="producer134" in="00:00:00.000" out="00:00:24.200">
  <property name="length">606</property>
  <property name="eof">pause</property>
  <property name="resource">vid_files/0_clips/2021-08-18 21-04-11.mp4</property>
  <property name="audio_index">1</property>
  <property name="video_index">0</property>
  <property name="mute_on_pause">0</property>
  <property name="mlt_service">avformat-novalidate</property>
  <property name="meta.media.nb_streams">2</property>
  <property name="meta.media.0.stream.type">video</property>
  <property name="meta.media.0.stream.frame_rate">30</property>
  <property name="meta.media.0.stream.sample_aspect_ratio">0</property>
  <property name="meta.media.0.codec.width">1280</property>
  <property name="meta.media.0.codec.height">720</property>
  <property name="meta.media.0.codec.rotate">0</property>
  <property name="meta.media.0.codec.frame_rate">30</property>
  <property name="meta.media.0.codec.pix_fmt">yuv420p</property>
  <property name="meta.media.0.codec.sample_aspect_ratio">1</property>
  <property name="meta.media.0.codec.colorspace">709</property>
  <property name="meta.media.0.codec.color_trc">1</property>
  <property name="meta.media.0.codec.name">h264</property>
  <property name="meta.media.0.codec.long_name">H.264 / AVC / MPEG-4 AVC / MPEG-4 part 10</property>
  <property name="meta.media.0.codec.bit_rate">1183673</property>
  <property name="meta.attr.0.stream.handler_name.markup">VideoHandler</property>
  <property name="meta.media.1.stream.type">audio</property>
  <property name="meta.media.1.codec.sample_fmt">fltp</property>
  <property name="meta.media.1.codec.sample_rate">48000</property>
  <property name="meta.media.1.codec.channels">2</property>
  <property name="meta.media.1.codec.name">aac</property>
  <property name="meta.media.1.codec.long_name">AAC (Advanced Audio Coding)</property>
  <property name="meta.media.1.codec.bit_rate">192400</property>
  <property name="meta.attr.1.stream.handler_name.markup">SoundHandler</property>
  <property name="meta.attr.major_brand.markup">isom</property>
  <property name="meta.attr.minor_version.markup">512</property>
  <property name="meta.attr.compatible_brands.markup">isomiso2avc1mp41</property>
  <property name="meta.attr.encoder.markup">Lavf58.29.100</property>
  <property name="seekable">1</property>
  <property name="meta.media.sample_aspect_num">1</property>
  <property name="meta.media.sample_aspect_den">1</property>
  <property name="aspect_ratio">1</property>
  <property name="kdenlive:clipname"/>
  <property name="kdenlive:folderid">-1</property>
  <property name="meta.media.frame_rate_num">30</property>
  <property name="meta.media.frame_rate_den">1</property>
  <property name="meta.media.colorspace">709</property>
  <property name="meta.media.color_trc">1</property>
  <property name="meta.media.width">1280</property>
  <property name="meta.media.height">720</property>
  <property name="meta.media.color_range">mpeg</property>
  <property name="kdenlive:id">136</property>
  <property name="kdenlive:file_size">4194386</property>
  <property name="kdenlive:file_hash">3f4609641954d55ec802c01388929f2c</property>
  <property name="kdenlive:audio_max">18</property>
  <property name="meta.media.top_field_first">0</property>
  <property name="meta.media.progressive">1</property>
  <property name="global_feed">1</property>
 </producer>
 <producer id="producer116" in="00:00:00.000" out="00:00:02.360">
  <property name="length">00:00:02.400</property>
  <property name="eof">pause</property>
  <property name="resource">vid_files/10_chapters/texts/texts%03d.png</property>
  <property name="ttl">1</property>
  <property name="aspect_ratio">1</property>
  <property name="progressive">1</property>
  <property name="seekable">1</property>
  <property name="meta.media.width">1920</property>
  <property name="meta.media.height">300</property>
  <property name="mlt_service">qimage</property>
  <property name="kdenlive:clipname">texts</property>
  <property name="luma_duration">25</property>
  <property name="fade">0</property>
  <property name="crop">0</property>
  <property name="loop">0</property>
  <property name="kdenlive:duration">00:00:02.400</property>
  <property name="kdenlive:folderid">-1</property>
  <property name="kdenlive:id">137</property>
  <property name="kdenlive:file_hash">45f94957e3aff5fd042de2896e129f85</property>
  <property name="global_feed">1</property>
 </producer>
 <producer id="producer117" in="00:00:00.000" out="00:00:02.360">
  <property name="length">00:00:02.400</property>
  <property name="eof">pause</property>
  <property name="resource">vid_files/10_chapters/t1/t%04d.png?begin=1000</property>
  <property name="ttl">1</property>
  <property name="aspect_ratio">1</property>
  <property name="progressive">1</property>
  <property name="seekable">1</property>
  <property name="begin">1000</property>
  <property name="meta.media.width">1920</property>
  <property name="meta.media.height">300</property>
  <property name="mlt_service">qimage</property>
  <property name="kdenlive:clipname">t</property>
  <property name="luma_duration">25</property>
  <property name="fade">0</property>
  <property name="crop">0</property>
  <property name="loop">0</property>
  <property name="kdenlive:duration">00:00:02.400</property>
  <property name="kdenlive:folderid">-1</property>
  <property name="kdenlive:id">138</property>
  <property name="kdenlive:file_hash">2ee70a9465c8ec844fa5220f43327666</property>
  <property name="global_feed">1</property>
 </producer>
 <producer id="producer143" in="00:00:00.000" out="00:00:04.960">
  <property name="length">00:00:05.000</property>
  <property name="eof">pause</property>
  <property name="resource">vid_files/3_bias_variance_decompose/src/apprex.png</property>
  <property name="ttl">25</property>
  <property name="aspect_ratio">1</property>
  <property name="progressive">1</property>
  <property name="seekable">1</property>
  <property name="meta.media.width">148</property>
  <property name="meta.media.height">68</property>
  <property name="mlt_service">qimage</property>
  <property name="kdenlive:clipname"/>
  <property name="kdenlive:duration">00:00:05.000</property>
  <property name="kdenlive:folderid">-1</property>
  <property name="kdenlive:id">139</property>
  <property name="kdenlive:file_size">2270</property>
  <property name="kdenlive:file_hash">cfd868fcf7c682088491f9e464ec2113</property>
  <property name="global_feed">1</property>
 </producer>
 <producer id="producer135" in="00:00:00.000" out="00:00:02.360">
  <property name="length">00:00:02.400</property>
  <property name="eof">pause</property>
  <property name="resource">vid_files/10_chapters/t_bias/t_bias%03d.png</property>
  <property name="ttl">1</property>
  <property name="aspect_ratio">1</property>
  <property name="progressive">1</property>
  <property name="seekable">1</property>
  <property name="meta.media.width">1920</property>
  <property name="meta.media.height">300</property>
  <property name="mlt_service">qimage</property>
  <property name="kdenlive:clipname">t_bias</property>
  <property name="luma_duration">25</property>
  <property name="fade">0</property>
  <property name="crop">0</property>
  <property name="loop">0</property>
  <property name="kdenlive:duration">00:00:02.400</property>
  <property name="kdenlive:folderid">-1</property>
  <property name="kdenlive:id">140</property>
  <property name="kdenlive:file_hash">73dfbb2bf2d9e8afee8937e2ec70a7e0</property>
  <property name="global_feed">1</property>
 </producer>
 <producer id="producer136" in="00:00:00.000" out="00:00:02.360">
  <property name="length">00:00:02.400</property>
  <property name="eof">pause</property>
  <property name="resource">vid_files/10_chapters/t_variance/t_variance%03d.png</property>
  <property name="ttl">1</property>
  <property name="aspect_ratio">1</property>
  <property name="progressive">1</property>
  <property name="seekable">1</property>
  <property name="meta.media.width">1920</property>
  <property name="meta.media.height">300</property>
  <property name="mlt_service">qimage</property>
  <property name="kdenlive:clipname">t_variance</property>
  <property name="luma_duration">25</property>
  <property name="fade">0</property>
  <property name="crop">0</property>
  <property name="loop">0</property>
  <property name="kdenlive:duration">00:00:02.400</property>
  <property name="kdenlive:folderid">-1</property>
  <property name="kdenlive:id">141</property>
  <property name="kdenlive:file_hash">46faa2651e1e7d45c80ef5f14a3fd07f</property>
  <property name="global_feed">1</property>
 </producer>
 <producer id="producer137" in="00:00:00.000" out="00:00:02.360">
  <property name="length">00:00:02.400</property>
  <property name="eof">pause</property>
  <property name="resource">vid_files/10_chapters/t_totale/t_totale%03d.png</property>
  <property name="ttl">1</property>
  <property name="aspect_ratio">1</property>
  <property name="progressive">1</property>
  <property name="seekable">1</property>
  <property name="meta.media.width">1920</property>
  <property name="meta.media.height">300</property>
  <property name="mlt_service">qimage</property>
  <property name="kdenlive:clipname">t_totale</property>
  <property name="luma_duration">25</property>
  <property name="fade">0</property>
  <property name="crop">0</property>
  <property name="loop">0</property>
  <property name="kdenlive:duration">00:00:02.400</property>
  <property name="kdenlive:folderid">-1</property>
  <property name="kdenlive:id">142</property>
  <property name="kdenlive:file_hash">e6a03c643279ece1ee447f4a1bf9efd1</property>
  <property name="global_feed">1</property>
 </producer>
 <producer id="producer138" in="00:00:00.000" out="00:00:02.360">
  <property name="length">00:00:02.400</property>
  <property name="eof">pause</property>
  <property name="resource">vid_files/10_chapters/totale/totale%03d.png</property>
  <property name="ttl">1</property>
  <property name="aspect_ratio">1</property>
  <property name="progressive">1</property>
  <property name="seekable">1</property>
  <property name="meta.media.width">1920</property>
  <property name="meta.media.height">300</property>
  <property name="mlt_service">qimage</property>
  <property name="kdenlive:clipname">totale</property>
  <property name="luma_duration">25</property>
  <property name="fade">0</property>
  <property name="crop">0</property>
  <property name="loop">0</property>
  <property name="kdenlive:duration">00:00:02.400</property>
  <property name="kdenlive:folderid">-1</property>
  <property name="kdenlive:id">143</property>
  <property name="kdenlive:file_hash">73945107ee2e33a0a07342e27dbe642b</property>
 </producer>
 <producer id="producer139" in="00:00:00.000" out="00:00:04.200">
  <property name="length">00:00:04.240</property>
  <property name="eof">pause</property>
  <property name="resource">vid_files/3_bias_variance_decompose/totale/totale%03d.png?begin=54</property>
  <property name="ttl">1</property>
  <property name="aspect_ratio">1</property>
  <property name="progressive">1</property>
  <property name="seekable">1</property>
  <property name="begin">54</property>
  <property name="meta.media.width">1920</property>
  <property name="meta.media.height">200</property>
  <property name="mlt_service">qimage</property>
  <property name="kdenlive:clipname">totale</property>
  <property name="luma_duration">25</property>
  <property name="fade">0</property>
  <property name="crop">0</property>
  <property name="loop">0</property>
  <property name="kdenlive:duration">00:00:04.240</property>
  <property name="kdenlive:folderid">-1</property>
  <property name="kdenlive:id">144</property>
  <property name="kdenlive:file_hash">c15d4170d7a6f6a9c78661dbeb009d12</property>
 </producer>
 <producer id="producer140" in="00:00:00.000" out="00:00:04.960">
  <property name="length">00:00:05.000</property>
  <property name="eof">pause</property>
  <property name="resource">vid_files/3_bias_variance_decompose/totale/totale086.png</property>
  <property name="ttl">25</property>
  <property name="aspect_ratio">1</property>
  <property name="progressive">1</property>
  <property name="seekable">1</property>
  <property name="meta.media.width">1920</property>
  <property name="meta.media.height">200</property>
  <property name="mlt_service">qimage</property>
  <property name="kdenlive:clipname"/>
  <property name="kdenlive:duration">00:00:05.000</property>
  <property name="kdenlive:folderid">-1</property>
  <property name="kdenlive:id">145</property>
  <property name="kdenlive:file_size">14232</property>
  <property name="kdenlive:file_hash">b90a6b35d9dec57c4b9893916fa85d08</property>
 </producer>
 <producer id="producer141" in="00:00:00.000" out="00:00:02.360">
  <property name="length">00:00:02.400</property>
  <property name="eof">pause</property>
  <property name="resource">vid_files/10_chapters/t2/t%04d.png?begin=2000</property>
  <property name="ttl">1</property>
  <property name="aspect_ratio">1</property>
  <property name="progressive">1</property>
  <property name="seekable">1</property>
  <property name="begin">2000</property>
  <property name="meta.media.width">1920</property>
  <property name="meta.media.height">300</property>
  <property name="mlt_service">qimage</property>
  <property name="kdenlive:clipname">t</property>
  <property name="luma_duration">25</property>
  <property name="fade">0</property>
  <property name="crop">0</property>
  <property name="loop">0</property>
  <property name="kdenlive:duration">00:00:02.400</property>
  <property name="kdenlive:folderid">-1</property>
  <property name="kdenlive:id">146</property>
  <property name="kdenlive:file_hash">49059551ed1e390ce7d0e902c2c0493a</property>
  <property name="global_feed">1</property>
 </producer>
 <producer id="producer142" in="00:00:00.000" out="00:00:02.360">
  <property name="length">00:00:02.400</property>
  <property name="eof">pause</property>
  <property name="resource">vid_files/10_chapters/t3/t%04d.png?begin=3000</property>
  <property name="ttl">1</property>
  <property name="aspect_ratio">1</property>
  <property name="progressive">1</property>
  <property name="seekable">1</property>
  <property name="begin">3000</property>
  <property name="meta.media.width">1920</property>
  <property name="meta.media.height">300</property>
  <property name="mlt_service">qimage</property>
  <property name="kdenlive:clipname">t</property>
  <property name="luma_duration">25</property>
  <property name="fade">0</property>
  <property name="crop">0</property>
  <property name="loop">0</property>
  <property name="kdenlive:duration">00:00:02.400</property>
  <property name="kdenlive:folderid">-1</property>
  <property name="kdenlive:id">147</property>
  <property name="kdenlive:file_hash">d1ef8bcf7dc8d20f6a58b6fc55132821</property>
  <property name="global_feed">1</property>
 </producer>
 <producer id="producer146" in="00:00:00.000" out="00:00:02.360">
  <property name="length">00:00:02.400</property>
  <property name="eof">pause</property>
  <property name="resource">vid_files/10_chapters/underfit/underfit%03d.png</property>
  <property name="ttl">1</property>
  <property name="aspect_ratio">1</property>
  <property name="progressive">1</property>
  <property name="seekable">1</property>
  <property name="meta.media.width">1920</property>
  <property name="meta.media.height">300</property>
  <property name="mlt_service">qimage</property>
  <property name="kdenlive:clipname">underfit</property>
  <property name="luma_duration">25</property>
  <property name="fade">0</property>
  <property name="crop">0</property>
  <property name="loop">0</property>
  <property name="kdenlive:duration">00:00:02.400</property>
  <property name="kdenlive:folderid">-1</property>
  <property name="kdenlive:id">148</property>
  <property name="kdenlive:file_hash">b55737a9e99503ad704815e9613fd922</property>
  <property name="global_feed">1</property>
 </producer>
 <producer id="producer147" in="00:00:00.000" out="00:00:02.360">
  <property name="length">00:00:02.400</property>
  <property name="eof">pause</property>
  <property name="resource">vid_files/10_chapters/overfit/overfit%03d.png</property>
  <property name="ttl">1</property>
  <property name="aspect_ratio">1</property>
  <property name="progressive">1</property>
  <property name="seekable">1</property>
  <property name="meta.media.width">1920</property>
  <property name="meta.media.height">300</property>
  <property name="mlt_service">qimage</property>
  <property name="kdenlive:clipname">overfit</property>
  <property name="luma_duration">25</property>
  <property name="fade">0</property>
  <property name="crop">0</property>
  <property name="loop">0</property>
  <property name="kdenlive:duration">00:00:02.400</property>
  <property name="kdenlive:folderid">-1</property>
  <property name="kdenlive:id">149</property>
  <property name="kdenlive:file_hash">c2566a098df57050a47c1cad273000be</property>
  <property name="global_feed">1</property>
 </producer>
 <producer id="producer148" in="00:00:00.000" out="00:00:07.960">
  <property name="length">00:00:08.000</property>
  <property name="eof">pause</property>
  <property name="resource">vid_files/9_pol_example/math_example/math_example%03d.png</property>
  <property name="ttl">1</property>
  <property name="aspect_ratio">1</property>
  <property name="progressive">1</property>
  <property name="seekable">1</property>
  <property name="meta.media.width">1980</property>
  <property name="meta.media.height">300</property>
  <property name="mlt_service">qimage</property>
  <property name="kdenlive:clipname">math_example</property>
  <property name="luma_duration">25</property>
  <property name="fade">0</property>
  <property name="crop">0</property>
  <property name="loop">0</property>
  <property name="kdenlive:duration">00:00:08.000</property>
  <property name="kdenlive:folderid">-1</property>
  <property name="kdenlive:id">150</property>
  <property name="kdenlive:file_hash">edcd3a434feabfe9091aaaca13c84496</property>
  <property name="global_feed">1</property>
 </producer>
 <producer id="producer149" in="00:00:00.000" out="00:00:19.960">
  <property name="length">00:00:20.000</property>
  <property name="eof">pause</property>
  <property name="resource">vid_files/10_chapters/pol_degree/pol_degree%03d.png</property>
  <property name="ttl">1</property>
  <property name="aspect_ratio">1</property>
  <property name="progressive">1</property>
  <property name="seekable">1</property>
  <property name="meta.media.width">1920</property>
  <property name="meta.media.height">500</property>
  <property name="mlt_service">qimage</property>
  <property name="kdenlive:clipname">pol_degree</property>
  <property name="luma_duration">25</property>
  <property name="fade">0</property>
  <property name="crop">0</property>
  <property name="loop">0</property>
  <property name="kdenlive:duration">00:00:20.000</property>
  <property name="kdenlive:folderid">-1</property>
  <property name="kdenlive:id">151</property>
  <property name="kdenlive:file_hash">a24ad17493941c63c5de965b642ee72d</property>
  <property name="global_feed">1</property>
 </producer>
 <producer id="producer150" in="00:00:00.000" out="00:00:11.040">
  <property name="length">277</property>
  <property name="eof">pause</property>
  <property name="resource">vid_files/2_mnist/data_set_split/data_set_split099.png</property>
  <property name="ttl">25</property>
  <property name="aspect_ratio">1</property>
  <property name="progressive">1</property>
  <property name="seekable">1</property>
  <property name="meta.media.width">1920</property>
  <property name="meta.media.height">1080</property>
  <property name="mlt_service">qimage</property>
  <property name="kdenlive:clipname"/>
  <property name="kdenlive:duration">00:00:05.000</property>
  <property name="kdenlive:folderid">-1</property>
  <property name="kdenlive:id">152</property>
  <property name="kdenlive:file_size">23465</property>
  <property name="kdenlive:file_hash">92308f7eff6f6719dc341d23d364b9aa</property>
 </producer>
 <producer id="producer151" in="00:00:00.000" out="00:00:02.360">
  <property name="length">00:00:02.400</property>
  <property name="eof">pause</property>
  <property name="resource">vid_files/10_chapters/high_error/high_error%03d.png</property>
  <property name="ttl">1</property>
  <property name="aspect_ratio">1</property>
  <property name="progressive">1</property>
  <property name="seekable">1</property>
  <property name="meta.media.width">1920</property>
  <property name="meta.media.height">300</property>
  <property name="mlt_service">qimage</property>
  <property name="kdenlive:clipname">high_error</property>
  <property name="luma_duration">25</property>
  <property name="fade">0</property>
  <property name="crop">0</property>
  <property name="loop">0</property>
  <property name="kdenlive:duration">00:00:02.400</property>
  <property name="kdenlive:folderid">-1</property>
  <property name="kdenlive:id">153</property>
  <property name="kdenlive:file_hash">3673e21dcd0295139367e4aa5e690a80</property>
  <property name="global_feed">1</property>
 </producer>
 <producer id="producer152" in="00:00:00.000" out="00:00:02.360">
  <property name="length">00:00:02.400</property>
  <property name="eof">pause</property>
  <property name="resource">vid_files/10_chapters/low_error/low_error%03d.png</property>
  <property name="ttl">1</property>
  <property name="aspect_ratio">1</property>
  <property name="progressive">1</property>
  <property name="seekable">1</property>
  <property name="meta.media.width">1920</property>
  <property name="meta.media.height">300</property>
  <property name="mlt_service">qimage</property>
  <property name="kdenlive:clipname">low_error</property>
  <property name="luma_duration">25</property>
  <property name="fade">0</property>
  <property name="crop">0</property>
  <property name="loop">0</property>
  <property name="kdenlive:duration">00:00:02.400</property>
  <property name="kdenlive:folderid">-1</property>
  <property name="kdenlive:id">154</property>
  <property name="kdenlive:file_hash">06cc2af7af78aa31db36458112af5ffa</property>
  <property name="global_feed">1</property>
 </producer>
 <producer id="producer153" in="00:00:00.000" out="00:00:03.960">
  <property name="length">00:00:04.000</property>
  <property name="eof">pause</property>
  <property name="resource">vid_files/10_chapters/patreon/patreon%03d.png</property>
  <property name="ttl">1</property>
  <property name="aspect_ratio">1</property>
  <property name="progressive">1</property>
  <property name="seekable">1</property>
  <property name="meta.media.width">1920</property>
  <property name="meta.media.height">1080</property>
  <property name="mlt_service">qimage</property>
  <property name="kdenlive:clipname">patreon</property>
  <property name="luma_duration">25</property>
  <property name="fade">0</property>
  <property name="crop">0</property>
  <property name="loop">0</property>
  <property name="kdenlive:duration">00:00:04.000</property>
  <property name="kdenlive:folderid">-1</property>
  <property name="kdenlive:id">155</property>
  <property name="kdenlive:file_hash">d6c66a337e38a7147f73618e56781a85</property>
  <property name="global_feed">1</property>
 </producer>
 <producer id="producer154" in="00:00:00.000" out="00:00:04.960">
  <property name="length">00:00:05.000</property>
  <property name="eof">pause</property>
  <property name="resource">vid_files/10_chapters/patreon/patreon099.png</property>
  <property name="ttl">25</property>
  <property name="aspect_ratio">1</property>
  <property name="progressive">1</property>
  <property name="seekable">1</property>
  <property name="meta.media.width">1920</property>
  <property name="meta.media.height">1080</property>
  <property name="mlt_service">qimage</property>
  <property name="kdenlive:clipname"/>
  <property name="kdenlive:duration">00:00:05.000</property>
  <property name="kdenlive:folderid">-1</property>
  <property name="kdenlive:id">156</property>
  <property name="kdenlive:file_size">965666</property>
  <property name="kdenlive:file_hash">ca46176c59696683f0c6a706cb84059c</property>
 </producer>
 <producer id="producer155" in="00:00:00.000" out="00:00:04.960">
  <property name="length">00:00:05.000</property>
  <property name="eof">pause</property>
  <property name="resource">vid_files/electron_attraction.gif</property>
  <property name="audio_index">-1</property>
  <property name="video_index">0</property>
  <property name="mute_on_pause">0</property>
  <property name="mlt_service">avformat-novalidate</property>
  <property name="meta.media.nb_streams">1</property>
  <property name="meta.media.0.stream.type">video</property>
  <property name="meta.media.0.stream.frame_rate">25</property>
  <property name="meta.media.0.stream.sample_aspect_ratio">0</property>
  <property name="meta.media.0.codec.width">960</property>
  <property name="meta.media.0.codec.height">540</property>
  <property name="meta.media.0.codec.rotate">0</property>
  <property name="meta.media.0.codec.frame_rate">100</property>
  <property name="meta.media.0.codec.pix_fmt">bgra</property>
  <property name="meta.media.0.codec.sample_aspect_ratio">0</property>
  <property name="meta.media.0.codec.colorspace">601</property>
  <property name="meta.media.0.codec.name">gif</property>
  <property name="meta.media.0.codec.long_name">GIF (Graphics Interchange Format)</property>
  <property name="meta.media.0.codec.bit_rate">0</property>
  <property name="seekable">1</property>
  <property name="meta.media.sample_aspect_num">1</property>
  <property name="meta.media.sample_aspect_den">1</property>
  <property name="aspect_ratio">1</property>
  <property name="kdenlive:clipname"/>
  <property name="kdenlive:duration">00:00:05.000</property>
  <property name="kdenlive:folderid">-1</property>
  <property name="meta.media.frame_rate_num">25</property>
  <property name="meta.media.frame_rate_den">1</property>
  <property name="meta.media.colorspace">601</property>
  <property name="meta.media.color_trc">2</property>
  <property name="meta.media.width">960</property>
  <property name="meta.media.height">540</property>
  <property name="meta.media.color_range">mpeg</property>
  <property name="kdenlive:id">157</property>
  <property name="kdenlive:file_size">3714259</property>
  <property name="kdenlive:file_hash">48dd051fc4c77b894fb3617c4072f176</property>
  <property name="meta.media.top_field_first">0</property>
  <property name="meta.media.progressive">1</property>
  <property name="global_feed">1</property>
 </producer>
 <producer id="producer156" in="00:00:00.000" out="00:00:04.960">
  <property name="length">00:00:05.000</property>
  <property name="eof">pause</property>
  <property name="resource">vid_files/stimuated_emission.gif</property>
  <property name="audio_index">-1</property>
  <property name="video_index">0</property>
  <property name="mute_on_pause">0</property>
  <property name="mlt_service">avformat-novalidate</property>
  <property name="meta.media.nb_streams">1</property>
  <property name="meta.media.0.stream.type">video</property>
  <property name="meta.media.0.stream.frame_rate">20</property>
  <property name="meta.media.0.stream.sample_aspect_ratio">0</property>
  <property name="meta.media.0.codec.width">1920</property>
  <property name="meta.media.0.codec.height">1080</property>
  <property name="meta.media.0.codec.rotate">0</property>
  <property name="meta.media.0.codec.frame_rate">100</property>
  <property name="meta.media.0.codec.pix_fmt">bgra</property>
  <property name="meta.media.0.codec.sample_aspect_ratio">0</property>
  <property name="meta.media.0.codec.colorspace">709</property>
  <property name="meta.media.0.codec.name">gif</property>
  <property name="meta.media.0.codec.long_name">GIF (Graphics Interchange Format)</property>
  <property name="meta.media.0.codec.bit_rate">0</property>
  <property name="seekable">1</property>
  <property name="meta.media.sample_aspect_num">1</property>
  <property name="meta.media.sample_aspect_den">1</property>
  <property name="aspect_ratio">1</property>
  <property name="kdenlive:clipname"/>
  <property name="kdenlive:duration">00:00:05.000</property>
  <property name="kdenlive:folderid">-1</property>
  <property name="meta.media.frame_rate_num">20</property>
  <property name="meta.media.frame_rate_den">1</property>
  <property name="meta.media.colorspace">709</property>
  <property name="meta.media.color_trc">2</property>
  <property name="meta.media.width">1920</property>
  <property name="meta.media.height">1080</property>
  <property name="meta.media.color_range">mpeg</property>
  <property name="kdenlive:id">158</property>
  <property name="kdenlive:file_size">994966</property>
  <property name="kdenlive:file_hash">58682492ec5c9147eaf3302af843d3cb</property>
  <property name="meta.media.top_field_first">0</property>
  <property name="meta.media.progressive">1</property>
  <property name="global_feed">1</property>
 </producer>
 <producer id="producer157" in="00:00:00.000" out="00:00:02.360">
  <property name="length">00:00:02.400</property>
  <property name="eof">pause</property>
  <property name="resource">vid_files/10_chapters/is_var/is_var%03d.png</property>
  <property name="ttl">1</property>
  <property name="aspect_ratio">1</property>
  <property name="progressive">1</property>
  <property name="seekable">1</property>
  <property name="meta.media.width">1920</property>
  <property name="meta.media.height">300</property>
  <property name="mlt_service">qimage</property>
  <property name="kdenlive:clipname">is_var</property>
  <property name="luma_duration">25</property>
  <property name="fade">0</property>
  <property name="crop">0</property>
  <property name="loop">0</property>
  <property name="kdenlive:duration">00:00:02.400</property>
  <property name="kdenlive:folderid">-1</property>
  <property name="kdenlive:id">159</property>
  <property name="kdenlive:file_hash">7fa80990217fdbc9a25ff6ecfcd12a10</property>
  <property name="global_feed">1</property>
 </producer>
 <producer id="producer158" in="00:00:00.000" out="00:00:02.360">
  <property name="length">00:00:02.400</property>
  <property name="eof">pause</property>
  <property name="resource">vid_files/10_chapters/is_bi/is_bi%03d.png</property>
  <property name="ttl">1</property>
  <property name="aspect_ratio">1</property>
  <property name="progressive">1</property>
  <property name="seekable">1</property>
  <property name="meta.media.width">1920</property>
  <property name="meta.media.height">300</property>
  <property name="mlt_service">qimage</property>
  <property name="kdenlive:clipname">is_bi</property>
  <property name="luma_duration">25</property>
  <property name="fade">0</property>
  <property name="crop">0</property>
  <property name="loop">0</property>
  <property name="kdenlive:duration">00:00:02.400</property>
  <property name="kdenlive:folderid">-1</property>
  <property name="kdenlive:id">160</property>
  <property name="kdenlive:file_hash">0d09318bc190e737c8ac58e68d388fb7</property>
  <property name="global_feed">1</property>
 </producer>
 <producer id="producer159" in="00:00:00.000" out="00:00:08.440">
  <property name="length">212</property>
  <property name="eof">pause</property>
  <property name="resource">vid_files/0_clips/2021-08-19 20-51-22.mp4</property>
  <property name="audio_index">1</property>
  <property name="video_index">0</property>
  <property name="mute_on_pause">0</property>
  <property name="mlt_service">avformat-novalidate</property>
  <property name="meta.media.nb_streams">2</property>
  <property name="meta.media.0.stream.type">video</property>
  <property name="meta.media.0.stream.frame_rate">30</property>
  <property name="meta.media.0.stream.sample_aspect_ratio">0</property>
  <property name="meta.media.0.codec.width">1280</property>
  <property name="meta.media.0.codec.height">720</property>
  <property name="meta.media.0.codec.rotate">0</property>
  <property name="meta.media.0.codec.frame_rate">30</property>
  <property name="meta.media.0.codec.pix_fmt">yuv420p</property>
  <property name="meta.media.0.codec.sample_aspect_ratio">1</property>
  <property name="meta.media.0.codec.colorspace">709</property>
  <property name="meta.media.0.codec.color_trc">1</property>
  <property name="meta.media.0.codec.name">h264</property>
  <property name="meta.media.0.codec.long_name">H.264 / AVC / MPEG-4 AVC / MPEG-4 part 10</property>
  <property name="meta.media.0.codec.bit_rate">1136733</property>
  <property name="meta.attr.0.stream.handler_name.markup">VideoHandler</property>
  <property name="meta.media.1.stream.type">audio</property>
  <property name="meta.media.1.codec.sample_fmt">fltp</property>
  <property name="meta.media.1.codec.sample_rate">48000</property>
  <property name="meta.media.1.codec.channels">2</property>
  <property name="meta.media.1.codec.name">aac</property>
  <property name="meta.media.1.codec.long_name">AAC (Advanced Audio Coding)</property>
  <property name="meta.media.1.codec.bit_rate">193126</property>
  <property name="meta.attr.1.stream.handler_name.markup">SoundHandler</property>
  <property name="meta.attr.major_brand.markup">isom</property>
  <property name="meta.attr.minor_version.markup">512</property>
  <property name="meta.attr.compatible_brands.markup">isomiso2avc1mp41</property>
  <property name="meta.attr.encoder.markup">Lavf58.29.100</property>
  <property name="seekable">1</property>
  <property name="meta.media.sample_aspect_num">1</property>
  <property name="meta.media.sample_aspect_den">1</property>
  <property name="aspect_ratio">1</property>
  <property name="kdenlive:clipname"/>
  <property name="kdenlive:folderid">-1</property>
  <property name="meta.media.frame_rate_num">30</property>
  <property name="meta.media.frame_rate_den">1</property>
  <property name="meta.media.colorspace">709</property>
  <property name="meta.media.color_trc">1</property>
  <property name="meta.media.width">1280</property>
  <property name="meta.media.height">720</property>
  <property name="meta.media.color_range">mpeg</property>
  <property name="kdenlive:id">161</property>
  <property name="kdenlive:file_size">1416095</property>
  <property name="kdenlive:file_hash">096868b1ca46a29fd30296a0cf978465</property>
  <property name="kdenlive:audio_max">6</property>
  <property name="meta.media.top_field_first">0</property>
  <property name="meta.media.progressive">1</property>
  <property name="global_feed">1</property>
 </producer>
 <producer id="producer160" in="00:00:00.000" out="00:00:07.480">
  <property name="length">188</property>
  <property name="eof">pause</property>
  <property name="resource">vid_files/0_clips/2021-08-19 20-51-40.mp4</property>
  <property name="audio_index">1</property>
  <property name="video_index">0</property>
  <property name="mute_on_pause">0</property>
  <property name="mlt_service">avformat-novalidate</property>
  <property name="meta.media.nb_streams">2</property>
  <property name="meta.media.0.stream.type">video</property>
  <property name="meta.media.0.stream.frame_rate">30</property>
  <property name="meta.media.0.stream.sample_aspect_ratio">0</property>
  <property name="meta.media.0.codec.width">1280</property>
  <property name="meta.media.0.codec.height">720</property>
  <property name="meta.media.0.codec.rotate">0</property>
  <property name="meta.media.0.codec.frame_rate">30</property>
  <property name="meta.media.0.codec.pix_fmt">yuv420p</property>
  <property name="meta.media.0.codec.sample_aspect_ratio">1</property>
  <property name="meta.media.0.codec.colorspace">709</property>
  <property name="meta.media.0.codec.color_trc">1</property>
  <property name="meta.media.0.codec.name">h264</property>
  <property name="meta.media.0.codec.long_name">H.264 / AVC / MPEG-4 AVC / MPEG-4 part 10</property>
  <property name="meta.media.0.codec.bit_rate">1092854</property>
  <property name="meta.attr.0.stream.handler_name.markup">VideoHandler</property>
  <property name="meta.media.1.stream.type">audio</property>
  <property name="meta.media.1.codec.sample_fmt">fltp</property>
  <property name="meta.media.1.codec.sample_rate">48000</property>
  <property name="meta.media.1.codec.channels">2</property>
  <property name="meta.media.1.codec.name">aac</property>
  <property name="meta.media.1.codec.long_name">AAC (Advanced Audio Coding)</property>
  <property name="meta.media.1.codec.bit_rate">193376</property>
  <property name="meta.attr.1.stream.handler_name.markup">SoundHandler</property>
  <property name="meta.attr.major_brand.markup">isom</property>
  <property name="meta.attr.minor_version.markup">512</property>
  <property name="meta.attr.compatible_brands.markup">isomiso2avc1mp41</property>
  <property name="meta.attr.encoder.markup">Lavf58.29.100</property>
  <property name="seekable">1</property>
  <property name="meta.media.sample_aspect_num">1</property>
  <property name="meta.media.sample_aspect_den">1</property>
  <property name="aspect_ratio">1</property>
  <property name="kdenlive:clipname"/>
  <property name="kdenlive:folderid">-1</property>
  <property name="meta.media.frame_rate_num">30</property>
  <property name="meta.media.frame_rate_den">1</property>
  <property name="meta.media.colorspace">709</property>
  <property name="meta.media.color_trc">1</property>
  <property name="meta.media.width">1280</property>
  <property name="meta.media.height">720</property>
  <property name="meta.media.color_range">mpeg</property>
  <property name="kdenlive:id">162</property>
  <property name="kdenlive:file_size">1213627</property>
  <property name="kdenlive:file_hash">d8aab1567b04f3f474e3be406614c2e5</property>
  <property name="kdenlive:audio_max">15</property>
  <property name="meta.media.top_field_first">0</property>
  <property name="meta.media.progressive">1</property>
  <property name="global_feed">1</property>
 </producer>
 <producer id="producer161" in="00:00:00.000" out="00:00:07.240">
  <property name="length">182</property>
  <property name="eof">pause</property>
  <property name="resource">vid_files/0_clips/2021-08-19 20-54-51.mp4</property>
  <property name="audio_index">1</property>
  <property name="video_index">0</property>
  <property name="mute_on_pause">0</property>
  <property name="mlt_service">avformat-novalidate</property>
  <property name="meta.media.nb_streams">2</property>
  <property name="meta.media.0.stream.type">video</property>
  <property name="meta.media.0.stream.frame_rate">30</property>
  <property name="meta.media.0.stream.sample_aspect_ratio">0</property>
  <property name="meta.media.0.codec.width">1280</property>
  <property name="meta.media.0.codec.height">720</property>
  <property name="meta.media.0.codec.rotate">0</property>
  <property name="meta.media.0.codec.frame_rate">30</property>
  <property name="meta.media.0.codec.pix_fmt">yuv420p</property>
  <property name="meta.media.0.codec.sample_aspect_ratio">1</property>
  <property name="meta.media.0.codec.colorspace">709</property>
  <property name="meta.media.0.codec.color_trc">1</property>
  <property name="meta.media.0.codec.name">h264</property>
  <property name="meta.media.0.codec.long_name">H.264 / AVC / MPEG-4 AVC / MPEG-4 part 10</property>
  <property name="meta.media.0.codec.bit_rate">1202777</property>
  <property name="meta.attr.0.stream.handler_name.markup">VideoHandler</property>
  <property name="meta.media.1.stream.type">audio</property>
  <property name="meta.media.1.codec.sample_fmt">fltp</property>
  <property name="meta.media.1.codec.sample_rate">48000</property>
  <property name="meta.media.1.codec.channels">2</property>
  <property name="meta.media.1.codec.name">aac</property>
  <property name="meta.media.1.codec.long_name">AAC (Advanced Audio Coding)</property>
  <property name="meta.media.1.codec.bit_rate">193360</property>
  <property name="meta.attr.1.stream.handler_name.markup">SoundHandler</property>
  <property name="meta.attr.major_brand.markup">isom</property>
  <property name="meta.attr.minor_version.markup">512</property>
  <property name="meta.attr.compatible_brands.markup">isomiso2avc1mp41</property>
  <property name="meta.attr.encoder.markup">Lavf58.29.100</property>
  <property name="seekable">1</property>
  <property name="meta.media.sample_aspect_num">1</property>
  <property name="meta.media.sample_aspect_den">1</property>
  <property name="aspect_ratio">1</property>
  <property name="kdenlive:clipname"/>
  <property name="kdenlive:folderid">-1</property>
  <property name="meta.media.frame_rate_num">30</property>
  <property name="meta.media.frame_rate_den">1</property>
  <property name="meta.media.colorspace">709</property>
  <property name="meta.media.color_trc">1</property>
  <property name="meta.media.width">1280</property>
  <property name="meta.media.height">720</property>
  <property name="meta.media.color_range">mpeg</property>
  <property name="kdenlive:id">163</property>
  <property name="kdenlive:file_size">1275669</property>
  <property name="kdenlive:file_hash">03dc36368cf9b937095878bc0f3076c8</property>
  <property name="kdenlive:audio_max">17</property>
  <property name="global_feed">1</property>
 </producer>
 <producer id="producer162" in="00:00:00.000" out="00:00:05.360">
  <property name="length">135</property>
  <property name="eof">pause</property>
  <property name="resource">vid_files/0_clips/2021-08-19 20-55-10.mp4</property>
  <property name="audio_index">1</property>
  <property name="video_index">0</property>
  <property name="mute_on_pause">0</property>
  <property name="mlt_service">avformat-novalidate</property>
  <property name="meta.media.nb_streams">2</property>
  <property name="meta.media.0.stream.type">video</property>
  <property name="meta.media.0.stream.frame_rate">30</property>
  <property name="meta.media.0.stream.sample_aspect_ratio">0</property>
  <property name="meta.media.0.codec.width">1280</property>
  <property name="meta.media.0.codec.height">720</property>
  <property name="meta.media.0.codec.rotate">0</property>
  <property name="meta.media.0.codec.frame_rate">30</property>
  <property name="meta.media.0.codec.pix_fmt">yuv420p</property>
  <property name="meta.media.0.codec.sample_aspect_ratio">1</property>
  <property name="meta.media.0.codec.colorspace">709</property>
  <property name="meta.media.0.codec.color_trc">1</property>
  <property name="meta.media.0.codec.name">h264</property>
  <property name="meta.media.0.codec.long_name">H.264 / AVC / MPEG-4 AVC / MPEG-4 part 10</property>
  <property name="meta.media.0.codec.bit_rate">1128829</property>
  <property name="meta.attr.0.stream.handler_name.markup">VideoHandler</property>
  <property name="meta.media.1.stream.type">audio</property>
  <property name="meta.media.1.codec.sample_fmt">fltp</property>
  <property name="meta.media.1.codec.sample_rate">48000</property>
  <property name="meta.media.1.codec.channels">2</property>
  <property name="meta.media.1.codec.name">aac</property>
  <property name="meta.media.1.codec.long_name">AAC (Advanced Audio Coding)</property>
  <property name="meta.media.1.codec.bit_rate">193712</property>
  <property name="meta.attr.1.stream.handler_name.markup">SoundHandler</property>
  <property name="meta.attr.major_brand.markup">isom</property>
  <property name="meta.attr.minor_version.markup">512</property>
  <property name="meta.attr.compatible_brands.markup">isomiso2avc1mp41</property>
  <property name="meta.attr.encoder.markup">Lavf58.29.100</property>
  <property name="seekable">1</property>
  <property name="meta.media.sample_aspect_num">1</property>
  <property name="meta.media.sample_aspect_den">1</property>
  <property name="aspect_ratio">1</property>
  <property name="kdenlive:clipname"/>
  <property name="kdenlive:folderid">-1</property>
  <property name="meta.media.frame_rate_num">30</property>
  <property name="meta.media.frame_rate_den">1</property>
  <property name="meta.media.colorspace">709</property>
  <property name="meta.media.color_trc">1</property>
  <property name="meta.media.width">1280</property>
  <property name="meta.media.height">720</property>
  <property name="meta.media.color_range">mpeg</property>
  <property name="kdenlive:id">164</property>
  <property name="kdenlive:file_size">897900</property>
  <property name="kdenlive:file_hash">3f9a55ab7c79e44f73eb2b0039144f35</property>
  <property name="kdenlive:audio_max">17</property>
  <property name="global_feed">1</property>
 </producer>
 <producer id="producer163" in="00:00:00.000" out="00:00:05.080">
  <property name="length">128</property>
  <property name="eof">pause</property>
  <property name="resource">vid_files/0_clips/2021-08-19 20-55-18.mp4</property>
  <property name="audio_index">1</property>
  <property name="video_index">0</property>
  <property name="mute_on_pause">0</property>
  <property name="mlt_service">avformat-novalidate</property>
  <property name="meta.media.nb_streams">2</property>
  <property name="meta.media.0.stream.type">video</property>
  <property name="meta.media.0.stream.frame_rate">30</property>
  <property name="meta.media.0.stream.sample_aspect_ratio">0</property>
  <property name="meta.media.0.codec.width">1280</property>
  <property name="meta.media.0.codec.height">720</property>
  <property name="meta.media.0.codec.rotate">0</property>
  <property name="meta.media.0.codec.frame_rate">30</property>
  <property name="meta.media.0.codec.pix_fmt">yuv420p</property>
  <property name="meta.media.0.codec.sample_aspect_ratio">1</property>
  <property name="meta.media.0.codec.colorspace">709</property>
  <property name="meta.media.0.codec.color_trc">1</property>
  <property name="meta.media.0.codec.name">h264</property>
  <property name="meta.media.0.codec.long_name">H.264 / AVC / MPEG-4 AVC / MPEG-4 part 10</property>
  <property name="meta.media.0.codec.bit_rate">1047547</property>
  <property name="meta.attr.0.stream.handler_name.markup">VideoHandler</property>
  <property name="meta.media.1.stream.type">audio</property>
  <property name="meta.media.1.codec.sample_fmt">fltp</property>
  <property name="meta.media.1.codec.sample_rate">48000</property>
  <property name="meta.media.1.codec.channels">2</property>
  <property name="meta.media.1.codec.name">aac</property>
  <property name="meta.media.1.codec.long_name">AAC (Advanced Audio Coding)</property>
  <property name="meta.media.1.codec.bit_rate">193851</property>
  <property name="meta.attr.1.stream.handler_name.markup">SoundHandler</property>
  <property name="meta.attr.major_brand.markup">isom</property>
  <property name="meta.attr.minor_version.markup">512</property>
  <property name="meta.attr.compatible_brands.markup">isomiso2avc1mp41</property>
  <property name="meta.attr.encoder.markup">Lavf58.29.100</property>
  <property name="seekable">1</property>
  <property name="meta.media.sample_aspect_num">1</property>
  <property name="meta.media.sample_aspect_den">1</property>
  <property name="aspect_ratio">1</property>
  <property name="kdenlive:clipname"/>
  <property name="kdenlive:folderid">-1</property>
  <property name="meta.media.frame_rate_num">30</property>
  <property name="meta.media.frame_rate_den">1</property>
  <property name="meta.media.colorspace">709</property>
  <property name="meta.media.color_trc">1</property>
  <property name="meta.media.width">1280</property>
  <property name="meta.media.height">720</property>
  <property name="meta.media.color_range">mpeg</property>
  <property name="kdenlive:id">165</property>
  <property name="kdenlive:file_size">801705</property>
  <property name="kdenlive:file_hash">a173ed4d6660dcf0b86214e104c22cb8</property>
  <property name="kdenlive:audio_max">15</property>
  <property name="global_feed">1</property>
 </producer>
 <producer id="producer164" in="00:00:00.000" out="00:00:09.480">
  <property name="length">238</property>
  <property name="eof">pause</property>
  <property name="resource">vid_files/0_clips/2021-08-19 20-55-27.mp4</property>
  <property name="audio_index">1</property>
  <property name="video_index">0</property>
  <property name="mute_on_pause">0</property>
  <property name="mlt_service">avformat-novalidate</property>
  <property name="meta.media.nb_streams">2</property>
  <property name="meta.media.0.stream.type">video</property>
  <property name="meta.media.0.stream.frame_rate">30</property>
  <property name="meta.media.0.stream.sample_aspect_ratio">0</property>
  <property name="meta.media.0.codec.width">1280</property>
  <property name="meta.media.0.codec.height">720</property>
  <property name="meta.media.0.codec.rotate">0</property>
  <property name="meta.media.0.codec.frame_rate">30</property>
  <property name="meta.media.0.codec.pix_fmt">yuv420p</property>
  <property name="meta.media.0.codec.sample_aspect_ratio">1</property>
  <property name="meta.media.0.codec.colorspace">709</property>
  <property name="meta.media.0.codec.color_trc">1</property>
  <property name="meta.media.0.codec.name">h264</property>
  <property name="meta.media.0.codec.long_name">H.264 / AVC / MPEG-4 AVC / MPEG-4 part 10</property>
  <property name="meta.media.0.codec.bit_rate">1080968</property>
  <property name="meta.attr.0.stream.handler_name.markup">VideoHandler</property>
  <property name="meta.media.1.stream.type">audio</property>
  <property name="meta.media.1.codec.sample_fmt">fltp</property>
  <property name="meta.media.1.codec.sample_rate">48000</property>
  <property name="meta.media.1.codec.channels">2</property>
  <property name="meta.media.1.codec.name">aac</property>
  <property name="meta.media.1.codec.long_name">AAC (Advanced Audio Coding)</property>
  <property name="meta.media.1.codec.bit_rate">192997</property>
  <property name="meta.attr.1.stream.handler_name.markup">SoundHandler</property>
  <property name="meta.attr.major_brand.markup">isom</property>
  <property name="meta.attr.minor_version.markup">512</property>
  <property name="meta.attr.compatible_brands.markup">isomiso2avc1mp41</property>
  <property name="meta.attr.encoder.markup">Lavf58.29.100</property>
  <property name="seekable">1</property>
  <property name="meta.media.sample_aspect_num">1</property>
  <property name="meta.media.sample_aspect_den">1</property>
  <property name="aspect_ratio">1</property>
  <property name="kdenlive:clipname"/>
  <property name="kdenlive:folderid">-1</property>
  <property name="meta.media.frame_rate_num">30</property>
  <property name="meta.media.frame_rate_den">1</property>
  <property name="meta.media.colorspace">709</property>
  <property name="meta.media.color_trc">1</property>
  <property name="meta.media.width">1280</property>
  <property name="meta.media.height">720</property>
  <property name="meta.media.color_range">mpeg</property>
  <property name="kdenlive:id">166</property>
  <property name="kdenlive:file_size">1522957</property>
  <property name="kdenlive:file_hash">d468556f5de4b3a2a528045768969f0c</property>
  <property name="kdenlive:audio_max">17</property>
  <property name="global_feed">1</property>
 </producer>
 <producer id="producer165" in="00:00:00.000" out="00:00:08.760">
  <property name="length">220</property>
  <property name="eof">pause</property>
  <property name="resource">vid_files/0_clips/2021-08-19 20-55-38.mp4</property>
  <property name="audio_index">1</property>
  <property name="video_index">0</property>
  <property name="mute_on_pause">0</property>
  <property name="mlt_service">avformat-novalidate</property>
  <property name="meta.media.nb_streams">2</property>
  <property name="meta.media.0.stream.type">video</property>
  <property name="meta.media.0.stream.frame_rate">30</property>
  <property name="meta.media.0.stream.sample_aspect_ratio">0</property>
  <property name="meta.media.0.codec.width">1280</property>
  <property name="meta.media.0.codec.height">720</property>
  <property name="meta.media.0.codec.rotate">0</property>
  <property name="meta.media.0.codec.frame_rate">30</property>
  <property name="meta.media.0.codec.pix_fmt">yuv420p</property>
  <property name="meta.media.0.codec.sample_aspect_ratio">1</property>
  <property name="meta.media.0.codec.colorspace">709</property>
  <property name="meta.media.0.codec.color_trc">1</property>
  <property name="meta.media.0.codec.name">h264</property>
  <property name="meta.media.0.codec.long_name">H.264 / AVC / MPEG-4 AVC / MPEG-4 part 10</property>
  <property name="meta.media.0.codec.bit_rate">999172</property>
  <property name="meta.attr.0.stream.handler_name.markup">VideoHandler</property>
  <property name="meta.media.1.stream.type">audio</property>
  <property name="meta.media.1.codec.sample_fmt">fltp</property>
  <property name="meta.media.1.codec.sample_rate">48000</property>
  <property name="meta.media.1.codec.channels">2</property>
  <property name="meta.media.1.codec.name">aac</property>
  <property name="meta.media.1.codec.long_name">AAC (Advanced Audio Coding)</property>
  <property name="meta.media.1.codec.bit_rate">192417</property>
  <property name="meta.attr.1.stream.handler_name.markup">SoundHandler</property>
  <property name="meta.attr.major_brand.markup">isom</property>
  <property name="meta.attr.minor_version.markup">512</property>
  <property name="meta.attr.compatible_brands.markup">isomiso2avc1mp41</property>
  <property name="meta.attr.encoder.markup">Lavf58.29.100</property>
  <property name="seekable">1</property>
  <property name="meta.media.sample_aspect_num">1</property>
  <property name="meta.media.sample_aspect_den">1</property>
  <property name="aspect_ratio">1</property>
  <property name="kdenlive:clipname"/>
  <property name="kdenlive:folderid">-1</property>
  <property name="meta.media.frame_rate_num">30</property>
  <property name="meta.media.frame_rate_den">1</property>
  <property name="meta.media.colorspace">709</property>
  <property name="meta.media.color_trc">1</property>
  <property name="meta.media.width">1280</property>
  <property name="meta.media.height">720</property>
  <property name="meta.media.color_range">mpeg</property>
  <property name="kdenlive:id">167</property>
  <property name="kdenlive:file_size">1320004</property>
  <property name="kdenlive:file_hash">f81c181b440064795658448eb78f2092</property>
  <property name="kdenlive:audio_max">18</property>
  <property name="global_feed">1</property>
 </producer>
 <producer id="producer166" in="00:00:00.000" out="00:00:07.200">
  <property name="length">181</property>
  <property name="eof">pause</property>
  <property name="resource">vid_files/0_clips/2021-08-19 20-55-49.mp4</property>
  <property name="audio_index">1</property>
  <property name="video_index">0</property>
  <property name="mute_on_pause">0</property>
  <property name="mlt_service">avformat-novalidate</property>
  <property name="meta.media.nb_streams">2</property>
  <property name="meta.media.0.stream.type">video</property>
  <property name="meta.media.0.stream.frame_rate">30</property>
  <property name="meta.media.0.stream.sample_aspect_ratio">0</property>
  <property name="meta.media.0.codec.width">1280</property>
  <property name="meta.media.0.codec.height">720</property>
  <property name="meta.media.0.codec.rotate">0</property>
  <property name="meta.media.0.codec.frame_rate">30</property>
  <property name="meta.media.0.codec.pix_fmt">yuv420p</property>
  <property name="meta.media.0.codec.sample_aspect_ratio">1</property>
  <property name="meta.media.0.codec.colorspace">709</property>
  <property name="meta.media.0.codec.color_trc">1</property>
  <property name="meta.media.0.codec.name">h264</property>
  <property name="meta.media.0.codec.long_name">H.264 / AVC / MPEG-4 AVC / MPEG-4 part 10</property>
  <property name="meta.media.0.codec.bit_rate">1105287</property>
  <property name="meta.attr.0.stream.handler_name.markup">VideoHandler</property>
  <property name="meta.media.1.stream.type">audio</property>
  <property name="meta.media.1.codec.sample_fmt">fltp</property>
  <property name="meta.media.1.codec.sample_rate">48000</property>
  <property name="meta.media.1.codec.channels">2</property>
  <property name="meta.media.1.codec.name">aac</property>
  <property name="meta.media.1.codec.long_name">AAC (Advanced Audio Coding)</property>
  <property name="meta.media.1.codec.bit_rate">193306</property>
  <property name="meta.attr.1.stream.handler_name.markup">SoundHandler</property>
  <property name="meta.attr.major_brand.markup">isom</property>
  <property name="meta.attr.minor_version.markup">512</property>
  <property name="meta.attr.compatible_brands.markup">isomiso2avc1mp41</property>
  <property name="meta.attr.encoder.markup">Lavf58.29.100</property>
  <property name="seekable">1</property>
  <property name="meta.media.sample_aspect_num">1</property>
  <property name="meta.media.sample_aspect_den">1</property>
  <property name="aspect_ratio">1</property>
  <property name="kdenlive:clipname"/>
  <property name="kdenlive:folderid">-1</property>
  <property name="meta.media.frame_rate_num">30</property>
  <property name="meta.media.frame_rate_den">1</property>
  <property name="meta.media.colorspace">709</property>
  <property name="meta.media.color_trc">1</property>
  <property name="meta.media.width">1280</property>
  <property name="meta.media.height">720</property>
  <property name="meta.media.color_range">mpeg</property>
  <property name="kdenlive:id">168</property>
  <property name="kdenlive:file_size">1181358</property>
  <property name="kdenlive:file_hash">38bc7e749b5b6f6ed1a531b98d979642</property>
  <property name="kdenlive:audio_max">17</property>
  <property name="global_feed">1</property>
 </producer>
 <producer id="producer167" in="00:00:00.000" out="00:08:37.440">
  <property name="length">12937</property>
  <property name="eof">pause</property>
  <property name="resource">/home/renec/kden_MAIN2.mp3</property>
  <property name="meta.media.nb_streams">1</property>
  <property name="meta.media.0.stream.type">audio</property>
  <property name="meta.media.0.codec.sample_fmt">fltp</property>
  <property name="meta.media.0.codec.sample_rate">48000</property>
  <property name="meta.media.0.codec.channels">2</property>
  <property name="meta.media.0.codec.name">mp3float</property>
  <property name="meta.media.0.codec.long_name">MP3 (MPEG audio layer 3)</property>
  <property name="meta.media.0.codec.bit_rate">80633</property>
  <property name="meta.attr.0.stream.encoder.markup">LAME3.100</property>
  <property name="meta.attr.Software.markup">Lavf58.45.100</property>
  <property name="seekable">1</property>
  <property name="audio_index">0</property>
  <property name="video_index">-1</property>
  <property name="mute_on_pause">1</property>
  <property name="mlt_service">avformat</property>
  <property name="kdenlive:clipname"/>
  <property name="kdenlive:folderid">-1</property>
  <property name="kdenlive:id">169</property>
  <property name="kdenlive:file_size">5215903</property>
  <property name="kdenlive:file_hash">f4e052bf32826400b25954a260d02071</property>
  <property name="kdenlive:audio_max">1</property>
  <property name="global_feed">1</property>
 </producer>
 <playlist id="main_bin">
  <property name="kdenlive:docproperties.activeTrack">4</property>
  <property name="kdenlive:docproperties.audioChannels">2</property>
  <property name="kdenlive:docproperties.audioTarget">-1</property>
  <property name="kdenlive:docproperties.disablepreview">0</property>
  <property name="kdenlive:docproperties.documentid">1628496515266</property>
  <property name="kdenlive:docproperties.enableTimelineZone">1</property>
  <property name="kdenlive:docproperties.enableexternalproxy">0</property>
  <property name="kdenlive:docproperties.enableproxy">0</property>
  <property name="kdenlive:docproperties.externalproxyparams"/>
  <property name="kdenlive:docproperties.generateimageproxy">0</property>
  <property name="kdenlive:docproperties.generateproxy">0</property>
  <property name="kdenlive:docproperties.groups">[
    {
        "children": [
            {
                "data": "2:2342",
                "leaf": "clip",
                "type": "Leaf"
            },
            {
                "data": "1:2342",
                "leaf": "clip",
                "type": "Leaf"
            }
        ],
        "type": "AVSplit"
    },
    {
        "children": [
            {
                "data": "2:7650",
                "leaf": "clip",
                "type": "Leaf"
            },
            {
                "data": "1:7650",
                "leaf": "clip",
                "type": "Leaf"
            }
        ],
        "type": "AVSplit"
    },
    {
        "children": [
            {
                "data": "2:7165",
                "leaf": "clip",
                "type": "Leaf"
            },
            {
                "data": "1:7165",
                "leaf": "clip",
                "type": "Leaf"
            }
        ],
        "type": "AVSplit"
    },
    {
        "children": [
            {
                "data": "2:1500",
                "leaf": "clip",
                "type": "Leaf"
            },
            {
                "data": "1:1500",
                "leaf": "clip",
                "type": "Leaf"
            }
        ],
        "type": "AVSplit"
    },
    {
        "children": [
            {
                "data": "1:2770",
                "leaf": "clip",
                "type": "Leaf"
            },
            {
                "data": "2:2770",
                "leaf": "clip",
                "type": "Leaf"
            }
        ],
        "type": "AVSplit"
    },
    {
        "children": [
            {
                "data": "1:7938",
                "leaf": "clip",
                "type": "Leaf"
            },
            {
                "data": "2:7938",
                "leaf": "clip",
                "type": "Leaf"
            }
        ],
        "type": "AVSplit"
    },
    {
        "children": [
            {
                "data": "2:9609",
                "leaf": "clip",
                "type": "Leaf"
            },
            {
                "data": "1:9609",
                "leaf": "clip",
                "type": "Leaf"
            }
        ],
        "type": "AVSplit"
    },
    {
        "children": [
            {
                "data": "2:3033",
                "leaf": "clip",
                "type": "Leaf"
            },
            {
                "data": "1:3033",
                "leaf": "clip",
                "type": "Leaf"
            }
        ],
        "type": "AVSplit"
    },
    {
        "children": [
            {
                "data": "2:1996",
                "leaf": "clip",
                "type": "Leaf"
            },
            {
                "data": "1:1996",
                "leaf": "clip",
                "type": "Leaf"
            }
        ],
        "type": "AVSplit"
    },
    {
        "children": [
            {
                "data": "2:1821",
                "leaf": "clip",
                "type": "Leaf"
            },
            {
                "data": "1:1821",
                "leaf": "clip",
                "type": "Leaf"
            }
        ],
        "type": "AVSplit"
    },
    {
        "children": [
            {
                "data": "2:4730",
                "leaf": "clip",
                "type": "Leaf"
            },
            {
                "data": "1:4730",
                "leaf": "clip",
                "type": "Leaf"
            }
        ],
        "type": "AVSplit"
    },
    {
        "children": [
            {
                "data": "1:2902",
                "leaf": "clip",
                "type": "Leaf"
            },
            {
                "data": "2:2902",
                "leaf": "clip",
                "type": "Leaf"
            }
        ],
        "type": "AVSplit"
    },
    {
        "children": [
            {
                "data": "1:707",
                "leaf": "clip",
                "type": "Leaf"
            },
            {
                "data": "2:707",
                "leaf": "clip",
                "type": "Leaf"
            }
        ],
        "type": "AVSplit"
    },
    {
        "children": [
            {
                "data": "1:5641",
                "leaf": "clip",
                "type": "Leaf"
            },
            {
                "data": "2:5641",
                "leaf": "clip",
                "type": "Leaf"
            }
        ],
        "type": "AVSplit"
    },
    {
        "children": [
            {
                "data": "2:1596",
                "leaf": "clip",
                "type": "Leaf"
            },
            {
                "data": "1:1596",
                "leaf": "clip",
                "type": "Leaf"
            }
        ],
        "type": "AVSplit"
    },
    {
        "children": [
            {
                "data": "1:9808",
                "leaf": "clip",
                "type": "Leaf"
            },
            {
                "data": "2:9808",
                "leaf": "clip",
                "type": "Leaf"
            }
        ],
        "type": "AVSplit"
    },
    {
        "children": [
            {
                "data": "1:4642",
                "leaf": "clip",
                "type": "Leaf"
            },
            {
                "data": "2:4642",
                "leaf": "clip",
                "type": "Leaf"
            }
        ],
        "type": "AVSplit"
    },
    {
        "children": [
            {
                "data": "1:8561",
                "leaf": "clip",
                "type": "Leaf"
            },
            {
                "data": "2:8561",
                "leaf": "clip",
                "type": "Leaf"
            }
        ],
        "type": "AVSplit"
    },
    {
        "children": [
            {
                "data": "2:8122",
                "leaf": "clip",
                "type": "Leaf"
            },
            {
                "data": "1:8122",
                "leaf": "clip",
                "type": "Leaf"
            }
        ],
        "type": "AVSplit"
    },
    {
        "children": [
            {
                "data": "2:10614",
                "leaf": "clip",
                "type": "Leaf"
            },
            {
                "data": "1:10614",
                "leaf": "clip",
                "type": "Leaf"
            }
        ],
        "type": "AVSplit"
    },
    {
        "children": [
            {
                "data": "2:717",
                "leaf": "clip",
                "type": "Leaf"
            },
            {
                "data": "1:717",
                "leaf": "clip",
                "type": "Leaf"
            }
        ],
        "type": "AVSplit"
    },
    {
        "children": [
            {
                "data": "2:1881",
                "leaf": "clip",
                "type": "Leaf"
            },
            {
                "data": "1:1881",
                "leaf": "clip",
                "type": "Leaf"
            }
        ],
        "type": "AVSplit"
    },
    {
        "children": [
            {
                "data": "1:2070",
                "leaf": "clip",
                "type": "Leaf"
            },
            {
                "data": "2:2070",
                "leaf": "clip",
                "type": "Leaf"
            }
        ],
        "type": "AVSplit"
    },
    {
        "children": [
            {
                "data": "2:10280",
                "leaf": "clip",
                "type": "Leaf"
            },
            {
                "data": "1:10280",
                "leaf": "clip",
                "type": "Leaf"
            }
        ],
        "type": "AVSplit"
    },
    {
        "children": [
            {
                "data": "2:1957",
                "leaf": "clip",
                "type": "Leaf"
            },
            {
                "data": "1:1957",
                "leaf": "clip",
                "type": "Leaf"
            }
        ],
        "type": "AVSplit"
    },
    {
        "children": [
            {
                "data": "1:5933",
                "leaf": "clip",
                "type": "Leaf"
            },
            {
                "data": "2:5933",
                "leaf": "clip",
                "type": "Leaf"
            }
        ],
        "type": "AVSplit"
    },
    {
        "children": [
            {
                "data": "2:11433",
                "leaf": "clip",
                "type": "Leaf"
            },
            {
                "data": "1:11433",
                "leaf": "clip",
                "type": "Leaf"
            }
        ],
        "type": "AVSplit"
    },
    {
        "children": [
            {
                "data": "2:5388",
                "leaf": "clip",
                "type": "Leaf"
            },
            {
                "data": "1:5388",
                "leaf": "clip",
                "type": "Leaf"
            }
        ],
        "type": "AVSplit"
    },
    {
        "children": [
            {
                "data": "2:2843",
                "leaf": "clip",
                "type": "Leaf"
            },
            {
                "data": "1:2843",
                "leaf": "clip",
                "type": "Leaf"
            }
        ],
        "type": "AVSplit"
    },
    {
        "children": [
            {
                "data": "2:8866",
                "leaf": "clip",
                "type": "Leaf"
            },
            {
                "data": "1:8866",
                "leaf": "clip",
                "type": "Leaf"
            }
        ],
        "type": "AVSplit"
    },
    {
        "children": [
            {
                "data": "1:10881",
                "leaf": "clip",
                "type": "Leaf"
            },
            {
                "data": "2:10881",
                "leaf": "clip",
                "type": "Leaf"
            }
        ],
        "type": "AVSplit"
    },
    {
        "children": [
            {
                "data": "1:4005",
                "leaf": "clip",
                "type": "Leaf"
            },
            {
                "data": "2:4005",
                "leaf": "clip",
                "type": "Leaf"
            }
        ],
        "type": "AVSplit"
    },
    {
        "children": [
            {
                "data": "1:7318",
                "leaf": "clip",
                "type": "Leaf"
            },
            {
                "data": "2:7318",
                "leaf": "clip",
                "type": "Leaf"
            }
        ],
        "type": "AVSplit"
    },
    {
        "children": [
            {
                "data": "2:8143",
                "leaf": "clip",
                "type": "Leaf"
            },
            {
                "data": "1:8143",
                "leaf": "clip",
                "type": "Leaf"
            }
        ],
        "type": "AVSplit"
    },
    {
        "children": [
            {
                "data": "1:1001",
                "leaf": "clip",
                "type": "Leaf"
            },
            {
                "data": "2:1001",
                "leaf": "clip",
                "type": "Leaf"
            }
        ],
        "type": "AVSplit"
    },
    {
        "children": [
            {
                "data": "2:4839",
                "leaf": "clip",
                "type": "Leaf"
            },
            {
                "data": "1:4839",
                "leaf": "clip",
                "type": "Leaf"
            }
        ],
        "type": "AVSplit"
    },
    {
        "children": [
            {
                "data": "1:652",
                "leaf": "clip",
                "type": "Leaf"
            },
            {
                "data": "2:652",
                "leaf": "clip",
                "type": "Leaf"
            }
        ],
        "type": "AVSplit"
    },
    {
        "children": [
            {
                "data": "1:7223",
                "leaf": "clip",
                "type": "Leaf"
            },
            {
                "data": "2:7223",
                "leaf": "clip",
                "type": "Leaf"
            }
        ],
        "type": "AVSplit"
    },
    {
        "children": [
            {
                "data": "2:6323",
                "leaf": "clip",
                "type": "Leaf"
            },
            {
                "data": "1:6323",
                "leaf": "clip",
                "type": "Leaf"
            }
        ],
        "type": "AVSplit"
    },
    {
        "children": [
            {
                "data": "1:3740",
                "leaf": "clip",
                "type": "Leaf"
            },
            {
                "data": "2:3740",
                "leaf": "clip",
                "type": "Leaf"
            }
        ],
        "type": "AVSplit"
    },
    {
        "children": [
            {
                "data": "1:8955",
                "leaf": "clip",
                "type": "Leaf"
            },
            {
                "data": "2:8955",
                "leaf": "clip",
                "type": "Leaf"
            }
        ],
        "type": "AVSplit"
    },
    {
        "children": [
            {
                "data": "1:7618",
                "leaf": "clip",
                "type": "Leaf"
            },
            {
                "data": "2:7618",
                "leaf": "clip",
                "type": "Leaf"
            }
        ],
        "type": "AVSplit"
    },
    {
        "children": [
            {
                "data": "2:3329",
                "leaf": "clip",
                "type": "Leaf"
            },
            {
                "data": "1:3329",
                "leaf": "clip",
                "type": "Leaf"
            }
        ],
        "type": "AVSplit"
    },
    {
        "children": [
            {
                "data": "1:2887",
                "leaf": "clip",
                "type": "Leaf"
            },
            {
                "data": "2:2887",
                "leaf": "clip",
                "type": "Leaf"
            }
        ],
        "type": "AVSplit"
    },
    {
        "children": [
            {
                "data": "1:10470",
                "leaf": "clip",
                "type": "Leaf"
            },
            {
                "data": "2:10470",
                "leaf": "clip",
                "type": "Leaf"
            }
        ],
        "type": "AVSplit"
    },
    {
        "children": [
            {
                "data": "2:1109",
                "leaf": "clip",
                "type": "Leaf"
            },
            {
                "data": "1:1109",
                "leaf": "clip",
                "type": "Leaf"
            }
        ],
        "type": "AVSplit"
    },
    {
        "children": [
            {
                "data": "1:3272",
                "leaf": "clip",
                "type": "Leaf"
            },
            {
                "data": "2:3272",
                "leaf": "clip",
                "type": "Leaf"
            }
        ],
        "type": "AVSplit"
    },
    {
        "children": [
            {
                "data": "2:9409",
                "leaf": "clip",
                "type": "Leaf"
            },
            {
                "data": "1:9409",
                "leaf": "clip",
                "type": "Leaf"
            }
        ],
        "type": "AVSplit"
    },
    {
        "children": [
            {
                "data": "1:1047",
                "leaf": "clip",
                "type": "Leaf"
            },
            {
                "data": "2:1047",
                "leaf": "clip",
                "type": "Leaf"
            }
        ],
        "type": "AVSplit"
    },
    {
        "children": [
            {
                "data": "2:3030",
                "leaf": "clip",
                "type": "Leaf"
            },
            {
                "data": "1:3030",
                "leaf": "clip",
                "type": "Leaf"
            }
        ],
        "type": "AVSplit"
    },
    {
        "children": [
            {
                "data": "2:9113",
                "leaf": "clip",
                "type": "Leaf"
            },
            {
                "data": "1:9113",
                "leaf": "clip",
                "type": "Leaf"
            }
        ],
        "type": "AVSplit"
    },
    {
        "children": [
            {
                "data": "1:8211",
                "leaf": "clip",
                "type": "Leaf"
            },
            {
                "data": "2:8211",
                "leaf": "clip",
                "type": "Leaf"
            }
        ],
        "type": "AVSplit"
    },
    {
        "children": [
            {
                "data": "1:12026",
                "leaf": "clip",
                "type": "Leaf"
            },
            {
                "data": "2:12026",
                "leaf": "clip",
                "type": "Leaf"
            }
        ],
        "type": "AVSplit"
    },
    {
        "children": [
            {
                "data": "1:809",
                "leaf": "clip",
                "type": "Leaf"
            },
            {
                "data": "2:809",
                "leaf": "clip",
                "type": "Leaf"
            }
        ],
        "type": "AVSplit"
    },
    {
        "children": [
            {
                "data": "1:4583",
                "leaf": "clip",
                "type": "Leaf"
            },
            {
                "data": "2:4583",
                "leaf": "clip",
                "type": "Leaf"
            }
        ],
        "type": "AVSplit"
    },
    {
        "children": [
            {
                "data": "1:9165",
                "leaf": "clip",
                "type": "Leaf"
            },
            {
                "data": "2:9165",
                "leaf": "clip",
                "type": "Leaf"
            }
        ],
        "type": "AVSplit"
    },
    {
        "children": [
            {
                "data": "1:3139",
                "leaf": "clip",
                "type": "Leaf"
            },
            {
                "data": "2:3139",
                "leaf": "clip",
                "type": "Leaf"
            }
        ],
        "type": "AVSplit"
    },
    {
        "children": [
            {
                "data": "2:458",
                "leaf": "clip",
                "type": "Leaf"
            },
            {
                "data": "1:458",
                "leaf": "clip",
                "type": "Leaf"
            }
        ],
        "type": "AVSplit"
    },
    {
        "children": [
            {
                "data": "2:9763",
                "leaf": "clip",
                "type": "Leaf"
            },
            {
                "data": "1:9763",
                "leaf": "clip",
                "type": "Leaf"
            }
        ],
        "type": "AVSplit"
    },
    {
        "children": [
            {
                "data": "1:9019",
                "leaf": "clip",
                "type": "Leaf"
            },
            {
                "data": "2:9019",
                "leaf": "clip",
                "type": "Leaf"
            }
        ],
        "type": "AVSplit"
    },
    {
        "children": [
            {
                "data": "1:2689",
                "leaf": "clip",
                "type": "Leaf"
            },
            {
                "data": "2:2689",
                "leaf": "clip",
                "type": "Leaf"
            }
        ],
        "type": "AVSplit"
    },
    {
        "children": [
            {
                "data": "1:11537",
                "leaf": "clip",
                "type": "Leaf"
            },
            {
                "data": "2:11537",
                "leaf": "clip",
                "type": "Leaf"
            }
        ],
        "type": "AVSplit"
    },
    {
        "children": [
            {
                "data": "1:3468",
                "leaf": "clip",
                "type": "Leaf"
            },
            {
                "data": "2:3468",
                "leaf": "clip",
                "type": "Leaf"
            }
        ],
        "type": "AVSplit"
    },
    {
        "children": [
            {
                "data": "2:7995",
                "leaf": "clip",
                "type": "Leaf"
            },
            {
                "data": "1:7995",
                "leaf": "clip",
                "type": "Leaf"
            }
        ],
        "type": "AVSplit"
    },
    {
        "children": [
            {
                "data": "2:5443",
                "leaf": "clip",
                "type": "Leaf"
            },
            {
                "data": "1:5443",
                "leaf": "clip",
                "type": "Leaf"
            }
        ],
        "type": "AVSplit"
    },
    {
        "children": [
            {
                "data": "2:6062",
                "leaf": "clip",
                "type": "Leaf"
            },
            {
                "data": "1:6062",
                "leaf": "clip",
                "type": "Leaf"
            }
        ],
        "type": "AVSplit"
    },
    {
        "children": [
            {
                "data": "1:8330",
                "leaf": "clip",
                "type": "Leaf"
            },
            {
                "data": "2:8330",
                "leaf": "clip",
                "type": "Leaf"
            }
        ],
        "type": "AVSplit"
    },
    {
        "children": [
            {
                "data": "2:4320",
                "leaf": "clip",
                "type": "Leaf"
            },
            {
                "data": "1:4320",
                "leaf": "clip",
                "type": "Leaf"
            }
        ],
        "type": "AVSplit"
    },
    {
        "children": [
            {
                "data": "2:5789",
                "leaf": "clip",
                "type": "Leaf"
            },
            {
                "data": "1:5789",
                "leaf": "clip",
                "type": "Leaf"
            }
        ],
        "type": "AVSplit"
    },
    {
        "children": [
            {
                "data": "1:8481",
                "leaf": "clip",
                "type": "Leaf"
            },
            {
                "data": "2:8481",
                "leaf": "clip",
                "type": "Leaf"
            }
        ],
        "type": "AVSplit"
    },
    {
        "children": [
            {
                "data": "1:8806",
                "leaf": "clip",
                "type": "Leaf"
            },
            {
                "data": "2:8806",
                "leaf": "clip",
                "type": "Leaf"
            }
        ],
        "type": "AVSplit"
    },
    {
        "children": [
            {
                "data": "2:9910",
                "leaf": "clip",
                "type": "Leaf"
            },
            {
                "data": "1:9910",
                "leaf": "clip",
                "type": "Leaf"
            }
        ],
        "type": "AVSplit"
    },
    {
        "children": [
            {
                "data": "1:11586",
                "leaf": "clip",
                "type": "Leaf"
            },
            {
                "data": "2:11586",
                "leaf": "clip",
                "type": "Leaf"
            }
        ],
        "type": "AVSplit"
    },
    {
        "children": [
            {
                "data": "1:4986",
                "leaf": "clip",
                "type": "Leaf"
            },
            {
                "data": "2:4986",
                "leaf": "clip",
                "type": "Leaf"
            }
        ],
        "type": "AVSplit"
    },
    {
        "children": [
            {
                "data": "2:10544",
                "leaf": "clip",
                "type": "Leaf"
            },
            {
                "data": "1:10544",
                "leaf": "clip",
                "type": "Leaf"
            }
        ],
        "type": "AVSplit"
    },
    {
        "children": [
            {
                "data": "1:4196",
                "leaf": "clip",
                "type": "Leaf"
            },
            {
                "data": "2:4196",
                "leaf": "clip",
                "type": "Leaf"
            }
        ],
        "type": "AVSplit"
    },
    {
        "children": [
            {
                "data": "2:6242",
                "leaf": "clip",
                "type": "Leaf"
            },
            {
                "data": "1:6242",
                "leaf": "clip",
                "type": "Leaf"
            }
        ],
        "type": "AVSplit"
    },
    {
        "children": [
            {
                "data": "1:5158",
                "leaf": "clip",
                "type": "Leaf"
            },
            {
                "data": "2:5158",
                "leaf": "clip",
                "type": "Leaf"
            }
        ],
        "type": "AVSplit"
    },
    {
        "children": [
            {
                "data": "2:11352",
                "leaf": "clip",
                "type": "Leaf"
            },
            {
                "data": "1:11352",
                "leaf": "clip",
                "type": "Leaf"
            }
        ],
        "type": "AVSplit"
    },
    {
        "children": [
            {
                "data": "1:6580",
                "leaf": "clip",
                "type": "Leaf"
            },
            {
                "data": "2:6580",
                "leaf": "clip",
                "type": "Leaf"
            }
        ],
        "type": "AVSplit"
    },
    {
        "children": [
            {
                "data": "2:4419",
                "leaf": "clip",
                "type": "Leaf"
            },
            {
                "data": "1:4419",
                "leaf": "clip",
                "type": "Leaf"
            }
        ],
        "type": "AVSplit"
    },
    {
        "children": [
            {
                "data": "1:8367",
                "leaf": "clip",
                "type": "Leaf"
            },
            {
                "data": "2:8367",
                "leaf": "clip",
                "type": "Leaf"
            }
        ],
        "type": "AVSplit"
    },
    {
        "children": [
            {
                "data": "1:1783",
                "leaf": "clip",
                "type": "Leaf"
            },
            {
                "data": "2:1783",
                "leaf": "clip",
                "type": "Leaf"
            }
        ],
        "type": "AVSplit"
    },
    {
        "children": [
            {
                "data": "2:3192",
                "leaf": "clip",
                "type": "Leaf"
            },
            {
                "data": "1:3192",
                "leaf": "clip",
                "type": "Leaf"
            }
        ],
        "type": "AVSplit"
    },
    {
        "children": [
            {
                "data": "2:5251",
                "leaf": "clip",
                "type": "Leaf"
            },
            {
                "data": "1:5251",
                "leaf": "clip",
                "type": "Leaf"
            }
        ],
        "type": "AVSplit"
    },
    {
        "children": [
            {
                "data": "1:1926",
                "leaf": "clip",
                "type": "Leaf"
            },
            {
                "data": "2:1926",
                "leaf": "clip",
                "type": "Leaf"
            }
        ],
        "type": "AVSplit"
    },
    {
        "children": [
            {
                "data": "1:5764",
                "leaf": "clip",
                "type": "Leaf"
            },
            {
                "data": "2:5764",
                "leaf": "clip",
                "type": "Leaf"
            }
        ],
        "type": "AVSplit"
    },
    {
        "children": [
            {
                "data": "1:0",
                "leaf": "clip",
                "type": "Leaf"
            },
            {
                "data": "2:0",
                "leaf": "clip",
                "type": "Leaf"
            }
        ],
        "type": "AVSplit"
    },
    {
        "children": [
            {
                "data": "2:3897",
                "leaf": "clip",
                "type": "Leaf"
            },
            {
                "data": "1:3897",
                "leaf": "clip",
                "type": "Leaf"
            }
        ],
        "type": "AVSplit"
    },
    {
        "children": [
            {
                "data": "2:6016",
                "leaf": "clip",
                "type": "Leaf"
            },
            {
                "data": "1:6016",
                "leaf": "clip",
                "type": "Leaf"
            }
        ],
        "type": "AVSplit"
    },
    {
        "children": [
            {
                "data": "1:8707",
                "leaf": "clip",
                "type": "Leaf"
            },
            {
                "data": "2:8707",
                "leaf": "clip",
                "type": "Leaf"
            }
        ],
        "type": "AVSplit"
    },
    {
        "children": [
            {
                "data": "1:7044",
                "leaf": "clip",
                "type": "Leaf"
            },
            {
                "data": "2:7044",
                "leaf": "clip",
                "type": "Leaf"
            }
        ],
        "type": "AVSplit"
    },
    {
        "children": [
            {
                "data": "1:8608",
                "leaf": "clip",
                "type": "Leaf"
            },
            {
                "data": "2:8608",
                "leaf": "clip",
                "type": "Leaf"
            }
        ],
        "type": "AVSplit"
    },
    {
        "children": [
            {
                "data": "2:4477",
                "leaf": "clip",
                "type": "Leaf"
            },
            {
                "data": "1:4477",
                "leaf": "clip",
                "type": "Leaf"
            }
        ],
        "type": "AVSplit"
    },
    {
        "children": [
            {
                "data": "2:3878",
                "leaf": "clip",
                "type": "Leaf"
            },
            {
                "data": "1:3878",
                "leaf": "clip",
                "type": "Leaf"
            }
        ],
        "type": "AVSplit"
    },
    {
        "children": [
            {
                "data": "1:3783",
                "leaf": "clip",
                "type": "Leaf"
            },
            {
                "data": "2:3783",
                "leaf": "clip",
                "type": "Leaf"
            }
        ],
        "type": "AVSplit"
    },
    {
        "children": [
            {
                "data": "1:3697",
                "leaf": "clip",
                "type": "Leaf"
            },
            {
                "data": "2:3697",
                "leaf": "clip",
                "type": "Leaf"
            }
        ],
        "type": "AVSplit"
    },
    {
        "children": [
            {
                "data": "1:3639",
                "leaf": "clip",
                "type": "Leaf"
            },
            {
                "data": "2:3639",
                "leaf": "clip",
                "type": "Leaf"
            }
        ],
        "type": "AVSplit"
    },
    {
        "children": [
            {
                "data": "1:3006",
                "leaf": "clip",
                "type": "Leaf"
            },
            {
                "data": "2:3006",
                "leaf": "clip",
                "type": "Leaf"
            }
        ],
        "type": "AVSplit"
    },
    {
        "children": [
            {
                "data": "1:2577",
                "leaf": "clip",
                "type": "Leaf"
            },
            {
                "data": "2:2577",
                "leaf": "clip",
                "type": "Leaf"
            }
        ],
        "type": "AVSplit"
    },
    {
        "children": [
            {
                "data": "1:1726",
                "leaf": "clip",
                "type": "Leaf"
            },
            {
                "data": "2:1726",
                "leaf": "clip",
                "type": "Leaf"
            }
        ],
        "type": "AVSplit"
    },
    {
        "children": [
            {
                "data": "1:7569",
                "leaf": "clip",
                "type": "Leaf"
            },
            {
                "data": "2:7569",
                "leaf": "clip",
                "type": "Leaf"
            }
        ],
        "type": "AVSplit"
    },
    {
        "children": [
            {
                "data": "1:9484",
                "leaf": "clip",
                "type": "Leaf"
            },
            {
                "data": "2:9484",
                "leaf": "clip",
                "type": "Leaf"
            }
        ],
        "type": "AVSplit"
    },
    {
        "children": [
            {
                "data": "2:7774",
                "leaf": "clip",
                "type": "Leaf"
            },
            {
                "data": "1:7774",
                "leaf": "clip",
                "type": "Leaf"
            }
        ],
        "type": "AVSplit"
    },
    {
        "children": [
            {
                "data": "2:9716",
                "leaf": "clip",
                "type": "Leaf"
            },
            {
                "data": "1:9716",
                "leaf": "clip",
                "type": "Leaf"
            }
        ],
        "type": "AVSplit"
    },
    {
        "children": [
            {
                "data": "2:4107",
                "leaf": "clip",
                "type": "Leaf"
            },
            {
                "data": "1:4107",
                "leaf": "clip",
                "type": "Leaf"
            }
        ],
        "type": "AVSplit"
    },
    {
        "children": [
            {
                "data": "1:7458",
                "leaf": "clip",
                "type": "Leaf"
            },
            {
                "data": "2:7458",
                "leaf": "clip",
                "type": "Leaf"
            }
        ],
        "type": "AVSplit"
    },
    {
        "children": [
            {
                "data": "1:7418",
                "leaf": "clip",
                "type": "Leaf"
            },
            {
                "data": "2:7418",
                "leaf": "clip",
                "type": "Leaf"
            }
        ],
        "type": "AVSplit"
    },
    {
        "children": [
            {
                "data": "1:4046",
                "leaf": "clip",
                "type": "Leaf"
            },
            {
                "data": "2:4046",
                "leaf": "clip",
                "type": "Leaf"
            }
        ],
        "type": "AVSplit"
    },
    {
        "children": [
            {
                "data": "2:7340",
                "leaf": "clip",
                "type": "Leaf"
            },
            {
                "data": "1:7340",
                "leaf": "clip",
                "type": "Leaf"
            }
        ],
        "type": "AVSplit"
    },
    {
        "children": [
            {
                "data": "1:6165",
                "leaf": "clip",
                "type": "Leaf"
            },
            {
                "data": "2:6165",
                "leaf": "clip",
                "type": "Leaf"
            }
        ],
        "type": "AVSplit"
    },
    {
        "children": [
            {
                "data": "1:6526",
                "leaf": "clip",
                "type": "Leaf"
            },
            {
                "data": "2:6526",
                "leaf": "clip",
                "type": "Leaf"
            }
        ],
        "type": "AVSplit"
    },
    {
        "children": [
            {
                "data": "1:6433",
                "leaf": "clip",
                "type": "Leaf"
            },
            {
                "data": "2:6433",
                "leaf": "clip",
                "type": "Leaf"
            }
        ],
        "type": "AVSplit"
    },
    {
        "children": [
            {
                "data": "2:77",
                "leaf": "clip",
                "type": "Leaf"
            },
            {
                "data": "1:77",
                "leaf": "clip",
                "type": "Leaf"
            }
        ],
        "type": "AVSplit"
    },
    {
        "children": [
            {
                "data": "1:11762",
                "leaf": "clip",
                "type": "Leaf"
            },
            {
                "data": "2:11762",
                "leaf": "clip",
                "type": "Leaf"
            }
        ],
        "type": "AVSplit"
    },
    {
        "children": [
            {
                "data": "2:11135",
                "leaf": "clip",
                "type": "Leaf"
            },
            {
                "data": "1:11135",
                "leaf": "clip",
                "type": "Leaf"
            }
        ],
        "type": "AVSplit"
    },
    {
        "children": [
            {
                "data": "2:10410",
                "leaf": "clip",
                "type": "Leaf"
            },
            {
                "data": "1:10410",
                "leaf": "clip",
                "type": "Leaf"
            }
        ],
        "type": "AVSplit"
    },
    {
        "children": [
            {
                "data": "1:10442",
                "leaf": "clip",
                "type": "Leaf"
            },
            {
                "data": "2:10442",
                "leaf": "clip",
                "type": "Leaf"
            }
        ],
        "type": "AVSplit"
    },
    {
        "children": [
            {
                "data": "1:10520",
                "leaf": "clip",
                "type": "Leaf"
            },
            {
                "data": "2:10520",
                "leaf": "clip",
                "type": "Leaf"
            }
        ],
        "type": "AVSplit"
    },
    {
        "children": [
            {
                "data": "2:10051",
                "leaf": "clip",
                "type": "Leaf"
            },
            {
                "data": "1:10051",
                "leaf": "clip",
                "type": "Leaf"
            }
        ],
        "type": "AVSplit"
    },
    {
        "children": [
            {
                "data": "2:1289",
                "leaf": "clip",
                "type": "Leaf"
            },
            {
                "data": "1:1289",
                "leaf": "clip",
                "type": "Leaf"
            }
        ],
        "type": "AVSplit"
    },
    {
        "children": [
            {
                "data": "1:6944",
                "leaf": "clip",
                "type": "Leaf"
            },
            {
                "data": "2:6944",
                "leaf": "clip",
                "type": "Leaf"
            }
        ],
        "type": "AVSplit"
    },
    {
        "children": [
            {
                "data": "2:12161",
                "leaf": "clip",
                "type": "Leaf"
            },
            {
                "data": "1:12161",
                "leaf": "clip",
                "type": "Leaf"
            }
        ],
        "type": "AVSplit"
    },
    {
        "children": [
            {
                "data": "2:9862",
                "leaf": "clip",
                "type": "Leaf"
            },
            {
                "data": "1:9862",
                "leaf": "clip",
                "type": "Leaf"
            }
        ],
        "type": "AVSplit"
    },
    {
        "children": [
            {
                "data": "1:290",
                "leaf": "clip",
                "type": "Leaf"
            },
            {
                "data": "2:290",
                "leaf": "clip",
                "type": "Leaf"
            }
        ],
        "type": "AVSplit"
    },
    {
        "children": [
            {
                "data": "2:3558",
                "leaf": "clip",
                "type": "Leaf"
            },
            {
                "data": "1:3558",
                "leaf": "clip",
                "type": "Leaf"
            }
        ],
        "type": "AVSplit"
    },
    {
        "children": [
            {
                "data": "1:10379",
                "leaf": "clip",
                "type": "Leaf"
            },
            {
                "data": "2:10379",
                "leaf": "clip",
                "type": "Leaf"
            }
        ],
        "type": "AVSplit"
    },
    {
        "children": [
            {
                "data": "2:6764",
                "leaf": "clip",
                "type": "Leaf"
            },
            {
                "data": "1:6764",
                "leaf": "clip",
                "type": "Leaf"
            }
        ],
        "type": "AVSplit"
    },
    {
        "children": [
            {
                "data": "1:11677",
                "leaf": "clip",
                "type": "Leaf"
            },
            {
                "data": "2:11677",
                "leaf": "clip",
                "type": "Leaf"
            }
        ],
        "type": "AVSplit"
    },
    {
        "children": [
            {
                "data": "2:1437",
                "leaf": "clip",
                "type": "Leaf"
            },
            {
                "data": "1:1437",
                "leaf": "clip",
                "type": "Leaf"
            }
        ],
        "type": "AVSplit"
    },
    {
        "children": [
            {
                "data": "2:9226",
                "leaf": "clip",
                "type": "Leaf"
            },
            {
                "data": "1:9226",
                "leaf": "clip",
                "type": "Leaf"
            }
        ],
        "type": "AVSplit"
    },
    {
        "children": [
            {
                "data": "1:712",
                "leaf": "clip",
                "type": "Leaf"
            },
            {
                "data": "2:712",
                "leaf": "clip",
                "type": "Leaf"
            }
        ],
        "type": "AVSplit"
    },
    {
        "children": [
            {
                "data": "2:5095",
                "leaf": "clip",
                "type": "Leaf"
            },
            {
                "data": "1:5095",
                "leaf": "clip",
                "type": "Leaf"
            }
        ],
        "type": "AVSplit"
    },
    {
        "children": [
            {
                "data": "2:10988",
                "leaf": "clip",
                "type": "Leaf"
            },
            {
                "data": "1:10988",
                "leaf": "clip",
                "type": "Leaf"
            }
        ],
        "type": "AVSplit"
    },
    {
        "children": [
            {
                "data": "1:1366",
                "leaf": "clip",
                "type": "Leaf"
            },
            {
                "data": "2:1366",
                "leaf": "clip",
                "type": "Leaf"
            }
        ],
        "type": "AVSplit"
    },
    {
        "children": [
            {
                "data": "1:607",
                "leaf": "clip",
                "type": "Leaf"
            },
            {
                "data": "2:607",
                "leaf": "clip",
                "type": "Leaf"
            }
        ],
        "type": "AVSplit"
    }
]
</property>
  <property name="kdenlive:docproperties.guides">[
]
</property>
  <property name="kdenlive:docproperties.kdenliveversion">20.12.3</property>
  <property name="kdenlive:docproperties.position">104</property>
  <property name="kdenlive:docproperties.previewextension"/>
  <property name="kdenlive:docproperties.previewparameters"/>
  <property name="kdenlive:docproperties.profile">atsc_1080p_25</property>
  <property name="kdenlive:docproperties.proxyextension"/>
  <property name="kdenlive:docproperties.proxyimageminsize">2000</property>
  <property name="kdenlive:docproperties.proxyimagesize">800</property>
  <property name="kdenlive:docproperties.proxyminsize">1000</property>
  <property name="kdenlive:docproperties.proxyparams"/>
  <property name="kdenlive:docproperties.renderaudioquality">192</property>
  <property name="kdenlive:docproperties.rendercategory">Generic (HD for web, mobile devices...)</property>
  <property name="kdenlive:docproperties.renderendguide">-1</property>
  <property name="kdenlive:docproperties.renderexportaudio">0</property>
  <property name="kdenlive:docproperties.renderfield">0</property>
  <property name="kdenlive:docproperties.renderguide">0</property>
  <property name="kdenlive:docproperties.renderplay">0</property>
  <property name="kdenlive:docproperties.renderprofile">MP4 - the dominating format (H264/AAC)</property>
  <property name="kdenlive:docproperties.renderquality">23</property>
  <property name="kdenlive:docproperties.renderratio">1</property>
  <property name="kdenlive:docproperties.renderrescale">0</property>
  <property name="kdenlive:docproperties.renderrescaleheight">540</property>
  <property name="kdenlive:docproperties.renderrescalewidth">960</property>
  <property name="kdenlive:docproperties.renderscanning">0</property>
  <property name="kdenlive:docproperties.renderspeed">2</property>
  <property name="kdenlive:docproperties.renderstartguide">-1</property>
  <property name="kdenlive:docproperties.rendertcoverlay">0</property>
  <property name="kdenlive:docproperties.rendertctype">0</property>
  <property name="kdenlive:docproperties.rendertwopass">0</property>
  <property name="kdenlive:docproperties.renderurl">/home/renec/Videos/MAIN3.mp4</property>
  <property name="kdenlive:docproperties.renderzone">0</property>
  <property name="kdenlive:docproperties.scrollPos">0</property>
  <property name="kdenlive:docproperties.seekOffset">30000</property>
  <property name="kdenlive:docproperties.version">1</property>
  <property name="kdenlive:docproperties.verticalzoom">1</property>
  <property name="kdenlive:docproperties.videoTarget">-1</property>
  <property name="kdenlive:docproperties.zonein">0</property>
  <property name="kdenlive:docproperties.zoneout">9918</property>
  <property name="kdenlive:docproperties.zoom">4</property>
  <property name="kdenlive:documentnotes"/>
  <property name="xml_retain">1</property>
  <entry producer="producer12" in="00:00:00.000" out="00:00:03.960"/>
  <entry producer="producer13" in="00:00:00.000" out="00:00:03.960"/>
  <entry producer="producer14" in="00:00:00.000" out="00:00:05.960"/>
  <entry producer="producer15" in="00:00:00.000" out="00:00:03.960"/>
  <entry producer="producer16" in="00:00:00.000" out="00:00:05.160"/>
  <entry producer="producer17" in="00:00:00.000" out="00:00:05.160"/>
  <entry producer="producer18" in="00:00:00.000" out="00:00:05.160"/>
  <entry producer="producer19" in="00:00:00.000" out="00:00:05.160"/>
  <entry producer="producer20" in="00:00:00.000" out="00:00:03.960"/>
  <entry producer="producer21" in="00:00:00.000" out="00:00:02.760"/>
  <entry producer="producer22" in="00:00:00.000" out="00:00:02.760"/>
  <entry producer="producer11" in="00:00:00.000" out="00:00:54.000"/>
  <entry producer="producer23" in="00:00:00.000" out="00:00:12.760"/>
  <entry producer="producer24" in="00:00:00.000" out="00:00:36.040"/>
  <entry producer="producer0" in="00:00:00.000" out="00:00:04.960"/>
  <entry producer="producer1" in="00:00:00.000" out="00:00:05.200"/>
  <entry producer="producer2" in="00:00:00.000" out="00:00:04.960"/>
  <entry producer="producer3" in="00:00:00.000" out="00:00:04.960"/>
  <entry producer="producer4" in="00:00:00.000" out="00:00:04.960"/>
  <entry producer="producer5" in="00:00:00.000" out="00:00:04.960"/>
  <entry producer="producer6" in="00:00:00.000" out="00:00:04.960"/>
  <entry producer="producer7" in="00:00:00.000" out="00:00:04.960"/>
  <entry producer="producer8" in="00:00:00.000" out="00:00:04.960"/>
  <entry producer="producer9" in="00:00:00.000" out="00:00:04.960"/>
  <entry producer="producer46" in="00:00:00.000" out="00:00:05.320"/>
  <entry producer="producer25" in="00:00:00.000" out="00:00:54.000"/>
  <entry producer="producer26" in="00:00:00.000" out="00:00:12.760"/>
  <entry producer="producer27" in="00:00:00.000" out="00:00:36.040"/>
  <entry producer="producer28" in="00:00:00.000" out="00:01:02.760"/>
  <entry producer="producer29" in="00:00:00.000" out="00:00:51.280"/>
  <entry producer="producer30" in="00:00:00.000" out="00:00:27.280"/>
  <entry producer="producer31" in="00:00:00.000" out="00:00:38.200"/>
  <entry producer="producer32" in="00:00:00.000" out="00:00:36.440"/>
  <entry producer="producer33" in="00:00:00.000" out="00:03:45.280"/>
  <entry producer="producer34" in="00:00:00.000" out="00:00:34.040"/>
  <entry producer="producer35" in="00:00:00.000" out="00:00:42.520"/>
  <entry producer="producer36" in="00:00:00.000" out="00:00:47.560"/>
  <entry producer="producer37" in="00:00:00.000" out="00:00:10.440"/>
  <entry producer="producer38" in="00:00:00.000" out="00:00:27.120"/>
  <entry producer="producer39" in="00:00:00.000" out="00:01:03.080"/>
  <entry producer="producer40" in="00:00:00.000" out="00:01:01.040"/>
  <entry producer="producer41" in="00:00:00.000" out="00:00:34.080"/>
  <entry producer="producer10" in="00:00:00.000" out="00:00:03.960"/>
  <entry producer="producer42" in="00:00:00.000" out="00:00:04.960"/>
  <entry producer="producer43" in="00:00:00.000" out="00:00:01.960"/>
  <entry producer="producer44" in="00:00:00.000" out="00:00:05.560"/>
  <entry producer="producer45" in="00:00:00.000" out="00:00:03.960"/>
  <entry producer="producer47" in="00:00:00.000" out="00:00:07.000"/>
  <entry producer="producer48" in="00:00:00.000" out="00:00:32.840"/>
  <entry producer="producer49" in="00:00:00.000" out="00:00:09.080"/>
  <entry producer="producer50" in="00:00:00.000" out="00:00:12.680"/>
  <entry producer="producer51" in="00:00:00.000" out="00:00:27.920"/>
  <entry producer="producer52" in="00:00:00.000" out="00:00:13.240"/>
  <entry producer="producer53" in="00:00:00.000" out="00:02:04.640"/>
  <entry producer="producer54" in="00:00:00.000" out="00:00:31.480"/>
  <entry producer="producer55" in="00:00:00.000" out="00:00:15.920"/>
  <entry producer="producer56" in="00:00:00.000" out="00:00:19.600"/>
  <entry producer="producer57" in="00:00:00.000" out="00:00:21.480"/>
  <entry producer="producer58" in="00:00:00.000" out="00:00:04.080"/>
  <entry producer="producer59" in="00:00:00.000" out="00:02:05.520"/>
  <entry producer="producer60" in="00:00:00.000" out="00:00:39.040"/>
  <entry producer="producer61" in="00:00:00.000" out="00:00:07.960"/>
  <entry producer="producer62" in="00:00:00.000" out="00:00:35.000"/>
  <entry producer="producer63" in="00:00:00.000" out="00:00:07.960"/>
  <entry producer="producer64" in="00:00:00.000" out="00:00:04.960"/>
  <entry producer="producer65" in="00:00:00.000" out="00:00:00.760"/>
  <entry producer="producer66" in="00:00:00.000" out="00:00:05.560"/>
  <entry producer="producer67" in="00:00:00.000" out="00:00:07.680"/>
  <entry producer="producer68" in="00:00:00.000" out="00:00:07.840"/>
  <entry producer="producer69" in="00:00:00.000" out="00:00:11.120"/>
  <entry producer="producer70" in="00:00:00.000" out="00:00:07.960"/>
  <entry producer="producer71" in="00:00:00.000" out="00:00:02.760"/>
  <entry producer="producer72" in="00:00:00.000" out="00:00:04.960"/>
  <entry producer="producer73" in="00:00:00.000" out="00:00:03.960"/>
  <entry producer="producer74" in="00:00:00.000" out="00:00:03.960"/>
  <entry producer="producer75" in="00:00:00.000" out="00:00:04.960"/>
  <entry producer="producer76" in="00:00:00.000" out="00:00:04.760"/>
  <entry producer="producer77" in="00:00:00.000" out="00:00:04.960"/>
  <entry producer="producer78" in="00:00:00.000" out="00:00:05.200"/>
  <entry producer="producer79" in="00:00:00.000" out="00:00:04.960"/>
  <entry producer="producer80" in="00:00:00.000" out="00:00:08.040"/>
  <entry producer="producer81" in="00:00:00.000" out="00:00:03.960"/>
  <entry producer="producer82" in="00:00:00.000" out="00:00:42.840"/>
  <entry producer="producer83" in="00:00:00.000" out="00:00:03.960"/>
  <entry producer="producer84" in="00:00:00.000" out="00:00:08.480"/>
  <entry producer="producer85" in="00:00:00.000" out="00:00:08.080"/>
  <entry producer="producer86" in="00:00:00.000" out="00:00:08.080"/>
  <entry producer="producer87" in="00:00:00.000" out="00:00:07.960"/>
  <entry producer="producer88" in="00:00:00.000" out="00:00:16.800"/>
  <entry producer="producer89" in="00:00:00.000" out="00:00:11.960"/>
  <entry producer="producer90" in="00:00:00.000" out="00:00:19.960"/>
  <entry producer="producer91" in="00:00:00.000" out="00:00:05.040"/>
  <entry producer="producer92" in="00:00:00.000" out="00:00:04.240"/>
  <entry producer="producer93" in="00:00:00.000" out="00:00:01.480"/>
  <entry producer="producer94" in="00:00:00.000" out="00:00:11.240"/>
  <entry producer="producer95" in="00:00:00.000" out="00:01:19.160"/>
  <entry producer="producer96" in="00:00:00.000" out="00:00:04.200"/>
  <entry producer="producer97" in="00:00:00.000" out="00:00:07.120"/>
  <entry producer="producer98" in="00:00:00.000" out="00:01:06.960"/>
  <entry producer="producer99" in="00:00:00.000" out="00:00:26.840"/>
  <entry producer="producer100" in="00:00:00.000" out="00:00:39.880"/>
  <entry producer="producer101" in="00:00:00.000" out="00:00:36.800"/>
  <entry producer="producer102" in="00:00:00.000" out="00:00:04.960"/>
  <entry producer="producer103" in="00:00:00.000" out="00:00:04.960"/>
  <entry producer="producer104" in="00:00:00.000" out="00:00:04.960"/>
  <entry producer="producer105" in="00:00:00.000" out="00:00:13.920"/>
  <entry producer="producer106" in="00:00:00.000" out="00:00:04.960"/>
  <entry producer="producer107" in="00:00:00.000" out="00:00:13.920"/>
  <entry producer="producer108" in="00:00:00.000" out="00:00:06.360"/>
  <entry producer="producer109" in="00:00:00.000" out="00:00:04.000"/>
  <entry producer="producer110" in="00:00:00.000" out="00:00:04.960"/>
  <entry producer="producer111" in="00:00:00.000" out="00:00:05.560"/>
  <entry producer="producer112" in="00:00:00.000" out="00:00:07.000"/>
  <entry producer="producer113" in="00:00:00.000" out="00:00:05.560"/>
  <entry producer="producer114" in="00:00:00.000" out="00:00:16.080"/>
  <entry producer="producer115" in="00:00:00.000" out="00:00:04.960"/>
  <entry producer="producer144" in="00:00:00.000" out="00:00:04.960"/>
  <entry producer="producer145" in="00:00:00.000" out="00:00:04.960"/>
  <entry producer="producer118" in="00:00:00.000" out="00:00:10.360"/>
  <entry producer="producer119" in="00:00:00.000" out="00:00:04.960"/>
  <entry producer="producer120" in="00:00:00.000" out="00:00:09.480"/>
  <entry producer="producer121" in="00:00:00.000" out="00:00:05.640"/>
  <entry producer="producer122" in="00:00:00.000" out="00:00:08.920"/>
  <entry producer="producer123" in="00:00:00.000" out="00:00:05.640"/>
  <entry producer="producer124" in="00:00:00.000" out="00:00:11.680"/>
  <entry producer="producer125" in="00:00:00.000" out="00:00:07.960"/>
  <entry producer="producer126" in="00:00:00.000" out="00:00:07.520"/>
  <entry producer="producer127" in="00:00:00.000" out="00:00:05.960"/>
  <entry producer="producer128" in="00:00:00.000" out="00:00:04.960"/>
  <entry producer="producer129" in="00:00:00.000" out="00:00:04.960"/>
  <entry producer="producer130" in="00:00:00.000" out="00:00:15.720"/>
  <entry producer="producer131" in="00:00:00.000" out="00:00:04.440"/>
  <entry producer="producer132" in="00:00:00.000" out="00:00:10.680"/>
  <entry producer="producer133" in="00:00:00.000" out="00:00:24.960"/>
  <entry producer="producer134" in="00:00:00.000" out="00:00:24.200"/>
  <entry producer="producer116" in="00:00:00.000" out="00:00:02.360"/>
  <entry producer="producer117" in="00:00:00.000" out="00:00:02.360"/>
  <entry producer="producer143" in="00:00:00.000" out="00:00:04.960"/>
  <entry producer="producer135" in="00:00:00.000" out="00:00:02.360"/>
  <entry producer="producer136" in="00:00:00.000" out="00:00:02.360"/>
  <entry producer="producer137" in="00:00:00.000" out="00:00:02.360"/>
  <entry producer="producer138" in="00:00:00.000" out="00:00:02.360"/>
  <entry producer="producer139" in="00:00:00.000" out="00:00:04.200"/>
  <entry producer="producer140" in="00:00:00.000" out="00:00:04.960"/>
  <entry producer="producer141" in="00:00:00.000" out="00:00:02.360"/>
  <entry producer="producer142" in="00:00:00.000" out="00:00:02.360"/>
  <entry producer="producer146" in="00:00:00.000" out="00:00:02.360"/>
  <entry producer="producer147" in="00:00:00.000" out="00:00:02.360"/>
  <entry producer="producer148" in="00:00:00.000" out="00:00:07.960"/>
  <entry producer="producer149" in="00:00:00.000" out="00:00:19.960"/>
  <entry producer="producer150" in="00:00:00.000" out="00:00:11.040"/>
  <entry producer="producer151" in="00:00:00.000" out="00:00:02.360"/>
  <entry producer="producer152" in="00:00:00.000" out="00:00:02.360"/>
  <entry producer="producer153" in="00:00:00.000" out="00:00:03.960"/>
  <entry producer="producer154" in="00:00:00.000" out="00:00:04.960"/>
  <entry producer="producer155" in="00:00:00.000" out="00:00:04.960"/>
  <entry producer="producer156" in="00:00:00.000" out="00:00:04.960"/>
  <entry producer="producer157" in="00:00:00.000" out="00:00:02.360"/>
  <entry producer="producer158" in="00:00:00.000" out="00:00:02.360"/>
  <entry producer="producer159" in="00:00:00.000" out="00:00:08.440"/>
  <entry producer="producer160" in="00:00:00.000" out="00:00:07.480"/>
  <entry producer="producer161" in="00:00:00.000" out="00:00:07.240"/>
  <entry producer="producer162" in="00:00:00.000" out="00:00:05.360"/>
  <entry producer="producer163" in="00:00:00.000" out="00:00:05.080"/>
  <entry producer="producer164" in="00:00:00.000" out="00:00:09.480"/>
  <entry producer="producer165" in="00:00:00.000" out="00:00:08.760"/>
  <entry producer="producer166" in="00:00:00.000" out="00:00:07.200"/>
  <entry producer="producer167" in="00:00:00.000" out="00:08:37.440"/>
 </playlist>
 <producer id="black_track" in="00:00:00.000" out="00:28:19.480">
  <property name="length">2147483647</property>
  <property name="eof">continue</property>
  <property name="resource">black</property>
  <property name="aspect_ratio">1</property>
  <property name="mlt_service">color</property>
  <property name="mlt_image_format">rgb24a</property>
  <property name="set.test_audio">0</property>
 </producer>
 <playlist id="playlist0">
  <property name="kdenlive:audio_track">1</property>
 </playlist>
 <playlist id="playlist1"/>
 <tractor id="tractor0" in="00:00:00.000">
  <property name="kdenlive:audio_track">1</property>
  <property name="kdenlive:trackheight">69</property>
  <property name="kdenlive:timeline_active">1</property>
  <property name="kdenlive:collapsed">0</property>
  <property name="kdenlive:thumbs_format"/>
  <property name="kdenlive:audio_rec"/>
  <track hide="both" producer="playlist0"/>
  <track hide="video" producer="playlist1"/>
  <filter id="filter0">
   <property name="window">75</property>
   <property name="max_gain">20dB</property>
   <property name="mlt_service">volume</property>
   <property name="internal_added">237</property>
   <property name="disable">1</property>
  </filter>
  <filter id="filter1">
   <property name="channel">-1</property>
   <property name="mlt_service">panner</property>
   <property name="internal_added">237</property>
   <property name="start">0.5</property>
   <property name="disable">1</property>
  </filter>
  <filter id="filter2">
   <property name="iec_scale">0</property>
   <property name="mlt_service">audiolevel</property>
   <property name="disable">1</property>
  </filter>
 </tractor>
 <producer id="producer169" in="00:00:00.000" out="00:00:54.000">
  <property name="length">1351</property>
  <property name="eof">pause</property>
  <property name="resource">vid_files/0_clips/2021-08-16 10-43-10.mp4</property>
  <property name="audio_index">1</property>
  <property name="video_index">0</property>
  <property name="mute_on_pause">0</property>
  <property name="mlt_service">avformat-novalidate</property>
  <property name="seekable">1</property>
  <property name="aspect_ratio">1</property>
  <property name="kdenlive:clipname"/>
  <property name="kdenlive:folderid">-1</property>
  <property name="kdenlive:id">13</property>
  <property name="kdenlive:file_size">24810046</property>
  <property name="kdenlive:file_hash">07a909afecc89b1dfc78769b144f4808</property>
  <property name="global_feed">1</property>
  <property name="xml">was here</property>
  <property name="meta.media.nb_streams">2</property>
  <property name="meta.media.0.stream.type">video</property>
  <property name="meta.media.0.stream.frame_rate">30</property>
  <property name="meta.media.0.stream.sample_aspect_ratio">0</property>
  <property name="meta.media.0.codec.width">1280</property>
  <property name="meta.media.0.codec.height">720</property>
  <property name="meta.media.0.codec.rotate">0</property>
  <property name="meta.media.0.codec.frame_rate">30</property>
  <property name="meta.media.0.codec.pix_fmt">yuv420p</property>
  <property name="meta.media.0.codec.sample_aspect_ratio">1</property>
  <property name="meta.media.0.codec.colorspace">709</property>
  <property name="meta.media.0.codec.color_trc">1</property>
  <property name="meta.media.0.codec.name">h264</property>
  <property name="meta.media.0.codec.long_name">H.264 / AVC / MPEG-4 AVC / MPEG-4 part 10</property>
  <property name="meta.media.0.codec.bit_rate">3472406</property>
  <property name="meta.attr.0.stream.handler_name.markup">VideoHandler</property>
  <property name="meta.media.1.stream.type">audio</property>
  <property name="meta.media.1.codec.sample_fmt">fltp</property>
  <property name="meta.media.1.codec.sample_rate">48000</property>
  <property name="meta.media.1.codec.channels">2</property>
  <property name="meta.media.1.codec.name">aac</property>
  <property name="meta.media.1.codec.long_name">AAC (Advanced Audio Coding)</property>
  <property name="meta.media.1.codec.bit_rate">192168</property>
  <property name="meta.attr.1.stream.handler_name.markup">SoundHandler</property>
  <property name="meta.attr.major_brand.markup">isom</property>
  <property name="meta.attr.minor_version.markup">512</property>
  <property name="meta.attr.compatible_brands.markup">isomiso2avc1mp41</property>
  <property name="meta.attr.encoder.markup">Lavf58.29.100</property>
  <property name="meta.media.sample_aspect_num">1</property>
  <property name="meta.media.sample_aspect_den">1</property>
  <property name="meta.media.frame_rate_num">30</property>
  <property name="meta.media.frame_rate_den">1</property>
  <property name="meta.media.colorspace">709</property>
  <property name="meta.media.color_trc">1</property>
  <property name="meta.media.width">1280</property>
  <property name="meta.media.height">720</property>
  <property name="meta.media.color_range">mpeg</property>
  <property name="meta.media.top_field_first">0</property>
  <property name="meta.media.progressive">1</property>
  <property name="set.test_audio">0</property>
  <property name="set.test_image">1</property>
 </producer>
 <producer id="producer171" in="00:00:00.000" out="00:00:36.040">
  <property name="length">902</property>
  <property name="eof">pause</property>
  <property name="resource">vid_files/0_clips/2021-08-16 11-05-49.mp4</property>
  <property name="audio_index">1</property>
  <property name="video_index">0</property>
  <property name="mute_on_pause">0</property>
  <property name="mlt_service">avformat-novalidate</property>
  <property name="seekable">1</property>
  <property name="aspect_ratio">1</property>
  <property name="kdenlive:clipname"/>
  <property name="kdenlive:folderid">-1</property>
  <property name="kdenlive:id">15</property>
  <property name="kdenlive:file_size">16549260</property>
  <property name="kdenlive:file_hash">5f1873c7f5584eb87993b2c9dc119fa4</property>
  <property name="kdenlive:audio_max">15</property>
  <property name="global_feed">1</property>
  <property name="xml">was here</property>
  <property name="meta.media.nb_streams">2</property>
  <property name="meta.media.0.stream.type">video</property>
  <property name="meta.media.0.stream.frame_rate">30</property>
  <property name="meta.media.0.stream.sample_aspect_ratio">0</property>
  <property name="meta.media.0.codec.width">1280</property>
  <property name="meta.media.0.codec.height">720</property>
  <property name="meta.media.0.codec.rotate">0</property>
  <property name="meta.media.0.codec.frame_rate">30</property>
  <property name="meta.media.0.codec.pix_fmt">yuv420p</property>
  <property name="meta.media.0.codec.sample_aspect_ratio">1</property>
  <property name="meta.media.0.codec.colorspace">709</property>
  <property name="meta.media.0.codec.color_trc">1</property>
  <property name="meta.media.0.codec.name">h264</property>
  <property name="meta.media.0.codec.long_name">H.264 / AVC / MPEG-4 AVC / MPEG-4 part 10</property>
  <property name="meta.media.0.codec.bit_rate">3469853</property>
  <property name="meta.attr.0.stream.handler_name.markup">VideoHandler</property>
  <property name="meta.media.1.stream.type">audio</property>
  <property name="meta.media.1.codec.sample_fmt">fltp</property>
  <property name="meta.media.1.codec.sample_rate">48000</property>
  <property name="meta.media.1.codec.channels">2</property>
  <property name="meta.media.1.codec.name">aac</property>
  <property name="meta.media.1.codec.long_name">AAC (Advanced Audio Coding)</property>
  <property name="meta.media.1.codec.bit_rate">192260</property>
  <property name="meta.attr.1.stream.handler_name.markup">SoundHandler</property>
  <property name="meta.attr.major_brand.markup">isom</property>
  <property name="meta.attr.minor_version.markup">512</property>
  <property name="meta.attr.compatible_brands.markup">isomiso2avc1mp41</property>
  <property name="meta.attr.encoder.markup">Lavf58.29.100</property>
  <property name="meta.media.sample_aspect_num">1</property>
  <property name="meta.media.sample_aspect_den">1</property>
  <property name="meta.media.frame_rate_num">30</property>
  <property name="meta.media.frame_rate_den">1</property>
  <property name="meta.media.colorspace">709</property>
  <property name="meta.media.color_trc">1</property>
  <property name="meta.media.width">1280</property>
  <property name="meta.media.height">720</property>
  <property name="meta.media.color_range">mpeg</property>
  <property name="meta.media.top_field_first">0</property>
  <property name="meta.media.progressive">1</property>
  <property name="set.test_audio">0</property>
  <property name="set.test_image">1</property>
 </producer>
 <producer id="producer172" in="00:00:00.000" out="00:01:02.760">
  <property name="length">1570</property>
  <property name="eof">pause</property>
  <property name="resource">vid_files/0_clips/2021-08-16 11-39-31.mp4</property>
  <property name="audio_index">1</property>
  <property name="video_index">0</property>
  <property name="mute_on_pause">0</property>
  <property name="mlt_service">avformat-novalidate</property>
  <property name="seekable">1</property>
  <property name="aspect_ratio">1</property>
  <property name="kdenlive:clipname"/>
  <property name="kdenlive:folderid">-1</property>
  <property name="kdenlive:id">30</property>
  <property name="kdenlive:file_size">31493113</property>
  <property name="kdenlive:file_hash">f58cb3cf41ad699d7986d53c1d1573fb</property>
  <property name="kdenlive:audio_max">17</property>
  <property name="global_feed">1</property>
  <property name="xml">was here</property>
  <property name="meta.media.nb_streams">2</property>
  <property name="meta.media.0.stream.type">video</property>
  <property name="meta.media.0.stream.frame_rate">30</property>
  <property name="meta.media.0.stream.sample_aspect_ratio">0</property>
  <property name="meta.media.0.codec.width">1280</property>
  <property name="meta.media.0.codec.height">720</property>
  <property name="meta.media.0.codec.rotate">0</property>
  <property name="meta.media.0.codec.frame_rate">30</property>
  <property name="meta.media.0.codec.pix_fmt">yuv420p</property>
  <property name="meta.media.0.codec.sample_aspect_ratio">1</property>
  <property name="meta.media.0.codec.colorspace">709</property>
  <property name="meta.media.0.codec.color_trc">1</property>
  <property name="meta.media.0.codec.name">h264</property>
  <property name="meta.media.0.codec.long_name">H.264 / AVC / MPEG-4 AVC / MPEG-4 part 10</property>
  <property name="meta.media.0.codec.bit_rate">3810981</property>
  <property name="meta.attr.0.stream.handler_name.markup">VideoHandler</property>
  <property name="meta.media.1.stream.type">audio</property>
  <property name="meta.media.1.codec.sample_fmt">fltp</property>
  <property name="meta.media.1.codec.sample_rate">48000</property>
  <property name="meta.media.1.codec.channels">2</property>
  <property name="meta.media.1.codec.name">aac</property>
  <property name="meta.media.1.codec.long_name">AAC (Advanced Audio Coding)</property>
  <property name="meta.media.1.codec.bit_rate">192145</property>
  <property name="meta.attr.1.stream.handler_name.markup">SoundHandler</property>
  <property name="meta.attr.major_brand.markup">isom</property>
  <property name="meta.attr.minor_version.markup">512</property>
  <property name="meta.attr.compatible_brands.markup">isomiso2avc1mp41</property>
  <property name="meta.attr.encoder.markup">Lavf58.29.100</property>
  <property name="meta.media.sample_aspect_num">1</property>
  <property name="meta.media.sample_aspect_den">1</property>
  <property name="meta.media.frame_rate_num">30</property>
  <property name="meta.media.frame_rate_den">1</property>
  <property name="meta.media.colorspace">709</property>
  <property name="meta.media.color_trc">1</property>
  <property name="meta.media.width">1280</property>
  <property name="meta.media.height">720</property>
  <property name="meta.media.color_range">mpeg</property>
  <property name="meta.media.top_field_first">0</property>
  <property name="meta.media.progressive">1</property>
  <property name="set.test_audio">0</property>
  <property name="set.test_image">1</property>
 </producer>
 <producer id="producer173" in="00:00:00.000" out="00:00:51.280">
  <property name="length">1283</property>
  <property name="eof">pause</property>
  <property name="resource">vid_files/0_clips/2021-08-16 11-43-29.mp4</property>
  <property name="audio_index">1</property>
  <property name="video_index">0</property>
  <property name="mute_on_pause">0</property>
  <property name="mlt_service">avformat-novalidate</property>
  <property name="seekable">1</property>
  <property name="aspect_ratio">1</property>
  <property name="kdenlive:clipname"/>
  <property name="kdenlive:folderid">-1</property>
  <property name="kdenlive:id">31</property>
  <property name="kdenlive:file_size">24713548</property>
  <property name="kdenlive:file_hash">502678ebb8544310237ccbd92dfc59bf</property>
  <property name="kdenlive:audio_max">18</property>
  <property name="global_feed">1</property>
  <property name="xml">was here</property>
  <property name="meta.media.nb_streams">2</property>
  <property name="meta.media.0.stream.type">video</property>
  <property name="meta.media.0.stream.frame_rate">30</property>
  <property name="meta.media.0.stream.sample_aspect_ratio">0</property>
  <property name="meta.media.0.codec.width">1280</property>
  <property name="meta.media.0.codec.height">720</property>
  <property name="meta.media.0.codec.rotate">0</property>
  <property name="meta.media.0.codec.frame_rate">30</property>
  <property name="meta.media.0.codec.pix_fmt">yuv420p</property>
  <property name="meta.media.0.codec.sample_aspect_ratio">1</property>
  <property name="meta.media.0.codec.colorspace">709</property>
  <property name="meta.media.0.codec.color_trc">1</property>
  <property name="meta.media.0.codec.name">h264</property>
  <property name="meta.media.0.codec.long_name">H.264 / AVC / MPEG-4 AVC / MPEG-4 part 10</property>
  <property name="meta.media.0.codec.bit_rate">3650537</property>
  <property name="meta.attr.0.stream.handler_name.markup">VideoHandler</property>
  <property name="meta.media.1.stream.type">audio</property>
  <property name="meta.media.1.codec.sample_fmt">fltp</property>
  <property name="meta.media.1.codec.sample_rate">48000</property>
  <property name="meta.media.1.codec.channels">2</property>
  <property name="meta.media.1.codec.name">aac</property>
  <property name="meta.media.1.codec.long_name">AAC (Advanced Audio Coding)</property>
  <property name="meta.media.1.codec.bit_rate">192167</property>
  <property name="meta.attr.1.stream.handler_name.markup">SoundHandler</property>
  <property name="meta.attr.major_brand.markup">isom</property>
  <property name="meta.attr.minor_version.markup">512</property>
  <property name="meta.attr.compatible_brands.markup">isomiso2avc1mp41</property>
  <property name="meta.attr.encoder.markup">Lavf58.29.100</property>
  <property name="meta.media.sample_aspect_num">1</property>
  <property name="meta.media.sample_aspect_den">1</property>
  <property name="meta.media.frame_rate_num">30</property>
  <property name="meta.media.frame_rate_den">1</property>
  <property name="meta.media.colorspace">709</property>
  <property name="meta.media.color_trc">1</property>
  <property name="meta.media.width">1280</property>
  <property name="meta.media.height">720</property>
  <property name="meta.media.color_range">mpeg</property>
  <property name="meta.media.top_field_first">0</property>
  <property name="meta.media.progressive">1</property>
  <property name="set.test_audio">0</property>
  <property name="set.test_image">1</property>
 </producer>
 <producer id="producer174" in="00:00:00.000" out="00:00:04.200">
  <property name="length">106</property>
  <property name="eof">pause</property>
  <property name="resource">vid_files/0_clips/2021-08-18 11-24-54.mp4</property>
  <property name="audio_index">1</property>
  <property name="video_index">0</property>
  <property name="mute_on_pause">0</property>
  <property name="mlt_service">avformat-novalidate</property>
  <property name="seekable">1</property>
  <property name="aspect_ratio">1</property>
  <property name="kdenlive:clipname"/>
  <property name="kdenlive:folderid">-1</property>
  <property name="kdenlive:id">98</property>
  <property name="kdenlive:file_size">383269</property>
  <property name="kdenlive:file_hash">b2f0f69a922c908e44de34e4e3d8fc66</property>
  <property name="kdenlive:audio_max">19</property>
  <property name="global_feed">1</property>
  <property name="xml">was here</property>
  <property name="meta.media.nb_streams">2</property>
  <property name="meta.media.0.stream.type">video</property>
  <property name="meta.media.0.stream.frame_rate">30</property>
  <property name="meta.media.0.stream.sample_aspect_ratio">0</property>
  <property name="meta.media.0.codec.width">1280</property>
  <property name="meta.media.0.codec.height">720</property>
  <property name="meta.media.0.codec.rotate">0</property>
  <property name="meta.media.0.codec.frame_rate">30</property>
  <property name="meta.media.0.codec.pix_fmt">yuv420p</property>
  <property name="meta.media.0.codec.sample_aspect_ratio">1</property>
  <property name="meta.media.0.codec.colorspace">709</property>
  <property name="meta.media.0.codec.color_trc">1</property>
  <property name="meta.media.0.codec.name">h264</property>
  <property name="meta.media.0.codec.long_name">H.264 / AVC / MPEG-4 AVC / MPEG-4 part 10</property>
  <property name="meta.media.0.codec.bit_rate">521935</property>
  <property name="meta.attr.0.stream.handler_name.markup">VideoHandler</property>
  <property name="meta.media.1.stream.type">audio</property>
  <property name="meta.media.1.codec.sample_fmt">fltp</property>
  <property name="meta.media.1.codec.sample_rate">48000</property>
  <property name="meta.media.1.codec.channels">2</property>
  <property name="meta.media.1.codec.name">aac</property>
  <property name="meta.media.1.codec.long_name">AAC (Advanced Audio Coding)</property>
  <property name="meta.media.1.codec.bit_rate">194328</property>
  <property name="meta.attr.1.stream.handler_name.markup">SoundHandler</property>
  <property name="meta.attr.major_brand.markup">isom</property>
  <property name="meta.attr.minor_version.markup">512</property>
  <property name="meta.attr.compatible_brands.markup">isomiso2avc1mp41</property>
  <property name="meta.attr.encoder.markup">Lavf58.29.100</property>
  <property name="meta.media.sample_aspect_num">1</property>
  <property name="meta.media.sample_aspect_den">1</property>
  <property name="meta.media.frame_rate_num">30</property>
  <property name="meta.media.frame_rate_den">1</property>
  <property name="meta.media.colorspace">709</property>
  <property name="meta.media.color_trc">1</property>
  <property name="meta.media.width">1280</property>
  <property name="meta.media.height">720</property>
  <property name="meta.media.color_range">mpeg</property>
  <property name="set.test_audio">0</property>
  <property name="set.test_image">1</property>
 </producer>
 <producer id="producer175" in="00:00:00.000" out="00:00:27.280">
  <property name="length">683</property>
  <property name="eof">pause</property>
  <property name="resource">vid_files/0_clips/2021-08-16 11-44-25.mp4</property>
  <property name="audio_index">1</property>
  <property name="video_index">0</property>
  <property name="mute_on_pause">0</property>
  <property name="mlt_service">avformat-novalidate</property>
  <property name="seekable">1</property>
  <property name="aspect_ratio">1</property>
  <property name="kdenlive:clipname"/>
  <property name="kdenlive:folderid">-1</property>
  <property name="kdenlive:id">32</property>
  <property name="kdenlive:file_size">13192503</property>
  <property name="kdenlive:file_hash">4118eda80937cf65bdbe950f704ea6d7</property>
  <property name="kdenlive:audio_max">15</property>
  <property name="global_feed">1</property>
  <property name="xml">was here</property>
  <property name="meta.media.nb_streams">2</property>
  <property name="meta.media.0.stream.type">video</property>
  <property name="meta.media.0.stream.frame_rate">30</property>
  <property name="meta.media.0.stream.sample_aspect_ratio">0</property>
  <property name="meta.media.0.codec.width">1280</property>
  <property name="meta.media.0.codec.height">720</property>
  <property name="meta.media.0.codec.rotate">0</property>
  <property name="meta.media.0.codec.frame_rate">30</property>
  <property name="meta.media.0.codec.pix_fmt">yuv420p</property>
  <property name="meta.media.0.codec.sample_aspect_ratio">1</property>
  <property name="meta.media.0.codec.colorspace">709</property>
  <property name="meta.media.0.codec.color_trc">1</property>
  <property name="meta.media.0.codec.name">h264</property>
  <property name="meta.media.0.codec.long_name">H.264 / AVC / MPEG-4 AVC / MPEG-4 part 10</property>
  <property name="meta.media.0.codec.bit_rate">3660157</property>
  <property name="meta.attr.0.stream.handler_name.markup">VideoHandler</property>
  <property name="meta.media.1.stream.type">audio</property>
  <property name="meta.media.1.codec.sample_fmt">fltp</property>
  <property name="meta.media.1.codec.sample_rate">48000</property>
  <property name="meta.media.1.codec.channels">2</property>
  <property name="meta.media.1.codec.name">aac</property>
  <property name="meta.media.1.codec.long_name">AAC (Advanced Audio Coding)</property>
  <property name="meta.media.1.codec.bit_rate">192349</property>
  <property name="meta.attr.1.stream.handler_name.markup">SoundHandler</property>
  <property name="meta.attr.major_brand.markup">isom</property>
  <property name="meta.attr.minor_version.markup">512</property>
  <property name="meta.attr.compatible_brands.markup">isomiso2avc1mp41</property>
  <property name="meta.attr.encoder.markup">Lavf58.29.100</property>
  <property name="meta.media.sample_aspect_num">1</property>
  <property name="meta.media.sample_aspect_den">1</property>
  <property name="meta.media.frame_rate_num">30</property>
  <property name="meta.media.frame_rate_den">1</property>
  <property name="meta.media.colorspace">709</property>
  <property name="meta.media.color_trc">1</property>
  <property name="meta.media.width">1280</property>
  <property name="meta.media.height">720</property>
  <property name="meta.media.color_range">mpeg</property>
  <property name="meta.media.top_field_first">0</property>
  <property name="meta.media.progressive">1</property>
  <property name="set.test_audio">0</property>
  <property name="set.test_image">1</property>
 </producer>
 <producer id="producer176" in="00:00:00.000" out="00:00:36.440">
  <property name="length">912</property>
  <property name="eof">pause</property>
  <property name="resource">vid_files/0_clips/2021-08-16 11-45-41.mp4</property>
  <property name="audio_index">1</property>
  <property name="video_index">0</property>
  <property name="mute_on_pause">0</property>
  <property name="mlt_service">avformat-novalidate</property>
  <property name="seekable">1</property>
  <property name="aspect_ratio">1</property>
  <property name="kdenlive:clipname"/>
  <property name="kdenlive:folderid">-1</property>
  <property name="kdenlive:id">34</property>
  <property name="kdenlive:file_size">17667492</property>
  <property name="kdenlive:file_hash">0e3d7817a5f8bfa89a64e1343f9ba1e9</property>
  <property name="kdenlive:audio_max">13</property>
  <property name="global_feed">1</property>
  <property name="xml">was here</property>
  <property name="meta.media.nb_streams">2</property>
  <property name="meta.media.0.stream.type">video</property>
  <property name="meta.media.0.stream.frame_rate">30</property>
  <property name="meta.media.0.stream.sample_aspect_ratio">0</property>
  <property name="meta.media.0.codec.width">1280</property>
  <property name="meta.media.0.codec.height">720</property>
  <property name="meta.media.0.codec.rotate">0</property>
  <property name="meta.media.0.codec.frame_rate">30</property>
  <property name="meta.media.0.codec.pix_fmt">yuv420p</property>
  <property name="meta.media.0.codec.sample_aspect_ratio">1</property>
  <property name="meta.media.0.codec.colorspace">709</property>
  <property name="meta.media.0.codec.color_trc">1</property>
  <property name="meta.media.0.codec.name">h264</property>
  <property name="meta.media.0.codec.long_name">H.264 / AVC / MPEG-4 AVC / MPEG-4 part 10</property>
  <property name="meta.media.0.codec.bit_rate">3674899</property>
  <property name="meta.attr.0.stream.handler_name.markup">VideoHandler</property>
  <property name="meta.media.1.stream.type">audio</property>
  <property name="meta.media.1.codec.sample_fmt">fltp</property>
  <property name="meta.media.1.codec.sample_rate">48000</property>
  <property name="meta.media.1.codec.channels">2</property>
  <property name="meta.media.1.codec.name">aac</property>
  <property name="meta.media.1.codec.long_name">AAC (Advanced Audio Coding)</property>
  <property name="meta.media.1.codec.bit_rate">192245</property>
  <property name="meta.attr.1.stream.handler_name.markup">SoundHandler</property>
  <property name="meta.attr.major_brand.markup">isom</property>
  <property name="meta.attr.minor_version.markup">512</property>
  <property name="meta.attr.compatible_brands.markup">isomiso2avc1mp41</property>
  <property name="meta.attr.encoder.markup">Lavf58.29.100</property>
  <property name="meta.media.sample_aspect_num">1</property>
  <property name="meta.media.sample_aspect_den">1</property>
  <property name="meta.media.frame_rate_num">30</property>
  <property name="meta.media.frame_rate_den">1</property>
  <property name="meta.media.colorspace">709</property>
  <property name="meta.media.color_trc">1</property>
  <property name="meta.media.width">1280</property>
  <property name="meta.media.height">720</property>
  <property name="meta.media.color_range">mpeg</property>
  <property name="set.test_audio">0</property>
  <property name="set.test_image">1</property>
 </producer>
 <producer id="producer177" in="00:00:00.000" out="00:03:45.280">
  <property name="length">5633</property>
  <property name="eof">pause</property>
  <property name="resource">vid_files/0_clips/2021-08-16 11-55-32.mp4</property>
  <property name="audio_index">1</property>
  <property name="video_index">0</property>
  <property name="mute_on_pause">0</property>
  <property name="mlt_service">avformat-novalidate</property>
  <property name="seekable">1</property>
  <property name="aspect_ratio">1</property>
  <property name="kdenlive:clipname"/>
  <property name="kdenlive:folderid">-1</property>
  <property name="kdenlive:id">35</property>
  <property name="kdenlive:file_size">119278269</property>
  <property name="kdenlive:file_hash">c60e4b4037ec881ea1a30dda2bd6a1a0</property>
  <property name="kdenlive:audio_max">11</property>
  <property name="global_feed">1</property>
  <property name="xml">was here</property>
  <property name="meta.media.nb_streams">2</property>
  <property name="meta.media.0.stream.type">video</property>
  <property name="meta.media.0.stream.frame_rate">30</property>
  <property name="meta.media.0.stream.sample_aspect_ratio">0</property>
  <property name="meta.media.0.codec.width">1280</property>
  <property name="meta.media.0.codec.height">720</property>
  <property name="meta.media.0.codec.rotate">0</property>
  <property name="meta.media.0.codec.frame_rate">30</property>
  <property name="meta.media.0.codec.pix_fmt">yuv420p</property>
  <property name="meta.media.0.codec.sample_aspect_ratio">1</property>
  <property name="meta.media.0.codec.colorspace">709</property>
  <property name="meta.media.0.codec.color_trc">1</property>
  <property name="meta.media.0.codec.name">h264</property>
  <property name="meta.media.0.codec.long_name">H.264 / AVC / MPEG-4 AVC / MPEG-4 part 10</property>
  <property name="meta.media.0.codec.bit_rate">4033900</property>
  <property name="meta.attr.0.stream.handler_name.markup">VideoHandler</property>
  <property name="meta.media.1.stream.type">audio</property>
  <property name="meta.media.1.codec.sample_fmt">fltp</property>
  <property name="meta.media.1.codec.sample_rate">48000</property>
  <property name="meta.media.1.codec.channels">2</property>
  <property name="meta.media.1.codec.name">aac</property>
  <property name="meta.media.1.codec.long_name">AAC (Advanced Audio Coding)</property>
  <property name="meta.media.1.codec.bit_rate">192043</property>
  <property name="meta.attr.1.stream.handler_name.markup">SoundHandler</property>
  <property name="meta.attr.major_brand.markup">isom</property>
  <property name="meta.attr.minor_version.markup">512</property>
  <property name="meta.attr.compatible_brands.markup">isomiso2avc1mp41</property>
  <property name="meta.attr.encoder.markup">Lavf58.29.100</property>
  <property name="meta.media.sample_aspect_num">1</property>
  <property name="meta.media.sample_aspect_den">1</property>
  <property name="meta.media.frame_rate_num">30</property>
  <property name="meta.media.frame_rate_den">1</property>
  <property name="meta.media.colorspace">709</property>
  <property name="meta.media.color_trc">1</property>
  <property name="meta.media.width">1280</property>
  <property name="meta.media.height">720</property>
  <property name="meta.media.color_range">mpeg</property>
  <property name="set.test_audio">0</property>
  <property name="set.test_image">1</property>
 </producer>
 <producer id="producer178" in="00:00:00.000" out="00:01:06.960">
  <property name="length">1675</property>
  <property name="eof">pause</property>
  <property name="resource">vid_files/0_clips/2021-08-18 11-25-17.mp4</property>
  <property name="audio_index">1</property>
  <property name="video_index">0</property>
  <property name="mute_on_pause">0</property>
  <property name="mlt_service">avformat-novalidate</property>
  <property name="seekable">1</property>
  <property name="aspect_ratio">1</property>
  <property name="kdenlive:clipname"/>
  <property name="kdenlive:folderid">-1</property>
  <property name="kdenlive:id">100</property>
  <property name="kdenlive:file_size">7227206</property>
  <property name="kdenlive:file_hash">0226ef984f3578a8e92c73e5e8fb329b</property>
  <property name="kdenlive:audio_max">16</property>
  <property name="global_feed">1</property>
  <property name="xml">was here</property>
  <property name="meta.media.nb_streams">2</property>
  <property name="meta.media.0.stream.type">video</property>
  <property name="meta.media.0.stream.frame_rate">30</property>
  <property name="meta.media.0.stream.sample_aspect_ratio">0</property>
  <property name="meta.media.0.codec.width">1280</property>
  <property name="meta.media.0.codec.height">720</property>
  <property name="meta.media.0.codec.rotate">0</property>
  <property name="meta.media.0.codec.frame_rate">30</property>
  <property name="meta.media.0.codec.pix_fmt">yuv420p</property>
  <property name="meta.media.0.codec.sample_aspect_ratio">1</property>
  <property name="meta.media.0.codec.colorspace">709</property>
  <property name="meta.media.0.codec.color_trc">1</property>
  <property name="meta.media.0.codec.name">h264</property>
  <property name="meta.media.0.codec.long_name">H.264 / AVC / MPEG-4 AVC / MPEG-4 part 10</property>
  <property name="meta.media.0.codec.bit_rate">662052</property>
  <property name="meta.attr.0.stream.handler_name.markup">VideoHandler</property>
  <property name="meta.media.1.stream.type">audio</property>
  <property name="meta.media.1.codec.sample_fmt">fltp</property>
  <property name="meta.media.1.codec.sample_rate">48000</property>
  <property name="meta.media.1.codec.channels">2</property>
  <property name="meta.media.1.codec.name">aac</property>
  <property name="meta.media.1.codec.long_name">AAC (Advanced Audio Coding)</property>
  <property name="meta.media.1.codec.bit_rate">192143</property>
  <property name="meta.attr.1.stream.handler_name.markup">SoundHandler</property>
  <property name="meta.attr.major_brand.markup">isom</property>
  <property name="meta.attr.minor_version.markup">512</property>
  <property name="meta.attr.compatible_brands.markup">isomiso2avc1mp41</property>
  <property name="meta.attr.encoder.markup">Lavf58.29.100</property>
  <property name="meta.media.sample_aspect_num">1</property>
  <property name="meta.media.sample_aspect_den">1</property>
  <property name="meta.media.frame_rate_num">30</property>
  <property name="meta.media.frame_rate_den">1</property>
  <property name="meta.media.colorspace">709</property>
  <property name="meta.media.color_trc">1</property>
  <property name="meta.media.width">1280</property>
  <property name="meta.media.height">720</property>
  <property name="meta.media.color_range">mpeg</property>
  <property name="set.test_audio">0</property>
  <property name="set.test_image">1</property>
 </producer>
 <producer id="producer179" in="00:00:00.000" out="00:00:34.040">
  <property name="length">852</property>
  <property name="eof">pause</property>
  <property name="resource">vid_files/0_clips/2021-08-16 12-00-10.mp4</property>
  <property name="audio_index">1</property>
  <property name="video_index">0</property>
  <property name="mute_on_pause">0</property>
  <property name="mlt_service">avformat-novalidate</property>
  <property name="seekable">1</property>
  <property name="aspect_ratio">1</property>
  <property name="kdenlive:clipname"/>
  <property name="kdenlive:folderid">-1</property>
  <property name="kdenlive:id">36</property>
  <property name="kdenlive:file_size">18355878</property>
  <property name="kdenlive:file_hash">3cdd261788a7f0e6be099eb185e2abc2</property>
  <property name="kdenlive:audio_max">14</property>
  <property name="global_feed">1</property>
  <property name="xml">was here</property>
  <property name="meta.media.nb_streams">2</property>
  <property name="meta.media.0.stream.type">video</property>
  <property name="meta.media.0.stream.frame_rate">30</property>
  <property name="meta.media.0.stream.sample_aspect_ratio">0</property>
  <property name="meta.media.0.codec.width">1280</property>
  <property name="meta.media.0.codec.height">720</property>
  <property name="meta.media.0.codec.rotate">0</property>
  <property name="meta.media.0.codec.frame_rate">30</property>
  <property name="meta.media.0.codec.pix_fmt">yuv420p</property>
  <property name="meta.media.0.codec.sample_aspect_ratio">1</property>
  <property name="meta.media.0.codec.colorspace">709</property>
  <property name="meta.media.0.codec.color_trc">1</property>
  <property name="meta.media.0.codec.name">h264</property>
  <property name="meta.media.0.codec.long_name">H.264 / AVC / MPEG-4 AVC / MPEG-4 part 10</property>
  <property name="meta.media.0.codec.bit_rate">4109638</property>
  <property name="meta.attr.0.stream.handler_name.markup">VideoHandler</property>
  <property name="meta.media.1.stream.type">audio</property>
  <property name="meta.media.1.codec.sample_fmt">fltp</property>
  <property name="meta.media.1.codec.sample_rate">48000</property>
  <property name="meta.media.1.codec.channels">2</property>
  <property name="meta.media.1.codec.name">aac</property>
  <property name="meta.media.1.codec.long_name">AAC (Advanced Audio Coding)</property>
  <property name="meta.media.1.codec.bit_rate">192280</property>
  <property name="meta.attr.1.stream.handler_name.markup">SoundHandler</property>
  <property name="meta.attr.major_brand.markup">isom</property>
  <property name="meta.attr.minor_version.markup">512</property>
  <property name="meta.attr.compatible_brands.markup">isomiso2avc1mp41</property>
  <property name="meta.attr.encoder.markup">Lavf58.29.100</property>
  <property name="meta.media.sample_aspect_num">1</property>
  <property name="meta.media.sample_aspect_den">1</property>
  <property name="meta.media.frame_rate_num">30</property>
  <property name="meta.media.frame_rate_den">1</property>
  <property name="meta.media.colorspace">709</property>
  <property name="meta.media.color_trc">1</property>
  <property name="meta.media.width">1280</property>
  <property name="meta.media.height">720</property>
  <property name="meta.media.color_range">mpeg</property>
  <property name="set.test_audio">0</property>
  <property name="set.test_image">1</property>
 </producer>
 <producer id="producer180" in="00:00:00.000" out="00:00:42.520">
  <property name="length">1064</property>
  <property name="eof">pause</property>
  <property name="resource">vid_files/0_clips/2021-08-16 12-01-28.mp4</property>
  <property name="audio_index">1</property>
  <property name="video_index">0</property>
  <property name="mute_on_pause">0</property>
  <property name="mlt_service">avformat-novalidate</property>
  <property name="seekable">1</property>
  <property name="aspect_ratio">1</property>
  <property name="kdenlive:clipname"/>
  <property name="kdenlive:folderid">-1</property>
  <property name="kdenlive:id">37</property>
  <property name="kdenlive:file_size">23577499</property>
  <property name="kdenlive:file_hash">2201247ec78ce23104e56911a157024f</property>
  <property name="kdenlive:audio_max">15</property>
  <property name="global_feed">1</property>
  <property name="xml">was here</property>
  <property name="meta.media.nb_streams">2</property>
  <property name="meta.media.0.stream.type">video</property>
  <property name="meta.media.0.stream.frame_rate">30</property>
  <property name="meta.media.0.stream.sample_aspect_ratio">0</property>
  <property name="meta.media.0.codec.width">1280</property>
  <property name="meta.media.0.codec.height">720</property>
  <property name="meta.media.0.codec.rotate">0</property>
  <property name="meta.media.0.codec.frame_rate">30</property>
  <property name="meta.media.0.codec.pix_fmt">yuv420p</property>
  <property name="meta.media.0.codec.sample_aspect_ratio">1</property>
  <property name="meta.media.0.codec.colorspace">709</property>
  <property name="meta.media.0.codec.color_trc">1</property>
  <property name="meta.media.0.codec.name">h264</property>
  <property name="meta.media.0.codec.long_name">H.264 / AVC / MPEG-4 AVC / MPEG-4 part 10</property>
  <property name="meta.media.0.codec.bit_rate">4230224</property>
  <property name="meta.attr.0.stream.handler_name.markup">VideoHandler</property>
  <property name="meta.media.1.stream.type">audio</property>
  <property name="meta.media.1.codec.sample_fmt">fltp</property>
  <property name="meta.media.1.codec.sample_rate">48000</property>
  <property name="meta.media.1.codec.channels">2</property>
  <property name="meta.media.1.codec.name">aac</property>
  <property name="meta.media.1.codec.long_name">AAC (Advanced Audio Coding)</property>
  <property name="meta.media.1.codec.bit_rate">192206</property>
  <property name="meta.attr.1.stream.handler_name.markup">SoundHandler</property>
  <property name="meta.attr.major_brand.markup">isom</property>
  <property name="meta.attr.minor_version.markup">512</property>
  <property name="meta.attr.compatible_brands.markup">isomiso2avc1mp41</property>
  <property name="meta.attr.encoder.markup">Lavf58.29.100</property>
  <property name="meta.media.sample_aspect_num">1</property>
  <property name="meta.media.sample_aspect_den">1</property>
  <property name="meta.media.frame_rate_num">30</property>
  <property name="meta.media.frame_rate_den">1</property>
  <property name="meta.media.colorspace">709</property>
  <property name="meta.media.color_trc">1</property>
  <property name="meta.media.width">1280</property>
  <property name="meta.media.height">720</property>
  <property name="meta.media.color_range">mpeg</property>
  <property name="meta.media.top_field_first">0</property>
  <property name="meta.media.progressive">1</property>
  <property name="set.test_audio">0</property>
  <property name="set.test_image">1</property>
 </producer>
 <producer id="producer181" in="00:00:00.000" out="00:00:47.560">
  <property name="length">1190</property>
  <property name="eof">pause</property>
  <property name="resource">vid_files/0_clips/2021-08-16 12-02-21.mp4</property>
  <property name="audio_index">1</property>
  <property name="video_index">0</property>
  <property name="mute_on_pause">0</property>
  <property name="mlt_service">avformat-novalidate</property>
  <property name="seekable">1</property>
  <property name="aspect_ratio">1</property>
  <property name="kdenlive:clipname"/>
  <property name="kdenlive:folderid">-1</property>
  <property name="kdenlive:id">38</property>
  <property name="kdenlive:file_size">25175078</property>
  <property name="kdenlive:file_hash">d0796d11130392d6814bac26c724b549</property>
  <property name="kdenlive:audio_max">13</property>
  <property name="global_feed">1</property>
  <property name="xml">was here</property>
  <property name="meta.media.nb_streams">2</property>
  <property name="meta.media.0.stream.type">video</property>
  <property name="meta.media.0.stream.frame_rate">30</property>
  <property name="meta.media.0.stream.sample_aspect_ratio">0</property>
  <property name="meta.media.0.codec.width">1280</property>
  <property name="meta.media.0.codec.height">720</property>
  <property name="meta.media.0.codec.rotate">0</property>
  <property name="meta.media.0.codec.frame_rate">30</property>
  <property name="meta.media.0.codec.pix_fmt">yuv420p</property>
  <property name="meta.media.0.codec.sample_aspect_ratio">1</property>
  <property name="meta.media.0.codec.colorspace">709</property>
  <property name="meta.media.0.codec.color_trc">1</property>
  <property name="meta.media.0.codec.name">h264</property>
  <property name="meta.media.0.codec.long_name">H.264 / AVC / MPEG-4 AVC / MPEG-4 part 10</property>
  <property name="meta.media.0.codec.bit_rate">4030159</property>
  <property name="meta.attr.0.stream.handler_name.markup">VideoHandler</property>
  <property name="meta.media.1.stream.type">audio</property>
  <property name="meta.media.1.codec.sample_fmt">fltp</property>
  <property name="meta.media.1.codec.sample_rate">48000</property>
  <property name="meta.media.1.codec.channels">2</property>
  <property name="meta.media.1.codec.name">aac</property>
  <property name="meta.media.1.codec.long_name">AAC (Advanced Audio Coding)</property>
  <property name="meta.media.1.codec.bit_rate">192199</property>
  <property name="meta.attr.1.stream.handler_name.markup">SoundHandler</property>
  <property name="meta.attr.major_brand.markup">isom</property>
  <property name="meta.attr.minor_version.markup">512</property>
  <property name="meta.attr.compatible_brands.markup">isomiso2avc1mp41</property>
  <property name="meta.attr.encoder.markup">Lavf58.29.100</property>
  <property name="meta.media.sample_aspect_num">1</property>
  <property name="meta.media.sample_aspect_den">1</property>
  <property name="meta.media.frame_rate_num">30</property>
  <property name="meta.media.frame_rate_den">1</property>
  <property name="meta.media.colorspace">709</property>
  <property name="meta.media.color_trc">1</property>
  <property name="meta.media.width">1280</property>
  <property name="meta.media.height">720</property>
  <property name="meta.media.color_range">mpeg</property>
  <property name="set.test_audio">0</property>
  <property name="set.test_image">1</property>
 </producer>
 <producer id="producer182" in="00:00:00.000" out="00:00:07.480">
  <property name="length">188</property>
  <property name="eof">pause</property>
  <property name="resource">vid_files/0_clips/2021-08-19 20-51-40.mp4</property>
  <property name="audio_index">1</property>
  <property name="video_index">0</property>
  <property name="mute_on_pause">0</property>
  <property name="mlt_service">avformat-novalidate</property>
  <property name="seekable">1</property>
  <property name="aspect_ratio">1</property>
  <property name="kdenlive:clipname"/>
  <property name="kdenlive:folderid">-1</property>
  <property name="kdenlive:id">162</property>
  <property name="kdenlive:file_size">1213627</property>
  <property name="kdenlive:file_hash">d8aab1567b04f3f474e3be406614c2e5</property>
  <property name="kdenlive:audio_max">15</property>
  <property name="global_feed">1</property>
  <property name="xml">was here</property>
  <property name="meta.media.nb_streams">2</property>
  <property name="meta.media.0.stream.type">video</property>
  <property name="meta.media.0.stream.frame_rate">30</property>
  <property name="meta.media.0.stream.sample_aspect_ratio">0</property>
  <property name="meta.media.0.codec.width">1280</property>
  <property name="meta.media.0.codec.height">720</property>
  <property name="meta.media.0.codec.rotate">0</property>
  <property name="meta.media.0.codec.frame_rate">30</property>
  <property name="meta.media.0.codec.pix_fmt">yuv420p</property>
  <property name="meta.media.0.codec.sample_aspect_ratio">1</property>
  <property name="meta.media.0.codec.colorspace">709</property>
  <property name="meta.media.0.codec.color_trc">1</property>
  <property name="meta.media.0.codec.name">h264</property>
  <property name="meta.media.0.codec.long_name">H.264 / AVC / MPEG-4 AVC / MPEG-4 part 10</property>
  <property name="meta.media.0.codec.bit_rate">1092854</property>
  <property name="meta.attr.0.stream.handler_name.markup">VideoHandler</property>
  <property name="meta.media.1.stream.type">audio</property>
  <property name="meta.media.1.codec.sample_fmt">fltp</property>
  <property name="meta.media.1.codec.sample_rate">48000</property>
  <property name="meta.media.1.codec.channels">2</property>
  <property name="meta.media.1.codec.name">aac</property>
  <property name="meta.media.1.codec.long_name">AAC (Advanced Audio Coding)</property>
  <property name="meta.media.1.codec.bit_rate">193376</property>
  <property name="meta.attr.1.stream.handler_name.markup">SoundHandler</property>
  <property name="meta.attr.major_brand.markup">isom</property>
  <property name="meta.attr.minor_version.markup">512</property>
  <property name="meta.attr.compatible_brands.markup">isomiso2avc1mp41</property>
  <property name="meta.attr.encoder.markup">Lavf58.29.100</property>
  <property name="meta.media.sample_aspect_num">1</property>
  <property name="meta.media.sample_aspect_den">1</property>
  <property name="meta.media.frame_rate_num">30</property>
  <property name="meta.media.frame_rate_den">1</property>
  <property name="meta.media.colorspace">709</property>
  <property name="meta.media.color_trc">1</property>
  <property name="meta.media.width">1280</property>
  <property name="meta.media.height">720</property>
  <property name="meta.media.color_range">mpeg</property>
  <property name="meta.media.top_field_first">0</property>
  <property name="meta.media.progressive">1</property>
  <property name="set.test_audio">0</property>
  <property name="set.test_image">1</property>
 </producer>
 <producer id="producer183" in="00:00:00.000" out="00:00:10.440">
  <property name="length">262</property>
  <property name="eof">pause</property>
  <property name="resource">vid_files/0_clips/2021-08-16 12-03-44.mp4</property>
  <property name="audio_index">1</property>
  <property name="video_index">0</property>
  <property name="mute_on_pause">0</property>
  <property name="mlt_service">avformat-novalidate</property>
  <property name="seekable">1</property>
  <property name="aspect_ratio">1</property>
  <property name="kdenlive:clipname"/>
  <property name="kdenlive:folderid">-1</property>
  <property name="kdenlive:id">39</property>
  <property name="kdenlive:file_size">5797203</property>
  <property name="kdenlive:file_hash">9fc07229c85c90693b700b9a4f3c9211</property>
  <property name="kdenlive:audio_max">14</property>
  <property name="global_feed">1</property>
  <property name="xml">was here</property>
  <property name="meta.media.nb_streams">2</property>
  <property name="meta.media.0.stream.type">video</property>
  <property name="meta.media.0.stream.frame_rate">30</property>
  <property name="meta.media.0.stream.sample_aspect_ratio">0</property>
  <property name="meta.media.0.codec.width">1280</property>
  <property name="meta.media.0.codec.height">720</property>
  <property name="meta.media.0.codec.rotate">0</property>
  <property name="meta.media.0.codec.frame_rate">30</property>
  <property name="meta.media.0.codec.pix_fmt">yuv420p</property>
  <property name="meta.media.0.codec.sample_aspect_ratio">1</property>
  <property name="meta.media.0.codec.colorspace">709</property>
  <property name="meta.media.0.codec.color_trc">1</property>
  <property name="meta.media.0.codec.name">h264</property>
  <property name="meta.media.0.codec.long_name">H.264 / AVC / MPEG-4 AVC / MPEG-4 part 10</property>
  <property name="meta.media.0.codec.bit_rate">4215471</property>
  <property name="meta.attr.0.stream.handler_name.markup">VideoHandler</property>
  <property name="meta.media.1.stream.type">audio</property>
  <property name="meta.media.1.codec.sample_fmt">fltp</property>
  <property name="meta.media.1.codec.sample_rate">48000</property>
  <property name="meta.media.1.codec.channels">2</property>
  <property name="meta.media.1.codec.name">aac</property>
  <property name="meta.media.1.codec.long_name">AAC (Advanced Audio Coding)</property>
  <property name="meta.media.1.codec.bit_rate">192857</property>
  <property name="meta.attr.1.stream.handler_name.markup">SoundHandler</property>
  <property name="meta.attr.major_brand.markup">isom</property>
  <property name="meta.attr.minor_version.markup">512</property>
  <property name="meta.attr.compatible_brands.markup">isomiso2avc1mp41</property>
  <property name="meta.attr.encoder.markup">Lavf58.29.100</property>
  <property name="meta.media.sample_aspect_num">1</property>
  <property name="meta.media.sample_aspect_den">1</property>
  <property name="meta.media.frame_rate_num">30</property>
  <property name="meta.media.frame_rate_den">1</property>
  <property name="meta.media.colorspace">709</property>
  <property name="meta.media.color_trc">1</property>
  <property name="meta.media.width">1280</property>
  <property name="meta.media.height">720</property>
  <property name="meta.media.color_range">mpeg</property>
  <property name="set.test_audio">0</property>
  <property name="set.test_image">1</property>
 </producer>
 <producer id="producer184" in="00:00:00.000" out="00:00:27.120">
  <property name="length">679</property>
  <property name="eof">pause</property>
  <property name="resource">vid_files/0_clips/2021-08-16 12-04-03.mp4</property>
  <property name="audio_index">1</property>
  <property name="video_index">0</property>
  <property name="mute_on_pause">0</property>
  <property name="mlt_service">avformat-novalidate</property>
  <property name="seekable">1</property>
  <property name="aspect_ratio">1</property>
  <property name="kdenlive:clipname"/>
  <property name="kdenlive:folderid">-1</property>
  <property name="kdenlive:id">40</property>
  <property name="kdenlive:file_size">14852065</property>
  <property name="kdenlive:file_hash">dc36f3e908d2e4d5e40f1e3f01615d08</property>
  <property name="kdenlive:audio_max">13</property>
  <property name="global_feed">1</property>
  <property name="xml">was here</property>
  <property name="meta.media.nb_streams">2</property>
  <property name="meta.media.0.stream.type">video</property>
  <property name="meta.media.0.stream.frame_rate">30</property>
  <property name="meta.media.0.stream.sample_aspect_ratio">0</property>
  <property name="meta.media.0.codec.width">1280</property>
  <property name="meta.media.0.codec.height">720</property>
  <property name="meta.media.0.codec.rotate">0</property>
  <property name="meta.media.0.codec.frame_rate">30</property>
  <property name="meta.media.0.codec.pix_fmt">yuv420p</property>
  <property name="meta.media.0.codec.sample_aspect_ratio">1</property>
  <property name="meta.media.0.codec.colorspace">709</property>
  <property name="meta.media.0.codec.color_trc">1</property>
  <property name="meta.media.0.codec.name">h264</property>
  <property name="meta.media.0.codec.long_name">H.264 / AVC / MPEG-4 AVC / MPEG-4 part 10</property>
  <property name="meta.media.0.codec.bit_rate">4172585</property>
  <property name="meta.attr.0.stream.handler_name.markup">VideoHandler</property>
  <property name="meta.media.1.stream.type">audio</property>
  <property name="meta.media.1.codec.sample_fmt">fltp</property>
  <property name="meta.media.1.codec.sample_rate">48000</property>
  <property name="meta.media.1.codec.channels">2</property>
  <property name="meta.media.1.codec.name">aac</property>
  <property name="meta.media.1.codec.long_name">AAC (Advanced Audio Coding)</property>
  <property name="meta.media.1.codec.bit_rate">192343</property>
  <property name="meta.attr.1.stream.handler_name.markup">SoundHandler</property>
  <property name="meta.attr.major_brand.markup">isom</property>
  <property name="meta.attr.minor_version.markup">512</property>
  <property name="meta.attr.compatible_brands.markup">isomiso2avc1mp41</property>
  <property name="meta.attr.encoder.markup">Lavf58.29.100</property>
  <property name="meta.media.sample_aspect_num">1</property>
  <property name="meta.media.sample_aspect_den">1</property>
  <property name="meta.media.frame_rate_num">30</property>
  <property name="meta.media.frame_rate_den">1</property>
  <property name="meta.media.colorspace">709</property>
  <property name="meta.media.color_trc">1</property>
  <property name="meta.media.width">1280</property>
  <property name="meta.media.height">720</property>
  <property name="meta.media.color_range">mpeg</property>
  <property name="set.test_audio">0</property>
  <property name="set.test_image">1</property>
 </producer>
 <producer id="producer185" in="00:00:00.000" out="00:01:03.080">
  <property name="length">1578</property>
  <property name="eof">pause</property>
  <property name="resource">vid_files/0_clips/2021-08-16 12-06-30.mp4</property>
  <property name="audio_index">1</property>
  <property name="video_index">0</property>
  <property name="mute_on_pause">0</property>
  <property name="mlt_service">avformat-novalidate</property>
  <property name="seekable">1</property>
  <property name="aspect_ratio">1</property>
  <property name="kdenlive:clipname"/>
  <property name="kdenlive:folderid">-1</property>
  <property name="kdenlive:id">41</property>
  <property name="kdenlive:file_size">33927028</property>
  <property name="kdenlive:file_hash">01f10cd022a2d3f80133f6e4ed9e7460</property>
  <property name="kdenlive:audio_max">15</property>
  <property name="global_feed">1</property>
  <property name="xml">was here</property>
  <property name="meta.media.nb_streams">2</property>
  <property name="meta.media.0.stream.type">video</property>
  <property name="meta.media.0.stream.frame_rate">30</property>
  <property name="meta.media.0.stream.sample_aspect_ratio">0</property>
  <property name="meta.media.0.codec.width">1280</property>
  <property name="meta.media.0.codec.height">720</property>
  <property name="meta.media.0.codec.rotate">0</property>
  <property name="meta.media.0.codec.frame_rate">30</property>
  <property name="meta.media.0.codec.pix_fmt">yuv420p</property>
  <property name="meta.media.0.codec.sample_aspect_ratio">1</property>
  <property name="meta.media.0.codec.colorspace">709</property>
  <property name="meta.media.0.codec.color_trc">1</property>
  <property name="meta.media.0.codec.name">h264</property>
  <property name="meta.media.0.codec.long_name">H.264 / AVC / MPEG-4 AVC / MPEG-4 part 10</property>
  <property name="meta.media.0.codec.bit_rate">4098190</property>
  <property name="meta.attr.0.stream.handler_name.markup">VideoHandler</property>
  <property name="meta.media.1.stream.type">audio</property>
  <property name="meta.media.1.codec.sample_fmt">fltp</property>
  <property name="meta.media.1.codec.sample_rate">48000</property>
  <property name="meta.media.1.codec.channels">2</property>
  <property name="meta.media.1.codec.name">aac</property>
  <property name="meta.media.1.codec.long_name">AAC (Advanced Audio Coding)</property>
  <property name="meta.media.1.codec.bit_rate">192138</property>
  <property name="meta.attr.1.stream.handler_name.markup">SoundHandler</property>
  <property name="meta.attr.major_brand.markup">isom</property>
  <property name="meta.attr.minor_version.markup">512</property>
  <property name="meta.attr.compatible_brands.markup">isomiso2avc1mp41</property>
  <property name="meta.attr.encoder.markup">Lavf58.29.100</property>
  <property name="meta.media.sample_aspect_num">1</property>
  <property name="meta.media.sample_aspect_den">1</property>
  <property name="meta.media.frame_rate_num">30</property>
  <property name="meta.media.frame_rate_den">1</property>
  <property name="meta.media.colorspace">709</property>
  <property name="meta.media.color_trc">1</property>
  <property name="meta.media.width">1280</property>
  <property name="meta.media.height">720</property>
  <property name="meta.media.color_range">mpeg</property>
  <property name="set.test_audio">0</property>
  <property name="set.test_image">1</property>
 </producer>
 <producer id="producer186" in="00:00:00.000" out="00:00:26.840">
  <property name="length">672</property>
  <property name="eof">pause</property>
  <property name="resource">vid_files/0_clips/2021-08-18 11-26-30.mp4</property>
  <property name="audio_index">1</property>
  <property name="video_index">0</property>
  <property name="mute_on_pause">0</property>
  <property name="mlt_service">avformat-novalidate</property>
  <property name="seekable">1</property>
  <property name="aspect_ratio">1</property>
  <property name="kdenlive:clipname"/>
  <property name="kdenlive:folderid">-1</property>
  <property name="kdenlive:id">101</property>
  <property name="kdenlive:file_size">3389982</property>
  <property name="kdenlive:file_hash">a64c8c418ca7315ab5a7c5eb04d78c64</property>
  <property name="kdenlive:audio_max">17</property>
  <property name="global_feed">1</property>
  <property name="xml">was here</property>
  <property name="meta.media.nb_streams">2</property>
  <property name="meta.media.0.stream.type">video</property>
  <property name="meta.media.0.stream.frame_rate">30</property>
  <property name="meta.media.0.stream.sample_aspect_ratio">0</property>
  <property name="meta.media.0.codec.width">1280</property>
  <property name="meta.media.0.codec.height">720</property>
  <property name="meta.media.0.codec.rotate">0</property>
  <property name="meta.media.0.codec.frame_rate">30</property>
  <property name="meta.media.0.codec.pix_fmt">yuv420p</property>
  <property name="meta.media.0.codec.sample_aspect_ratio">1</property>
  <property name="meta.media.0.codec.colorspace">709</property>
  <property name="meta.media.0.codec.color_trc">1</property>
  <property name="meta.media.0.codec.name">h264</property>
  <property name="meta.media.0.codec.long_name">H.264 / AVC / MPEG-4 AVC / MPEG-4 part 10</property>
  <property name="meta.media.0.codec.bit_rate">808399</property>
  <property name="meta.attr.0.stream.handler_name.markup">VideoHandler</property>
  <property name="meta.media.1.stream.type">audio</property>
  <property name="meta.media.1.codec.sample_fmt">fltp</property>
  <property name="meta.media.1.codec.sample_rate">48000</property>
  <property name="meta.media.1.codec.channels">2</property>
  <property name="meta.media.1.codec.name">aac</property>
  <property name="meta.media.1.codec.long_name">AAC (Advanced Audio Coding)</property>
  <property name="meta.media.1.codec.bit_rate">192338</property>
  <property name="meta.attr.1.stream.handler_name.markup">SoundHandler</property>
  <property name="meta.attr.major_brand.markup">isom</property>
  <property name="meta.attr.minor_version.markup">512</property>
  <property name="meta.attr.compatible_brands.markup">isomiso2avc1mp41</property>
  <property name="meta.attr.encoder.markup">Lavf58.29.100</property>
  <property name="meta.media.sample_aspect_num">1</property>
  <property name="meta.media.sample_aspect_den">1</property>
  <property name="meta.media.frame_rate_num">30</property>
  <property name="meta.media.frame_rate_den">1</property>
  <property name="meta.media.colorspace">709</property>
  <property name="meta.media.color_trc">1</property>
  <property name="meta.media.width">1280</property>
  <property name="meta.media.height">720</property>
  <property name="meta.media.color_range">mpeg</property>
  <property name="set.test_audio">0</property>
  <property name="set.test_image">1</property>
 </producer>
 <producer id="producer187" in="00:00:00.000" out="00:01:01.040">
  <property name="length">1527</property>
  <property name="eof">pause</property>
  <property name="resource">vid_files/0_clips/2021-08-16 12-29-52.mp4</property>
  <property name="audio_index">1</property>
  <property name="video_index">0</property>
  <property name="mute_on_pause">0</property>
  <property name="mlt_service">avformat-novalidate</property>
  <property name="seekable">1</property>
  <property name="aspect_ratio">1</property>
  <property name="kdenlive:clipname"/>
  <property name="kdenlive:folderid">-1</property>
  <property name="kdenlive:id">42</property>
  <property name="kdenlive:file_size">41787275</property>
  <property name="kdenlive:file_hash">56305276afc2292f6d3a150f4bf41c94</property>
  <property name="kdenlive:audio_max">14</property>
  <property name="global_feed">1</property>
  <property name="xml">was here</property>
  <property name="meta.media.nb_streams">2</property>
  <property name="meta.media.0.stream.type">video</property>
  <property name="meta.media.0.stream.frame_rate">30</property>
  <property name="meta.media.0.stream.sample_aspect_ratio">0</property>
  <property name="meta.media.0.codec.width">1280</property>
  <property name="meta.media.0.codec.height">720</property>
  <property name="meta.media.0.codec.rotate">0</property>
  <property name="meta.media.0.codec.frame_rate">30</property>
  <property name="meta.media.0.codec.pix_fmt">yuv420p</property>
  <property name="meta.media.0.codec.sample_aspect_ratio">1</property>
  <property name="meta.media.0.codec.colorspace">709</property>
  <property name="meta.media.0.codec.color_trc">1</property>
  <property name="meta.media.0.codec.name">h264</property>
  <property name="meta.media.0.codec.long_name">H.264 / AVC / MPEG-4 AVC / MPEG-4 part 10</property>
  <property name="meta.media.0.codec.bit_rate">5273403</property>
  <property name="meta.attr.0.stream.handler_name.markup">VideoHandler</property>
  <property name="meta.media.1.stream.type">audio</property>
  <property name="meta.media.1.codec.sample_fmt">fltp</property>
  <property name="meta.media.1.codec.sample_rate">48000</property>
  <property name="meta.media.1.codec.channels">2</property>
  <property name="meta.media.1.codec.name">aac</property>
  <property name="meta.media.1.codec.long_name">AAC (Advanced Audio Coding)</property>
  <property name="meta.media.1.codec.bit_rate">192158</property>
  <property name="meta.attr.1.stream.handler_name.markup">SoundHandler</property>
  <property name="meta.attr.major_brand.markup">isom</property>
  <property name="meta.attr.minor_version.markup">512</property>
  <property name="meta.attr.compatible_brands.markup">isomiso2avc1mp41</property>
  <property name="meta.attr.encoder.markup">Lavf58.29.100</property>
  <property name="meta.media.sample_aspect_num">1</property>
  <property name="meta.media.sample_aspect_den">1</property>
  <property name="meta.media.frame_rate_num">30</property>
  <property name="meta.media.frame_rate_den">1</property>
  <property name="meta.media.colorspace">709</property>
  <property name="meta.media.color_trc">1</property>
  <property name="meta.media.width">1280</property>
  <property name="meta.media.height">720</property>
  <property name="meta.media.color_range">mpeg</property>
  <property name="set.test_audio">0</property>
  <property name="set.test_image">1</property>
 </producer>
 <producer id="producer188" in="00:00:00.000" out="00:00:12.680">
  <property name="length">318</property>
  <property name="eof">pause</property>
  <property name="resource">vid_files/0_clips/2021-08-17 08-16-20.mp4</property>
  <property name="audio_index">1</property>
  <property name="video_index">0</property>
  <property name="mute_on_pause">0</property>
  <property name="mlt_service">avformat-novalidate</property>
  <property name="seekable">1</property>
  <property name="aspect_ratio">1</property>
  <property name="kdenlive:clipname"/>
  <property name="kdenlive:folderid">-1</property>
  <property name="kdenlive:id">52</property>
  <property name="kdenlive:file_size">1569203</property>
  <property name="kdenlive:file_hash">6bf44511079979af780ce72bd6acb350</property>
  <property name="kdenlive:audio_max">20</property>
  <property name="global_feed">1</property>
  <property name="xml">was here</property>
  <property name="meta.media.nb_streams">2</property>
  <property name="meta.media.0.stream.type">video</property>
  <property name="meta.media.0.stream.frame_rate">30</property>
  <property name="meta.media.0.stream.sample_aspect_ratio">0</property>
  <property name="meta.media.0.codec.width">1280</property>
  <property name="meta.media.0.codec.height">720</property>
  <property name="meta.media.0.codec.rotate">0</property>
  <property name="meta.media.0.codec.frame_rate">30</property>
  <property name="meta.media.0.codec.pix_fmt">yuv420p</property>
  <property name="meta.media.0.codec.sample_aspect_ratio">1</property>
  <property name="meta.media.0.codec.colorspace">709</property>
  <property name="meta.media.0.codec.color_trc">1</property>
  <property name="meta.media.0.codec.name">h264</property>
  <property name="meta.media.0.codec.long_name">H.264 / AVC / MPEG-4 AVC / MPEG-4 part 10</property>
  <property name="meta.media.0.codec.bit_rate">784722</property>
  <property name="meta.attr.0.stream.handler_name.markup">VideoHandler</property>
  <property name="meta.media.1.stream.type">audio</property>
  <property name="meta.media.1.codec.sample_fmt">fltp</property>
  <property name="meta.media.1.codec.sample_rate">48000</property>
  <property name="meta.media.1.codec.channels">2</property>
  <property name="meta.media.1.codec.name">aac</property>
  <property name="meta.media.1.codec.long_name">AAC (Advanced Audio Coding)</property>
  <property name="meta.media.1.codec.bit_rate">192746</property>
  <property name="meta.attr.1.stream.handler_name.markup">SoundHandler</property>
  <property name="meta.attr.major_brand.markup">isom</property>
  <property name="meta.attr.minor_version.markup">512</property>
  <property name="meta.attr.compatible_brands.markup">isomiso2avc1mp41</property>
  <property name="meta.attr.encoder.markup">Lavf58.29.100</property>
  <property name="meta.media.sample_aspect_num">1</property>
  <property name="meta.media.sample_aspect_den">1</property>
  <property name="meta.media.frame_rate_num">30</property>
  <property name="meta.media.frame_rate_den">1</property>
  <property name="meta.media.colorspace">709</property>
  <property name="meta.media.color_trc">1</property>
  <property name="meta.media.width">1280</property>
  <property name="meta.media.height">720</property>
  <property name="meta.media.color_range">mpeg</property>
  <property name="meta.media.top_field_first">0</property>
  <property name="meta.media.progressive">1</property>
  <property name="set.test_audio">0</property>
  <property name="set.test_image">1</property>
 </producer>
 <producer id="producer189" in="00:00:00.000" out="00:00:15.720">
  <property name="length">394</property>
  <property name="eof">pause</property>
  <property name="resource">vid_files/0_clips/2021-08-18 21-03-02.mp4</property>
  <property name="audio_index">1</property>
  <property name="video_index">0</property>
  <property name="mute_on_pause">0</property>
  <property name="mlt_service">avformat-novalidate</property>
  <property name="seekable">1</property>
  <property name="aspect_ratio">1</property>
  <property name="kdenlive:clipname"/>
  <property name="kdenlive:folderid">-1</property>
  <property name="kdenlive:id">132</property>
  <property name="kdenlive:file_size">2822467</property>
  <property name="kdenlive:file_hash">f56eeafbe1031bdf90c74d462358f818</property>
  <property name="kdenlive:audio_max">16</property>
  <property name="global_feed">1</property>
  <property name="xml">was here</property>
  <property name="meta.media.nb_streams">2</property>
  <property name="meta.media.0.stream.type">video</property>
  <property name="meta.media.0.stream.frame_rate">30</property>
  <property name="meta.media.0.stream.sample_aspect_ratio">0</property>
  <property name="meta.media.0.codec.width">1280</property>
  <property name="meta.media.0.codec.height">720</property>
  <property name="meta.media.0.codec.rotate">0</property>
  <property name="meta.media.0.codec.frame_rate">30</property>
  <property name="meta.media.0.codec.pix_fmt">yuv420p</property>
  <property name="meta.media.0.codec.sample_aspect_ratio">1</property>
  <property name="meta.media.0.codec.colorspace">709</property>
  <property name="meta.media.0.codec.color_trc">1</property>
  <property name="meta.media.0.codec.name">h264</property>
  <property name="meta.media.0.codec.long_name">H.264 / AVC / MPEG-4 AVC / MPEG-4 part 10</property>
  <property name="meta.media.0.codec.bit_rate">1231062</property>
  <property name="meta.attr.0.stream.handler_name.markup">VideoHandler</property>
  <property name="meta.media.1.stream.type">audio</property>
  <property name="meta.media.1.codec.sample_fmt">fltp</property>
  <property name="meta.media.1.codec.sample_rate">48000</property>
  <property name="meta.media.1.codec.channels">2</property>
  <property name="meta.media.1.codec.name">aac</property>
  <property name="meta.media.1.codec.long_name">AAC (Advanced Audio Coding)</property>
  <property name="meta.media.1.codec.bit_rate">192610</property>
  <property name="meta.attr.1.stream.handler_name.markup">SoundHandler</property>
  <property name="meta.attr.major_brand.markup">isom</property>
  <property name="meta.attr.minor_version.markup">512</property>
  <property name="meta.attr.compatible_brands.markup">isomiso2avc1mp41</property>
  <property name="meta.attr.encoder.markup">Lavf58.29.100</property>
  <property name="meta.media.sample_aspect_num">1</property>
  <property name="meta.media.sample_aspect_den">1</property>
  <property name="meta.media.frame_rate_num">30</property>
  <property name="meta.media.frame_rate_den">1</property>
  <property name="meta.media.colorspace">709</property>
  <property name="meta.media.color_trc">1</property>
  <property name="meta.media.width">1280</property>
  <property name="meta.media.height">720</property>
  <property name="meta.media.color_range">mpeg</property>
  <property name="meta.media.top_field_first">0</property>
  <property name="meta.media.progressive">1</property>
  <property name="set.test_audio">0</property>
  <property name="set.test_image">1</property>
 </producer>
 <producer id="producer190" in="00:00:00.000" out="00:00:04.440">
  <property name="length">112</property>
  <property name="eof">pause</property>
  <property name="resource">vid_files/0_clips/2021-08-18 21-03-21.mp4</property>
  <property name="audio_index">1</property>
  <property name="video_index">0</property>
  <property name="mute_on_pause">0</property>
  <property name="mlt_service">avformat-novalidate</property>
  <property name="seekable">1</property>
  <property name="aspect_ratio">1</property>
  <property name="kdenlive:clipname"/>
  <property name="kdenlive:folderid">-1</property>
  <property name="kdenlive:id">133</property>
  <property name="kdenlive:file_size">770653</property>
  <property name="kdenlive:file_hash">ef2cb54f7cabe5c075ce8308b6ec09af</property>
  <property name="kdenlive:audio_max">17</property>
  <property name="global_feed">1</property>
  <property name="xml">was here</property>
  <property name="meta.media.nb_streams">2</property>
  <property name="meta.media.0.stream.type">video</property>
  <property name="meta.media.0.stream.frame_rate">30</property>
  <property name="meta.media.0.stream.sample_aspect_ratio">0</property>
  <property name="meta.media.0.codec.width">1280</property>
  <property name="meta.media.0.codec.height">720</property>
  <property name="meta.media.0.codec.rotate">0</property>
  <property name="meta.media.0.codec.frame_rate">30</property>
  <property name="meta.media.0.codec.pix_fmt">yuv420p</property>
  <property name="meta.media.0.codec.sample_aspect_ratio">1</property>
  <property name="meta.media.0.codec.colorspace">709</property>
  <property name="meta.media.0.codec.color_trc">1</property>
  <property name="meta.media.0.codec.name">h264</property>
  <property name="meta.media.0.codec.long_name">H.264 / AVC / MPEG-4 AVC / MPEG-4 part 10</property>
  <property name="meta.media.0.codec.bit_rate">1178081</property>
  <property name="meta.attr.0.stream.handler_name.markup">VideoHandler</property>
  <property name="meta.media.1.stream.type">audio</property>
  <property name="meta.media.1.codec.sample_fmt">fltp</property>
  <property name="meta.media.1.codec.sample_rate">48000</property>
  <property name="meta.media.1.codec.channels">2</property>
  <property name="meta.media.1.codec.name">aac</property>
  <property name="meta.media.1.codec.long_name">AAC (Advanced Audio Coding)</property>
  <property name="meta.media.1.codec.bit_rate">194067</property>
  <property name="meta.attr.1.stream.handler_name.markup">SoundHandler</property>
  <property name="meta.attr.major_brand.markup">isom</property>
  <property name="meta.attr.minor_version.markup">512</property>
  <property name="meta.attr.compatible_brands.markup">isomiso2avc1mp41</property>
  <property name="meta.attr.encoder.markup">Lavf58.29.100</property>
  <property name="meta.media.sample_aspect_num">1</property>
  <property name="meta.media.sample_aspect_den">1</property>
  <property name="meta.media.frame_rate_num">30</property>
  <property name="meta.media.frame_rate_den">1</property>
  <property name="meta.media.colorspace">709</property>
  <property name="meta.media.color_trc">1</property>
  <property name="meta.media.width">1280</property>
  <property name="meta.media.height">720</property>
  <property name="meta.media.color_range">mpeg</property>
  <property name="set.test_audio">0</property>
  <property name="set.test_image">1</property>
 </producer>
 <producer id="producer191" in="00:00:00.000" out="00:00:34.080">
  <property name="length">853</property>
  <property name="eof">pause</property>
  <property name="resource">vid_files/0_clips/2021-08-16 12-31-01.mp4</property>
  <property name="audio_index">1</property>
  <property name="video_index">0</property>
  <property name="mute_on_pause">0</property>
  <property name="mlt_service">avformat-novalidate</property>
  <property name="seekable">1</property>
  <property name="aspect_ratio">1</property>
  <property name="kdenlive:clipname"/>
  <property name="kdenlive:folderid">-1</property>
  <property name="kdenlive:id">43</property>
  <property name="kdenlive:file_size">24902306</property>
  <property name="kdenlive:file_hash">798724fdf0d31c7504719a9ea30912c8</property>
  <property name="kdenlive:audio_max">15</property>
  <property name="global_feed">1</property>
  <property name="xml">was here</property>
  <property name="meta.media.nb_streams">2</property>
  <property name="meta.media.0.stream.type">video</property>
  <property name="meta.media.0.stream.frame_rate">30</property>
  <property name="meta.media.0.stream.sample_aspect_ratio">0</property>
  <property name="meta.media.0.codec.width">1280</property>
  <property name="meta.media.0.codec.height">720</property>
  <property name="meta.media.0.codec.rotate">0</property>
  <property name="meta.media.0.codec.frame_rate">30</property>
  <property name="meta.media.0.codec.pix_fmt">yuv420p</property>
  <property name="meta.media.0.codec.sample_aspect_ratio">1</property>
  <property name="meta.media.0.codec.colorspace">709</property>
  <property name="meta.media.0.codec.color_trc">1</property>
  <property name="meta.media.0.codec.name">h264</property>
  <property name="meta.media.0.codec.long_name">H.264 / AVC / MPEG-4 AVC / MPEG-4 part 10</property>
  <property name="meta.media.0.codec.bit_rate">5635550</property>
  <property name="meta.attr.0.stream.handler_name.markup">VideoHandler</property>
  <property name="meta.media.1.stream.type">audio</property>
  <property name="meta.media.1.codec.sample_fmt">fltp</property>
  <property name="meta.media.1.codec.sample_rate">48000</property>
  <property name="meta.media.1.codec.channels">2</property>
  <property name="meta.media.1.codec.name">aac</property>
  <property name="meta.media.1.codec.long_name">AAC (Advanced Audio Coding)</property>
  <property name="meta.media.1.codec.bit_rate">192282</property>
  <property name="meta.attr.1.stream.handler_name.markup">SoundHandler</property>
  <property name="meta.attr.major_brand.markup">isom</property>
  <property name="meta.attr.minor_version.markup">512</property>
  <property name="meta.attr.compatible_brands.markup">isomiso2avc1mp41</property>
  <property name="meta.attr.encoder.markup">Lavf58.29.100</property>
  <property name="meta.media.sample_aspect_num">1</property>
  <property name="meta.media.sample_aspect_den">1</property>
  <property name="meta.media.frame_rate_num">30</property>
  <property name="meta.media.frame_rate_den">1</property>
  <property name="meta.media.colorspace">709</property>
  <property name="meta.media.color_trc">1</property>
  <property name="meta.media.width">1280</property>
  <property name="meta.media.height">720</property>
  <property name="meta.media.color_range">mpeg</property>
  <property name="set.test_audio">0</property>
  <property name="set.test_image">1</property>
 </producer>
 <producer id="producer192" in="00:00:00.000" out="00:00:09.080">
  <property name="length">228</property>
  <property name="eof">pause</property>
  <property name="resource">vid_files/0_clips/2021-08-17 08-15-47.mp4</property>
  <property name="audio_index">1</property>
  <property name="video_index">0</property>
  <property name="mute_on_pause">0</property>
  <property name="mlt_service">avformat-novalidate</property>
  <property name="seekable">1</property>
  <property name="aspect_ratio">1</property>
  <property name="kdenlive:clipname"/>
  <property name="kdenlive:folderid">-1</property>
  <property name="kdenlive:id">51</property>
  <property name="kdenlive:file_size">1216084</property>
  <property name="kdenlive:file_hash">0829a20dbd2e7dd36ea45389ece9a5af</property>
  <property name="kdenlive:audio_max">20</property>
  <property name="global_feed">1</property>
  <property name="xml">was here</property>
  <property name="meta.media.nb_streams">2</property>
  <property name="meta.media.0.stream.type">video</property>
  <property name="meta.media.0.stream.frame_rate">30</property>
  <property name="meta.media.0.stream.sample_aspect_ratio">0</property>
  <property name="meta.media.0.codec.width">1280</property>
  <property name="meta.media.0.codec.height">720</property>
  <property name="meta.media.0.codec.rotate">0</property>
  <property name="meta.media.0.codec.frame_rate">30</property>
  <property name="meta.media.0.codec.pix_fmt">yuv420p</property>
  <property name="meta.media.0.codec.sample_aspect_ratio">1</property>
  <property name="meta.media.0.codec.colorspace">709</property>
  <property name="meta.media.0.codec.color_trc">1</property>
  <property name="meta.media.0.codec.name">h264</property>
  <property name="meta.media.0.codec.long_name">H.264 / AVC / MPEG-4 AVC / MPEG-4 part 10</property>
  <property name="meta.media.0.codec.bit_rate">863989</property>
  <property name="meta.attr.0.stream.handler_name.markup">VideoHandler</property>
  <property name="meta.media.1.stream.type">audio</property>
  <property name="meta.media.1.codec.sample_fmt">fltp</property>
  <property name="meta.media.1.codec.sample_rate">48000</property>
  <property name="meta.media.1.codec.channels">2</property>
  <property name="meta.media.1.codec.name">aac</property>
  <property name="meta.media.1.codec.long_name">AAC (Advanced Audio Coding)</property>
  <property name="meta.media.1.codec.bit_rate">193044</property>
  <property name="meta.attr.1.stream.handler_name.markup">SoundHandler</property>
  <property name="meta.attr.major_brand.markup">isom</property>
  <property name="meta.attr.minor_version.markup">512</property>
  <property name="meta.attr.compatible_brands.markup">isomiso2avc1mp41</property>
  <property name="meta.attr.encoder.markup">Lavf58.29.100</property>
  <property name="meta.media.sample_aspect_num">1</property>
  <property name="meta.media.sample_aspect_den">1</property>
  <property name="meta.media.frame_rate_num">30</property>
  <property name="meta.media.frame_rate_den">1</property>
  <property name="meta.media.colorspace">709</property>
  <property name="meta.media.color_trc">1</property>
  <property name="meta.media.width">1280</property>
  <property name="meta.media.height">720</property>
  <property name="meta.media.color_range">mpeg</property>
  <property name="set.test_audio">0</property>
  <property name="set.test_image">1</property>
 </producer>
 <producer id="producer193" in="00:00:00.000" out="00:00:27.920">
  <property name="length">699</property>
  <property name="eof">pause</property>
  <property name="resource">vid_files/0_clips/2021-08-17 08-18-10.mp4</property>
  <property name="audio_index">1</property>
  <property name="video_index">0</property>
  <property name="mute_on_pause">0</property>
  <property name="mlt_service">avformat-novalidate</property>
  <property name="seekable">1</property>
  <property name="aspect_ratio">1</property>
  <property name="kdenlive:clipname"/>
  <property name="kdenlive:folderid">-1</property>
  <property name="kdenlive:id">53</property>
  <property name="kdenlive:file_size">3512613</property>
  <property name="kdenlive:file_hash">7514eb046151d1001087d78c783a590d</property>
  <property name="kdenlive:audio_max">17</property>
  <property name="global_feed">1</property>
  <property name="xml">was here</property>
  <property name="meta.media.nb_streams">2</property>
  <property name="meta.media.0.stream.type">video</property>
  <property name="meta.media.0.stream.frame_rate">30</property>
  <property name="meta.media.0.stream.sample_aspect_ratio">0</property>
  <property name="meta.media.0.codec.width">1280</property>
  <property name="meta.media.0.codec.height">720</property>
  <property name="meta.media.0.codec.rotate">0</property>
  <property name="meta.media.0.codec.frame_rate">30</property>
  <property name="meta.media.0.codec.pix_fmt">yuv420p</property>
  <property name="meta.media.0.codec.sample_aspect_ratio">1</property>
  <property name="meta.media.0.codec.colorspace">709</property>
  <property name="meta.media.0.codec.color_trc">1</property>
  <property name="meta.media.0.codec.name">h264</property>
  <property name="meta.media.0.codec.long_name">H.264 / AVC / MPEG-4 AVC / MPEG-4 part 10</property>
  <property name="meta.media.0.codec.bit_rate">803830</property>
  <property name="meta.attr.0.stream.handler_name.markup">VideoHandler</property>
  <property name="meta.media.1.stream.type">audio</property>
  <property name="meta.media.1.codec.sample_fmt">fltp</property>
  <property name="meta.media.1.codec.sample_rate">48000</property>
  <property name="meta.media.1.codec.channels">2</property>
  <property name="meta.media.1.codec.name">aac</property>
  <property name="meta.media.1.codec.long_name">AAC (Advanced Audio Coding)</property>
  <property name="meta.media.1.codec.bit_rate">192342</property>
  <property name="meta.attr.1.stream.handler_name.markup">SoundHandler</property>
  <property name="meta.attr.major_brand.markup">isom</property>
  <property name="meta.attr.minor_version.markup">512</property>
  <property name="meta.attr.compatible_brands.markup">isomiso2avc1mp41</property>
  <property name="meta.attr.encoder.markup">Lavf58.29.100</property>
  <property name="meta.media.sample_aspect_num">1</property>
  <property name="meta.media.sample_aspect_den">1</property>
  <property name="meta.media.frame_rate_num">30</property>
  <property name="meta.media.frame_rate_den">1</property>
  <property name="meta.media.colorspace">709</property>
  <property name="meta.media.color_trc">1</property>
  <property name="meta.media.width">1280</property>
  <property name="meta.media.height">720</property>
  <property name="meta.media.color_range">mpeg</property>
  <property name="set.test_audio">0</property>
  <property name="set.test_image">1</property>
 </producer>
 <producer id="producer194" in="00:00:00.000" out="00:00:13.240">
  <property name="length">332</property>
  <property name="eof">pause</property>
  <property name="resource">vid_files/0_clips/2021-08-17 08-19-05.mp4</property>
  <property name="audio_index">1</property>
  <property name="video_index">0</property>
  <property name="mute_on_pause">0</property>
  <property name="mlt_service">avformat-novalidate</property>
  <property name="seekable">1</property>
  <property name="aspect_ratio">1</property>
  <property name="kdenlive:clipname"/>
  <property name="kdenlive:folderid">-1</property>
  <property name="kdenlive:id">54</property>
  <property name="kdenlive:file_size">1679204</property>
  <property name="kdenlive:file_hash">8a6e44340f6abf24f09c4c935215b934</property>
  <property name="kdenlive:audio_max">16</property>
  <property name="global_feed">1</property>
  <property name="xml">was here</property>
  <property name="meta.media.nb_streams">2</property>
  <property name="meta.media.0.stream.type">video</property>
  <property name="meta.media.0.stream.frame_rate">30</property>
  <property name="meta.media.0.stream.sample_aspect_ratio">0</property>
  <property name="meta.media.0.codec.width">1280</property>
  <property name="meta.media.0.codec.height">720</property>
  <property name="meta.media.0.codec.rotate">0</property>
  <property name="meta.media.0.codec.frame_rate">30</property>
  <property name="meta.media.0.codec.pix_fmt">yuv420p</property>
  <property name="meta.media.0.codec.sample_aspect_ratio">1</property>
  <property name="meta.media.0.codec.colorspace">709</property>
  <property name="meta.media.0.codec.color_trc">1</property>
  <property name="meta.media.0.codec.name">h264</property>
  <property name="meta.media.0.codec.long_name">H.264 / AVC / MPEG-4 AVC / MPEG-4 part 10</property>
  <property name="meta.media.0.codec.bit_rate">808786</property>
  <property name="meta.attr.0.stream.handler_name.markup">VideoHandler</property>
  <property name="meta.media.1.stream.type">audio</property>
  <property name="meta.media.1.codec.sample_fmt">fltp</property>
  <property name="meta.media.1.codec.sample_rate">48000</property>
  <property name="meta.media.1.codec.channels">2</property>
  <property name="meta.media.1.codec.name">aac</property>
  <property name="meta.media.1.codec.long_name">AAC (Advanced Audio Coding)</property>
  <property name="meta.media.1.codec.bit_rate">192687</property>
  <property name="meta.attr.1.stream.handler_name.markup">SoundHandler</property>
  <property name="meta.attr.major_brand.markup">isom</property>
  <property name="meta.attr.minor_version.markup">512</property>
  <property name="meta.attr.compatible_brands.markup">isomiso2avc1mp41</property>
  <property name="meta.attr.encoder.markup">Lavf58.29.100</property>
  <property name="meta.media.sample_aspect_num">1</property>
  <property name="meta.media.sample_aspect_den">1</property>
  <property name="meta.media.frame_rate_num">30</property>
  <property name="meta.media.frame_rate_den">1</property>
  <property name="meta.media.colorspace">709</property>
  <property name="meta.media.color_trc">1</property>
  <property name="meta.media.width">1280</property>
  <property name="meta.media.height">720</property>
  <property name="meta.media.color_range">mpeg</property>
  <property name="set.test_audio">0</property>
  <property name="set.test_image">1</property>
 </producer>
 <producer id="producer195" in="00:00:00.000" out="00:00:10.680">
  <property name="length">268</property>
  <property name="eof">pause</property>
  <property name="resource">vid_files/0_clips/2021-08-18 21-03-28.mp4</property>
  <property name="audio_index">1</property>
  <property name="video_index">0</property>
  <property name="mute_on_pause">0</property>
  <property name="mlt_service">avformat-novalidate</property>
  <property name="seekable">1</property>
  <property name="aspect_ratio">1</property>
  <property name="kdenlive:clipname"/>
  <property name="kdenlive:folderid">-1</property>
  <property name="kdenlive:id">134</property>
  <property name="kdenlive:file_size">1812907</property>
  <property name="kdenlive:file_hash">03ca5ab47d01fcf1f26685e55a584334</property>
  <property name="kdenlive:audio_max">18</property>
  <property name="global_feed">1</property>
  <property name="xml">was here</property>
  <property name="meta.media.nb_streams">2</property>
  <property name="meta.media.0.stream.type">video</property>
  <property name="meta.media.0.stream.frame_rate">30</property>
  <property name="meta.media.0.stream.sample_aspect_ratio">0</property>
  <property name="meta.media.0.codec.width">1280</property>
  <property name="meta.media.0.codec.height">720</property>
  <property name="meta.media.0.codec.rotate">0</property>
  <property name="meta.media.0.codec.frame_rate">30</property>
  <property name="meta.media.0.codec.pix_fmt">yuv420p</property>
  <property name="meta.media.0.codec.sample_aspect_ratio">1</property>
  <property name="meta.media.0.codec.colorspace">709</property>
  <property name="meta.media.0.codec.color_trc">1</property>
  <property name="meta.media.0.codec.name">h264</property>
  <property name="meta.media.0.codec.long_name">H.264 / AVC / MPEG-4 AVC / MPEG-4 part 10</property>
  <property name="meta.media.0.codec.bit_rate">1154089</property>
  <property name="meta.attr.0.stream.handler_name.markup">VideoHandler</property>
  <property name="meta.media.1.stream.type">audio</property>
  <property name="meta.media.1.codec.sample_fmt">fltp</property>
  <property name="meta.media.1.codec.sample_rate">48000</property>
  <property name="meta.media.1.codec.channels">2</property>
  <property name="meta.media.1.codec.name">aac</property>
  <property name="meta.media.1.codec.long_name">AAC (Advanced Audio Coding)</property>
  <property name="meta.media.1.codec.bit_rate">192901</property>
  <property name="meta.attr.1.stream.handler_name.markup">SoundHandler</property>
  <property name="meta.attr.major_brand.markup">isom</property>
  <property name="meta.attr.minor_version.markup">512</property>
  <property name="meta.attr.compatible_brands.markup">isomiso2avc1mp41</property>
  <property name="meta.attr.encoder.markup">Lavf58.29.100</property>
  <property name="meta.media.sample_aspect_num">1</property>
  <property name="meta.media.sample_aspect_den">1</property>
  <property name="meta.media.frame_rate_num">30</property>
  <property name="meta.media.frame_rate_den">1</property>
  <property name="meta.media.colorspace">709</property>
  <property name="meta.media.color_trc">1</property>
  <property name="meta.media.width">1280</property>
  <property name="meta.media.height">720</property>
  <property name="meta.media.color_range">mpeg</property>
  <property name="meta.media.top_field_first">0</property>
  <property name="meta.media.progressive">1</property>
  <property name="set.test_audio">0</property>
  <property name="set.test_image">1</property>
 </producer>
 <producer id="producer196" in="00:00:00.000" out="00:02:04.640">
  <property name="length">3117</property>
  <property name="eof">pause</property>
  <property name="resource">vid_files/0_clips/2021-08-17 08-20-27.mp4</property>
  <property name="audio_index">1</property>
  <property name="video_index">0</property>
  <property name="mute_on_pause">0</property>
  <property name="mlt_service">avformat-novalidate</property>
  <property name="seekable">1</property>
  <property name="aspect_ratio">1</property>
  <property name="kdenlive:clipname"/>
  <property name="kdenlive:folderid">-1</property>
  <property name="kdenlive:id">55</property>
  <property name="kdenlive:file_size">14112247</property>
  <property name="kdenlive:file_hash">27edcc9c284e39ce24fe50122442948c</property>
  <property name="kdenlive:audio_max">16</property>
  <property name="global_feed">1</property>
  <property name="xml">was here</property>
  <property name="meta.media.nb_streams">2</property>
  <property name="meta.media.0.stream.type">video</property>
  <property name="meta.media.0.stream.frame_rate">30</property>
  <property name="meta.media.0.stream.sample_aspect_ratio">0</property>
  <property name="meta.media.0.codec.width">1280</property>
  <property name="meta.media.0.codec.height">720</property>
  <property name="meta.media.0.codec.rotate">0</property>
  <property name="meta.media.0.codec.frame_rate">30</property>
  <property name="meta.media.0.codec.pix_fmt">yuv420p</property>
  <property name="meta.media.0.codec.sample_aspect_ratio">1</property>
  <property name="meta.media.0.codec.colorspace">709</property>
  <property name="meta.media.0.codec.color_trc">1</property>
  <property name="meta.media.0.codec.name">h264</property>
  <property name="meta.media.0.codec.long_name">H.264 / AVC / MPEG-4 AVC / MPEG-4 part 10</property>
  <property name="meta.media.0.codec.bit_rate">704748</property>
  <property name="meta.attr.0.stream.handler_name.markup">VideoHandler</property>
  <property name="meta.media.1.stream.type">audio</property>
  <property name="meta.media.1.codec.sample_fmt">fltp</property>
  <property name="meta.media.1.codec.sample_rate">48000</property>
  <property name="meta.media.1.codec.channels">2</property>
  <property name="meta.media.1.codec.name">aac</property>
  <property name="meta.media.1.codec.long_name">AAC (Advanced Audio Coding)</property>
  <property name="meta.media.1.codec.bit_rate">192076</property>
  <property name="meta.attr.1.stream.handler_name.markup">SoundHandler</property>
  <property name="meta.attr.major_brand.markup">isom</property>
  <property name="meta.attr.minor_version.markup">512</property>
  <property name="meta.attr.compatible_brands.markup">isomiso2avc1mp41</property>
  <property name="meta.attr.encoder.markup">Lavf58.29.100</property>
  <property name="meta.media.sample_aspect_num">1</property>
  <property name="meta.media.sample_aspect_den">1</property>
  <property name="meta.media.frame_rate_num">30</property>
  <property name="meta.media.frame_rate_den">1</property>
  <property name="meta.media.colorspace">709</property>
  <property name="meta.media.color_trc">1</property>
  <property name="meta.media.width">1280</property>
  <property name="meta.media.height">720</property>
  <property name="meta.media.color_range">mpeg</property>
  <property name="set.test_audio">0</property>
  <property name="set.test_image">1</property>
 </producer>
 <producer id="producer197" in="00:00:00.000" out="00:00:39.880">
  <property name="length">998</property>
  <property name="eof">pause</property>
  <property name="resource">vid_files/0_clips/2021-08-18 11-27-02.mp4</property>
  <property name="audio_index">1</property>
  <property name="video_index">0</property>
  <property name="mute_on_pause">0</property>
  <property name="mlt_service">avformat-novalidate</property>
  <property name="seekable">1</property>
  <property name="aspect_ratio">1</property>
  <property name="kdenlive:clipname"/>
  <property name="kdenlive:folderid">-1</property>
  <property name="kdenlive:id">102</property>
  <property name="kdenlive:file_size">4703601</property>
  <property name="kdenlive:file_hash">465ad0dc4efc5d44b32f32682f0da77b</property>
  <property name="kdenlive:audio_max">18</property>
  <property name="global_feed">1</property>
  <property name="xml">was here</property>
  <property name="meta.media.nb_streams">2</property>
  <property name="meta.media.0.stream.type">video</property>
  <property name="meta.media.0.stream.frame_rate">30</property>
  <property name="meta.media.0.stream.sample_aspect_ratio">0</property>
  <property name="meta.media.0.codec.width">1280</property>
  <property name="meta.media.0.codec.height">720</property>
  <property name="meta.media.0.codec.rotate">0</property>
  <property name="meta.media.0.codec.frame_rate">30</property>
  <property name="meta.media.0.codec.pix_fmt">yuv420p</property>
  <property name="meta.media.0.codec.sample_aspect_ratio">1</property>
  <property name="meta.media.0.codec.colorspace">709</property>
  <property name="meta.media.0.codec.color_trc">1</property>
  <property name="meta.media.0.codec.name">h264</property>
  <property name="meta.media.0.codec.long_name">H.264 / AVC / MPEG-4 AVC / MPEG-4 part 10</property>
  <property name="meta.media.0.codec.bit_rate">742093</property>
  <property name="meta.attr.0.stream.handler_name.markup">VideoHandler</property>
  <property name="meta.media.1.stream.type">audio</property>
  <property name="meta.media.1.codec.sample_fmt">fltp</property>
  <property name="meta.media.1.codec.sample_rate">48000</property>
  <property name="meta.media.1.codec.channels">2</property>
  <property name="meta.media.1.codec.name">aac</property>
  <property name="meta.media.1.codec.long_name">AAC (Advanced Audio Coding)</property>
  <property name="meta.media.1.codec.bit_rate">192243</property>
  <property name="meta.attr.1.stream.handler_name.markup">SoundHandler</property>
  <property name="meta.attr.major_brand.markup">isom</property>
  <property name="meta.attr.minor_version.markup">512</property>
  <property name="meta.attr.compatible_brands.markup">isomiso2avc1mp41</property>
  <property name="meta.attr.encoder.markup">Lavf58.29.100</property>
  <property name="meta.media.sample_aspect_num">1</property>
  <property name="meta.media.sample_aspect_den">1</property>
  <property name="meta.media.frame_rate_num">30</property>
  <property name="meta.media.frame_rate_den">1</property>
  <property name="meta.media.colorspace">709</property>
  <property name="meta.media.color_trc">1</property>
  <property name="meta.media.width">1280</property>
  <property name="meta.media.height">720</property>
  <property name="meta.media.color_range">mpeg</property>
  <property name="set.test_audio">0</property>
  <property name="set.test_image">1</property>
 </producer>
 <producer id="producer198" in="00:00:00.000" out="00:00:24.200">
  <property name="length">606</property>
  <property name="eof">pause</property>
  <property name="resource">vid_files/0_clips/2021-08-18 21-04-11.mp4</property>
  <property name="audio_index">1</property>
  <property name="video_index">0</property>
  <property name="mute_on_pause">0</property>
  <property name="mlt_service">avformat-novalidate</property>
  <property name="seekable">1</property>
  <property name="aspect_ratio">1</property>
  <property name="kdenlive:clipname"/>
  <property name="kdenlive:folderid">-1</property>
  <property name="kdenlive:id">136</property>
  <property name="kdenlive:file_size">4194386</property>
  <property name="kdenlive:file_hash">3f4609641954d55ec802c01388929f2c</property>
  <property name="kdenlive:audio_max">18</property>
  <property name="global_feed">1</property>
  <property name="xml">was here</property>
  <property name="meta.media.nb_streams">2</property>
  <property name="meta.media.0.stream.type">video</property>
  <property name="meta.media.0.stream.frame_rate">30</property>
  <property name="meta.media.0.stream.sample_aspect_ratio">0</property>
  <property name="meta.media.0.codec.width">1280</property>
  <property name="meta.media.0.codec.height">720</property>
  <property name="meta.media.0.codec.rotate">0</property>
  <property name="meta.media.0.codec.frame_rate">30</property>
  <property name="meta.media.0.codec.pix_fmt">yuv420p</property>
  <property name="meta.media.0.codec.sample_aspect_ratio">1</property>
  <property name="meta.media.0.codec.colorspace">709</property>
  <property name="meta.media.0.codec.color_trc">1</property>
  <property name="meta.media.0.codec.name">h264</property>
  <property name="meta.media.0.codec.long_name">H.264 / AVC / MPEG-4 AVC / MPEG-4 part 10</property>
  <property name="meta.media.0.codec.bit_rate">1183673</property>
  <property name="meta.attr.0.stream.handler_name.markup">VideoHandler</property>
  <property name="meta.media.1.stream.type">audio</property>
  <property name="meta.media.1.codec.sample_fmt">fltp</property>
  <property name="meta.media.1.codec.sample_rate">48000</property>
  <property name="meta.media.1.codec.channels">2</property>
  <property name="meta.media.1.codec.name">aac</property>
  <property name="meta.media.1.codec.long_name">AAC (Advanced Audio Coding)</property>
  <property name="meta.media.1.codec.bit_rate">192400</property>
  <property name="meta.attr.1.stream.handler_name.markup">SoundHandler</property>
  <property name="meta.attr.major_brand.markup">isom</property>
  <property name="meta.attr.minor_version.markup">512</property>
  <property name="meta.attr.compatible_brands.markup">isomiso2avc1mp41</property>
  <property name="meta.attr.encoder.markup">Lavf58.29.100</property>
  <property name="meta.media.sample_aspect_num">1</property>
  <property name="meta.media.sample_aspect_den">1</property>
  <property name="meta.media.frame_rate_num">30</property>
  <property name="meta.media.frame_rate_den">1</property>
  <property name="meta.media.colorspace">709</property>
  <property name="meta.media.color_trc">1</property>
  <property name="meta.media.width">1280</property>
  <property name="meta.media.height">720</property>
  <property name="meta.media.color_range">mpeg</property>
  <property name="meta.media.top_field_first">0</property>
  <property name="meta.media.progressive">1</property>
  <property name="set.test_audio">0</property>
  <property name="set.test_image">1</property>
 </producer>
 <producer id="producer199" in="00:00:00.000" out="00:00:09.480">
  <property name="length">238</property>
  <property name="eof">pause</property>
  <property name="resource">vid_files/0_clips/2021-08-19 20-55-27.mp4</property>
  <property name="audio_index">1</property>
  <property name="video_index">0</property>
  <property name="mute_on_pause">0</property>
  <property name="mlt_service">avformat-novalidate</property>
  <property name="seekable">1</property>
  <property name="aspect_ratio">1</property>
  <property name="kdenlive:clipname"/>
  <property name="kdenlive:folderid">-1</property>
  <property name="kdenlive:id">166</property>
  <property name="kdenlive:file_size">1522957</property>
  <property name="kdenlive:file_hash">d468556f5de4b3a2a528045768969f0c</property>
  <property name="kdenlive:audio_max">17</property>
  <property name="global_feed">1</property>
  <property name="xml">was here</property>
  <property name="meta.media.nb_streams">2</property>
  <property name="meta.media.0.stream.type">video</property>
  <property name="meta.media.0.stream.frame_rate">30</property>
  <property name="meta.media.0.stream.sample_aspect_ratio">0</property>
  <property name="meta.media.0.codec.width">1280</property>
  <property name="meta.media.0.codec.height">720</property>
  <property name="meta.media.0.codec.rotate">0</property>
  <property name="meta.media.0.codec.frame_rate">30</property>
  <property name="meta.media.0.codec.pix_fmt">yuv420p</property>
  <property name="meta.media.0.codec.sample_aspect_ratio">1</property>
  <property name="meta.media.0.codec.colorspace">709</property>
  <property name="meta.media.0.codec.color_trc">1</property>
  <property name="meta.media.0.codec.name">h264</property>
  <property name="meta.media.0.codec.long_name">H.264 / AVC / MPEG-4 AVC / MPEG-4 part 10</property>
  <property name="meta.media.0.codec.bit_rate">1080968</property>
  <property name="meta.attr.0.stream.handler_name.markup">VideoHandler</property>
  <property name="meta.media.1.stream.type">audio</property>
  <property name="meta.media.1.codec.sample_fmt">fltp</property>
  <property name="meta.media.1.codec.sample_rate">48000</property>
  <property name="meta.media.1.codec.channels">2</property>
  <property name="meta.media.1.codec.name">aac</property>
  <property name="meta.media.1.codec.long_name">AAC (Advanced Audio Coding)</property>
  <property name="meta.media.1.codec.bit_rate">192997</property>
  <property name="meta.attr.1.stream.handler_name.markup">SoundHandler</property>
  <property name="meta.attr.major_brand.markup">isom</property>
  <property name="meta.attr.minor_version.markup">512</property>
  <property name="meta.attr.compatible_brands.markup">isomiso2avc1mp41</property>
  <property name="meta.attr.encoder.markup">Lavf58.29.100</property>
  <property name="meta.media.sample_aspect_num">1</property>
  <property name="meta.media.sample_aspect_den">1</property>
  <property name="meta.media.frame_rate_num">30</property>
  <property name="meta.media.frame_rate_den">1</property>
  <property name="meta.media.colorspace">709</property>
  <property name="meta.media.color_trc">1</property>
  <property name="meta.media.width">1280</property>
  <property name="meta.media.height">720</property>
  <property name="meta.media.color_range">mpeg</property>
  <property name="set.test_audio">0</property>
  <property name="set.test_image">1</property>
 </producer>
 <producer id="producer200" in="00:00:00.000" out="00:00:07.200">
  <property name="length">181</property>
  <property name="eof">pause</property>
  <property name="resource">vid_files/0_clips/2021-08-19 20-55-49.mp4</property>
  <property name="audio_index">1</property>
  <property name="video_index">0</property>
  <property name="mute_on_pause">0</property>
  <property name="mlt_service">avformat-novalidate</property>
  <property name="seekable">1</property>
  <property name="aspect_ratio">1</property>
  <property name="kdenlive:clipname"/>
  <property name="kdenlive:folderid">-1</property>
  <property name="kdenlive:id">168</property>
  <property name="kdenlive:file_size">1181358</property>
  <property name="kdenlive:file_hash">38bc7e749b5b6f6ed1a531b98d979642</property>
  <property name="kdenlive:audio_max">17</property>
  <property name="global_feed">1</property>
  <property name="xml">was here</property>
  <property name="meta.media.nb_streams">2</property>
  <property name="meta.media.0.stream.type">video</property>
  <property name="meta.media.0.stream.frame_rate">30</property>
  <property name="meta.media.0.stream.sample_aspect_ratio">0</property>
  <property name="meta.media.0.codec.width">1280</property>
  <property name="meta.media.0.codec.height">720</property>
  <property name="meta.media.0.codec.rotate">0</property>
  <property name="meta.media.0.codec.frame_rate">30</property>
  <property name="meta.media.0.codec.pix_fmt">yuv420p</property>
  <property name="meta.media.0.codec.sample_aspect_ratio">1</property>
  <property name="meta.media.0.codec.colorspace">709</property>
  <property name="meta.media.0.codec.color_trc">1</property>
  <property name="meta.media.0.codec.name">h264</property>
  <property name="meta.media.0.codec.long_name">H.264 / AVC / MPEG-4 AVC / MPEG-4 part 10</property>
  <property name="meta.media.0.codec.bit_rate">1105287</property>
  <property name="meta.attr.0.stream.handler_name.markup">VideoHandler</property>
  <property name="meta.media.1.stream.type">audio</property>
  <property name="meta.media.1.codec.sample_fmt">fltp</property>
  <property name="meta.media.1.codec.sample_rate">48000</property>
  <property name="meta.media.1.codec.channels">2</property>
  <property name="meta.media.1.codec.name">aac</property>
  <property name="meta.media.1.codec.long_name">AAC (Advanced Audio Coding)</property>
  <property name="meta.media.1.codec.bit_rate">193306</property>
  <property name="meta.attr.1.stream.handler_name.markup">SoundHandler</property>
  <property name="meta.attr.major_brand.markup">isom</property>
  <property name="meta.attr.minor_version.markup">512</property>
  <property name="meta.attr.compatible_brands.markup">isomiso2avc1mp41</property>
  <property name="meta.attr.encoder.markup">Lavf58.29.100</property>
  <property name="meta.media.sample_aspect_num">1</property>
  <property name="meta.media.sample_aspect_den">1</property>
  <property name="meta.media.frame_rate_num">30</property>
  <property name="meta.media.frame_rate_den">1</property>
  <property name="meta.media.colorspace">709</property>
  <property name="meta.media.color_trc">1</property>
  <property name="meta.media.width">1280</property>
  <property name="meta.media.height">720</property>
  <property name="meta.media.color_range">mpeg</property>
  <property name="set.test_audio">0</property>
  <property name="set.test_image">1</property>
 </producer>
 <producer id="producer201" in="00:00:00.000" out="00:02:05.520">
  <property name="length">3139</property>
  <property name="eof">pause</property>
  <property name="resource">vid_files/0_clips/2021-08-17 08-28-14.mp4</property>
  <property name="audio_index">1</property>
  <property name="video_index">0</property>
  <property name="mute_on_pause">0</property>
  <property name="mlt_service">avformat-novalidate</property>
  <property name="seekable">1</property>
  <property name="aspect_ratio">1</property>
  <property name="kdenlive:clipname"/>
  <property name="kdenlive:folderid">-1</property>
  <property name="kdenlive:id">61</property>
  <property name="kdenlive:file_size">16028020</property>
  <property name="kdenlive:file_hash">92ddf2d69e7f4c3137262eda6a174c75</property>
  <property name="kdenlive:audio_max">14</property>
  <property name="global_feed">1</property>
  <property name="xml">was here</property>
  <property name="meta.media.nb_streams">2</property>
  <property name="meta.media.0.stream.type">video</property>
  <property name="meta.media.0.stream.frame_rate">30</property>
  <property name="meta.media.0.stream.sample_aspect_ratio">0</property>
  <property name="meta.media.0.codec.width">1280</property>
  <property name="meta.media.0.codec.height">720</property>
  <property name="meta.media.0.codec.rotate">0</property>
  <property name="meta.media.0.codec.frame_rate">30</property>
  <property name="meta.media.0.codec.pix_fmt">yuv420p</property>
  <property name="meta.media.0.codec.sample_aspect_ratio">1</property>
  <property name="meta.media.0.codec.colorspace">709</property>
  <property name="meta.media.0.codec.color_trc">1</property>
  <property name="meta.media.0.codec.name">h264</property>
  <property name="meta.media.0.codec.long_name">H.264 / AVC / MPEG-4 AVC / MPEG-4 part 10</property>
  <property name="meta.media.0.codec.bit_rate">820320</property>
  <property name="meta.attr.0.stream.handler_name.markup">VideoHandler</property>
  <property name="meta.media.1.stream.type">audio</property>
  <property name="meta.media.1.codec.sample_fmt">fltp</property>
  <property name="meta.media.1.codec.sample_rate">48000</property>
  <property name="meta.media.1.codec.channels">2</property>
  <property name="meta.media.1.codec.name">aac</property>
  <property name="meta.media.1.codec.long_name">AAC (Advanced Audio Coding)</property>
  <property name="meta.media.1.codec.bit_rate">192078</property>
  <property name="meta.attr.1.stream.handler_name.markup">SoundHandler</property>
  <property name="meta.attr.major_brand.markup">isom</property>
  <property name="meta.attr.minor_version.markup">512</property>
  <property name="meta.attr.compatible_brands.markup">isomiso2avc1mp41</property>
  <property name="meta.attr.encoder.markup">Lavf58.29.100</property>
  <property name="meta.media.sample_aspect_num">1</property>
  <property name="meta.media.sample_aspect_den">1</property>
  <property name="meta.media.frame_rate_num">30</property>
  <property name="meta.media.frame_rate_den">1</property>
  <property name="meta.media.colorspace">709</property>
  <property name="meta.media.color_trc">1</property>
  <property name="meta.media.width">1280</property>
  <property name="meta.media.height">720</property>
  <property name="meta.media.color_range">mpeg</property>
  <property name="set.test_audio">0</property>
  <property name="set.test_image">1</property>
 </producer>
 <producer id="producer202" in="00:00:00.000" out="00:00:19.600">
  <property name="length">491</property>
  <property name="eof">pause</property>
  <property name="resource">vid_files/0_clips/2021-08-17 08-24-49.mp4</property>
  <property name="audio_index">1</property>
  <property name="video_index">0</property>
  <property name="mute_on_pause">0</property>
  <property name="mlt_service">avformat-novalidate</property>
  <property name="seekable">1</property>
  <property name="aspect_ratio">1</property>
  <property name="kdenlive:clipname"/>
  <property name="kdenlive:folderid">-1</property>
  <property name="kdenlive:id">58</property>
  <property name="kdenlive:file_size">3298283</property>
  <property name="kdenlive:file_hash">c414307c0f39991ab61a8c7121e39c3d</property>
  <property name="kdenlive:audio_max">19</property>
  <property name="global_feed">1</property>
  <property name="xml">was here</property>
  <property name="meta.media.nb_streams">2</property>
  <property name="meta.media.0.stream.type">video</property>
  <property name="meta.media.0.stream.frame_rate">30</property>
  <property name="meta.media.0.stream.sample_aspect_ratio">0</property>
  <property name="meta.media.0.codec.width">1280</property>
  <property name="meta.media.0.codec.height">720</property>
  <property name="meta.media.0.codec.rotate">0</property>
  <property name="meta.media.0.codec.frame_rate">30</property>
  <property name="meta.media.0.codec.pix_fmt">yuv420p</property>
  <property name="meta.media.0.codec.sample_aspect_ratio">1</property>
  <property name="meta.media.0.codec.colorspace">709</property>
  <property name="meta.media.0.codec.color_trc">1</property>
  <property name="meta.media.0.codec.name">h264</property>
  <property name="meta.media.0.codec.long_name">H.264 / AVC / MPEG-4 AVC / MPEG-4 part 10</property>
  <property name="meta.media.0.codec.bit_rate">1142813</property>
  <property name="meta.attr.0.stream.handler_name.markup">VideoHandler</property>
  <property name="meta.media.1.stream.type">audio</property>
  <property name="meta.media.1.codec.sample_fmt">fltp</property>
  <property name="meta.media.1.codec.sample_rate">48000</property>
  <property name="meta.media.1.codec.channels">2</property>
  <property name="meta.media.1.codec.name">aac</property>
  <property name="meta.media.1.codec.long_name">AAC (Advanced Audio Coding)</property>
  <property name="meta.media.1.codec.bit_rate">192475</property>
  <property name="meta.attr.1.stream.handler_name.markup">SoundHandler</property>
  <property name="meta.attr.major_brand.markup">isom</property>
  <property name="meta.attr.minor_version.markup">512</property>
  <property name="meta.attr.compatible_brands.markup">isomiso2avc1mp41</property>
  <property name="meta.attr.encoder.markup">Lavf58.29.100</property>
  <property name="meta.media.sample_aspect_num">1</property>
  <property name="meta.media.sample_aspect_den">1</property>
  <property name="meta.media.frame_rate_num">30</property>
  <property name="meta.media.frame_rate_den">1</property>
  <property name="meta.media.colorspace">709</property>
  <property name="meta.media.color_trc">1</property>
  <property name="meta.media.width">1280</property>
  <property name="meta.media.height">720</property>
  <property name="meta.media.color_range">mpeg</property>
  <property name="set.test_audio">0</property>
  <property name="set.test_image">1</property>
 </producer>
 <producer id="producer203" in="00:00:00.000" out="00:00:21.480">
  <property name="length">538</property>
  <property name="eof">pause</property>
  <property name="resource">vid_files/0_clips/2021-08-17 08-25-38.mp4</property>
  <property name="audio_index">1</property>
  <property name="video_index">0</property>
  <property name="mute_on_pause">0</property>
  <property name="mlt_service">avformat-novalidate</property>
  <property name="seekable">1</property>
  <property name="aspect_ratio">1</property>
  <property name="kdenlive:clipname"/>
  <property name="kdenlive:folderid">-1</property>
  <property name="kdenlive:id">59</property>
  <property name="kdenlive:file_size">3866140</property>
  <property name="kdenlive:file_hash">7bbcea7890c9724c0370dde35d47b921</property>
  <property name="kdenlive:audio_max">20</property>
  <property name="global_feed">1</property>
  <property name="xml">was here</property>
  <property name="meta.media.nb_streams">2</property>
  <property name="meta.media.0.stream.type">video</property>
  <property name="meta.media.0.stream.frame_rate">30</property>
  <property name="meta.media.0.stream.sample_aspect_ratio">0</property>
  <property name="meta.media.0.codec.width">1280</property>
  <property name="meta.media.0.codec.height">720</property>
  <property name="meta.media.0.codec.rotate">0</property>
  <property name="meta.media.0.codec.frame_rate">30</property>
  <property name="meta.media.0.codec.pix_fmt">yuv420p</property>
  <property name="meta.media.0.codec.sample_aspect_ratio">1</property>
  <property name="meta.media.0.codec.colorspace">709</property>
  <property name="meta.media.0.codec.color_trc">1</property>
  <property name="meta.media.0.codec.name">h264</property>
  <property name="meta.media.0.codec.long_name">H.264 / AVC / MPEG-4 AVC / MPEG-4 part 10</property>
  <property name="meta.media.0.codec.bit_rate">1237529</property>
  <property name="meta.attr.0.stream.handler_name.markup">VideoHandler</property>
  <property name="meta.media.1.stream.type">audio</property>
  <property name="meta.media.1.codec.sample_fmt">fltp</property>
  <property name="meta.media.1.codec.sample_rate">48000</property>
  <property name="meta.media.1.codec.channels">2</property>
  <property name="meta.media.1.codec.name">aac</property>
  <property name="meta.media.1.codec.long_name">AAC (Advanced Audio Coding)</property>
  <property name="meta.media.1.codec.bit_rate">192445</property>
  <property name="meta.attr.1.stream.handler_name.markup">SoundHandler</property>
  <property name="meta.attr.major_brand.markup">isom</property>
  <property name="meta.attr.minor_version.markup">512</property>
  <property name="meta.attr.compatible_brands.markup">isomiso2avc1mp41</property>
  <property name="meta.attr.encoder.markup">Lavf58.29.100</property>
  <property name="meta.media.sample_aspect_num">1</property>
  <property name="meta.media.sample_aspect_den">1</property>
  <property name="meta.media.frame_rate_num">30</property>
  <property name="meta.media.frame_rate_den">1</property>
  <property name="meta.media.colorspace">709</property>
  <property name="meta.media.color_trc">1</property>
  <property name="meta.media.width">1280</property>
  <property name="meta.media.height">720</property>
  <property name="meta.media.color_range">mpeg</property>
  <property name="set.test_audio">0</property>
  <property name="set.test_image">1</property>
 </producer>
 <producer id="producer204" in="00:00:00.000" out="00:00:04.080">
  <property name="length">103</property>
  <property name="eof">pause</property>
  <property name="resource">vid_files/0_clips/2021-08-17 08-27-52.mp4</property>
  <property name="audio_index">1</property>
  <property name="video_index">0</property>
  <property name="mute_on_pause">0</property>
  <property name="mlt_service">avformat-novalidate</property>
  <property name="seekable">1</property>
  <property name="aspect_ratio">1</property>
  <property name="kdenlive:clipname"/>
  <property name="kdenlive:folderid">-1</property>
  <property name="kdenlive:id">60</property>
  <property name="kdenlive:file_size">657785</property>
  <property name="kdenlive:file_hash">420d05b6e49c79bc0b04e21e9a49f41f</property>
  <property name="kdenlive:audio_max">27</property>
  <property name="global_feed">1</property>
  <property name="xml">was here</property>
  <property name="meta.media.nb_streams">2</property>
  <property name="meta.media.0.stream.type">video</property>
  <property name="meta.media.0.stream.frame_rate">30</property>
  <property name="meta.media.0.stream.sample_aspect_ratio">0</property>
  <property name="meta.media.0.codec.width">1280</property>
  <property name="meta.media.0.codec.height">720</property>
  <property name="meta.media.0.codec.rotate">0</property>
  <property name="meta.media.0.codec.frame_rate">30</property>
  <property name="meta.media.0.codec.pix_fmt">yuv420p</property>
  <property name="meta.media.0.codec.sample_aspect_ratio">1</property>
  <property name="meta.media.0.codec.colorspace">709</property>
  <property name="meta.media.0.codec.color_trc">1</property>
  <property name="meta.media.0.codec.name">h264</property>
  <property name="meta.media.0.codec.long_name">H.264 / AVC / MPEG-4 AVC / MPEG-4 part 10</property>
  <property name="meta.media.0.codec.bit_rate">1072401</property>
  <property name="meta.attr.0.stream.handler_name.markup">VideoHandler</property>
  <property name="meta.media.1.stream.type">audio</property>
  <property name="meta.media.1.codec.sample_fmt">fltp</property>
  <property name="meta.media.1.codec.sample_rate">48000</property>
  <property name="meta.media.1.codec.channels">2</property>
  <property name="meta.media.1.codec.name">aac</property>
  <property name="meta.media.1.codec.long_name">AAC (Advanced Audio Coding)</property>
  <property name="meta.media.1.codec.bit_rate">193026</property>
  <property name="meta.attr.1.stream.handler_name.markup">SoundHandler</property>
  <property name="meta.attr.major_brand.markup">isom</property>
  <property name="meta.attr.minor_version.markup">512</property>
  <property name="meta.attr.compatible_brands.markup">isomiso2avc1mp41</property>
  <property name="meta.attr.encoder.markup">Lavf58.29.100</property>
  <property name="meta.media.sample_aspect_num">1</property>
  <property name="meta.media.sample_aspect_den">1</property>
  <property name="meta.media.frame_rate_num">30</property>
  <property name="meta.media.frame_rate_den">1</property>
  <property name="meta.media.colorspace">709</property>
  <property name="meta.media.color_trc">1</property>
  <property name="meta.media.width">1280</property>
  <property name="meta.media.height">720</property>
  <property name="meta.media.color_range">mpeg</property>
  <property name="set.test_audio">0</property>
  <property name="set.test_image">1</property>
 </producer>
 <producer id="producer205" in="00:00:00.000" out="00:00:39.040">
  <property name="length">977</property>
  <property name="eof">pause</property>
  <property name="resource">vid_files/0_clips/2021-08-17 08-30-29.mp4</property>
  <property name="audio_index">1</property>
  <property name="video_index">0</property>
  <property name="mute_on_pause">0</property>
  <property name="mlt_service">avformat-novalidate</property>
  <property name="seekable">1</property>
  <property name="aspect_ratio">1</property>
  <property name="kdenlive:clipname"/>
  <property name="kdenlive:folderid">-1</property>
  <property name="kdenlive:id">62</property>
  <property name="kdenlive:file_size">4953025</property>
  <property name="kdenlive:file_hash">777cba7b7b166918c079da572d242563</property>
  <property name="kdenlive:audio_max">16</property>
  <property name="global_feed">1</property>
  <property name="xml">was here</property>
  <property name="meta.media.nb_streams">2</property>
  <property name="meta.media.0.stream.type">video</property>
  <property name="meta.media.0.stream.frame_rate">30</property>
  <property name="meta.media.0.stream.sample_aspect_ratio">0</property>
  <property name="meta.media.0.codec.width">1280</property>
  <property name="meta.media.0.codec.height">720</property>
  <property name="meta.media.0.codec.rotate">0</property>
  <property name="meta.media.0.codec.frame_rate">30</property>
  <property name="meta.media.0.codec.pix_fmt">yuv420p</property>
  <property name="meta.media.0.codec.sample_aspect_ratio">1</property>
  <property name="meta.media.0.codec.colorspace">709</property>
  <property name="meta.media.0.codec.color_trc">1</property>
  <property name="meta.media.0.codec.name">h264</property>
  <property name="meta.media.0.codec.long_name">H.264 / AVC / MPEG-4 AVC / MPEG-4 part 10</property>
  <property name="meta.media.0.codec.bit_rate">813305</property>
  <property name="meta.attr.0.stream.handler_name.markup">VideoHandler</property>
  <property name="meta.media.1.stream.type">audio</property>
  <property name="meta.media.1.codec.sample_fmt">fltp</property>
  <property name="meta.media.1.codec.sample_rate">48000</property>
  <property name="meta.media.1.codec.channels">2</property>
  <property name="meta.media.1.codec.name">aac</property>
  <property name="meta.media.1.codec.long_name">AAC (Advanced Audio Coding)</property>
  <property name="meta.media.1.codec.bit_rate">192231</property>
  <property name="meta.attr.1.stream.handler_name.markup">SoundHandler</property>
  <property name="meta.attr.major_brand.markup">isom</property>
  <property name="meta.attr.minor_version.markup">512</property>
  <property name="meta.attr.compatible_brands.markup">isomiso2avc1mp41</property>
  <property name="meta.attr.encoder.markup">Lavf58.29.100</property>
  <property name="meta.media.sample_aspect_num">1</property>
  <property name="meta.media.sample_aspect_den">1</property>
  <property name="meta.media.frame_rate_num">30</property>
  <property name="meta.media.frame_rate_den">1</property>
  <property name="meta.media.colorspace">709</property>
  <property name="meta.media.color_trc">1</property>
  <property name="meta.media.width">1280</property>
  <property name="meta.media.height">720</property>
  <property name="meta.media.color_range">mpeg</property>
  <property name="set.test_audio">0</property>
  <property name="set.test_image">1</property>
 </producer>
 <producer id="producer206" in="00:00:00.000" out="00:00:08.440">
  <property name="length">212</property>
  <property name="eof">pause</property>
  <property name="resource">vid_files/0_clips/2021-08-19 20-51-22.mp4</property>
  <property name="audio_index">1</property>
  <property name="video_index">0</property>
  <property name="mute_on_pause">0</property>
  <property name="mlt_service">avformat-novalidate</property>
  <property name="seekable">1</property>
  <property name="aspect_ratio">1</property>
  <property name="kdenlive:clipname"/>
  <property name="kdenlive:folderid">-1</property>
  <property name="kdenlive:id">161</property>
  <property name="kdenlive:file_size">1416095</property>
  <property name="kdenlive:file_hash">096868b1ca46a29fd30296a0cf978465</property>
  <property name="kdenlive:audio_max">6</property>
  <property name="global_feed">1</property>
  <property name="xml">was here</property>
  <property name="meta.media.nb_streams">2</property>
  <property name="meta.media.0.stream.type">video</property>
  <property name="meta.media.0.stream.frame_rate">30</property>
  <property name="meta.media.0.stream.sample_aspect_ratio">0</property>
  <property name="meta.media.0.codec.width">1280</property>
  <property name="meta.media.0.codec.height">720</property>
  <property name="meta.media.0.codec.rotate">0</property>
  <property name="meta.media.0.codec.frame_rate">30</property>
  <property name="meta.media.0.codec.pix_fmt">yuv420p</property>
  <property name="meta.media.0.codec.sample_aspect_ratio">1</property>
  <property name="meta.media.0.codec.colorspace">709</property>
  <property name="meta.media.0.codec.color_trc">1</property>
  <property name="meta.media.0.codec.name">h264</property>
  <property name="meta.media.0.codec.long_name">H.264 / AVC / MPEG-4 AVC / MPEG-4 part 10</property>
  <property name="meta.media.0.codec.bit_rate">1136733</property>
  <property name="meta.attr.0.stream.handler_name.markup">VideoHandler</property>
  <property name="meta.media.1.stream.type">audio</property>
  <property name="meta.media.1.codec.sample_fmt">fltp</property>
  <property name="meta.media.1.codec.sample_rate">48000</property>
  <property name="meta.media.1.codec.channels">2</property>
  <property name="meta.media.1.codec.name">aac</property>
  <property name="meta.media.1.codec.long_name">AAC (Advanced Audio Coding)</property>
  <property name="meta.media.1.codec.bit_rate">193126</property>
  <property name="meta.attr.1.stream.handler_name.markup">SoundHandler</property>
  <property name="meta.attr.major_brand.markup">isom</property>
  <property name="meta.attr.minor_version.markup">512</property>
  <property name="meta.attr.compatible_brands.markup">isomiso2avc1mp41</property>
  <property name="meta.attr.encoder.markup">Lavf58.29.100</property>
  <property name="meta.media.sample_aspect_num">1</property>
  <property name="meta.media.sample_aspect_den">1</property>
  <property name="meta.media.frame_rate_num">30</property>
  <property name="meta.media.frame_rate_den">1</property>
  <property name="meta.media.colorspace">709</property>
  <property name="meta.media.color_trc">1</property>
  <property name="meta.media.width">1280</property>
  <property name="meta.media.height">720</property>
  <property name="meta.media.color_range">mpeg</property>
  <property name="meta.media.top_field_first">0</property>
  <property name="meta.media.progressive">1</property>
  <property name="set.test_audio">0</property>
  <property name="set.test_image">1</property>
 </producer>
 <producer id="producer207" in="00:00:00.000" out="00:01:19.160">
  <property name="length">1980</property>
  <property name="eof">pause</property>
  <property name="resource">vid_files/0_clips/2021-08-18 11-23-31.mp4</property>
  <property name="audio_index">1</property>
  <property name="video_index">0</property>
  <property name="mute_on_pause">0</property>
  <property name="mlt_service">avformat-novalidate</property>
  <property name="seekable">1</property>
  <property name="aspect_ratio">1</property>
  <property name="kdenlive:clipname"/>
  <property name="kdenlive:folderid">-1</property>
  <property name="kdenlive:id">97</property>
  <property name="kdenlive:file_size">8177313</property>
  <property name="kdenlive:file_hash">c4b488d99446f9688d3e1f283f2cff3c</property>
  <property name="kdenlive:audio_max">16</property>
  <property name="global_feed">1</property>
  <property name="xml">was here</property>
  <property name="meta.media.nb_streams">2</property>
  <property name="meta.media.0.stream.type">video</property>
  <property name="meta.media.0.stream.frame_rate">30</property>
  <property name="meta.media.0.stream.sample_aspect_ratio">0</property>
  <property name="meta.media.0.codec.width">1280</property>
  <property name="meta.media.0.codec.height">720</property>
  <property name="meta.media.0.codec.rotate">0</property>
  <property name="meta.media.0.codec.frame_rate">30</property>
  <property name="meta.media.0.codec.pix_fmt">yuv420p</property>
  <property name="meta.media.0.codec.sample_aspect_ratio">1</property>
  <property name="meta.media.0.codec.colorspace">709</property>
  <property name="meta.media.0.codec.color_trc">1</property>
  <property name="meta.media.0.codec.name">h264</property>
  <property name="meta.media.0.codec.long_name">H.264 / AVC / MPEG-4 AVC / MPEG-4 part 10</property>
  <property name="meta.media.0.codec.bit_rate">625100</property>
  <property name="meta.attr.0.stream.handler_name.markup">VideoHandler</property>
  <property name="meta.media.1.stream.type">audio</property>
  <property name="meta.media.1.codec.sample_fmt">fltp</property>
  <property name="meta.media.1.codec.sample_rate">48000</property>
  <property name="meta.media.1.codec.channels">2</property>
  <property name="meta.media.1.codec.name">aac</property>
  <property name="meta.media.1.codec.long_name">AAC (Advanced Audio Coding)</property>
  <property name="meta.media.1.codec.bit_rate">192122</property>
  <property name="meta.attr.1.stream.handler_name.markup">SoundHandler</property>
  <property name="meta.attr.major_brand.markup">isom</property>
  <property name="meta.attr.minor_version.markup">512</property>
  <property name="meta.attr.compatible_brands.markup">isomiso2avc1mp41</property>
  <property name="meta.attr.encoder.markup">Lavf58.29.100</property>
  <property name="meta.media.sample_aspect_num">1</property>
  <property name="meta.media.sample_aspect_den">1</property>
  <property name="meta.media.frame_rate_num">30</property>
  <property name="meta.media.frame_rate_den">1</property>
  <property name="meta.media.colorspace">709</property>
  <property name="meta.media.color_trc">1</property>
  <property name="meta.media.width">1280</property>
  <property name="meta.media.height">720</property>
  <property name="meta.media.color_range">mpeg</property>
  <property name="set.test_audio">0</property>
  <property name="set.test_image">1</property>
 </producer>
 <playlist id="playlist2">
  <property name="kdenlive:audio_track">1</property>
  <entry producer="producer169" in="00:00:02.080" out="00:00:05.120">
   <property name="kdenlive:id">13</property>
  </entry>
  <entry producer="producer171" in="00:00:11.280" out="00:00:19.760">
   <property name="kdenlive:id">15</property>
  </entry>
  <entry producer="producer171" in="00:00:33.760" out="00:00:34.840">
   <property name="kdenlive:id">15</property>
  </entry>
  <blank length="00:00:05.600"/>
  <entry producer="producer172" in="00:00:00.560" out="00:00:06.480">
   <property name="kdenlive:id">30</property>
  </entry>
  <entry producer="producer172" in="00:00:07.480" out="00:00:09.240">
   <property name="kdenlive:id">30</property>
  </entry>
  <entry producer="producer172" in="00:00:15.640" out="00:00:17.800">
   <property name="kdenlive:id">30</property>
  </entry>
  <entry producer="producer172" in="00:00:17.840" out="00:00:18.000">
   <property name="kdenlive:id">30</property>
  </entry>
  <entry producer="producer172" in="00:00:18.040" out="00:00:18.200">
   <property name="kdenlive:id">30</property>
  </entry>
  <entry producer="producer172" in="00:00:19.280" out="00:00:22.920">
   <property name="kdenlive:id">30</property>
  </entry>
  <entry producer="producer172" in="00:00:38.600" out="00:00:46.240">
   <property name="kdenlive:id">30</property>
  </entry>
  <entry producer="producer172" in="00:00:52.640" out="00:00:54.440">
   <property name="kdenlive:id">30</property>
  </entry>
  <entry producer="producer173" in="00:00:04.840" out="00:00:07.280">
   <property name="kdenlive:id">31</property>
  </entry>
  <entry producer="producer173" in="00:00:09.000" out="00:00:16.160">
   <property name="kdenlive:id">31</property>
  </entry>
  <entry producer="producer174" in="00:00:00.560" out="00:00:03.600">
   <property name="kdenlive:id">98</property>
  </entry>
  <entry producer="producer173" in="00:00:20.960" out="00:00:23.760">
   <property name="kdenlive:id">31</property>
  </entry>
  <entry producer="producer175" in="00:00:03.440" out="00:00:05.920">
   <property name="kdenlive:id">32</property>
  </entry>
  <entry producer="producer175" in="00:00:18.400" out="00:00:22.200">
   <property name="kdenlive:id">32</property>
  </entry>
  <entry producer="producer175" in="00:00:09.240" out="00:00:14.400">
   <property name="kdenlive:id">32</property>
  </entry>
  <entry producer="producer176" in="00:00:00.800" out="00:00:03.040">
   <property name="kdenlive:id">34</property>
  </entry>
  <entry producer="producer176" in="00:00:03.560" out="00:00:05.040">
   <property name="kdenlive:id">34</property>
  </entry>
  <entry producer="producer176" in="00:00:05.440" out="00:00:07.800">
   <property name="kdenlive:id">34</property>
  </entry>
  <entry producer="producer177" in="00:00:43.880" out="00:00:45.640">
   <property name="kdenlive:id">35</property>
  </entry>
  <entry producer="producer177" in="00:00:50.760" out="00:00:51.960">
   <property name="kdenlive:id">35</property>
  </entry>
  <entry producer="producer177" in="00:00:52.360" out="00:00:53.880">
   <property name="kdenlive:id">35</property>
  </entry>
  <entry producer="producer177" in="00:01:02.320" out="00:01:05.240">
   <property name="kdenlive:id">35</property>
  </entry>
  <entry producer="producer177" in="00:01:05.280" out="00:01:16.120">
   <property name="kdenlive:id">35</property>
  </entry>
  <entry producer="producer177" in="00:01:17.800" out="00:01:27.160">
   <property name="kdenlive:id">35</property>
  </entry>
  <entry producer="producer177" in="00:01:30.680" out="00:01:35.120">
   <property name="kdenlive:id">35</property>
  </entry>
  <entry producer="producer177" in="00:01:37.760" out="00:01:40.960">
   <property name="kdenlive:id">35</property>
  </entry>
  <entry producer="producer177" in="00:01:42.080" out="00:01:44.960">
   <property name="kdenlive:id">35</property>
  </entry>
  <entry producer="producer177" in="00:01:47.560" out="00:01:49.280">
   <property name="kdenlive:id">35</property>
  </entry>
  <entry producer="producer177" in="00:01:49.320" out="00:01:49.880">
   <property name="kdenlive:id">35</property>
  </entry>
  <entry producer="producer177" in="00:01:49.920" out="00:01:54.040">
   <property name="kdenlive:id">35</property>
  </entry>
  <entry producer="producer177" in="00:01:54.080" out="00:01:55.000">
   <property name="kdenlive:id">35</property>
  </entry>
  <entry producer="producer177" in="00:01:55.040" out="00:01:55.120">
   <property name="kdenlive:id">35</property>
  </entry>
  <entry producer="producer177" in="00:01:56.400" out="00:02:00.600">
   <property name="kdenlive:id">35</property>
  </entry>
  <entry producer="producer177" in="00:02:09.400" out="00:02:11.480">
   <property name="kdenlive:id">35</property>
  </entry>
  <entry producer="producer177" in="00:02:13.080" out="00:02:16.240">
   <property name="kdenlive:id">35</property>
  </entry>
  <entry producer="producer177" in="00:02:21.600" out="00:02:23.840">
   <property name="kdenlive:id">35</property>
  </entry>
  <entry producer="producer177" in="00:02:26.800" out="00:02:32.320">
   <property name="kdenlive:id">35</property>
  </entry>
  <entry producer="producer177" in="00:02:56.560" out="00:03:00.120">
   <property name="kdenlive:id">35</property>
  </entry>
  <entry producer="producer178" in="00:00:10.160" out="00:00:13.360">
   <property name="kdenlive:id">100</property>
  </entry>
  <entry producer="producer178" in="00:00:14.240" out="00:00:16.520">
   <property name="kdenlive:id">100</property>
  </entry>
  <entry producer="producer178" in="00:00:18.400" out="00:00:20.080">
   <property name="kdenlive:id">100</property>
  </entry>
  <entry producer="producer178" in="00:00:26.960" out="00:00:28.640">
   <property name="kdenlive:id">100</property>
  </entry>
  <entry producer="producer178" in="00:00:36.480" out="00:00:40.240">
   <property name="kdenlive:id">100</property>
  </entry>
  <entry producer="producer178" in="00:00:53.560" out="00:00:54.280">
   <property name="kdenlive:id">100</property>
  </entry>
  <entry producer="producer178" in="00:00:55.240" out="00:00:59.520">
   <property name="kdenlive:id">100</property>
  </entry>
  <entry producer="producer178" in="00:01:00.760" out="00:01:02.360">
   <property name="kdenlive:id">100</property>
  </entry>
  <entry producer="producer178" in="00:01:02.800" out="00:01:05.200">
   <property name="kdenlive:id">100</property>
  </entry>
  <entry producer="producer177" in="00:03:32.760" out="00:03:36.280">
   <property name="kdenlive:id">35</property>
  </entry>
  <entry producer="producer177" in="00:03:43.600" out="00:03:44.840">
   <property name="kdenlive:id">35</property>
  </entry>
  <blank length="00:00:03.680"/>
  <entry producer="producer179" in="00:00:10.160" out="00:00:14.080">
   <property name="kdenlive:id">36</property>
  </entry>
  <entry producer="producer179" in="00:00:14.120" out="00:00:16.400">
   <property name="kdenlive:id">36</property>
  </entry>
  <entry producer="producer179" in="00:00:21.120" out="00:00:25.320">
   <property name="kdenlive:id">36</property>
  </entry>
  <entry producer="producer180" in="00:00:00.640" out="00:00:02.960">
   <property name="kdenlive:id">37</property>
  </entry>
  <entry producer="producer180" in="00:00:04.960" out="00:00:08.440">
   <property name="kdenlive:id">37</property>
  </entry>
  <entry producer="producer180" in="00:00:09.080" out="00:00:13.400">
   <property name="kdenlive:id">37</property>
  </entry>
  <entry producer="producer180" in="00:00:14.600" out="00:00:20.440">
   <property name="kdenlive:id">37</property>
  </entry>
  <entry producer="producer180" in="00:00:28.640" out="00:00:32.960">
   <property name="kdenlive:id">37</property>
  </entry>
  <entry producer="producer180" in="00:00:37.880" out="00:00:40.360">
   <property name="kdenlive:id">37</property>
  </entry>
  <entry producer="producer181" in="00:00:00.360" out="00:00:04.000">
   <property name="kdenlive:id">38</property>
  </entry>
  <blank length="00:00:00.040"/>
  <entry producer="producer182" in="00:00:00.720" out="00:00:06.160">
   <property name="kdenlive:id">162</property>
  </entry>
  <entry producer="producer181" in="00:00:36.840" out="00:00:39.000">
   <property name="kdenlive:id">38</property>
  </entry>
  <entry producer="producer183" in="00:00:00.880" out="00:00:08.760">
   <property name="kdenlive:id">39</property>
  </entry>
  <entry producer="producer184" in="00:00:02.000" out="00:00:06.880">
   <property name="kdenlive:id">40</property>
  </entry>
  <entry producer="producer184" in="00:00:11.600" out="00:00:12.560">
   <property name="kdenlive:id">40</property>
  </entry>
  <entry producer="producer184" in="00:00:13.120" out="00:00:18.840">
   <property name="kdenlive:id">40</property>
  </entry>
  <entry producer="producer184" in="00:00:21.240" out="00:00:24.520">
   <property name="kdenlive:id">40</property>
  </entry>
  <entry producer="producer185" in="00:00:14.440" out="00:00:16.240">
   <property name="kdenlive:id">41</property>
  </entry>
  <entry producer="producer185" in="00:00:17.600" out="00:00:21.680">
   <property name="kdenlive:id">41</property>
  </entry>
  <entry producer="producer185" in="00:00:21.720" out="00:00:24.760">
   <property name="kdenlive:id">41</property>
  </entry>
  <entry producer="producer186" in="00:00:00.360" out="00:00:03.560">
   <property name="kdenlive:id">101</property>
  </entry>
  <entry producer="producer186" in="00:00:06.760" out="00:00:11.120">
   <property name="kdenlive:id">101</property>
  </entry>
  <entry producer="producer186" in="00:00:14.320" out="00:00:18.000">
   <property name="kdenlive:id">101</property>
  </entry>
  <entry producer="producer186" in="00:00:19.920" out="00:00:22.040">
   <property name="kdenlive:id">101</property>
  </entry>
  <entry producer="producer186" in="00:00:23.520" out="00:00:26.280">
   <property name="kdenlive:id">101</property>
  </entry>
  <blank length="00:00:04.560"/>
  <entry producer="producer187" in="00:00:24.680" out="00:00:31.840">
   <property name="kdenlive:id">42</property>
  </entry>
  <entry producer="producer187" in="00:00:32.720" out="00:00:36.680">
   <property name="kdenlive:id">42</property>
  </entry>
  <entry producer="producer187" in="00:00:40.480" out="00:00:45.280">
   <property name="kdenlive:id">42</property>
  </entry>
  <entry producer="producer187" in="00:00:46.240" out="00:00:48.520">
   <property name="kdenlive:id">42</property>
  </entry>
  <entry producer="producer188" in="00:00:00.000" out="00:00:03.760">
   <property name="kdenlive:id">52</property>
  </entry>
  <entry producer="producer188" in="00:00:04.520" out="00:00:05.360">
   <property name="kdenlive:id">52</property>
  </entry>
  <entry producer="producer189" in="00:00:03.040" out="00:00:06.120">
   <property name="kdenlive:id">132</property>
  </entry>
  <entry producer="producer189" in="00:00:06.560" out="00:00:08.120">
   <property name="kdenlive:id">132</property>
  </entry>
  <entry producer="producer189" in="00:00:10.440" out="00:00:14.840">
   <property name="kdenlive:id">132</property>
  </entry>
  <entry producer="producer190" in="00:00:01.520" out="00:00:03.440">
   <property name="kdenlive:id">133</property>
  </entry>
  <entry producer="producer191" in="00:00:31.720" out="00:00:32.960">
   <property name="kdenlive:id">43</property>
  </entry>
  <entry producer="producer192" in="00:00:00.520" out="00:00:05.440">
   <property name="kdenlive:id">51</property>
  </entry>
  <entry producer="producer193" in="00:00:16.120" out="00:00:22.640">
   <property name="kdenlive:id">53</property>
  </entry>
  <entry producer="producer193" in="00:00:23.440" out="00:00:25.680">
   <property name="kdenlive:id">53</property>
  </entry>
  <entry producer="producer194" in="00:00:05.400" out="00:00:10.440">
   <property name="kdenlive:id">54</property>
  </entry>
  <entry producer="producer194" in="00:00:10.840" out="00:00:11.640">
   <property name="kdenlive:id">54</property>
  </entry>
  <entry producer="producer195" in="00:00:06.920" out="00:00:09.600">
   <property name="kdenlive:id">134</property>
  </entry>
  <entry producer="producer196" in="00:00:00.000" out="00:00:04.720">
   <property name="kdenlive:id">55</property>
  </entry>
  <entry producer="producer196" in="00:00:20.520" out="00:00:21.960">
   <property name="kdenlive:id">55</property>
  </entry>
  <entry producer="producer196" in="00:00:22.400" out="00:00:26.920">
   <property name="kdenlive:id">55</property>
  </entry>
  <entry producer="producer196" in="00:00:38.800" out="00:00:41.960">
   <property name="kdenlive:id">55</property>
  </entry>
  <entry producer="producer196" in="00:00:48.600" out="00:00:50.440">
   <property name="kdenlive:id">55</property>
  </entry>
  <entry producer="producer196" in="00:00:53.880" out="00:00:57.800">
   <property name="kdenlive:id">55</property>
  </entry>
  <entry producer="producer196" in="00:01:02.760" out="00:01:06.680">
   <property name="kdenlive:id">55</property>
  </entry>
  <entry producer="producer196" in="00:01:11.560" out="00:01:13.920">
   <property name="kdenlive:id">55</property>
  </entry>
  <entry producer="producer196" in="00:01:31.720" out="00:01:35.240">
   <property name="kdenlive:id">55</property>
  </entry>
  <entry producer="producer196" in="00:01:37.520" out="00:01:40.040">
   <property name="kdenlive:id">55</property>
  </entry>
  <entry producer="producer196" in="00:01:40.960" out="00:01:44.680">
   <property name="kdenlive:id">55</property>
  </entry>
  <entry producer="producer196" in="00:01:48.720" out="00:01:50.760">
   <property name="kdenlive:id">55</property>
  </entry>
  <entry producer="producer196" in="00:01:53.240" out="00:01:55.640">
   <property name="kdenlive:id">55</property>
  </entry>
  <entry producer="producer196" in="00:01:55.680" out="00:02:02.960">
   <property name="kdenlive:id">55</property>
  </entry>
  <entry producer="producer197" in="00:00:04.120" out="00:00:07.080">
   <property name="kdenlive:id">102</property>
  </entry>
  <entry producer="producer198" in="00:00:05.000" out="00:00:09.960">
   <property name="kdenlive:id">136</property>
  </entry>
  <entry producer="producer198" in="00:00:14.320" out="00:00:18.560">
   <property name="kdenlive:id">136</property>
  </entry>
  <entry producer="producer198" in="00:00:21.320" out="00:00:23.160">
   <property name="kdenlive:id">136</property>
  </entry>
  <entry producer="producer197" in="00:00:28.200" out="00:00:29.960">
   <property name="kdenlive:id">102</property>
  </entry>
  <entry producer="producer197" in="00:00:30.800" out="00:00:32.920">
   <property name="kdenlive:id">102</property>
  </entry>
  <entry producer="producer197" in="00:00:34.120" out="00:00:36.000">
   <property name="kdenlive:id">102</property>
  </entry>
  <entry producer="producer199" in="00:00:00.560" out="00:00:06.160">
   <property name="kdenlive:id">166</property>
  </entry>
  <entry producer="producer200" in="00:00:01.080" out="00:00:06.320">
   <property name="kdenlive:id">168</property>
  </entry>
  <blank length="00:00:03.880"/>
  <entry producer="producer201" in="00:00:29.080" out="00:00:33.000">
   <property name="kdenlive:id">61</property>
  </entry>
  <entry producer="producer201" in="00:00:33.520" out="00:00:34.720">
   <property name="kdenlive:id">61</property>
  </entry>
  <entry producer="producer201" in="00:00:35.200" out="00:00:36.440">
   <property name="kdenlive:id">61</property>
  </entry>
  <entry producer="producer201" in="00:00:36.920" out="00:00:38.000">
   <property name="kdenlive:id">61</property>
  </entry>
  <entry producer="producer201" in="00:00:44.760" out="00:00:46.720">
   <property name="kdenlive:id">61</property>
  </entry>
  <entry producer="producer201" in="00:00:49.920" out="00:00:50.840">
   <property name="kdenlive:id">61</property>
  </entry>
  <entry producer="producer201" in="00:00:51.320" out="00:00:54.080">
   <property name="kdenlive:id">61</property>
  </entry>
  <entry producer="producer202" in="00:00:00.960" out="00:00:11.600">
   <property name="kdenlive:id">58</property>
  </entry>
  <entry producer="producer201" in="00:01:06.160" out="00:01:10.400">
   <property name="kdenlive:id">61</property>
  </entry>
  <entry producer="producer201" in="00:01:19.000" out="00:01:24.840">
   <property name="kdenlive:id">61</property>
  </entry>
  <entry producer="producer203" in="00:00:00.000" out="00:00:08.640">
   <property name="kdenlive:id">59</property>
  </entry>
  <entry producer="producer203" in="00:00:16.720" out="00:00:19.920">
   <property name="kdenlive:id">59</property>
  </entry>
  <entry producer="producer201" in="00:01:47.200" out="00:01:51.320">
   <property name="kdenlive:id">61</property>
  </entry>
  <entry producer="producer204" in="00:00:01.080" out="00:00:03.000">
   <property name="kdenlive:id">60</property>
  </entry>
  <entry producer="producer205" in="00:00:00.800" out="00:00:04.400">
   <property name="kdenlive:id">62</property>
  </entry>
  <entry producer="producer205" in="00:00:07.320" out="00:00:10.680">
   <property name="kdenlive:id">62</property>
  </entry>
  <entry producer="producer205" in="00:00:20.920" out="00:00:31.440">
   <property name="kdenlive:id">62</property>
  </entry>
  <entry producer="producer206" in="00:00:01.440" out="00:00:06.800">
   <property name="kdenlive:id">161</property>
  </entry>
  <entry producer="producer207" in="00:00:10.080" out="00:00:21.040">
   <property name="kdenlive:id">97</property>
  </entry>
 </playlist>
 <playlist id="playlist3"/>
 <tractor id="tractor1" in="00:00:00.000" out="00:08:17.400">
  <property name="kdenlive:audio_track">1</property>
  <property name="kdenlive:trackheight">69</property>
  <property name="kdenlive:timeline_active">1</property>
  <property name="kdenlive:collapsed">0</property>
  <property name="kdenlive:thumbs_format"/>
  <property name="kdenlive:audio_rec"/>
  <track hide="video" producer="playlist2"/>
  <track hide="video" producer="playlist3"/>
  <filter id="filter3">
   <property name="window">75</property>
   <property name="max_gain">20dB</property>
   <property name="mlt_service">volume</property>
   <property name="internal_added">237</property>
   <property name="disable">1</property>
  </filter>
  <filter id="filter4">
   <property name="channel">-1</property>
   <property name="mlt_service">panner</property>
   <property name="internal_added">237</property>
   <property name="start">0.5</property>
   <property name="disable">1</property>
  </filter>
  <filter id="filter6" out="00:08:17.440">
   <property name="window">75</property>
   <property name="max_gain">20dB</property>
   <property name="mlt_service">volume</property>
   <property name="kdenlive_id">gain</property>
   <property name="gain">6.34</property>
   <property name="kdenlive:collapsed">0</property>
   <property name="disable">0</property>
  </filter>
  <filter id="filter5">
   <property name="iec_scale">0</property>
   <property name="mlt_service">audiolevel</property>
   <property name="disable">1</property>
  </filter>
 </tractor>
 <producer id="producer209" in="00:00:00.000" out="00:00:54.000">
  <property name="length">1351</property>
  <property name="eof">pause</property>
  <property name="resource">vid_files/0_clips/2021-08-16 10-43-10.mp4</property>
  <property name="audio_index">1</property>
  <property name="video_index">0</property>
  <property name="mute_on_pause">0</property>
  <property name="mlt_service">avformat-novalidate</property>
  <property name="seekable">1</property>
  <property name="aspect_ratio">1</property>
  <property name="kdenlive:clipname"/>
  <property name="kdenlive:folderid">-1</property>
  <property name="kdenlive:id">13</property>
  <property name="kdenlive:file_size">24810046</property>
  <property name="kdenlive:file_hash">07a909afecc89b1dfc78769b144f4808</property>
  <property name="global_feed">1</property>
  <property name="xml">was here</property>
  <property name="meta.media.nb_streams">2</property>
  <property name="meta.media.0.stream.type">video</property>
  <property name="meta.media.0.stream.frame_rate">30</property>
  <property name="meta.media.0.stream.sample_aspect_ratio">0</property>
  <property name="meta.media.0.codec.width">1280</property>
  <property name="meta.media.0.codec.height">720</property>
  <property name="meta.media.0.codec.rotate">0</property>
  <property name="meta.media.0.codec.frame_rate">30</property>
  <property name="meta.media.0.codec.pix_fmt">yuv420p</property>
  <property name="meta.media.0.codec.sample_aspect_ratio">1</property>
  <property name="meta.media.0.codec.colorspace">709</property>
  <property name="meta.media.0.codec.color_trc">1</property>
  <property name="meta.media.0.codec.name">h264</property>
  <property name="meta.media.0.codec.long_name">H.264 / AVC / MPEG-4 AVC / MPEG-4 part 10</property>
  <property name="meta.media.0.codec.bit_rate">3472406</property>
  <property name="meta.attr.0.stream.handler_name.markup">VideoHandler</property>
  <property name="meta.media.1.stream.type">audio</property>
  <property name="meta.media.1.codec.sample_fmt">fltp</property>
  <property name="meta.media.1.codec.sample_rate">48000</property>
  <property name="meta.media.1.codec.channels">2</property>
  <property name="meta.media.1.codec.name">aac</property>
  <property name="meta.media.1.codec.long_name">AAC (Advanced Audio Coding)</property>
  <property name="meta.media.1.codec.bit_rate">192168</property>
  <property name="meta.attr.1.stream.handler_name.markup">SoundHandler</property>
  <property name="meta.attr.major_brand.markup">isom</property>
  <property name="meta.attr.minor_version.markup">512</property>
  <property name="meta.attr.compatible_brands.markup">isomiso2avc1mp41</property>
  <property name="meta.attr.encoder.markup">Lavf58.29.100</property>
  <property name="meta.media.sample_aspect_num">1</property>
  <property name="meta.media.sample_aspect_den">1</property>
  <property name="meta.media.frame_rate_num">30</property>
  <property name="meta.media.frame_rate_den">1</property>
  <property name="meta.media.colorspace">709</property>
  <property name="meta.media.color_trc">1</property>
  <property name="meta.media.width">1280</property>
  <property name="meta.media.height">720</property>
  <property name="meta.media.color_range">mpeg</property>
  <property name="meta.media.top_field_first">0</property>
  <property name="meta.media.progressive">1</property>
  <property name="set.test_audio">1</property>
  <property name="set.test_image">0</property>
 </producer>
 <producer id="producer211" in="00:00:00.000" out="00:00:36.040">
  <property name="length">902</property>
  <property name="eof">pause</property>
  <property name="resource">vid_files/0_clips/2021-08-16 11-05-49.mp4</property>
  <property name="audio_index">1</property>
  <property name="video_index">0</property>
  <property name="mute_on_pause">0</property>
  <property name="mlt_service">avformat-novalidate</property>
  <property name="seekable">1</property>
  <property name="aspect_ratio">1</property>
  <property name="kdenlive:clipname"/>
  <property name="kdenlive:folderid">-1</property>
  <property name="kdenlive:id">15</property>
  <property name="kdenlive:file_size">16549260</property>
  <property name="kdenlive:file_hash">5f1873c7f5584eb87993b2c9dc119fa4</property>
  <property name="kdenlive:audio_max">15</property>
  <property name="global_feed">1</property>
  <property name="xml">was here</property>
  <property name="meta.media.nb_streams">2</property>
  <property name="meta.media.0.stream.type">video</property>
  <property name="meta.media.0.stream.frame_rate">30</property>
  <property name="meta.media.0.stream.sample_aspect_ratio">0</property>
  <property name="meta.media.0.codec.width">1280</property>
  <property name="meta.media.0.codec.height">720</property>
  <property name="meta.media.0.codec.rotate">0</property>
  <property name="meta.media.0.codec.frame_rate">30</property>
  <property name="meta.media.0.codec.pix_fmt">yuv420p</property>
  <property name="meta.media.0.codec.sample_aspect_ratio">1</property>
  <property name="meta.media.0.codec.colorspace">709</property>
  <property name="meta.media.0.codec.color_trc">1</property>
  <property name="meta.media.0.codec.name">h264</property>
  <property name="meta.media.0.codec.long_name">H.264 / AVC / MPEG-4 AVC / MPEG-4 part 10</property>
  <property name="meta.media.0.codec.bit_rate">3469853</property>
  <property name="meta.attr.0.stream.handler_name.markup">VideoHandler</property>
  <property name="meta.media.1.stream.type">audio</property>
  <property name="meta.media.1.codec.sample_fmt">fltp</property>
  <property name="meta.media.1.codec.sample_rate">48000</property>
  <property name="meta.media.1.codec.channels">2</property>
  <property name="meta.media.1.codec.name">aac</property>
  <property name="meta.media.1.codec.long_name">AAC (Advanced Audio Coding)</property>
  <property name="meta.media.1.codec.bit_rate">192260</property>
  <property name="meta.attr.1.stream.handler_name.markup">SoundHandler</property>
  <property name="meta.attr.major_brand.markup">isom</property>
  <property name="meta.attr.minor_version.markup">512</property>
  <property name="meta.attr.compatible_brands.markup">isomiso2avc1mp41</property>
  <property name="meta.attr.encoder.markup">Lavf58.29.100</property>
  <property name="meta.media.sample_aspect_num">1</property>
  <property name="meta.media.sample_aspect_den">1</property>
  <property name="meta.media.frame_rate_num">30</property>
  <property name="meta.media.frame_rate_den">1</property>
  <property name="meta.media.colorspace">709</property>
  <property name="meta.media.color_trc">1</property>
  <property name="meta.media.width">1280</property>
  <property name="meta.media.height">720</property>
  <property name="meta.media.color_range">mpeg</property>
  <property name="meta.media.top_field_first">0</property>
  <property name="meta.media.progressive">1</property>
  <property name="set.test_audio">1</property>
  <property name="set.test_image">0</property>
 </producer>
 <producer id="producer212" in="00:00:00.000" out="00:00:05.560">
  <property name="length">00:00:05.600</property>
  <property name="eof">pause</property>
  <property name="resource">vid_files/10_chapters/chap1_/chap1_%03d.png</property>
  <property name="ttl">1</property>
  <property name="aspect_ratio">1</property>
  <property name="progressive">1</property>
  <property name="seekable">1</property>
  <property name="meta.media.width">1920</property>
  <property name="meta.media.height">1080</property>
  <property name="mlt_service">qimage</property>
  <property name="kdenlive:clipname">chap1_</property>
  <property name="luma_duration">25</property>
  <property name="fade">0</property>
  <property name="crop">0</property>
  <property name="loop">0</property>
  <property name="kdenlive:duration">00:00:05.600</property>
  <property name="kdenlive:folderid">-1</property>
  <property name="kdenlive:id">47</property>
  <property name="kdenlive:file_hash">8baac1e97b76941dae0c9017fd0abb2b</property>
  <property name="global_feed">1</property>
  <property name="xml">was here</property>
  <property name="set.test_audio">1</property>
  <property name="set.test_image">0</property>
 </producer>
 <producer id="producer213" in="00:00:00.000" out="00:01:02.760">
  <property name="length">1570</property>
  <property name="eof">pause</property>
  <property name="resource">vid_files/0_clips/2021-08-16 11-39-31.mp4</property>
  <property name="audio_index">1</property>
  <property name="video_index">0</property>
  <property name="mute_on_pause">0</property>
  <property name="mlt_service">avformat-novalidate</property>
  <property name="seekable">1</property>
  <property name="aspect_ratio">1</property>
  <property name="kdenlive:clipname"/>
  <property name="kdenlive:folderid">-1</property>
  <property name="kdenlive:id">30</property>
  <property name="kdenlive:file_size">31493113</property>
  <property name="kdenlive:file_hash">f58cb3cf41ad699d7986d53c1d1573fb</property>
  <property name="kdenlive:audio_max">17</property>
  <property name="global_feed">1</property>
  <property name="xml">was here</property>
  <property name="meta.media.nb_streams">2</property>
  <property name="meta.media.0.stream.type">video</property>
  <property name="meta.media.0.stream.frame_rate">30</property>
  <property name="meta.media.0.stream.sample_aspect_ratio">0</property>
  <property name="meta.media.0.codec.width">1280</property>
  <property name="meta.media.0.codec.height">720</property>
  <property name="meta.media.0.codec.rotate">0</property>
  <property name="meta.media.0.codec.frame_rate">30</property>
  <property name="meta.media.0.codec.pix_fmt">yuv420p</property>
  <property name="meta.media.0.codec.sample_aspect_ratio">1</property>
  <property name="meta.media.0.codec.colorspace">709</property>
  <property name="meta.media.0.codec.color_trc">1</property>
  <property name="meta.media.0.codec.name">h264</property>
  <property name="meta.media.0.codec.long_name">H.264 / AVC / MPEG-4 AVC / MPEG-4 part 10</property>
  <property name="meta.media.0.codec.bit_rate">3810981</property>
  <property name="meta.attr.0.stream.handler_name.markup">VideoHandler</property>
  <property name="meta.media.1.stream.type">audio</property>
  <property name="meta.media.1.codec.sample_fmt">fltp</property>
  <property name="meta.media.1.codec.sample_rate">48000</property>
  <property name="meta.media.1.codec.channels">2</property>
  <property name="meta.media.1.codec.name">aac</property>
  <property name="meta.media.1.codec.long_name">AAC (Advanced Audio Coding)</property>
  <property name="meta.media.1.codec.bit_rate">192145</property>
  <property name="meta.attr.1.stream.handler_name.markup">SoundHandler</property>
  <property name="meta.attr.major_brand.markup">isom</property>
  <property name="meta.attr.minor_version.markup">512</property>
  <property name="meta.attr.compatible_brands.markup">isomiso2avc1mp41</property>
  <property name="meta.attr.encoder.markup">Lavf58.29.100</property>
  <property name="meta.media.sample_aspect_num">1</property>
  <property name="meta.media.sample_aspect_den">1</property>
  <property name="meta.media.frame_rate_num">30</property>
  <property name="meta.media.frame_rate_den">1</property>
  <property name="meta.media.colorspace">709</property>
  <property name="meta.media.color_trc">1</property>
  <property name="meta.media.width">1280</property>
  <property name="meta.media.height">720</property>
  <property name="meta.media.color_range">mpeg</property>
  <property name="meta.media.top_field_first">0</property>
  <property name="meta.media.progressive">1</property>
  <property name="set.test_audio">1</property>
  <property name="set.test_image">0</property>
 </producer>
 <producer id="producer214" in="00:00:00.000" out="00:00:51.280">
  <property name="length">1283</property>
  <property name="eof">pause</property>
  <property name="resource">vid_files/0_clips/2021-08-16 11-43-29.mp4</property>
  <property name="audio_index">1</property>
  <property name="video_index">0</property>
  <property name="mute_on_pause">0</property>
  <property name="mlt_service">avformat-novalidate</property>
  <property name="seekable">1</property>
  <property name="aspect_ratio">1</property>
  <property name="kdenlive:clipname"/>
  <property name="kdenlive:folderid">-1</property>
  <property name="kdenlive:id">31</property>
  <property name="kdenlive:file_size">24713548</property>
  <property name="kdenlive:file_hash">502678ebb8544310237ccbd92dfc59bf</property>
  <property name="kdenlive:audio_max">18</property>
  <property name="global_feed">1</property>
  <property name="xml">was here</property>
  <property name="meta.media.nb_streams">2</property>
  <property name="meta.media.0.stream.type">video</property>
  <property name="meta.media.0.stream.frame_rate">30</property>
  <property name="meta.media.0.stream.sample_aspect_ratio">0</property>
  <property name="meta.media.0.codec.width">1280</property>
  <property name="meta.media.0.codec.height">720</property>
  <property name="meta.media.0.codec.rotate">0</property>
  <property name="meta.media.0.codec.frame_rate">30</property>
  <property name="meta.media.0.codec.pix_fmt">yuv420p</property>
  <property name="meta.media.0.codec.sample_aspect_ratio">1</property>
  <property name="meta.media.0.codec.colorspace">709</property>
  <property name="meta.media.0.codec.color_trc">1</property>
  <property name="meta.media.0.codec.name">h264</property>
  <property name="meta.media.0.codec.long_name">H.264 / AVC / MPEG-4 AVC / MPEG-4 part 10</property>
  <property name="meta.media.0.codec.bit_rate">3650537</property>
  <property name="meta.attr.0.stream.handler_name.markup">VideoHandler</property>
  <property name="meta.media.1.stream.type">audio</property>
  <property name="meta.media.1.codec.sample_fmt">fltp</property>
  <property name="meta.media.1.codec.sample_rate">48000</property>
  <property name="meta.media.1.codec.channels">2</property>
  <property name="meta.media.1.codec.name">aac</property>
  <property name="meta.media.1.codec.long_name">AAC (Advanced Audio Coding)</property>
  <property name="meta.media.1.codec.bit_rate">192167</property>
  <property name="meta.attr.1.stream.handler_name.markup">SoundHandler</property>
  <property name="meta.attr.major_brand.markup">isom</property>
  <property name="meta.attr.minor_version.markup">512</property>
  <property name="meta.attr.compatible_brands.markup">isomiso2avc1mp41</property>
  <property name="meta.attr.encoder.markup">Lavf58.29.100</property>
  <property name="meta.media.sample_aspect_num">1</property>
  <property name="meta.media.sample_aspect_den">1</property>
  <property name="meta.media.frame_rate_num">30</property>
  <property name="meta.media.frame_rate_den">1</property>
  <property name="meta.media.colorspace">709</property>
  <property name="meta.media.color_trc">1</property>
  <property name="meta.media.width">1280</property>
  <property name="meta.media.height">720</property>
  <property name="meta.media.color_range">mpeg</property>
  <property name="meta.media.top_field_first">0</property>
  <property name="meta.media.progressive">1</property>
  <property name="set.test_audio">1</property>
  <property name="set.test_image">0</property>
 </producer>
 <producer id="producer215" in="00:00:00.000" out="00:00:04.200">
  <property name="length">106</property>
  <property name="eof">pause</property>
  <property name="resource">vid_files/0_clips/2021-08-18 11-24-54.mp4</property>
  <property name="audio_index">1</property>
  <property name="video_index">0</property>
  <property name="mute_on_pause">0</property>
  <property name="mlt_service">avformat-novalidate</property>
  <property name="seekable">1</property>
  <property name="aspect_ratio">1</property>
  <property name="kdenlive:clipname"/>
  <property name="kdenlive:folderid">-1</property>
  <property name="kdenlive:id">98</property>
  <property name="kdenlive:file_size">383269</property>
  <property name="kdenlive:file_hash">b2f0f69a922c908e44de34e4e3d8fc66</property>
  <property name="kdenlive:audio_max">19</property>
  <property name="global_feed">1</property>
  <property name="xml">was here</property>
  <property name="meta.media.nb_streams">2</property>
  <property name="meta.media.0.stream.type">video</property>
  <property name="meta.media.0.stream.frame_rate">30</property>
  <property name="meta.media.0.stream.sample_aspect_ratio">0</property>
  <property name="meta.media.0.codec.width">1280</property>
  <property name="meta.media.0.codec.height">720</property>
  <property name="meta.media.0.codec.rotate">0</property>
  <property name="meta.media.0.codec.frame_rate">30</property>
  <property name="meta.media.0.codec.pix_fmt">yuv420p</property>
  <property name="meta.media.0.codec.sample_aspect_ratio">1</property>
  <property name="meta.media.0.codec.colorspace">709</property>
  <property name="meta.media.0.codec.color_trc">1</property>
  <property name="meta.media.0.codec.name">h264</property>
  <property name="meta.media.0.codec.long_name">H.264 / AVC / MPEG-4 AVC / MPEG-4 part 10</property>
  <property name="meta.media.0.codec.bit_rate">521935</property>
  <property name="meta.attr.0.stream.handler_name.markup">VideoHandler</property>
  <property name="meta.media.1.stream.type">audio</property>
  <property name="meta.media.1.codec.sample_fmt">fltp</property>
  <property name="meta.media.1.codec.sample_rate">48000</property>
  <property name="meta.media.1.codec.channels">2</property>
  <property name="meta.media.1.codec.name">aac</property>
  <property name="meta.media.1.codec.long_name">AAC (Advanced Audio Coding)</property>
  <property name="meta.media.1.codec.bit_rate">194328</property>
  <property name="meta.attr.1.stream.handler_name.markup">SoundHandler</property>
  <property name="meta.attr.major_brand.markup">isom</property>
  <property name="meta.attr.minor_version.markup">512</property>
  <property name="meta.attr.compatible_brands.markup">isomiso2avc1mp41</property>
  <property name="meta.attr.encoder.markup">Lavf58.29.100</property>
  <property name="meta.media.sample_aspect_num">1</property>
  <property name="meta.media.sample_aspect_den">1</property>
  <property name="meta.media.frame_rate_num">30</property>
  <property name="meta.media.frame_rate_den">1</property>
  <property name="meta.media.colorspace">709</property>
  <property name="meta.media.color_trc">1</property>
  <property name="meta.media.width">1280</property>
  <property name="meta.media.height">720</property>
  <property name="meta.media.color_range">mpeg</property>
  <property name="set.test_audio">1</property>
  <property name="set.test_image">0</property>
  <property name="meta.media.top_field_first">0</property>
  <property name="meta.media.progressive">1</property>
 </producer>
 <producer id="producer216" in="00:00:00.000" out="00:00:27.280">
  <property name="length">683</property>
  <property name="eof">pause</property>
  <property name="resource">vid_files/0_clips/2021-08-16 11-44-25.mp4</property>
  <property name="audio_index">1</property>
  <property name="video_index">0</property>
  <property name="mute_on_pause">0</property>
  <property name="mlt_service">avformat-novalidate</property>
  <property name="seekable">1</property>
  <property name="aspect_ratio">1</property>
  <property name="kdenlive:clipname"/>
  <property name="kdenlive:folderid">-1</property>
  <property name="kdenlive:id">32</property>
  <property name="kdenlive:file_size">13192503</property>
  <property name="kdenlive:file_hash">4118eda80937cf65bdbe950f704ea6d7</property>
  <property name="kdenlive:audio_max">15</property>
  <property name="global_feed">1</property>
  <property name="xml">was here</property>
  <property name="meta.media.nb_streams">2</property>
  <property name="meta.media.0.stream.type">video</property>
  <property name="meta.media.0.stream.frame_rate">30</property>
  <property name="meta.media.0.stream.sample_aspect_ratio">0</property>
  <property name="meta.media.0.codec.width">1280</property>
  <property name="meta.media.0.codec.height">720</property>
  <property name="meta.media.0.codec.rotate">0</property>
  <property name="meta.media.0.codec.frame_rate">30</property>
  <property name="meta.media.0.codec.pix_fmt">yuv420p</property>
  <property name="meta.media.0.codec.sample_aspect_ratio">1</property>
  <property name="meta.media.0.codec.colorspace">709</property>
  <property name="meta.media.0.codec.color_trc">1</property>
  <property name="meta.media.0.codec.name">h264</property>
  <property name="meta.media.0.codec.long_name">H.264 / AVC / MPEG-4 AVC / MPEG-4 part 10</property>
  <property name="meta.media.0.codec.bit_rate">3660157</property>
  <property name="meta.attr.0.stream.handler_name.markup">VideoHandler</property>
  <property name="meta.media.1.stream.type">audio</property>
  <property name="meta.media.1.codec.sample_fmt">fltp</property>
  <property name="meta.media.1.codec.sample_rate">48000</property>
  <property name="meta.media.1.codec.channels">2</property>
  <property name="meta.media.1.codec.name">aac</property>
  <property name="meta.media.1.codec.long_name">AAC (Advanced Audio Coding)</property>
  <property name="meta.media.1.codec.bit_rate">192349</property>
  <property name="meta.attr.1.stream.handler_name.markup">SoundHandler</property>
  <property name="meta.attr.major_brand.markup">isom</property>
  <property name="meta.attr.minor_version.markup">512</property>
  <property name="meta.attr.compatible_brands.markup">isomiso2avc1mp41</property>
  <property name="meta.attr.encoder.markup">Lavf58.29.100</property>
  <property name="meta.media.sample_aspect_num">1</property>
  <property name="meta.media.sample_aspect_den">1</property>
  <property name="meta.media.frame_rate_num">30</property>
  <property name="meta.media.frame_rate_den">1</property>
  <property name="meta.media.colorspace">709</property>
  <property name="meta.media.color_trc">1</property>
  <property name="meta.media.width">1280</property>
  <property name="meta.media.height">720</property>
  <property name="meta.media.color_range">mpeg</property>
  <property name="meta.media.top_field_first">0</property>
  <property name="meta.media.progressive">1</property>
  <property name="set.test_audio">1</property>
  <property name="set.test_image">0</property>
 </producer>
 <producer id="producer217" in="00:00:00.000" out="00:00:36.440">
  <property name="length">912</property>
  <property name="eof">pause</property>
  <property name="resource">vid_files/0_clips/2021-08-16 11-45-41.mp4</property>
  <property name="audio_index">1</property>
  <property name="video_index">0</property>
  <property name="mute_on_pause">0</property>
  <property name="mlt_service">avformat-novalidate</property>
  <property name="seekable">1</property>
  <property name="aspect_ratio">1</property>
  <property name="kdenlive:clipname"/>
  <property name="kdenlive:folderid">-1</property>
  <property name="kdenlive:id">34</property>
  <property name="kdenlive:file_size">17667492</property>
  <property name="kdenlive:file_hash">0e3d7817a5f8bfa89a64e1343f9ba1e9</property>
  <property name="kdenlive:audio_max">13</property>
  <property name="global_feed">1</property>
  <property name="xml">was here</property>
  <property name="meta.media.nb_streams">2</property>
  <property name="meta.media.0.stream.type">video</property>
  <property name="meta.media.0.stream.frame_rate">30</property>
  <property name="meta.media.0.stream.sample_aspect_ratio">0</property>
  <property name="meta.media.0.codec.width">1280</property>
  <property name="meta.media.0.codec.height">720</property>
  <property name="meta.media.0.codec.rotate">0</property>
  <property name="meta.media.0.codec.frame_rate">30</property>
  <property name="meta.media.0.codec.pix_fmt">yuv420p</property>
  <property name="meta.media.0.codec.sample_aspect_ratio">1</property>
  <property name="meta.media.0.codec.colorspace">709</property>
  <property name="meta.media.0.codec.color_trc">1</property>
  <property name="meta.media.0.codec.name">h264</property>
  <property name="meta.media.0.codec.long_name">H.264 / AVC / MPEG-4 AVC / MPEG-4 part 10</property>
  <property name="meta.media.0.codec.bit_rate">3674899</property>
  <property name="meta.attr.0.stream.handler_name.markup">VideoHandler</property>
  <property name="meta.media.1.stream.type">audio</property>
  <property name="meta.media.1.codec.sample_fmt">fltp</property>
  <property name="meta.media.1.codec.sample_rate">48000</property>
  <property name="meta.media.1.codec.channels">2</property>
  <property name="meta.media.1.codec.name">aac</property>
  <property name="meta.media.1.codec.long_name">AAC (Advanced Audio Coding)</property>
  <property name="meta.media.1.codec.bit_rate">192245</property>
  <property name="meta.attr.1.stream.handler_name.markup">SoundHandler</property>
  <property name="meta.attr.major_brand.markup">isom</property>
  <property name="meta.attr.minor_version.markup">512</property>
  <property name="meta.attr.compatible_brands.markup">isomiso2avc1mp41</property>
  <property name="meta.attr.encoder.markup">Lavf58.29.100</property>
  <property name="meta.media.sample_aspect_num">1</property>
  <property name="meta.media.sample_aspect_den">1</property>
  <property name="meta.media.frame_rate_num">30</property>
  <property name="meta.media.frame_rate_den">1</property>
  <property name="meta.media.colorspace">709</property>
  <property name="meta.media.color_trc">1</property>
  <property name="meta.media.width">1280</property>
  <property name="meta.media.height">720</property>
  <property name="meta.media.color_range">mpeg</property>
  <property name="set.test_audio">1</property>
  <property name="set.test_image">0</property>
  <property name="meta.media.top_field_first">0</property>
  <property name="meta.media.progressive">1</property>
 </producer>
 <producer id="producer218" in="00:00:00.000" out="00:03:45.280">
  <property name="length">5633</property>
  <property name="eof">pause</property>
  <property name="resource">vid_files/0_clips/2021-08-16 11-55-32.mp4</property>
  <property name="audio_index">1</property>
  <property name="video_index">0</property>
  <property name="mute_on_pause">0</property>
  <property name="mlt_service">avformat-novalidate</property>
  <property name="seekable">1</property>
  <property name="aspect_ratio">1</property>
  <property name="kdenlive:clipname"/>
  <property name="kdenlive:folderid">-1</property>
  <property name="kdenlive:id">35</property>
  <property name="kdenlive:file_size">119278269</property>
  <property name="kdenlive:file_hash">c60e4b4037ec881ea1a30dda2bd6a1a0</property>
  <property name="kdenlive:audio_max">11</property>
  <property name="global_feed">1</property>
  <property name="xml">was here</property>
  <property name="meta.media.nb_streams">2</property>
  <property name="meta.media.0.stream.type">video</property>
  <property name="meta.media.0.stream.frame_rate">30</property>
  <property name="meta.media.0.stream.sample_aspect_ratio">0</property>
  <property name="meta.media.0.codec.width">1280</property>
  <property name="meta.media.0.codec.height">720</property>
  <property name="meta.media.0.codec.rotate">0</property>
  <property name="meta.media.0.codec.frame_rate">30</property>
  <property name="meta.media.0.codec.pix_fmt">yuv420p</property>
  <property name="meta.media.0.codec.sample_aspect_ratio">1</property>
  <property name="meta.media.0.codec.colorspace">709</property>
  <property name="meta.media.0.codec.color_trc">1</property>
  <property name="meta.media.0.codec.name">h264</property>
  <property name="meta.media.0.codec.long_name">H.264 / AVC / MPEG-4 AVC / MPEG-4 part 10</property>
  <property name="meta.media.0.codec.bit_rate">4033900</property>
  <property name="meta.attr.0.stream.handler_name.markup">VideoHandler</property>
  <property name="meta.media.1.stream.type">audio</property>
  <property name="meta.media.1.codec.sample_fmt">fltp</property>
  <property name="meta.media.1.codec.sample_rate">48000</property>
  <property name="meta.media.1.codec.channels">2</property>
  <property name="meta.media.1.codec.name">aac</property>
  <property name="meta.media.1.codec.long_name">AAC (Advanced Audio Coding)</property>
  <property name="meta.media.1.codec.bit_rate">192043</property>
  <property name="meta.attr.1.stream.handler_name.markup">SoundHandler</property>
  <property name="meta.attr.major_brand.markup">isom</property>
  <property name="meta.attr.minor_version.markup">512</property>
  <property name="meta.attr.compatible_brands.markup">isomiso2avc1mp41</property>
  <property name="meta.attr.encoder.markup">Lavf58.29.100</property>
  <property name="meta.media.sample_aspect_num">1</property>
  <property name="meta.media.sample_aspect_den">1</property>
  <property name="meta.media.frame_rate_num">30</property>
  <property name="meta.media.frame_rate_den">1</property>
  <property name="meta.media.colorspace">709</property>
  <property name="meta.media.color_trc">1</property>
  <property name="meta.media.width">1280</property>
  <property name="meta.media.height">720</property>
  <property name="meta.media.color_range">mpeg</property>
  <property name="set.test_audio">1</property>
  <property name="set.test_image">0</property>
  <property name="meta.media.top_field_first">0</property>
  <property name="meta.media.progressive">1</property>
 </producer>
 <producer id="producer219" in="00:00:00.000" out="00:01:06.960">
  <property name="length">1675</property>
  <property name="eof">pause</property>
  <property name="resource">vid_files/0_clips/2021-08-18 11-25-17.mp4</property>
  <property name="audio_index">1</property>
  <property name="video_index">0</property>
  <property name="mute_on_pause">0</property>
  <property name="mlt_service">avformat-novalidate</property>
  <property name="seekable">1</property>
  <property name="aspect_ratio">1</property>
  <property name="kdenlive:clipname"/>
  <property name="kdenlive:folderid">-1</property>
  <property name="kdenlive:id">100</property>
  <property name="kdenlive:file_size">7227206</property>
  <property name="kdenlive:file_hash">0226ef984f3578a8e92c73e5e8fb329b</property>
  <property name="kdenlive:audio_max">16</property>
  <property name="global_feed">1</property>
  <property name="xml">was here</property>
  <property name="meta.media.nb_streams">2</property>
  <property name="meta.media.0.stream.type">video</property>
  <property name="meta.media.0.stream.frame_rate">30</property>
  <property name="meta.media.0.stream.sample_aspect_ratio">0</property>
  <property name="meta.media.0.codec.width">1280</property>
  <property name="meta.media.0.codec.height">720</property>
  <property name="meta.media.0.codec.rotate">0</property>
  <property name="meta.media.0.codec.frame_rate">30</property>
  <property name="meta.media.0.codec.pix_fmt">yuv420p</property>
  <property name="meta.media.0.codec.sample_aspect_ratio">1</property>
  <property name="meta.media.0.codec.colorspace">709</property>
  <property name="meta.media.0.codec.color_trc">1</property>
  <property name="meta.media.0.codec.name">h264</property>
  <property name="meta.media.0.codec.long_name">H.264 / AVC / MPEG-4 AVC / MPEG-4 part 10</property>
  <property name="meta.media.0.codec.bit_rate">662052</property>
  <property name="meta.attr.0.stream.handler_name.markup">VideoHandler</property>
  <property name="meta.media.1.stream.type">audio</property>
  <property name="meta.media.1.codec.sample_fmt">fltp</property>
  <property name="meta.media.1.codec.sample_rate">48000</property>
  <property name="meta.media.1.codec.channels">2</property>
  <property name="meta.media.1.codec.name">aac</property>
  <property name="meta.media.1.codec.long_name">AAC (Advanced Audio Coding)</property>
  <property name="meta.media.1.codec.bit_rate">192143</property>
  <property name="meta.attr.1.stream.handler_name.markup">SoundHandler</property>
  <property name="meta.attr.major_brand.markup">isom</property>
  <property name="meta.attr.minor_version.markup">512</property>
  <property name="meta.attr.compatible_brands.markup">isomiso2avc1mp41</property>
  <property name="meta.attr.encoder.markup">Lavf58.29.100</property>
  <property name="meta.media.sample_aspect_num">1</property>
  <property name="meta.media.sample_aspect_den">1</property>
  <property name="meta.media.frame_rate_num">30</property>
  <property name="meta.media.frame_rate_den">1</property>
  <property name="meta.media.colorspace">709</property>
  <property name="meta.media.color_trc">1</property>
  <property name="meta.media.width">1280</property>
  <property name="meta.media.height">720</property>
  <property name="meta.media.color_range">mpeg</property>
  <property name="set.test_audio">1</property>
  <property name="set.test_image">0</property>
  <property name="meta.media.top_field_first">0</property>
  <property name="meta.media.progressive">1</property>
 </producer>
 <producer id="producer220" in="00:00:00.000" out="00:00:05.560">
  <property name="length">00:00:05.600</property>
  <property name="eof">pause</property>
  <property name="resource">vid_files/10_chapters/chap2_/chap2_%03d.png</property>
  <property name="ttl">1</property>
  <property name="aspect_ratio">1</property>
  <property name="progressive">1</property>
  <property name="seekable">1</property>
  <property name="meta.media.width">1920</property>
  <property name="meta.media.height">1080</property>
  <property name="mlt_service">qimage</property>
  <property name="kdenlive:clipname">chap2_</property>
  <property name="luma_duration">25</property>
  <property name="fade">0</property>
  <property name="crop">0</property>
  <property name="loop">0</property>
  <property name="kdenlive:duration">00:00:05.600</property>
  <property name="kdenlive:folderid">-1</property>
  <property name="kdenlive:id">68</property>
  <property name="kdenlive:file_hash">10a37b04012ba59d385b60192716bb3e</property>
  <property name="global_feed">1</property>
  <property name="xml">was here</property>
  <property name="set.test_audio">1</property>
  <property name="set.test_image">0</property>
 </producer>
 <producer id="producer221" in="00:00:00.000" out="00:00:34.040">
  <property name="length">852</property>
  <property name="eof">pause</property>
  <property name="resource">vid_files/0_clips/2021-08-16 12-00-10.mp4</property>
  <property name="audio_index">1</property>
  <property name="video_index">0</property>
  <property name="mute_on_pause">0</property>
  <property name="mlt_service">avformat-novalidate</property>
  <property name="seekable">1</property>
  <property name="aspect_ratio">1</property>
  <property name="kdenlive:clipname"/>
  <property name="kdenlive:folderid">-1</property>
  <property name="kdenlive:id">36</property>
  <property name="kdenlive:file_size">18355878</property>
  <property name="kdenlive:file_hash">3cdd261788a7f0e6be099eb185e2abc2</property>
  <property name="kdenlive:audio_max">14</property>
  <property name="global_feed">1</property>
  <property name="xml">was here</property>
  <property name="meta.media.nb_streams">2</property>
  <property name="meta.media.0.stream.type">video</property>
  <property name="meta.media.0.stream.frame_rate">30</property>
  <property name="meta.media.0.stream.sample_aspect_ratio">0</property>
  <property name="meta.media.0.codec.width">1280</property>
  <property name="meta.media.0.codec.height">720</property>
  <property name="meta.media.0.codec.rotate">0</property>
  <property name="meta.media.0.codec.frame_rate">30</property>
  <property name="meta.media.0.codec.pix_fmt">yuv420p</property>
  <property name="meta.media.0.codec.sample_aspect_ratio">1</property>
  <property name="meta.media.0.codec.colorspace">709</property>
  <property name="meta.media.0.codec.color_trc">1</property>
  <property name="meta.media.0.codec.name">h264</property>
  <property name="meta.media.0.codec.long_name">H.264 / AVC / MPEG-4 AVC / MPEG-4 part 10</property>
  <property name="meta.media.0.codec.bit_rate">4109638</property>
  <property name="meta.attr.0.stream.handler_name.markup">VideoHandler</property>
  <property name="meta.media.1.stream.type">audio</property>
  <property name="meta.media.1.codec.sample_fmt">fltp</property>
  <property name="meta.media.1.codec.sample_rate">48000</property>
  <property name="meta.media.1.codec.channels">2</property>
  <property name="meta.media.1.codec.name">aac</property>
  <property name="meta.media.1.codec.long_name">AAC (Advanced Audio Coding)</property>
  <property name="meta.media.1.codec.bit_rate">192280</property>
  <property name="meta.attr.1.stream.handler_name.markup">SoundHandler</property>
  <property name="meta.attr.major_brand.markup">isom</property>
  <property name="meta.attr.minor_version.markup">512</property>
  <property name="meta.attr.compatible_brands.markup">isomiso2avc1mp41</property>
  <property name="meta.attr.encoder.markup">Lavf58.29.100</property>
  <property name="meta.media.sample_aspect_num">1</property>
  <property name="meta.media.sample_aspect_den">1</property>
  <property name="meta.media.frame_rate_num">30</property>
  <property name="meta.media.frame_rate_den">1</property>
  <property name="meta.media.colorspace">709</property>
  <property name="meta.media.color_trc">1</property>
  <property name="meta.media.width">1280</property>
  <property name="meta.media.height">720</property>
  <property name="meta.media.color_range">mpeg</property>
  <property name="set.test_audio">1</property>
  <property name="set.test_image">0</property>
  <property name="meta.media.top_field_first">0</property>
  <property name="meta.media.progressive">1</property>
 </producer>
 <producer id="producer222" in="00:00:00.000" out="00:00:42.520">
  <property name="length">1064</property>
  <property name="eof">pause</property>
  <property name="resource">vid_files/0_clips/2021-08-16 12-01-28.mp4</property>
  <property name="audio_index">1</property>
  <property name="video_index">0</property>
  <property name="mute_on_pause">0</property>
  <property name="mlt_service">avformat-novalidate</property>
  <property name="seekable">1</property>
  <property name="aspect_ratio">1</property>
  <property name="kdenlive:clipname"/>
  <property name="kdenlive:folderid">-1</property>
  <property name="kdenlive:id">37</property>
  <property name="kdenlive:file_size">23577499</property>
  <property name="kdenlive:file_hash">2201247ec78ce23104e56911a157024f</property>
  <property name="kdenlive:audio_max">15</property>
  <property name="global_feed">1</property>
  <property name="xml">was here</property>
  <property name="meta.media.nb_streams">2</property>
  <property name="meta.media.0.stream.type">video</property>
  <property name="meta.media.0.stream.frame_rate">30</property>
  <property name="meta.media.0.stream.sample_aspect_ratio">0</property>
  <property name="meta.media.0.codec.width">1280</property>
  <property name="meta.media.0.codec.height">720</property>
  <property name="meta.media.0.codec.rotate">0</property>
  <property name="meta.media.0.codec.frame_rate">30</property>
  <property name="meta.media.0.codec.pix_fmt">yuv420p</property>
  <property name="meta.media.0.codec.sample_aspect_ratio">1</property>
  <property name="meta.media.0.codec.colorspace">709</property>
  <property name="meta.media.0.codec.color_trc">1</property>
  <property name="meta.media.0.codec.name">h264</property>
  <property name="meta.media.0.codec.long_name">H.264 / AVC / MPEG-4 AVC / MPEG-4 part 10</property>
  <property name="meta.media.0.codec.bit_rate">4230224</property>
  <property name="meta.attr.0.stream.handler_name.markup">VideoHandler</property>
  <property name="meta.media.1.stream.type">audio</property>
  <property name="meta.media.1.codec.sample_fmt">fltp</property>
  <property name="meta.media.1.codec.sample_rate">48000</property>
  <property name="meta.media.1.codec.channels">2</property>
  <property name="meta.media.1.codec.name">aac</property>
  <property name="meta.media.1.codec.long_name">AAC (Advanced Audio Coding)</property>
  <property name="meta.media.1.codec.bit_rate">192206</property>
  <property name="meta.attr.1.stream.handler_name.markup">SoundHandler</property>
  <property name="meta.attr.major_brand.markup">isom</property>
  <property name="meta.attr.minor_version.markup">512</property>
  <property name="meta.attr.compatible_brands.markup">isomiso2avc1mp41</property>
  <property name="meta.attr.encoder.markup">Lavf58.29.100</property>
  <property name="meta.media.sample_aspect_num">1</property>
  <property name="meta.media.sample_aspect_den">1</property>
  <property name="meta.media.frame_rate_num">30</property>
  <property name="meta.media.frame_rate_den">1</property>
  <property name="meta.media.colorspace">709</property>
  <property name="meta.media.color_trc">1</property>
  <property name="meta.media.width">1280</property>
  <property name="meta.media.height">720</property>
  <property name="meta.media.color_range">mpeg</property>
  <property name="meta.media.top_field_first">0</property>
  <property name="meta.media.progressive">1</property>
  <property name="set.test_audio">1</property>
  <property name="set.test_image">0</property>
 </producer>
 <producer id="producer223" in="00:00:00.000" out="00:00:47.560">
  <property name="length">1190</property>
  <property name="eof">pause</property>
  <property name="resource">vid_files/0_clips/2021-08-16 12-02-21.mp4</property>
  <property name="audio_index">1</property>
  <property name="video_index">0</property>
  <property name="mute_on_pause">0</property>
  <property name="mlt_service">avformat-novalidate</property>
  <property name="seekable">1</property>
  <property name="aspect_ratio">1</property>
  <property name="kdenlive:clipname"/>
  <property name="kdenlive:folderid">-1</property>
  <property name="kdenlive:id">38</property>
  <property name="kdenlive:file_size">25175078</property>
  <property name="kdenlive:file_hash">d0796d11130392d6814bac26c724b549</property>
  <property name="kdenlive:audio_max">13</property>
  <property name="global_feed">1</property>
  <property name="xml">was here</property>
  <property name="meta.media.nb_streams">2</property>
  <property name="meta.media.0.stream.type">video</property>
  <property name="meta.media.0.stream.frame_rate">30</property>
  <property name="meta.media.0.stream.sample_aspect_ratio">0</property>
  <property name="meta.media.0.codec.width">1280</property>
  <property name="meta.media.0.codec.height">720</property>
  <property name="meta.media.0.codec.rotate">0</property>
  <property name="meta.media.0.codec.frame_rate">30</property>
  <property name="meta.media.0.codec.pix_fmt">yuv420p</property>
  <property name="meta.media.0.codec.sample_aspect_ratio">1</property>
  <property name="meta.media.0.codec.colorspace">709</property>
  <property name="meta.media.0.codec.color_trc">1</property>
  <property name="meta.media.0.codec.name">h264</property>
  <property name="meta.media.0.codec.long_name">H.264 / AVC / MPEG-4 AVC / MPEG-4 part 10</property>
  <property name="meta.media.0.codec.bit_rate">4030159</property>
  <property name="meta.attr.0.stream.handler_name.markup">VideoHandler</property>
  <property name="meta.media.1.stream.type">audio</property>
  <property name="meta.media.1.codec.sample_fmt">fltp</property>
  <property name="meta.media.1.codec.sample_rate">48000</property>
  <property name="meta.media.1.codec.channels">2</property>
  <property name="meta.media.1.codec.name">aac</property>
  <property name="meta.media.1.codec.long_name">AAC (Advanced Audio Coding)</property>
  <property name="meta.media.1.codec.bit_rate">192199</property>
  <property name="meta.attr.1.stream.handler_name.markup">SoundHandler</property>
  <property name="meta.attr.major_brand.markup">isom</property>
  <property name="meta.attr.minor_version.markup">512</property>
  <property name="meta.attr.compatible_brands.markup">isomiso2avc1mp41</property>
  <property name="meta.attr.encoder.markup">Lavf58.29.100</property>
  <property name="meta.media.sample_aspect_num">1</property>
  <property name="meta.media.sample_aspect_den">1</property>
  <property name="meta.media.frame_rate_num">30</property>
  <property name="meta.media.frame_rate_den">1</property>
  <property name="meta.media.colorspace">709</property>
  <property name="meta.media.color_trc">1</property>
  <property name="meta.media.width">1280</property>
  <property name="meta.media.height">720</property>
  <property name="meta.media.color_range">mpeg</property>
  <property name="set.test_audio">1</property>
  <property name="set.test_image">0</property>
  <property name="meta.media.top_field_first">0</property>
  <property name="meta.media.progressive">1</property>
 </producer>
 <producer id="producer224" in="00:00:00.000" out="00:00:07.480">
  <property name="length">188</property>
  <property name="eof">pause</property>
  <property name="resource">vid_files/0_clips/2021-08-19 20-51-40.mp4</property>
  <property name="audio_index">1</property>
  <property name="video_index">0</property>
  <property name="mute_on_pause">0</property>
  <property name="mlt_service">avformat-novalidate</property>
  <property name="seekable">1</property>
  <property name="aspect_ratio">1</property>
  <property name="kdenlive:clipname"/>
  <property name="kdenlive:folderid">-1</property>
  <property name="kdenlive:id">162</property>
  <property name="kdenlive:file_size">1213627</property>
  <property name="kdenlive:file_hash">d8aab1567b04f3f474e3be406614c2e5</property>
  <property name="kdenlive:audio_max">15</property>
  <property name="global_feed">1</property>
  <property name="xml">was here</property>
  <property name="meta.media.nb_streams">2</property>
  <property name="meta.media.0.stream.type">video</property>
  <property name="meta.media.0.stream.frame_rate">30</property>
  <property name="meta.media.0.stream.sample_aspect_ratio">0</property>
  <property name="meta.media.0.codec.width">1280</property>
  <property name="meta.media.0.codec.height">720</property>
  <property name="meta.media.0.codec.rotate">0</property>
  <property name="meta.media.0.codec.frame_rate">30</property>
  <property name="meta.media.0.codec.pix_fmt">yuv420p</property>
  <property name="meta.media.0.codec.sample_aspect_ratio">1</property>
  <property name="meta.media.0.codec.colorspace">709</property>
  <property name="meta.media.0.codec.color_trc">1</property>
  <property name="meta.media.0.codec.name">h264</property>
  <property name="meta.media.0.codec.long_name">H.264 / AVC / MPEG-4 AVC / MPEG-4 part 10</property>
  <property name="meta.media.0.codec.bit_rate">1092854</property>
  <property name="meta.attr.0.stream.handler_name.markup">VideoHandler</property>
  <property name="meta.media.1.stream.type">audio</property>
  <property name="meta.media.1.codec.sample_fmt">fltp</property>
  <property name="meta.media.1.codec.sample_rate">48000</property>
  <property name="meta.media.1.codec.channels">2</property>
  <property name="meta.media.1.codec.name">aac</property>
  <property name="meta.media.1.codec.long_name">AAC (Advanced Audio Coding)</property>
  <property name="meta.media.1.codec.bit_rate">193376</property>
  <property name="meta.attr.1.stream.handler_name.markup">SoundHandler</property>
  <property name="meta.attr.major_brand.markup">isom</property>
  <property name="meta.attr.minor_version.markup">512</property>
  <property name="meta.attr.compatible_brands.markup">isomiso2avc1mp41</property>
  <property name="meta.attr.encoder.markup">Lavf58.29.100</property>
  <property name="meta.media.sample_aspect_num">1</property>
  <property name="meta.media.sample_aspect_den">1</property>
  <property name="meta.media.frame_rate_num">30</property>
  <property name="meta.media.frame_rate_den">1</property>
  <property name="meta.media.colorspace">709</property>
  <property name="meta.media.color_trc">1</property>
  <property name="meta.media.width">1280</property>
  <property name="meta.media.height">720</property>
  <property name="meta.media.color_range">mpeg</property>
  <property name="meta.media.top_field_first">0</property>
  <property name="meta.media.progressive">1</property>
  <property name="set.test_audio">1</property>
  <property name="set.test_image">0</property>
 </producer>
 <producer id="producer225" in="00:00:00.000" out="00:00:10.440">
  <property name="length">262</property>
  <property name="eof">pause</property>
  <property name="resource">vid_files/0_clips/2021-08-16 12-03-44.mp4</property>
  <property name="audio_index">1</property>
  <property name="video_index">0</property>
  <property name="mute_on_pause">0</property>
  <property name="mlt_service">avformat-novalidate</property>
  <property name="seekable">1</property>
  <property name="aspect_ratio">1</property>
  <property name="kdenlive:clipname"/>
  <property name="kdenlive:folderid">-1</property>
  <property name="kdenlive:id">39</property>
  <property name="kdenlive:file_size">5797203</property>
  <property name="kdenlive:file_hash">9fc07229c85c90693b700b9a4f3c9211</property>
  <property name="kdenlive:audio_max">14</property>
  <property name="global_feed">1</property>
  <property name="xml">was here</property>
  <property name="meta.media.nb_streams">2</property>
  <property name="meta.media.0.stream.type">video</property>
  <property name="meta.media.0.stream.frame_rate">30</property>
  <property name="meta.media.0.stream.sample_aspect_ratio">0</property>
  <property name="meta.media.0.codec.width">1280</property>
  <property name="meta.media.0.codec.height">720</property>
  <property name="meta.media.0.codec.rotate">0</property>
  <property name="meta.media.0.codec.frame_rate">30</property>
  <property name="meta.media.0.codec.pix_fmt">yuv420p</property>
  <property name="meta.media.0.codec.sample_aspect_ratio">1</property>
  <property name="meta.media.0.codec.colorspace">709</property>
  <property name="meta.media.0.codec.color_trc">1</property>
  <property name="meta.media.0.codec.name">h264</property>
  <property name="meta.media.0.codec.long_name">H.264 / AVC / MPEG-4 AVC / MPEG-4 part 10</property>
  <property name="meta.media.0.codec.bit_rate">4215471</property>
  <property name="meta.attr.0.stream.handler_name.markup">VideoHandler</property>
  <property name="meta.media.1.stream.type">audio</property>
  <property name="meta.media.1.codec.sample_fmt">fltp</property>
  <property name="meta.media.1.codec.sample_rate">48000</property>
  <property name="meta.media.1.codec.channels">2</property>
  <property name="meta.media.1.codec.name">aac</property>
  <property name="meta.media.1.codec.long_name">AAC (Advanced Audio Coding)</property>
  <property name="meta.media.1.codec.bit_rate">192857</property>
  <property name="meta.attr.1.stream.handler_name.markup">SoundHandler</property>
  <property name="meta.attr.major_brand.markup">isom</property>
  <property name="meta.attr.minor_version.markup">512</property>
  <property name="meta.attr.compatible_brands.markup">isomiso2avc1mp41</property>
  <property name="meta.attr.encoder.markup">Lavf58.29.100</property>
  <property name="meta.media.sample_aspect_num">1</property>
  <property name="meta.media.sample_aspect_den">1</property>
  <property name="meta.media.frame_rate_num">30</property>
  <property name="meta.media.frame_rate_den">1</property>
  <property name="meta.media.colorspace">709</property>
  <property name="meta.media.color_trc">1</property>
  <property name="meta.media.width">1280</property>
  <property name="meta.media.height">720</property>
  <property name="meta.media.color_range">mpeg</property>
  <property name="set.test_audio">1</property>
  <property name="set.test_image">0</property>
  <property name="meta.media.top_field_first">0</property>
  <property name="meta.media.progressive">1</property>
 </producer>
 <producer id="producer226" in="00:00:00.000" out="00:00:27.120">
  <property name="length">679</property>
  <property name="eof">pause</property>
  <property name="resource">vid_files/0_clips/2021-08-16 12-04-03.mp4</property>
  <property name="audio_index">1</property>
  <property name="video_index">0</property>
  <property name="mute_on_pause">0</property>
  <property name="mlt_service">avformat-novalidate</property>
  <property name="seekable">1</property>
  <property name="aspect_ratio">1</property>
  <property name="kdenlive:clipname"/>
  <property name="kdenlive:folderid">-1</property>
  <property name="kdenlive:id">40</property>
  <property name="kdenlive:file_size">14852065</property>
  <property name="kdenlive:file_hash">dc36f3e908d2e4d5e40f1e3f01615d08</property>
  <property name="kdenlive:audio_max">13</property>
  <property name="global_feed">1</property>
  <property name="xml">was here</property>
  <property name="meta.media.nb_streams">2</property>
  <property name="meta.media.0.stream.type">video</property>
  <property name="meta.media.0.stream.frame_rate">30</property>
  <property name="meta.media.0.stream.sample_aspect_ratio">0</property>
  <property name="meta.media.0.codec.width">1280</property>
  <property name="meta.media.0.codec.height">720</property>
  <property name="meta.media.0.codec.rotate">0</property>
  <property name="meta.media.0.codec.frame_rate">30</property>
  <property name="meta.media.0.codec.pix_fmt">yuv420p</property>
  <property name="meta.media.0.codec.sample_aspect_ratio">1</property>
  <property name="meta.media.0.codec.colorspace">709</property>
  <property name="meta.media.0.codec.color_trc">1</property>
  <property name="meta.media.0.codec.name">h264</property>
  <property name="meta.media.0.codec.long_name">H.264 / AVC / MPEG-4 AVC / MPEG-4 part 10</property>
  <property name="meta.media.0.codec.bit_rate">4172585</property>
  <property name="meta.attr.0.stream.handler_name.markup">VideoHandler</property>
  <property name="meta.media.1.stream.type">audio</property>
  <property name="meta.media.1.codec.sample_fmt">fltp</property>
  <property name="meta.media.1.codec.sample_rate">48000</property>
  <property name="meta.media.1.codec.channels">2</property>
  <property name="meta.media.1.codec.name">aac</property>
  <property name="meta.media.1.codec.long_name">AAC (Advanced Audio Coding)</property>
  <property name="meta.media.1.codec.bit_rate">192343</property>
  <property name="meta.attr.1.stream.handler_name.markup">SoundHandler</property>
  <property name="meta.attr.major_brand.markup">isom</property>
  <property name="meta.attr.minor_version.markup">512</property>
  <property name="meta.attr.compatible_brands.markup">isomiso2avc1mp41</property>
  <property name="meta.attr.encoder.markup">Lavf58.29.100</property>
  <property name="meta.media.sample_aspect_num">1</property>
  <property name="meta.media.sample_aspect_den">1</property>
  <property name="meta.media.frame_rate_num">30</property>
  <property name="meta.media.frame_rate_den">1</property>
  <property name="meta.media.colorspace">709</property>
  <property name="meta.media.color_trc">1</property>
  <property name="meta.media.width">1280</property>
  <property name="meta.media.height">720</property>
  <property name="meta.media.color_range">mpeg</property>
  <property name="set.test_audio">1</property>
  <property name="set.test_image">0</property>
  <property name="meta.media.top_field_first">0</property>
  <property name="meta.media.progressive">1</property>
 </producer>
 <producer id="producer227" in="00:00:00.000" out="00:01:03.080">
  <property name="length">1578</property>
  <property name="eof">pause</property>
  <property name="resource">vid_files/0_clips/2021-08-16 12-06-30.mp4</property>
  <property name="audio_index">1</property>
  <property name="video_index">0</property>
  <property name="mute_on_pause">0</property>
  <property name="mlt_service">avformat-novalidate</property>
  <property name="seekable">1</property>
  <property name="aspect_ratio">1</property>
  <property name="kdenlive:clipname"/>
  <property name="kdenlive:folderid">-1</property>
  <property name="kdenlive:id">41</property>
  <property name="kdenlive:file_size">33927028</property>
  <property name="kdenlive:file_hash">01f10cd022a2d3f80133f6e4ed9e7460</property>
  <property name="kdenlive:audio_max">15</property>
  <property name="global_feed">1</property>
  <property name="xml">was here</property>
  <property name="meta.media.nb_streams">2</property>
  <property name="meta.media.0.stream.type">video</property>
  <property name="meta.media.0.stream.frame_rate">30</property>
  <property name="meta.media.0.stream.sample_aspect_ratio">0</property>
  <property name="meta.media.0.codec.width">1280</property>
  <property name="meta.media.0.codec.height">720</property>
  <property name="meta.media.0.codec.rotate">0</property>
  <property name="meta.media.0.codec.frame_rate">30</property>
  <property name="meta.media.0.codec.pix_fmt">yuv420p</property>
  <property name="meta.media.0.codec.sample_aspect_ratio">1</property>
  <property name="meta.media.0.codec.colorspace">709</property>
  <property name="meta.media.0.codec.color_trc">1</property>
  <property name="meta.media.0.codec.name">h264</property>
  <property name="meta.media.0.codec.long_name">H.264 / AVC / MPEG-4 AVC / MPEG-4 part 10</property>
  <property name="meta.media.0.codec.bit_rate">4098190</property>
  <property name="meta.attr.0.stream.handler_name.markup">VideoHandler</property>
  <property name="meta.media.1.stream.type">audio</property>
  <property name="meta.media.1.codec.sample_fmt">fltp</property>
  <property name="meta.media.1.codec.sample_rate">48000</property>
  <property name="meta.media.1.codec.channels">2</property>
  <property name="meta.media.1.codec.name">aac</property>
  <property name="meta.media.1.codec.long_name">AAC (Advanced Audio Coding)</property>
  <property name="meta.media.1.codec.bit_rate">192138</property>
  <property name="meta.attr.1.stream.handler_name.markup">SoundHandler</property>
  <property name="meta.attr.major_brand.markup">isom</property>
  <property name="meta.attr.minor_version.markup">512</property>
  <property name="meta.attr.compatible_brands.markup">isomiso2avc1mp41</property>
  <property name="meta.attr.encoder.markup">Lavf58.29.100</property>
  <property name="meta.media.sample_aspect_num">1</property>
  <property name="meta.media.sample_aspect_den">1</property>
  <property name="meta.media.frame_rate_num">30</property>
  <property name="meta.media.frame_rate_den">1</property>
  <property name="meta.media.colorspace">709</property>
  <property name="meta.media.color_trc">1</property>
  <property name="meta.media.width">1280</property>
  <property name="meta.media.height">720</property>
  <property name="meta.media.color_range">mpeg</property>
  <property name="set.test_audio">1</property>
  <property name="set.test_image">0</property>
  <property name="meta.media.top_field_first">0</property>
  <property name="meta.media.progressive">1</property>
 </producer>
 <producer id="producer228" in="00:00:00.000" out="00:00:26.840">
  <property name="length">672</property>
  <property name="eof">pause</property>
  <property name="resource">vid_files/0_clips/2021-08-18 11-26-30.mp4</property>
  <property name="audio_index">1</property>
  <property name="video_index">0</property>
  <property name="mute_on_pause">0</property>
  <property name="mlt_service">avformat-novalidate</property>
  <property name="seekable">1</property>
  <property name="aspect_ratio">1</property>
  <property name="kdenlive:clipname"/>
  <property name="kdenlive:folderid">-1</property>
  <property name="kdenlive:id">101</property>
  <property name="kdenlive:file_size">3389982</property>
  <property name="kdenlive:file_hash">a64c8c418ca7315ab5a7c5eb04d78c64</property>
  <property name="kdenlive:audio_max">17</property>
  <property name="global_feed">1</property>
  <property name="xml">was here</property>
  <property name="meta.media.nb_streams">2</property>
  <property name="meta.media.0.stream.type">video</property>
  <property name="meta.media.0.stream.frame_rate">30</property>
  <property name="meta.media.0.stream.sample_aspect_ratio">0</property>
  <property name="meta.media.0.codec.width">1280</property>
  <property name="meta.media.0.codec.height">720</property>
  <property name="meta.media.0.codec.rotate">0</property>
  <property name="meta.media.0.codec.frame_rate">30</property>
  <property name="meta.media.0.codec.pix_fmt">yuv420p</property>
  <property name="meta.media.0.codec.sample_aspect_ratio">1</property>
  <property name="meta.media.0.codec.colorspace">709</property>
  <property name="meta.media.0.codec.color_trc">1</property>
  <property name="meta.media.0.codec.name">h264</property>
  <property name="meta.media.0.codec.long_name">H.264 / AVC / MPEG-4 AVC / MPEG-4 part 10</property>
  <property name="meta.media.0.codec.bit_rate">808399</property>
  <property name="meta.attr.0.stream.handler_name.markup">VideoHandler</property>
  <property name="meta.media.1.stream.type">audio</property>
  <property name="meta.media.1.codec.sample_fmt">fltp</property>
  <property name="meta.media.1.codec.sample_rate">48000</property>
  <property name="meta.media.1.codec.channels">2</property>
  <property name="meta.media.1.codec.name">aac</property>
  <property name="meta.media.1.codec.long_name">AAC (Advanced Audio Coding)</property>
  <property name="meta.media.1.codec.bit_rate">192338</property>
  <property name="meta.attr.1.stream.handler_name.markup">SoundHandler</property>
  <property name="meta.attr.major_brand.markup">isom</property>
  <property name="meta.attr.minor_version.markup">512</property>
  <property name="meta.attr.compatible_brands.markup">isomiso2avc1mp41</property>
  <property name="meta.attr.encoder.markup">Lavf58.29.100</property>
  <property name="meta.media.sample_aspect_num">1</property>
  <property name="meta.media.sample_aspect_den">1</property>
  <property name="meta.media.frame_rate_num">30</property>
  <property name="meta.media.frame_rate_den">1</property>
  <property name="meta.media.colorspace">709</property>
  <property name="meta.media.color_trc">1</property>
  <property name="meta.media.width">1280</property>
  <property name="meta.media.height">720</property>
  <property name="meta.media.color_range">mpeg</property>
  <property name="set.test_audio">1</property>
  <property name="set.test_image">0</property>
  <property name="meta.media.top_field_first">0</property>
  <property name="meta.media.progressive">1</property>
 </producer>
 <producer id="producer229" in="00:00:00.000" out="00:00:05.560">
  <property name="length">00:00:05.600</property>
  <property name="eof">pause</property>
  <property name="resource">vid_files/10_chapters/chap3_/chap3_%03d.png</property>
  <property name="ttl">1</property>
  <property name="aspect_ratio">1</property>
  <property name="progressive">1</property>
  <property name="seekable">1</property>
  <property name="meta.media.width">1920</property>
  <property name="meta.media.height">1080</property>
  <property name="mlt_service">qimage</property>
  <property name="kdenlive:clipname">chap3_</property>
  <property name="luma_duration">25</property>
  <property name="fade">0</property>
  <property name="crop">0</property>
  <property name="loop">0</property>
  <property name="kdenlive:duration">00:00:05.600</property>
  <property name="kdenlive:folderid">-1</property>
  <property name="kdenlive:id">113</property>
  <property name="kdenlive:file_hash">b9fdbd169a2c98a35bfe94fbb77a0572</property>
  <property name="global_feed">1</property>
  <property name="xml">was here</property>
  <property name="set.test_audio">1</property>
  <property name="set.test_image">0</property>
 </producer>
 <producer id="producer230" in="00:00:00.000" out="00:01:01.040">
  <property name="length">1527</property>
  <property name="eof">pause</property>
  <property name="resource">vid_files/0_clips/2021-08-16 12-29-52.mp4</property>
  <property name="audio_index">1</property>
  <property name="video_index">0</property>
  <property name="mute_on_pause">0</property>
  <property name="mlt_service">avformat-novalidate</property>
  <property name="seekable">1</property>
  <property name="aspect_ratio">1</property>
  <property name="kdenlive:clipname"/>
  <property name="kdenlive:folderid">-1</property>
  <property name="kdenlive:id">42</property>
  <property name="kdenlive:file_size">41787275</property>
  <property name="kdenlive:file_hash">56305276afc2292f6d3a150f4bf41c94</property>
  <property name="kdenlive:audio_max">14</property>
  <property name="global_feed">1</property>
  <property name="xml">was here</property>
  <property name="meta.media.nb_streams">2</property>
  <property name="meta.media.0.stream.type">video</property>
  <property name="meta.media.0.stream.frame_rate">30</property>
  <property name="meta.media.0.stream.sample_aspect_ratio">0</property>
  <property name="meta.media.0.codec.width">1280</property>
  <property name="meta.media.0.codec.height">720</property>
  <property name="meta.media.0.codec.rotate">0</property>
  <property name="meta.media.0.codec.frame_rate">30</property>
  <property name="meta.media.0.codec.pix_fmt">yuv420p</property>
  <property name="meta.media.0.codec.sample_aspect_ratio">1</property>
  <property name="meta.media.0.codec.colorspace">709</property>
  <property name="meta.media.0.codec.color_trc">1</property>
  <property name="meta.media.0.codec.name">h264</property>
  <property name="meta.media.0.codec.long_name">H.264 / AVC / MPEG-4 AVC / MPEG-4 part 10</property>
  <property name="meta.media.0.codec.bit_rate">5273403</property>
  <property name="meta.attr.0.stream.handler_name.markup">VideoHandler</property>
  <property name="meta.media.1.stream.type">audio</property>
  <property name="meta.media.1.codec.sample_fmt">fltp</property>
  <property name="meta.media.1.codec.sample_rate">48000</property>
  <property name="meta.media.1.codec.channels">2</property>
  <property name="meta.media.1.codec.name">aac</property>
  <property name="meta.media.1.codec.long_name">AAC (Advanced Audio Coding)</property>
  <property name="meta.media.1.codec.bit_rate">192158</property>
  <property name="meta.attr.1.stream.handler_name.markup">SoundHandler</property>
  <property name="meta.attr.major_brand.markup">isom</property>
  <property name="meta.attr.minor_version.markup">512</property>
  <property name="meta.attr.compatible_brands.markup">isomiso2avc1mp41</property>
  <property name="meta.attr.encoder.markup">Lavf58.29.100</property>
  <property name="meta.media.sample_aspect_num">1</property>
  <property name="meta.media.sample_aspect_den">1</property>
  <property name="meta.media.frame_rate_num">30</property>
  <property name="meta.media.frame_rate_den">1</property>
  <property name="meta.media.colorspace">709</property>
  <property name="meta.media.color_trc">1</property>
  <property name="meta.media.width">1280</property>
  <property name="meta.media.height">720</property>
  <property name="meta.media.color_range">mpeg</property>
  <property name="set.test_audio">1</property>
  <property name="set.test_image">0</property>
  <property name="meta.media.top_field_first">0</property>
  <property name="meta.media.progressive">1</property>
 </producer>
 <producer id="producer231" in="00:00:00.000" out="00:00:12.680">
  <property name="length">318</property>
  <property name="eof">pause</property>
  <property name="resource">vid_files/0_clips/2021-08-17 08-16-20.mp4</property>
  <property name="audio_index">1</property>
  <property name="video_index">0</property>
  <property name="mute_on_pause">0</property>
  <property name="mlt_service">avformat-novalidate</property>
  <property name="seekable">1</property>
  <property name="aspect_ratio">1</property>
  <property name="kdenlive:clipname"/>
  <property name="kdenlive:folderid">-1</property>
  <property name="kdenlive:id">52</property>
  <property name="kdenlive:file_size">1569203</property>
  <property name="kdenlive:file_hash">6bf44511079979af780ce72bd6acb350</property>
  <property name="kdenlive:audio_max">20</property>
  <property name="global_feed">1</property>
  <property name="xml">was here</property>
  <property name="meta.media.nb_streams">2</property>
  <property name="meta.media.0.stream.type">video</property>
  <property name="meta.media.0.stream.frame_rate">30</property>
  <property name="meta.media.0.stream.sample_aspect_ratio">0</property>
  <property name="meta.media.0.codec.width">1280</property>
  <property name="meta.media.0.codec.height">720</property>
  <property name="meta.media.0.codec.rotate">0</property>
  <property name="meta.media.0.codec.frame_rate">30</property>
  <property name="meta.media.0.codec.pix_fmt">yuv420p</property>
  <property name="meta.media.0.codec.sample_aspect_ratio">1</property>
  <property name="meta.media.0.codec.colorspace">709</property>
  <property name="meta.media.0.codec.color_trc">1</property>
  <property name="meta.media.0.codec.name">h264</property>
  <property name="meta.media.0.codec.long_name">H.264 / AVC / MPEG-4 AVC / MPEG-4 part 10</property>
  <property name="meta.media.0.codec.bit_rate">784722</property>
  <property name="meta.attr.0.stream.handler_name.markup">VideoHandler</property>
  <property name="meta.media.1.stream.type">audio</property>
  <property name="meta.media.1.codec.sample_fmt">fltp</property>
  <property name="meta.media.1.codec.sample_rate">48000</property>
  <property name="meta.media.1.codec.channels">2</property>
  <property name="meta.media.1.codec.name">aac</property>
  <property name="meta.media.1.codec.long_name">AAC (Advanced Audio Coding)</property>
  <property name="meta.media.1.codec.bit_rate">192746</property>
  <property name="meta.attr.1.stream.handler_name.markup">SoundHandler</property>
  <property name="meta.attr.major_brand.markup">isom</property>
  <property name="meta.attr.minor_version.markup">512</property>
  <property name="meta.attr.compatible_brands.markup">isomiso2avc1mp41</property>
  <property name="meta.attr.encoder.markup">Lavf58.29.100</property>
  <property name="meta.media.sample_aspect_num">1</property>
  <property name="meta.media.sample_aspect_den">1</property>
  <property name="meta.media.frame_rate_num">30</property>
  <property name="meta.media.frame_rate_den">1</property>
  <property name="meta.media.colorspace">709</property>
  <property name="meta.media.color_trc">1</property>
  <property name="meta.media.width">1280</property>
  <property name="meta.media.height">720</property>
  <property name="meta.media.color_range">mpeg</property>
  <property name="meta.media.top_field_first">0</property>
  <property name="meta.media.progressive">1</property>
  <property name="set.test_audio">1</property>
  <property name="set.test_image">0</property>
 </producer>
 <producer id="producer232" in="00:00:00.000" out="00:00:15.720">
  <property name="length">394</property>
  <property name="eof">pause</property>
  <property name="resource">vid_files/0_clips/2021-08-18 21-03-02.mp4</property>
  <property name="audio_index">1</property>
  <property name="video_index">0</property>
  <property name="mute_on_pause">0</property>
  <property name="mlt_service">avformat-novalidate</property>
  <property name="seekable">1</property>
  <property name="aspect_ratio">1</property>
  <property name="kdenlive:clipname"/>
  <property name="kdenlive:folderid">-1</property>
  <property name="kdenlive:id">132</property>
  <property name="kdenlive:file_size">2822467</property>
  <property name="kdenlive:file_hash">f56eeafbe1031bdf90c74d462358f818</property>
  <property name="kdenlive:audio_max">16</property>
  <property name="global_feed">1</property>
  <property name="xml">was here</property>
  <property name="meta.media.nb_streams">2</property>
  <property name="meta.media.0.stream.type">video</property>
  <property name="meta.media.0.stream.frame_rate">30</property>
  <property name="meta.media.0.stream.sample_aspect_ratio">0</property>
  <property name="meta.media.0.codec.width">1280</property>
  <property name="meta.media.0.codec.height">720</property>
  <property name="meta.media.0.codec.rotate">0</property>
  <property name="meta.media.0.codec.frame_rate">30</property>
  <property name="meta.media.0.codec.pix_fmt">yuv420p</property>
  <property name="meta.media.0.codec.sample_aspect_ratio">1</property>
  <property name="meta.media.0.codec.colorspace">709</property>
  <property name="meta.media.0.codec.color_trc">1</property>
  <property name="meta.media.0.codec.name">h264</property>
  <property name="meta.media.0.codec.long_name">H.264 / AVC / MPEG-4 AVC / MPEG-4 part 10</property>
  <property name="meta.media.0.codec.bit_rate">1231062</property>
  <property name="meta.attr.0.stream.handler_name.markup">VideoHandler</property>
  <property name="meta.media.1.stream.type">audio</property>
  <property name="meta.media.1.codec.sample_fmt">fltp</property>
  <property name="meta.media.1.codec.sample_rate">48000</property>
  <property name="meta.media.1.codec.channels">2</property>
  <property name="meta.media.1.codec.name">aac</property>
  <property name="meta.media.1.codec.long_name">AAC (Advanced Audio Coding)</property>
  <property name="meta.media.1.codec.bit_rate">192610</property>
  <property name="meta.attr.1.stream.handler_name.markup">SoundHandler</property>
  <property name="meta.attr.major_brand.markup">isom</property>
  <property name="meta.attr.minor_version.markup">512</property>
  <property name="meta.attr.compatible_brands.markup">isomiso2avc1mp41</property>
  <property name="meta.attr.encoder.markup">Lavf58.29.100</property>
  <property name="meta.media.sample_aspect_num">1</property>
  <property name="meta.media.sample_aspect_den">1</property>
  <property name="meta.media.frame_rate_num">30</property>
  <property name="meta.media.frame_rate_den">1</property>
  <property name="meta.media.colorspace">709</property>
  <property name="meta.media.color_trc">1</property>
  <property name="meta.media.width">1280</property>
  <property name="meta.media.height">720</property>
  <property name="meta.media.color_range">mpeg</property>
  <property name="meta.media.top_field_first">0</property>
  <property name="meta.media.progressive">1</property>
  <property name="set.test_audio">1</property>
  <property name="set.test_image">0</property>
 </producer>
 <producer id="producer233" in="00:00:00.000" out="00:00:04.440">
  <property name="length">112</property>
  <property name="eof">pause</property>
  <property name="resource">vid_files/0_clips/2021-08-18 21-03-21.mp4</property>
  <property name="audio_index">1</property>
  <property name="video_index">0</property>
  <property name="mute_on_pause">0</property>
  <property name="mlt_service">avformat-novalidate</property>
  <property name="seekable">1</property>
  <property name="aspect_ratio">1</property>
  <property name="kdenlive:clipname"/>
  <property name="kdenlive:folderid">-1</property>
  <property name="kdenlive:id">133</property>
  <property name="kdenlive:file_size">770653</property>
  <property name="kdenlive:file_hash">ef2cb54f7cabe5c075ce8308b6ec09af</property>
  <property name="kdenlive:audio_max">17</property>
  <property name="global_feed">1</property>
  <property name="xml">was here</property>
  <property name="meta.media.nb_streams">2</property>
  <property name="meta.media.0.stream.type">video</property>
  <property name="meta.media.0.stream.frame_rate">30</property>
  <property name="meta.media.0.stream.sample_aspect_ratio">0</property>
  <property name="meta.media.0.codec.width">1280</property>
  <property name="meta.media.0.codec.height">720</property>
  <property name="meta.media.0.codec.rotate">0</property>
  <property name="meta.media.0.codec.frame_rate">30</property>
  <property name="meta.media.0.codec.pix_fmt">yuv420p</property>
  <property name="meta.media.0.codec.sample_aspect_ratio">1</property>
  <property name="meta.media.0.codec.colorspace">709</property>
  <property name="meta.media.0.codec.color_trc">1</property>
  <property name="meta.media.0.codec.name">h264</property>
  <property name="meta.media.0.codec.long_name">H.264 / AVC / MPEG-4 AVC / MPEG-4 part 10</property>
  <property name="meta.media.0.codec.bit_rate">1178081</property>
  <property name="meta.attr.0.stream.handler_name.markup">VideoHandler</property>
  <property name="meta.media.1.stream.type">audio</property>
  <property name="meta.media.1.codec.sample_fmt">fltp</property>
  <property name="meta.media.1.codec.sample_rate">48000</property>
  <property name="meta.media.1.codec.channels">2</property>
  <property name="meta.media.1.codec.name">aac</property>
  <property name="meta.media.1.codec.long_name">AAC (Advanced Audio Coding)</property>
  <property name="meta.media.1.codec.bit_rate">194067</property>
  <property name="meta.attr.1.stream.handler_name.markup">SoundHandler</property>
  <property name="meta.attr.major_brand.markup">isom</property>
  <property name="meta.attr.minor_version.markup">512</property>
  <property name="meta.attr.compatible_brands.markup">isomiso2avc1mp41</property>
  <property name="meta.attr.encoder.markup">Lavf58.29.100</property>
  <property name="meta.media.sample_aspect_num">1</property>
  <property name="meta.media.sample_aspect_den">1</property>
  <property name="meta.media.frame_rate_num">30</property>
  <property name="meta.media.frame_rate_den">1</property>
  <property name="meta.media.colorspace">709</property>
  <property name="meta.media.color_trc">1</property>
  <property name="meta.media.width">1280</property>
  <property name="meta.media.height">720</property>
  <property name="meta.media.color_range">mpeg</property>
  <property name="set.test_audio">1</property>
  <property name="set.test_image">0</property>
  <property name="meta.media.top_field_first">0</property>
  <property name="meta.media.progressive">1</property>
 </producer>
 <producer id="producer234" in="00:00:00.000" out="00:00:34.080">
  <property name="length">853</property>
  <property name="eof">pause</property>
  <property name="resource">vid_files/0_clips/2021-08-16 12-31-01.mp4</property>
  <property name="audio_index">1</property>
  <property name="video_index">0</property>
  <property name="mute_on_pause">0</property>
  <property name="mlt_service">avformat-novalidate</property>
  <property name="seekable">1</property>
  <property name="aspect_ratio">1</property>
  <property name="kdenlive:clipname"/>
  <property name="kdenlive:folderid">-1</property>
  <property name="kdenlive:id">43</property>
  <property name="kdenlive:file_size">24902306</property>
  <property name="kdenlive:file_hash">798724fdf0d31c7504719a9ea30912c8</property>
  <property name="kdenlive:audio_max">15</property>
  <property name="global_feed">1</property>
  <property name="xml">was here</property>
  <property name="meta.media.nb_streams">2</property>
  <property name="meta.media.0.stream.type">video</property>
  <property name="meta.media.0.stream.frame_rate">30</property>
  <property name="meta.media.0.stream.sample_aspect_ratio">0</property>
  <property name="meta.media.0.codec.width">1280</property>
  <property name="meta.media.0.codec.height">720</property>
  <property name="meta.media.0.codec.rotate">0</property>
  <property name="meta.media.0.codec.frame_rate">30</property>
  <property name="meta.media.0.codec.pix_fmt">yuv420p</property>
  <property name="meta.media.0.codec.sample_aspect_ratio">1</property>
  <property name="meta.media.0.codec.colorspace">709</property>
  <property name="meta.media.0.codec.color_trc">1</property>
  <property name="meta.media.0.codec.name">h264</property>
  <property name="meta.media.0.codec.long_name">H.264 / AVC / MPEG-4 AVC / MPEG-4 part 10</property>
  <property name="meta.media.0.codec.bit_rate">5635550</property>
  <property name="meta.attr.0.stream.handler_name.markup">VideoHandler</property>
  <property name="meta.media.1.stream.type">audio</property>
  <property name="meta.media.1.codec.sample_fmt">fltp</property>
  <property name="meta.media.1.codec.sample_rate">48000</property>
  <property name="meta.media.1.codec.channels">2</property>
  <property name="meta.media.1.codec.name">aac</property>
  <property name="meta.media.1.codec.long_name">AAC (Advanced Audio Coding)</property>
  <property name="meta.media.1.codec.bit_rate">192282</property>
  <property name="meta.attr.1.stream.handler_name.markup">SoundHandler</property>
  <property name="meta.attr.major_brand.markup">isom</property>
  <property name="meta.attr.minor_version.markup">512</property>
  <property name="meta.attr.compatible_brands.markup">isomiso2avc1mp41</property>
  <property name="meta.attr.encoder.markup">Lavf58.29.100</property>
  <property name="meta.media.sample_aspect_num">1</property>
  <property name="meta.media.sample_aspect_den">1</property>
  <property name="meta.media.frame_rate_num">30</property>
  <property name="meta.media.frame_rate_den">1</property>
  <property name="meta.media.colorspace">709</property>
  <property name="meta.media.color_trc">1</property>
  <property name="meta.media.width">1280</property>
  <property name="meta.media.height">720</property>
  <property name="meta.media.color_range">mpeg</property>
  <property name="set.test_audio">1</property>
  <property name="set.test_image">0</property>
  <property name="meta.media.top_field_first">0</property>
  <property name="meta.media.progressive">1</property>
 </producer>
 <producer id="producer235" in="00:00:00.000" out="00:00:09.080">
  <property name="length">228</property>
  <property name="eof">pause</property>
  <property name="resource">vid_files/0_clips/2021-08-17 08-15-47.mp4</property>
  <property name="audio_index">1</property>
  <property name="video_index">0</property>
  <property name="mute_on_pause">0</property>
  <property name="mlt_service">avformat-novalidate</property>
  <property name="seekable">1</property>
  <property name="aspect_ratio">1</property>
  <property name="kdenlive:clipname"/>
  <property name="kdenlive:folderid">-1</property>
  <property name="kdenlive:id">51</property>
  <property name="kdenlive:file_size">1216084</property>
  <property name="kdenlive:file_hash">0829a20dbd2e7dd36ea45389ece9a5af</property>
  <property name="kdenlive:audio_max">20</property>
  <property name="global_feed">1</property>
  <property name="xml">was here</property>
  <property name="meta.media.nb_streams">2</property>
  <property name="meta.media.0.stream.type">video</property>
  <property name="meta.media.0.stream.frame_rate">30</property>
  <property name="meta.media.0.stream.sample_aspect_ratio">0</property>
  <property name="meta.media.0.codec.width">1280</property>
  <property name="meta.media.0.codec.height">720</property>
  <property name="meta.media.0.codec.rotate">0</property>
  <property name="meta.media.0.codec.frame_rate">30</property>
  <property name="meta.media.0.codec.pix_fmt">yuv420p</property>
  <property name="meta.media.0.codec.sample_aspect_ratio">1</property>
  <property name="meta.media.0.codec.colorspace">709</property>
  <property name="meta.media.0.codec.color_trc">1</property>
  <property name="meta.media.0.codec.name">h264</property>
  <property name="meta.media.0.codec.long_name">H.264 / AVC / MPEG-4 AVC / MPEG-4 part 10</property>
  <property name="meta.media.0.codec.bit_rate">863989</property>
  <property name="meta.attr.0.stream.handler_name.markup">VideoHandler</property>
  <property name="meta.media.1.stream.type">audio</property>
  <property name="meta.media.1.codec.sample_fmt">fltp</property>
  <property name="meta.media.1.codec.sample_rate">48000</property>
  <property name="meta.media.1.codec.channels">2</property>
  <property name="meta.media.1.codec.name">aac</property>
  <property name="meta.media.1.codec.long_name">AAC (Advanced Audio Coding)</property>
  <property name="meta.media.1.codec.bit_rate">193044</property>
  <property name="meta.attr.1.stream.handler_name.markup">SoundHandler</property>
  <property name="meta.attr.major_brand.markup">isom</property>
  <property name="meta.attr.minor_version.markup">512</property>
  <property name="meta.attr.compatible_brands.markup">isomiso2avc1mp41</property>
  <property name="meta.attr.encoder.markup">Lavf58.29.100</property>
  <property name="meta.media.sample_aspect_num">1</property>
  <property name="meta.media.sample_aspect_den">1</property>
  <property name="meta.media.frame_rate_num">30</property>
  <property name="meta.media.frame_rate_den">1</property>
  <property name="meta.media.colorspace">709</property>
  <property name="meta.media.color_trc">1</property>
  <property name="meta.media.width">1280</property>
  <property name="meta.media.height">720</property>
  <property name="meta.media.color_range">mpeg</property>
  <property name="set.test_audio">1</property>
  <property name="set.test_image">0</property>
  <property name="meta.media.top_field_first">0</property>
  <property name="meta.media.progressive">1</property>
 </producer>
 <producer id="producer236" in="00:00:00.000" out="00:00:27.920">
  <property name="length">699</property>
  <property name="eof">pause</property>
  <property name="resource">vid_files/0_clips/2021-08-17 08-18-10.mp4</property>
  <property name="audio_index">1</property>
  <property name="video_index">0</property>
  <property name="mute_on_pause">0</property>
  <property name="mlt_service">avformat-novalidate</property>
  <property name="seekable">1</property>
  <property name="aspect_ratio">1</property>
  <property name="kdenlive:clipname"/>
  <property name="kdenlive:folderid">-1</property>
  <property name="kdenlive:id">53</property>
  <property name="kdenlive:file_size">3512613</property>
  <property name="kdenlive:file_hash">7514eb046151d1001087d78c783a590d</property>
  <property name="kdenlive:audio_max">17</property>
  <property name="global_feed">1</property>
  <property name="xml">was here</property>
  <property name="meta.media.nb_streams">2</property>
  <property name="meta.media.0.stream.type">video</property>
  <property name="meta.media.0.stream.frame_rate">30</property>
  <property name="meta.media.0.stream.sample_aspect_ratio">0</property>
  <property name="meta.media.0.codec.width">1280</property>
  <property name="meta.media.0.codec.height">720</property>
  <property name="meta.media.0.codec.rotate">0</property>
  <property name="meta.media.0.codec.frame_rate">30</property>
  <property name="meta.media.0.codec.pix_fmt">yuv420p</property>
  <property name="meta.media.0.codec.sample_aspect_ratio">1</property>
  <property name="meta.media.0.codec.colorspace">709</property>
  <property name="meta.media.0.codec.color_trc">1</property>
  <property name="meta.media.0.codec.name">h264</property>
  <property name="meta.media.0.codec.long_name">H.264 / AVC / MPEG-4 AVC / MPEG-4 part 10</property>
  <property name="meta.media.0.codec.bit_rate">803830</property>
  <property name="meta.attr.0.stream.handler_name.markup">VideoHandler</property>
  <property name="meta.media.1.stream.type">audio</property>
  <property name="meta.media.1.codec.sample_fmt">fltp</property>
  <property name="meta.media.1.codec.sample_rate">48000</property>
  <property name="meta.media.1.codec.channels">2</property>
  <property name="meta.media.1.codec.name">aac</property>
  <property name="meta.media.1.codec.long_name">AAC (Advanced Audio Coding)</property>
  <property name="meta.media.1.codec.bit_rate">192342</property>
  <property name="meta.attr.1.stream.handler_name.markup">SoundHandler</property>
  <property name="meta.attr.major_brand.markup">isom</property>
  <property name="meta.attr.minor_version.markup">512</property>
  <property name="meta.attr.compatible_brands.markup">isomiso2avc1mp41</property>
  <property name="meta.attr.encoder.markup">Lavf58.29.100</property>
  <property name="meta.media.sample_aspect_num">1</property>
  <property name="meta.media.sample_aspect_den">1</property>
  <property name="meta.media.frame_rate_num">30</property>
  <property name="meta.media.frame_rate_den">1</property>
  <property name="meta.media.colorspace">709</property>
  <property name="meta.media.color_trc">1</property>
  <property name="meta.media.width">1280</property>
  <property name="meta.media.height">720</property>
  <property name="meta.media.color_range">mpeg</property>
  <property name="set.test_audio">1</property>
  <property name="set.test_image">0</property>
  <property name="meta.media.top_field_first">0</property>
  <property name="meta.media.progressive">1</property>
 </producer>
 <producer id="producer237" in="00:00:00.000" out="00:00:13.240">
  <property name="length">332</property>
  <property name="eof">pause</property>
  <property name="resource">vid_files/0_clips/2021-08-17 08-19-05.mp4</property>
  <property name="audio_index">1</property>
  <property name="video_index">0</property>
  <property name="mute_on_pause">0</property>
  <property name="mlt_service">avformat-novalidate</property>
  <property name="seekable">1</property>
  <property name="aspect_ratio">1</property>
  <property name="kdenlive:clipname"/>
  <property name="kdenlive:folderid">-1</property>
  <property name="kdenlive:id">54</property>
  <property name="kdenlive:file_size">1679204</property>
  <property name="kdenlive:file_hash">8a6e44340f6abf24f09c4c935215b934</property>
  <property name="kdenlive:audio_max">16</property>
  <property name="global_feed">1</property>
  <property name="xml">was here</property>
  <property name="meta.media.nb_streams">2</property>
  <property name="meta.media.0.stream.type">video</property>
  <property name="meta.media.0.stream.frame_rate">30</property>
  <property name="meta.media.0.stream.sample_aspect_ratio">0</property>
  <property name="meta.media.0.codec.width">1280</property>
  <property name="meta.media.0.codec.height">720</property>
  <property name="meta.media.0.codec.rotate">0</property>
  <property name="meta.media.0.codec.frame_rate">30</property>
  <property name="meta.media.0.codec.pix_fmt">yuv420p</property>
  <property name="meta.media.0.codec.sample_aspect_ratio">1</property>
  <property name="meta.media.0.codec.colorspace">709</property>
  <property name="meta.media.0.codec.color_trc">1</property>
  <property name="meta.media.0.codec.name">h264</property>
  <property name="meta.media.0.codec.long_name">H.264 / AVC / MPEG-4 AVC / MPEG-4 part 10</property>
  <property name="meta.media.0.codec.bit_rate">808786</property>
  <property name="meta.attr.0.stream.handler_name.markup">VideoHandler</property>
  <property name="meta.media.1.stream.type">audio</property>
  <property name="meta.media.1.codec.sample_fmt">fltp</property>
  <property name="meta.media.1.codec.sample_rate">48000</property>
  <property name="meta.media.1.codec.channels">2</property>
  <property name="meta.media.1.codec.name">aac</property>
  <property name="meta.media.1.codec.long_name">AAC (Advanced Audio Coding)</property>
  <property name="meta.media.1.codec.bit_rate">192687</property>
  <property name="meta.attr.1.stream.handler_name.markup">SoundHandler</property>
  <property name="meta.attr.major_brand.markup">isom</property>
  <property name="meta.attr.minor_version.markup">512</property>
  <property name="meta.attr.compatible_brands.markup">isomiso2avc1mp41</property>
  <property name="meta.attr.encoder.markup">Lavf58.29.100</property>
  <property name="meta.media.sample_aspect_num">1</property>
  <property name="meta.media.sample_aspect_den">1</property>
  <property name="meta.media.frame_rate_num">30</property>
  <property name="meta.media.frame_rate_den">1</property>
  <property name="meta.media.colorspace">709</property>
  <property name="meta.media.color_trc">1</property>
  <property name="meta.media.width">1280</property>
  <property name="meta.media.height">720</property>
  <property name="meta.media.color_range">mpeg</property>
  <property name="set.test_audio">1</property>
  <property name="set.test_image">0</property>
  <property name="meta.media.top_field_first">0</property>
  <property name="meta.media.progressive">1</property>
 </producer>
 <producer id="producer238" in="00:00:00.000" out="00:00:10.680">
  <property name="length">268</property>
  <property name="eof">pause</property>
  <property name="resource">vid_files/0_clips/2021-08-18 21-03-28.mp4</property>
  <property name="audio_index">1</property>
  <property name="video_index">0</property>
  <property name="mute_on_pause">0</property>
  <property name="mlt_service">avformat-novalidate</property>
  <property name="seekable">1</property>
  <property name="aspect_ratio">1</property>
  <property name="kdenlive:clipname"/>
  <property name="kdenlive:folderid">-1</property>
  <property name="kdenlive:id">134</property>
  <property name="kdenlive:file_size">1812907</property>
  <property name="kdenlive:file_hash">03ca5ab47d01fcf1f26685e55a584334</property>
  <property name="kdenlive:audio_max">18</property>
  <property name="global_feed">1</property>
  <property name="xml">was here</property>
  <property name="meta.media.nb_streams">2</property>
  <property name="meta.media.0.stream.type">video</property>
  <property name="meta.media.0.stream.frame_rate">30</property>
  <property name="meta.media.0.stream.sample_aspect_ratio">0</property>
  <property name="meta.media.0.codec.width">1280</property>
  <property name="meta.media.0.codec.height">720</property>
  <property name="meta.media.0.codec.rotate">0</property>
  <property name="meta.media.0.codec.frame_rate">30</property>
  <property name="meta.media.0.codec.pix_fmt">yuv420p</property>
  <property name="meta.media.0.codec.sample_aspect_ratio">1</property>
  <property name="meta.media.0.codec.colorspace">709</property>
  <property name="meta.media.0.codec.color_trc">1</property>
  <property name="meta.media.0.codec.name">h264</property>
  <property name="meta.media.0.codec.long_name">H.264 / AVC / MPEG-4 AVC / MPEG-4 part 10</property>
  <property name="meta.media.0.codec.bit_rate">1154089</property>
  <property name="meta.attr.0.stream.handler_name.markup">VideoHandler</property>
  <property name="meta.media.1.stream.type">audio</property>
  <property name="meta.media.1.codec.sample_fmt">fltp</property>
  <property name="meta.media.1.codec.sample_rate">48000</property>
  <property name="meta.media.1.codec.channels">2</property>
  <property name="meta.media.1.codec.name">aac</property>
  <property name="meta.media.1.codec.long_name">AAC (Advanced Audio Coding)</property>
  <property name="meta.media.1.codec.bit_rate">192901</property>
  <property name="meta.attr.1.stream.handler_name.markup">SoundHandler</property>
  <property name="meta.attr.major_brand.markup">isom</property>
  <property name="meta.attr.minor_version.markup">512</property>
  <property name="meta.attr.compatible_brands.markup">isomiso2avc1mp41</property>
  <property name="meta.attr.encoder.markup">Lavf58.29.100</property>
  <property name="meta.media.sample_aspect_num">1</property>
  <property name="meta.media.sample_aspect_den">1</property>
  <property name="meta.media.frame_rate_num">30</property>
  <property name="meta.media.frame_rate_den">1</property>
  <property name="meta.media.colorspace">709</property>
  <property name="meta.media.color_trc">1</property>
  <property name="meta.media.width">1280</property>
  <property name="meta.media.height">720</property>
  <property name="meta.media.color_range">mpeg</property>
  <property name="meta.media.top_field_first">0</property>
  <property name="meta.media.progressive">1</property>
  <property name="set.test_audio">1</property>
  <property name="set.test_image">0</property>
 </producer>
 <producer id="producer239" in="00:00:00.000" out="00:02:04.640">
  <property name="length">3117</property>
  <property name="eof">pause</property>
  <property name="resource">vid_files/0_clips/2021-08-17 08-20-27.mp4</property>
  <property name="audio_index">1</property>
  <property name="video_index">0</property>
  <property name="mute_on_pause">0</property>
  <property name="mlt_service">avformat-novalidate</property>
  <property name="seekable">1</property>
  <property name="aspect_ratio">1</property>
  <property name="kdenlive:clipname"/>
  <property name="kdenlive:folderid">-1</property>
  <property name="kdenlive:id">55</property>
  <property name="kdenlive:file_size">14112247</property>
  <property name="kdenlive:file_hash">27edcc9c284e39ce24fe50122442948c</property>
  <property name="kdenlive:audio_max">16</property>
  <property name="global_feed">1</property>
  <property name="xml">was here</property>
  <property name="meta.media.nb_streams">2</property>
  <property name="meta.media.0.stream.type">video</property>
  <property name="meta.media.0.stream.frame_rate">30</property>
  <property name="meta.media.0.stream.sample_aspect_ratio">0</property>
  <property name="meta.media.0.codec.width">1280</property>
  <property name="meta.media.0.codec.height">720</property>
  <property name="meta.media.0.codec.rotate">0</property>
  <property name="meta.media.0.codec.frame_rate">30</property>
  <property name="meta.media.0.codec.pix_fmt">yuv420p</property>
  <property name="meta.media.0.codec.sample_aspect_ratio">1</property>
  <property name="meta.media.0.codec.colorspace">709</property>
  <property name="meta.media.0.codec.color_trc">1</property>
  <property name="meta.media.0.codec.name">h264</property>
  <property name="meta.media.0.codec.long_name">H.264 / AVC / MPEG-4 AVC / MPEG-4 part 10</property>
  <property name="meta.media.0.codec.bit_rate">704748</property>
  <property name="meta.attr.0.stream.handler_name.markup">VideoHandler</property>
  <property name="meta.media.1.stream.type">audio</property>
  <property name="meta.media.1.codec.sample_fmt">fltp</property>
  <property name="meta.media.1.codec.sample_rate">48000</property>
  <property name="meta.media.1.codec.channels">2</property>
  <property name="meta.media.1.codec.name">aac</property>
  <property name="meta.media.1.codec.long_name">AAC (Advanced Audio Coding)</property>
  <property name="meta.media.1.codec.bit_rate">192076</property>
  <property name="meta.attr.1.stream.handler_name.markup">SoundHandler</property>
  <property name="meta.attr.major_brand.markup">isom</property>
  <property name="meta.attr.minor_version.markup">512</property>
  <property name="meta.attr.compatible_brands.markup">isomiso2avc1mp41</property>
  <property name="meta.attr.encoder.markup">Lavf58.29.100</property>
  <property name="meta.media.sample_aspect_num">1</property>
  <property name="meta.media.sample_aspect_den">1</property>
  <property name="meta.media.frame_rate_num">30</property>
  <property name="meta.media.frame_rate_den">1</property>
  <property name="meta.media.colorspace">709</property>
  <property name="meta.media.color_trc">1</property>
  <property name="meta.media.width">1280</property>
  <property name="meta.media.height">720</property>
  <property name="meta.media.color_range">mpeg</property>
  <property name="set.test_audio">1</property>
  <property name="set.test_image">0</property>
  <property name="meta.media.top_field_first">0</property>
  <property name="meta.media.progressive">1</property>
 </producer>
 <producer id="producer240" in="00:00:00.000" out="00:00:39.880">
  <property name="length">998</property>
  <property name="eof">pause</property>
  <property name="resource">vid_files/0_clips/2021-08-18 11-27-02.mp4</property>
  <property name="audio_index">1</property>
  <property name="video_index">0</property>
  <property name="mute_on_pause">0</property>
  <property name="mlt_service">avformat-novalidate</property>
  <property name="seekable">1</property>
  <property name="aspect_ratio">1</property>
  <property name="kdenlive:clipname"/>
  <property name="kdenlive:folderid">-1</property>
  <property name="kdenlive:id">102</property>
  <property name="kdenlive:file_size">4703601</property>
  <property name="kdenlive:file_hash">465ad0dc4efc5d44b32f32682f0da77b</property>
  <property name="kdenlive:audio_max">18</property>
  <property name="global_feed">1</property>
  <property name="xml">was here</property>
  <property name="meta.media.nb_streams">2</property>
  <property name="meta.media.0.stream.type">video</property>
  <property name="meta.media.0.stream.frame_rate">30</property>
  <property name="meta.media.0.stream.sample_aspect_ratio">0</property>
  <property name="meta.media.0.codec.width">1280</property>
  <property name="meta.media.0.codec.height">720</property>
  <property name="meta.media.0.codec.rotate">0</property>
  <property name="meta.media.0.codec.frame_rate">30</property>
  <property name="meta.media.0.codec.pix_fmt">yuv420p</property>
  <property name="meta.media.0.codec.sample_aspect_ratio">1</property>
  <property name="meta.media.0.codec.colorspace">709</property>
  <property name="meta.media.0.codec.color_trc">1</property>
  <property name="meta.media.0.codec.name">h264</property>
  <property name="meta.media.0.codec.long_name">H.264 / AVC / MPEG-4 AVC / MPEG-4 part 10</property>
  <property name="meta.media.0.codec.bit_rate">742093</property>
  <property name="meta.attr.0.stream.handler_name.markup">VideoHandler</property>
  <property name="meta.media.1.stream.type">audio</property>
  <property name="meta.media.1.codec.sample_fmt">fltp</property>
  <property name="meta.media.1.codec.sample_rate">48000</property>
  <property name="meta.media.1.codec.channels">2</property>
  <property name="meta.media.1.codec.name">aac</property>
  <property name="meta.media.1.codec.long_name">AAC (Advanced Audio Coding)</property>
  <property name="meta.media.1.codec.bit_rate">192243</property>
  <property name="meta.attr.1.stream.handler_name.markup">SoundHandler</property>
  <property name="meta.attr.major_brand.markup">isom</property>
  <property name="meta.attr.minor_version.markup">512</property>
  <property name="meta.attr.compatible_brands.markup">isomiso2avc1mp41</property>
  <property name="meta.attr.encoder.markup">Lavf58.29.100</property>
  <property name="meta.media.sample_aspect_num">1</property>
  <property name="meta.media.sample_aspect_den">1</property>
  <property name="meta.media.frame_rate_num">30</property>
  <property name="meta.media.frame_rate_den">1</property>
  <property name="meta.media.colorspace">709</property>
  <property name="meta.media.color_trc">1</property>
  <property name="meta.media.width">1280</property>
  <property name="meta.media.height">720</property>
  <property name="meta.media.color_range">mpeg</property>
  <property name="set.test_audio">1</property>
  <property name="set.test_image">0</property>
  <property name="meta.media.top_field_first">0</property>
  <property name="meta.media.progressive">1</property>
 </producer>
 <producer id="producer241" in="00:00:00.000" out="00:00:24.200">
  <property name="length">606</property>
  <property name="eof">pause</property>
  <property name="resource">vid_files/0_clips/2021-08-18 21-04-11.mp4</property>
  <property name="audio_index">1</property>
  <property name="video_index">0</property>
  <property name="mute_on_pause">0</property>
  <property name="mlt_service">avformat-novalidate</property>
  <property name="seekable">1</property>
  <property name="aspect_ratio">1</property>
  <property name="kdenlive:clipname"/>
  <property name="kdenlive:folderid">-1</property>
  <property name="kdenlive:id">136</property>
  <property name="kdenlive:file_size">4194386</property>
  <property name="kdenlive:file_hash">3f4609641954d55ec802c01388929f2c</property>
  <property name="kdenlive:audio_max">18</property>
  <property name="global_feed">1</property>
  <property name="xml">was here</property>
  <property name="meta.media.nb_streams">2</property>
  <property name="meta.media.0.stream.type">video</property>
  <property name="meta.media.0.stream.frame_rate">30</property>
  <property name="meta.media.0.stream.sample_aspect_ratio">0</property>
  <property name="meta.media.0.codec.width">1280</property>
  <property name="meta.media.0.codec.height">720</property>
  <property name="meta.media.0.codec.rotate">0</property>
  <property name="meta.media.0.codec.frame_rate">30</property>
  <property name="meta.media.0.codec.pix_fmt">yuv420p</property>
  <property name="meta.media.0.codec.sample_aspect_ratio">1</property>
  <property name="meta.media.0.codec.colorspace">709</property>
  <property name="meta.media.0.codec.color_trc">1</property>
  <property name="meta.media.0.codec.name">h264</property>
  <property name="meta.media.0.codec.long_name">H.264 / AVC / MPEG-4 AVC / MPEG-4 part 10</property>
  <property name="meta.media.0.codec.bit_rate">1183673</property>
  <property name="meta.attr.0.stream.handler_name.markup">VideoHandler</property>
  <property name="meta.media.1.stream.type">audio</property>
  <property name="meta.media.1.codec.sample_fmt">fltp</property>
  <property name="meta.media.1.codec.sample_rate">48000</property>
  <property name="meta.media.1.codec.channels">2</property>
  <property name="meta.media.1.codec.name">aac</property>
  <property name="meta.media.1.codec.long_name">AAC (Advanced Audio Coding)</property>
  <property name="meta.media.1.codec.bit_rate">192400</property>
  <property name="meta.attr.1.stream.handler_name.markup">SoundHandler</property>
  <property name="meta.attr.major_brand.markup">isom</property>
  <property name="meta.attr.minor_version.markup">512</property>
  <property name="meta.attr.compatible_brands.markup">isomiso2avc1mp41</property>
  <property name="meta.attr.encoder.markup">Lavf58.29.100</property>
  <property name="meta.media.sample_aspect_num">1</property>
  <property name="meta.media.sample_aspect_den">1</property>
  <property name="meta.media.frame_rate_num">30</property>
  <property name="meta.media.frame_rate_den">1</property>
  <property name="meta.media.colorspace">709</property>
  <property name="meta.media.color_trc">1</property>
  <property name="meta.media.width">1280</property>
  <property name="meta.media.height">720</property>
  <property name="meta.media.color_range">mpeg</property>
  <property name="meta.media.top_field_first">0</property>
  <property name="meta.media.progressive">1</property>
  <property name="set.test_audio">1</property>
  <property name="set.test_image">0</property>
 </producer>
 <producer id="producer242" in="00:00:00.000" out="00:00:09.480">
  <property name="length">238</property>
  <property name="eof">pause</property>
  <property name="resource">vid_files/0_clips/2021-08-19 20-55-27.mp4</property>
  <property name="audio_index">1</property>
  <property name="video_index">0</property>
  <property name="mute_on_pause">0</property>
  <property name="mlt_service">avformat-novalidate</property>
  <property name="seekable">1</property>
  <property name="aspect_ratio">1</property>
  <property name="kdenlive:clipname"/>
  <property name="kdenlive:folderid">-1</property>
  <property name="kdenlive:id">166</property>
  <property name="kdenlive:file_size">1522957</property>
  <property name="kdenlive:file_hash">d468556f5de4b3a2a528045768969f0c</property>
  <property name="kdenlive:audio_max">17</property>
  <property name="global_feed">1</property>
  <property name="xml">was here</property>
  <property name="meta.media.nb_streams">2</property>
  <property name="meta.media.0.stream.type">video</property>
  <property name="meta.media.0.stream.frame_rate">30</property>
  <property name="meta.media.0.stream.sample_aspect_ratio">0</property>
  <property name="meta.media.0.codec.width">1280</property>
  <property name="meta.media.0.codec.height">720</property>
  <property name="meta.media.0.codec.rotate">0</property>
  <property name="meta.media.0.codec.frame_rate">30</property>
  <property name="meta.media.0.codec.pix_fmt">yuv420p</property>
  <property name="meta.media.0.codec.sample_aspect_ratio">1</property>
  <property name="meta.media.0.codec.colorspace">709</property>
  <property name="meta.media.0.codec.color_trc">1</property>
  <property name="meta.media.0.codec.name">h264</property>
  <property name="meta.media.0.codec.long_name">H.264 / AVC / MPEG-4 AVC / MPEG-4 part 10</property>
  <property name="meta.media.0.codec.bit_rate">1080968</property>
  <property name="meta.attr.0.stream.handler_name.markup">VideoHandler</property>
  <property name="meta.media.1.stream.type">audio</property>
  <property name="meta.media.1.codec.sample_fmt">fltp</property>
  <property name="meta.media.1.codec.sample_rate">48000</property>
  <property name="meta.media.1.codec.channels">2</property>
  <property name="meta.media.1.codec.name">aac</property>
  <property name="meta.media.1.codec.long_name">AAC (Advanced Audio Coding)</property>
  <property name="meta.media.1.codec.bit_rate">192997</property>
  <property name="meta.attr.1.stream.handler_name.markup">SoundHandler</property>
  <property name="meta.attr.major_brand.markup">isom</property>
  <property name="meta.attr.minor_version.markup">512</property>
  <property name="meta.attr.compatible_brands.markup">isomiso2avc1mp41</property>
  <property name="meta.attr.encoder.markup">Lavf58.29.100</property>
  <property name="meta.media.sample_aspect_num">1</property>
  <property name="meta.media.sample_aspect_den">1</property>
  <property name="meta.media.frame_rate_num">30</property>
  <property name="meta.media.frame_rate_den">1</property>
  <property name="meta.media.colorspace">709</property>
  <property name="meta.media.color_trc">1</property>
  <property name="meta.media.width">1280</property>
  <property name="meta.media.height">720</property>
  <property name="meta.media.color_range">mpeg</property>
  <property name="set.test_audio">1</property>
  <property name="set.test_image">0</property>
  <property name="meta.media.top_field_first">0</property>
  <property name="meta.media.progressive">1</property>
 </producer>
 <producer id="producer243" in="00:00:00.000" out="00:00:07.200">
  <property name="length">181</property>
  <property name="eof">pause</property>
  <property name="resource">vid_files/0_clips/2021-08-19 20-55-49.mp4</property>
  <property name="audio_index">1</property>
  <property name="video_index">0</property>
  <property name="mute_on_pause">0</property>
  <property name="mlt_service">avformat-novalidate</property>
  <property name="seekable">1</property>
  <property name="aspect_ratio">1</property>
  <property name="kdenlive:clipname"/>
  <property name="kdenlive:folderid">-1</property>
  <property name="kdenlive:id">168</property>
  <property name="kdenlive:file_size">1181358</property>
  <property name="kdenlive:file_hash">38bc7e749b5b6f6ed1a531b98d979642</property>
  <property name="kdenlive:audio_max">17</property>
  <property name="global_feed">1</property>
  <property name="xml">was here</property>
  <property name="meta.media.nb_streams">2</property>
  <property name="meta.media.0.stream.type">video</property>
  <property name="meta.media.0.stream.frame_rate">30</property>
  <property name="meta.media.0.stream.sample_aspect_ratio">0</property>
  <property name="meta.media.0.codec.width">1280</property>
  <property name="meta.media.0.codec.height">720</property>
  <property name="meta.media.0.codec.rotate">0</property>
  <property name="meta.media.0.codec.frame_rate">30</property>
  <property name="meta.media.0.codec.pix_fmt">yuv420p</property>
  <property name="meta.media.0.codec.sample_aspect_ratio">1</property>
  <property name="meta.media.0.codec.colorspace">709</property>
  <property name="meta.media.0.codec.color_trc">1</property>
  <property name="meta.media.0.codec.name">h264</property>
  <property name="meta.media.0.codec.long_name">H.264 / AVC / MPEG-4 AVC / MPEG-4 part 10</property>
  <property name="meta.media.0.codec.bit_rate">1105287</property>
  <property name="meta.attr.0.stream.handler_name.markup">VideoHandler</property>
  <property name="meta.media.1.stream.type">audio</property>
  <property name="meta.media.1.codec.sample_fmt">fltp</property>
  <property name="meta.media.1.codec.sample_rate">48000</property>
  <property name="meta.media.1.codec.channels">2</property>
  <property name="meta.media.1.codec.name">aac</property>
  <property name="meta.media.1.codec.long_name">AAC (Advanced Audio Coding)</property>
  <property name="meta.media.1.codec.bit_rate">193306</property>
  <property name="meta.attr.1.stream.handler_name.markup">SoundHandler</property>
  <property name="meta.attr.major_brand.markup">isom</property>
  <property name="meta.attr.minor_version.markup">512</property>
  <property name="meta.attr.compatible_brands.markup">isomiso2avc1mp41</property>
  <property name="meta.attr.encoder.markup">Lavf58.29.100</property>
  <property name="meta.media.sample_aspect_num">1</property>
  <property name="meta.media.sample_aspect_den">1</property>
  <property name="meta.media.frame_rate_num">30</property>
  <property name="meta.media.frame_rate_den">1</property>
  <property name="meta.media.colorspace">709</property>
  <property name="meta.media.color_trc">1</property>
  <property name="meta.media.width">1280</property>
  <property name="meta.media.height">720</property>
  <property name="meta.media.color_range">mpeg</property>
  <property name="set.test_audio">1</property>
  <property name="set.test_image">0</property>
  <property name="meta.media.top_field_first">0</property>
  <property name="meta.media.progressive">1</property>
 </producer>
 <producer id="producer244" in="00:00:00.000" out="00:00:05.560">
  <property name="length">00:00:05.600</property>
  <property name="eof">pause</property>
  <property name="resource">vid_files/10_chapters/chap4_/chap4_%03d.png</property>
  <property name="ttl">1</property>
  <property name="aspect_ratio">1</property>
  <property name="progressive">1</property>
  <property name="seekable">1</property>
  <property name="meta.media.width">1920</property>
  <property name="meta.media.height">1080</property>
  <property name="mlt_service">qimage</property>
  <property name="kdenlive:clipname">chap4_</property>
  <property name="luma_duration">25</property>
  <property name="fade">0</property>
  <property name="crop">0</property>
  <property name="loop">0</property>
  <property name="kdenlive:duration">00:00:05.600</property>
  <property name="kdenlive:folderid">-1</property>
  <property name="kdenlive:id">115</property>
  <property name="kdenlive:file_hash">d62a26bbd49ec65b2713504877d9eea2</property>
  <property name="global_feed">1</property>
  <property name="xml">was here</property>
  <property name="set.test_audio">1</property>
  <property name="set.test_image">0</property>
 </producer>
 <producer id="producer245" in="00:00:00.000" out="00:02:05.520">
  <property name="length">3139</property>
  <property name="eof">pause</property>
  <property name="resource">vid_files/0_clips/2021-08-17 08-28-14.mp4</property>
  <property name="audio_index">1</property>
  <property name="video_index">0</property>
  <property name="mute_on_pause">0</property>
  <property name="mlt_service">avformat-novalidate</property>
  <property name="seekable">1</property>
  <property name="aspect_ratio">1</property>
  <property name="kdenlive:clipname"/>
  <property name="kdenlive:folderid">-1</property>
  <property name="kdenlive:id">61</property>
  <property name="kdenlive:file_size">16028020</property>
  <property name="kdenlive:file_hash">92ddf2d69e7f4c3137262eda6a174c75</property>
  <property name="kdenlive:audio_max">14</property>
  <property name="global_feed">1</property>
  <property name="xml">was here</property>
  <property name="meta.media.nb_streams">2</property>
  <property name="meta.media.0.stream.type">video</property>
  <property name="meta.media.0.stream.frame_rate">30</property>
  <property name="meta.media.0.stream.sample_aspect_ratio">0</property>
  <property name="meta.media.0.codec.width">1280</property>
  <property name="meta.media.0.codec.height">720</property>
  <property name="meta.media.0.codec.rotate">0</property>
  <property name="meta.media.0.codec.frame_rate">30</property>
  <property name="meta.media.0.codec.pix_fmt">yuv420p</property>
  <property name="meta.media.0.codec.sample_aspect_ratio">1</property>
  <property name="meta.media.0.codec.colorspace">709</property>
  <property name="meta.media.0.codec.color_trc">1</property>
  <property name="meta.media.0.codec.name">h264</property>
  <property name="meta.media.0.codec.long_name">H.264 / AVC / MPEG-4 AVC / MPEG-4 part 10</property>
  <property name="meta.media.0.codec.bit_rate">820320</property>
  <property name="meta.attr.0.stream.handler_name.markup">VideoHandler</property>
  <property name="meta.media.1.stream.type">audio</property>
  <property name="meta.media.1.codec.sample_fmt">fltp</property>
  <property name="meta.media.1.codec.sample_rate">48000</property>
  <property name="meta.media.1.codec.channels">2</property>
  <property name="meta.media.1.codec.name">aac</property>
  <property name="meta.media.1.codec.long_name">AAC (Advanced Audio Coding)</property>
  <property name="meta.media.1.codec.bit_rate">192078</property>
  <property name="meta.attr.1.stream.handler_name.markup">SoundHandler</property>
  <property name="meta.attr.major_brand.markup">isom</property>
  <property name="meta.attr.minor_version.markup">512</property>
  <property name="meta.attr.compatible_brands.markup">isomiso2avc1mp41</property>
  <property name="meta.attr.encoder.markup">Lavf58.29.100</property>
  <property name="meta.media.sample_aspect_num">1</property>
  <property name="meta.media.sample_aspect_den">1</property>
  <property name="meta.media.frame_rate_num">30</property>
  <property name="meta.media.frame_rate_den">1</property>
  <property name="meta.media.colorspace">709</property>
  <property name="meta.media.color_trc">1</property>
  <property name="meta.media.width">1280</property>
  <property name="meta.media.height">720</property>
  <property name="meta.media.color_range">mpeg</property>
  <property name="set.test_audio">1</property>
  <property name="set.test_image">0</property>
  <property name="meta.media.top_field_first">0</property>
  <property name="meta.media.progressive">1</property>
 </producer>
 <producer id="producer246" in="00:00:00.000" out="00:00:19.600">
  <property name="length">491</property>
  <property name="eof">pause</property>
  <property name="resource">vid_files/0_clips/2021-08-17 08-24-49.mp4</property>
  <property name="audio_index">1</property>
  <property name="video_index">0</property>
  <property name="mute_on_pause">0</property>
  <property name="mlt_service">avformat-novalidate</property>
  <property name="seekable">1</property>
  <property name="aspect_ratio">1</property>
  <property name="kdenlive:clipname"/>
  <property name="kdenlive:folderid">-1</property>
  <property name="kdenlive:id">58</property>
  <property name="kdenlive:file_size">3298283</property>
  <property name="kdenlive:file_hash">c414307c0f39991ab61a8c7121e39c3d</property>
  <property name="kdenlive:audio_max">19</property>
  <property name="global_feed">1</property>
  <property name="xml">was here</property>
  <property name="meta.media.nb_streams">2</property>
  <property name="meta.media.0.stream.type">video</property>
  <property name="meta.media.0.stream.frame_rate">30</property>
  <property name="meta.media.0.stream.sample_aspect_ratio">0</property>
  <property name="meta.media.0.codec.width">1280</property>
  <property name="meta.media.0.codec.height">720</property>
  <property name="meta.media.0.codec.rotate">0</property>
  <property name="meta.media.0.codec.frame_rate">30</property>
  <property name="meta.media.0.codec.pix_fmt">yuv420p</property>
  <property name="meta.media.0.codec.sample_aspect_ratio">1</property>
  <property name="meta.media.0.codec.colorspace">709</property>
  <property name="meta.media.0.codec.color_trc">1</property>
  <property name="meta.media.0.codec.name">h264</property>
  <property name="meta.media.0.codec.long_name">H.264 / AVC / MPEG-4 AVC / MPEG-4 part 10</property>
  <property name="meta.media.0.codec.bit_rate">1142813</property>
  <property name="meta.attr.0.stream.handler_name.markup">VideoHandler</property>
  <property name="meta.media.1.stream.type">audio</property>
  <property name="meta.media.1.codec.sample_fmt">fltp</property>
  <property name="meta.media.1.codec.sample_rate">48000</property>
  <property name="meta.media.1.codec.channels">2</property>
  <property name="meta.media.1.codec.name">aac</property>
  <property name="meta.media.1.codec.long_name">AAC (Advanced Audio Coding)</property>
  <property name="meta.media.1.codec.bit_rate">192475</property>
  <property name="meta.attr.1.stream.handler_name.markup">SoundHandler</property>
  <property name="meta.attr.major_brand.markup">isom</property>
  <property name="meta.attr.minor_version.markup">512</property>
  <property name="meta.attr.compatible_brands.markup">isomiso2avc1mp41</property>
  <property name="meta.attr.encoder.markup">Lavf58.29.100</property>
  <property name="meta.media.sample_aspect_num">1</property>
  <property name="meta.media.sample_aspect_den">1</property>
  <property name="meta.media.frame_rate_num">30</property>
  <property name="meta.media.frame_rate_den">1</property>
  <property name="meta.media.colorspace">709</property>
  <property name="meta.media.color_trc">1</property>
  <property name="meta.media.width">1280</property>
  <property name="meta.media.height">720</property>
  <property name="meta.media.color_range">mpeg</property>
  <property name="set.test_audio">1</property>
  <property name="set.test_image">0</property>
  <property name="meta.media.top_field_first">0</property>
  <property name="meta.media.progressive">1</property>
 </producer>
 <producer id="producer247" in="00:00:00.000" out="00:00:21.480">
  <property name="length">538</property>
  <property name="eof">pause</property>
  <property name="resource">vid_files/0_clips/2021-08-17 08-25-38.mp4</property>
  <property name="audio_index">1</property>
  <property name="video_index">0</property>
  <property name="mute_on_pause">0</property>
  <property name="mlt_service">avformat-novalidate</property>
  <property name="seekable">1</property>
  <property name="aspect_ratio">1</property>
  <property name="kdenlive:clipname"/>
  <property name="kdenlive:folderid">-1</property>
  <property name="kdenlive:id">59</property>
  <property name="kdenlive:file_size">3866140</property>
  <property name="kdenlive:file_hash">7bbcea7890c9724c0370dde35d47b921</property>
  <property name="kdenlive:audio_max">20</property>
  <property name="global_feed">1</property>
  <property name="xml">was here</property>
  <property name="meta.media.nb_streams">2</property>
  <property name="meta.media.0.stream.type">video</property>
  <property name="meta.media.0.stream.frame_rate">30</property>
  <property name="meta.media.0.stream.sample_aspect_ratio">0</property>
  <property name="meta.media.0.codec.width">1280</property>
  <property name="meta.media.0.codec.height">720</property>
  <property name="meta.media.0.codec.rotate">0</property>
  <property name="meta.media.0.codec.frame_rate">30</property>
  <property name="meta.media.0.codec.pix_fmt">yuv420p</property>
  <property name="meta.media.0.codec.sample_aspect_ratio">1</property>
  <property name="meta.media.0.codec.colorspace">709</property>
  <property name="meta.media.0.codec.color_trc">1</property>
  <property name="meta.media.0.codec.name">h264</property>
  <property name="meta.media.0.codec.long_name">H.264 / AVC / MPEG-4 AVC / MPEG-4 part 10</property>
  <property name="meta.media.0.codec.bit_rate">1237529</property>
  <property name="meta.attr.0.stream.handler_name.markup">VideoHandler</property>
  <property name="meta.media.1.stream.type">audio</property>
  <property name="meta.media.1.codec.sample_fmt">fltp</property>
  <property name="meta.media.1.codec.sample_rate">48000</property>
  <property name="meta.media.1.codec.channels">2</property>
  <property name="meta.media.1.codec.name">aac</property>
  <property name="meta.media.1.codec.long_name">AAC (Advanced Audio Coding)</property>
  <property name="meta.media.1.codec.bit_rate">192445</property>
  <property name="meta.attr.1.stream.handler_name.markup">SoundHandler</property>
  <property name="meta.attr.major_brand.markup">isom</property>
  <property name="meta.attr.minor_version.markup">512</property>
  <property name="meta.attr.compatible_brands.markup">isomiso2avc1mp41</property>
  <property name="meta.attr.encoder.markup">Lavf58.29.100</property>
  <property name="meta.media.sample_aspect_num">1</property>
  <property name="meta.media.sample_aspect_den">1</property>
  <property name="meta.media.frame_rate_num">30</property>
  <property name="meta.media.frame_rate_den">1</property>
  <property name="meta.media.colorspace">709</property>
  <property name="meta.media.color_trc">1</property>
  <property name="meta.media.width">1280</property>
  <property name="meta.media.height">720</property>
  <property name="meta.media.color_range">mpeg</property>
  <property name="set.test_audio">1</property>
  <property name="set.test_image">0</property>
  <property name="meta.media.top_field_first">0</property>
  <property name="meta.media.progressive">1</property>
 </producer>
 <producer id="producer248" in="00:00:00.000" out="00:00:04.080">
  <property name="length">103</property>
  <property name="eof">pause</property>
  <property name="resource">vid_files/0_clips/2021-08-17 08-27-52.mp4</property>
  <property name="audio_index">1</property>
  <property name="video_index">0</property>
  <property name="mute_on_pause">0</property>
  <property name="mlt_service">avformat-novalidate</property>
  <property name="seekable">1</property>
  <property name="aspect_ratio">1</property>
  <property name="kdenlive:clipname"/>
  <property name="kdenlive:folderid">-1</property>
  <property name="kdenlive:id">60</property>
  <property name="kdenlive:file_size">657785</property>
  <property name="kdenlive:file_hash">420d05b6e49c79bc0b04e21e9a49f41f</property>
  <property name="kdenlive:audio_max">27</property>
  <property name="global_feed">1</property>
  <property name="xml">was here</property>
  <property name="meta.media.nb_streams">2</property>
  <property name="meta.media.0.stream.type">video</property>
  <property name="meta.media.0.stream.frame_rate">30</property>
  <property name="meta.media.0.stream.sample_aspect_ratio">0</property>
  <property name="meta.media.0.codec.width">1280</property>
  <property name="meta.media.0.codec.height">720</property>
  <property name="meta.media.0.codec.rotate">0</property>
  <property name="meta.media.0.codec.frame_rate">30</property>
  <property name="meta.media.0.codec.pix_fmt">yuv420p</property>
  <property name="meta.media.0.codec.sample_aspect_ratio">1</property>
  <property name="meta.media.0.codec.colorspace">709</property>
  <property name="meta.media.0.codec.color_trc">1</property>
  <property name="meta.media.0.codec.name">h264</property>
  <property name="meta.media.0.codec.long_name">H.264 / AVC / MPEG-4 AVC / MPEG-4 part 10</property>
  <property name="meta.media.0.codec.bit_rate">1072401</property>
  <property name="meta.attr.0.stream.handler_name.markup">VideoHandler</property>
  <property name="meta.media.1.stream.type">audio</property>
  <property name="meta.media.1.codec.sample_fmt">fltp</property>
  <property name="meta.media.1.codec.sample_rate">48000</property>
  <property name="meta.media.1.codec.channels">2</property>
  <property name="meta.media.1.codec.name">aac</property>
  <property name="meta.media.1.codec.long_name">AAC (Advanced Audio Coding)</property>
  <property name="meta.media.1.codec.bit_rate">193026</property>
  <property name="meta.attr.1.stream.handler_name.markup">SoundHandler</property>
  <property name="meta.attr.major_brand.markup">isom</property>
  <property name="meta.attr.minor_version.markup">512</property>
  <property name="meta.attr.compatible_brands.markup">isomiso2avc1mp41</property>
  <property name="meta.attr.encoder.markup">Lavf58.29.100</property>
  <property name="meta.media.sample_aspect_num">1</property>
  <property name="meta.media.sample_aspect_den">1</property>
  <property name="meta.media.frame_rate_num">30</property>
  <property name="meta.media.frame_rate_den">1</property>
  <property name="meta.media.colorspace">709</property>
  <property name="meta.media.color_trc">1</property>
  <property name="meta.media.width">1280</property>
  <property name="meta.media.height">720</property>
  <property name="meta.media.color_range">mpeg</property>
  <property name="set.test_audio">1</property>
  <property name="set.test_image">0</property>
  <property name="meta.media.top_field_first">0</property>
  <property name="meta.media.progressive">1</property>
 </producer>
 <producer id="producer249" in="00:00:00.000" out="00:00:39.040">
  <property name="length">977</property>
  <property name="eof">pause</property>
  <property name="resource">vid_files/0_clips/2021-08-17 08-30-29.mp4</property>
  <property name="audio_index">1</property>
  <property name="video_index">0</property>
  <property name="mute_on_pause">0</property>
  <property name="mlt_service">avformat-novalidate</property>
  <property name="seekable">1</property>
  <property name="aspect_ratio">1</property>
  <property name="kdenlive:clipname"/>
  <property name="kdenlive:folderid">-1</property>
  <property name="kdenlive:id">62</property>
  <property name="kdenlive:file_size">4953025</property>
  <property name="kdenlive:file_hash">777cba7b7b166918c079da572d242563</property>
  <property name="kdenlive:audio_max">16</property>
  <property name="global_feed">1</property>
  <property name="xml">was here</property>
  <property name="meta.media.nb_streams">2</property>
  <property name="meta.media.0.stream.type">video</property>
  <property name="meta.media.0.stream.frame_rate">30</property>
  <property name="meta.media.0.stream.sample_aspect_ratio">0</property>
  <property name="meta.media.0.codec.width">1280</property>
  <property name="meta.media.0.codec.height">720</property>
  <property name="meta.media.0.codec.rotate">0</property>
  <property name="meta.media.0.codec.frame_rate">30</property>
  <property name="meta.media.0.codec.pix_fmt">yuv420p</property>
  <property name="meta.media.0.codec.sample_aspect_ratio">1</property>
  <property name="meta.media.0.codec.colorspace">709</property>
  <property name="meta.media.0.codec.color_trc">1</property>
  <property name="meta.media.0.codec.name">h264</property>
  <property name="meta.media.0.codec.long_name">H.264 / AVC / MPEG-4 AVC / MPEG-4 part 10</property>
  <property name="meta.media.0.codec.bit_rate">813305</property>
  <property name="meta.attr.0.stream.handler_name.markup">VideoHandler</property>
  <property name="meta.media.1.stream.type">audio</property>
  <property name="meta.media.1.codec.sample_fmt">fltp</property>
  <property name="meta.media.1.codec.sample_rate">48000</property>
  <property name="meta.media.1.codec.channels">2</property>
  <property name="meta.media.1.codec.name">aac</property>
  <property name="meta.media.1.codec.long_name">AAC (Advanced Audio Coding)</property>
  <property name="meta.media.1.codec.bit_rate">192231</property>
  <property name="meta.attr.1.stream.handler_name.markup">SoundHandler</property>
  <property name="meta.attr.major_brand.markup">isom</property>
  <property name="meta.attr.minor_version.markup">512</property>
  <property name="meta.attr.compatible_brands.markup">isomiso2avc1mp41</property>
  <property name="meta.attr.encoder.markup">Lavf58.29.100</property>
  <property name="meta.media.sample_aspect_num">1</property>
  <property name="meta.media.sample_aspect_den">1</property>
  <property name="meta.media.frame_rate_num">30</property>
  <property name="meta.media.frame_rate_den">1</property>
  <property name="meta.media.colorspace">709</property>
  <property name="meta.media.color_trc">1</property>
  <property name="meta.media.width">1280</property>
  <property name="meta.media.height">720</property>
  <property name="meta.media.color_range">mpeg</property>
  <property name="set.test_audio">1</property>
  <property name="set.test_image">0</property>
  <property name="meta.media.top_field_first">0</property>
  <property name="meta.media.progressive">1</property>
 </producer>
 <producer id="producer250" in="00:00:00.000" out="00:00:08.440">
  <property name="length">212</property>
  <property name="eof">pause</property>
  <property name="resource">vid_files/0_clips/2021-08-19 20-51-22.mp4</property>
  <property name="audio_index">1</property>
  <property name="video_index">0</property>
  <property name="mute_on_pause">0</property>
  <property name="mlt_service">avformat-novalidate</property>
  <property name="seekable">1</property>
  <property name="aspect_ratio">1</property>
  <property name="kdenlive:clipname"/>
  <property name="kdenlive:folderid">-1</property>
  <property name="kdenlive:id">161</property>
  <property name="kdenlive:file_size">1416095</property>
  <property name="kdenlive:file_hash">096868b1ca46a29fd30296a0cf978465</property>
  <property name="kdenlive:audio_max">6</property>
  <property name="global_feed">1</property>
  <property name="xml">was here</property>
  <property name="meta.media.nb_streams">2</property>
  <property name="meta.media.0.stream.type">video</property>
  <property name="meta.media.0.stream.frame_rate">30</property>
  <property name="meta.media.0.stream.sample_aspect_ratio">0</property>
  <property name="meta.media.0.codec.width">1280</property>
  <property name="meta.media.0.codec.height">720</property>
  <property name="meta.media.0.codec.rotate">0</property>
  <property name="meta.media.0.codec.frame_rate">30</property>
  <property name="meta.media.0.codec.pix_fmt">yuv420p</property>
  <property name="meta.media.0.codec.sample_aspect_ratio">1</property>
  <property name="meta.media.0.codec.colorspace">709</property>
  <property name="meta.media.0.codec.color_trc">1</property>
  <property name="meta.media.0.codec.name">h264</property>
  <property name="meta.media.0.codec.long_name">H.264 / AVC / MPEG-4 AVC / MPEG-4 part 10</property>
  <property name="meta.media.0.codec.bit_rate">1136733</property>
  <property name="meta.attr.0.stream.handler_name.markup">VideoHandler</property>
  <property name="meta.media.1.stream.type">audio</property>
  <property name="meta.media.1.codec.sample_fmt">fltp</property>
  <property name="meta.media.1.codec.sample_rate">48000</property>
  <property name="meta.media.1.codec.channels">2</property>
  <property name="meta.media.1.codec.name">aac</property>
  <property name="meta.media.1.codec.long_name">AAC (Advanced Audio Coding)</property>
  <property name="meta.media.1.codec.bit_rate">193126</property>
  <property name="meta.attr.1.stream.handler_name.markup">SoundHandler</property>
  <property name="meta.attr.major_brand.markup">isom</property>
  <property name="meta.attr.minor_version.markup">512</property>
  <property name="meta.attr.compatible_brands.markup">isomiso2avc1mp41</property>
  <property name="meta.attr.encoder.markup">Lavf58.29.100</property>
  <property name="meta.media.sample_aspect_num">1</property>
  <property name="meta.media.sample_aspect_den">1</property>
  <property name="meta.media.frame_rate_num">30</property>
  <property name="meta.media.frame_rate_den">1</property>
  <property name="meta.media.colorspace">709</property>
  <property name="meta.media.color_trc">1</property>
  <property name="meta.media.width">1280</property>
  <property name="meta.media.height">720</property>
  <property name="meta.media.color_range">mpeg</property>
  <property name="meta.media.top_field_first">0</property>
  <property name="meta.media.progressive">1</property>
  <property name="set.test_audio">1</property>
  <property name="set.test_image">0</property>
 </producer>
 <producer id="producer251" in="00:00:00.000" out="00:01:19.160">
  <property name="length">1980</property>
  <property name="eof">pause</property>
  <property name="resource">vid_files/0_clips/2021-08-18 11-23-31.mp4</property>
  <property name="audio_index">1</property>
  <property name="video_index">0</property>
  <property name="mute_on_pause">0</property>
  <property name="mlt_service">avformat-novalidate</property>
  <property name="seekable">1</property>
  <property name="aspect_ratio">1</property>
  <property name="kdenlive:clipname"/>
  <property name="kdenlive:folderid">-1</property>
  <property name="kdenlive:id">97</property>
  <property name="kdenlive:file_size">8177313</property>
  <property name="kdenlive:file_hash">c4b488d99446f9688d3e1f283f2cff3c</property>
  <property name="kdenlive:audio_max">16</property>
  <property name="global_feed">1</property>
  <property name="xml">was here</property>
  <property name="meta.media.nb_streams">2</property>
  <property name="meta.media.0.stream.type">video</property>
  <property name="meta.media.0.stream.frame_rate">30</property>
  <property name="meta.media.0.stream.sample_aspect_ratio">0</property>
  <property name="meta.media.0.codec.width">1280</property>
  <property name="meta.media.0.codec.height">720</property>
  <property name="meta.media.0.codec.rotate">0</property>
  <property name="meta.media.0.codec.frame_rate">30</property>
  <property name="meta.media.0.codec.pix_fmt">yuv420p</property>
  <property name="meta.media.0.codec.sample_aspect_ratio">1</property>
  <property name="meta.media.0.codec.colorspace">709</property>
  <property name="meta.media.0.codec.color_trc">1</property>
  <property name="meta.media.0.codec.name">h264</property>
  <property name="meta.media.0.codec.long_name">H.264 / AVC / MPEG-4 AVC / MPEG-4 part 10</property>
  <property name="meta.media.0.codec.bit_rate">625100</property>
  <property name="meta.attr.0.stream.handler_name.markup">VideoHandler</property>
  <property name="meta.media.1.stream.type">audio</property>
  <property name="meta.media.1.codec.sample_fmt">fltp</property>
  <property name="meta.media.1.codec.sample_rate">48000</property>
  <property name="meta.media.1.codec.channels">2</property>
  <property name="meta.media.1.codec.name">aac</property>
  <property name="meta.media.1.codec.long_name">AAC (Advanced Audio Coding)</property>
  <property name="meta.media.1.codec.bit_rate">192122</property>
  <property name="meta.attr.1.stream.handler_name.markup">SoundHandler</property>
  <property name="meta.attr.major_brand.markup">isom</property>
  <property name="meta.attr.minor_version.markup">512</property>
  <property name="meta.attr.compatible_brands.markup">isomiso2avc1mp41</property>
  <property name="meta.attr.encoder.markup">Lavf58.29.100</property>
  <property name="meta.media.sample_aspect_num">1</property>
  <property name="meta.media.sample_aspect_den">1</property>
  <property name="meta.media.frame_rate_num">30</property>
  <property name="meta.media.frame_rate_den">1</property>
  <property name="meta.media.colorspace">709</property>
  <property name="meta.media.color_trc">1</property>
  <property name="meta.media.width">1280</property>
  <property name="meta.media.height">720</property>
  <property name="meta.media.color_range">mpeg</property>
  <property name="set.test_audio">1</property>
  <property name="set.test_image">0</property>
  <property name="meta.media.top_field_first">0</property>
  <property name="meta.media.progressive">1</property>
 </producer>
 <playlist id="playlist4">
  <entry producer="producer209" in="00:00:02.080" out="00:00:05.120">
   <property name="kdenlive:id">13</property>
  </entry>
  <entry producer="producer211" in="00:00:11.280" out="00:00:19.760">
   <property name="kdenlive:id">15</property>
  </entry>
  <entry producer="producer211" in="00:00:33.760" out="00:00:34.840">
   <property name="kdenlive:id">15</property>
  </entry>
  <entry producer="producer212" in="00:00:00.000" out="00:00:05.560">
   <property name="kdenlive:id">47</property>
  </entry>
  <entry producer="producer213" in="00:00:00.560" out="00:00:06.480">
   <property name="kdenlive:id">30</property>
  </entry>
  <entry producer="producer213" in="00:00:07.480" out="00:00:09.240">
   <property name="kdenlive:id">30</property>
  </entry>
  <entry producer="producer213" in="00:00:15.640" out="00:00:17.800">
   <property name="kdenlive:id">30</property>
  </entry>
  <entry producer="producer213" in="00:00:17.840" out="00:00:18.000">
   <property name="kdenlive:id">30</property>
  </entry>
  <entry producer="producer213" in="00:00:18.040" out="00:00:18.200">
   <property name="kdenlive:id">30</property>
  </entry>
  <entry producer="producer213" in="00:00:19.280" out="00:00:22.920">
   <property name="kdenlive:id">30</property>
  </entry>
  <entry producer="producer213" in="00:00:38.600" out="00:00:46.240">
   <property name="kdenlive:id">30</property>
  </entry>
  <entry producer="producer213" in="00:00:52.640" out="00:00:54.440">
   <property name="kdenlive:id">30</property>
  </entry>
  <entry producer="producer214" in="00:00:04.840" out="00:00:07.280">
   <property name="kdenlive:id">31</property>
  </entry>
  <entry producer="producer214" in="00:00:09.000" out="00:00:16.160">
   <property name="kdenlive:id">31</property>
  </entry>
  <entry producer="producer215" in="00:00:00.560" out="00:00:03.600">
   <property name="kdenlive:id">98</property>
  </entry>
  <entry producer="producer214" in="00:00:20.960" out="00:00:23.760">
   <property name="kdenlive:id">31</property>
  </entry>
  <entry producer="producer216" in="00:00:03.440" out="00:00:05.920">
   <property name="kdenlive:id">32</property>
  </entry>
  <entry producer="producer216" in="00:00:18.400" out="00:00:22.200">
   <property name="kdenlive:id">32</property>
  </entry>
  <entry producer="producer216" in="00:00:09.240" out="00:00:14.400">
   <property name="kdenlive:id">32</property>
  </entry>
  <entry producer="producer217" in="00:00:00.800" out="00:00:03.040">
   <property name="kdenlive:id">34</property>
  </entry>
  <entry producer="producer217" in="00:00:03.560" out="00:00:05.040">
   <property name="kdenlive:id">34</property>
  </entry>
  <entry producer="producer217" in="00:00:05.440" out="00:00:07.800">
   <property name="kdenlive:id">34</property>
  </entry>
  <entry producer="producer218" in="00:00:43.880" out="00:00:45.640">
   <property name="kdenlive:id">35</property>
  </entry>
  <entry producer="producer218" in="00:00:50.760" out="00:00:51.960">
   <property name="kdenlive:id">35</property>
  </entry>
  <entry producer="producer218" in="00:00:52.360" out="00:00:53.880">
   <property name="kdenlive:id">35</property>
  </entry>
  <entry producer="producer218" in="00:01:02.320" out="00:01:05.240">
   <property name="kdenlive:id">35</property>
  </entry>
  <entry producer="producer218" in="00:01:05.280" out="00:01:16.120">
   <property name="kdenlive:id">35</property>
  </entry>
  <entry producer="producer218" in="00:01:17.800" out="00:01:27.160">
   <property name="kdenlive:id">35</property>
  </entry>
  <entry producer="producer218" in="00:01:30.680" out="00:01:35.120">
   <property name="kdenlive:id">35</property>
  </entry>
  <entry producer="producer218" in="00:01:37.760" out="00:01:40.960">
   <property name="kdenlive:id">35</property>
  </entry>
  <entry producer="producer218" in="00:01:42.080" out="00:01:44.960">
   <property name="kdenlive:id">35</property>
  </entry>
  <entry producer="producer218" in="00:01:47.560" out="00:01:49.280">
   <property name="kdenlive:id">35</property>
  </entry>
  <entry producer="producer218" in="00:01:49.320" out="00:01:49.880">
   <property name="kdenlive:id">35</property>
  </entry>
  <entry producer="producer218" in="00:01:49.920" out="00:01:54.040">
   <property name="kdenlive:id">35</property>
  </entry>
  <entry producer="producer218" in="00:01:54.080" out="00:01:55.000">
   <property name="kdenlive:id">35</property>
  </entry>
  <entry producer="producer218" in="00:01:55.040" out="00:01:55.120">
   <property name="kdenlive:id">35</property>
  </entry>
  <entry producer="producer218" in="00:01:56.400" out="00:02:00.600">
   <property name="kdenlive:id">35</property>
  </entry>
  <entry producer="producer218" in="00:02:09.400" out="00:02:11.480">
   <property name="kdenlive:id">35</property>
  </entry>
  <entry producer="producer218" in="00:02:13.080" out="00:02:16.240">
   <property name="kdenlive:id">35</property>
  </entry>
  <entry producer="producer218" in="00:02:21.600" out="00:02:23.840">
   <property name="kdenlive:id">35</property>
  </entry>
  <entry producer="producer218" in="00:02:26.800" out="00:02:32.320">
   <property name="kdenlive:id">35</property>
  </entry>
  <entry producer="producer218" in="00:02:56.560" out="00:03:00.120">
   <property name="kdenlive:id">35</property>
  </entry>
  <entry producer="producer219" in="00:00:10.160" out="00:00:13.360">
   <property name="kdenlive:id">100</property>
  </entry>
  <entry producer="producer219" in="00:00:14.240" out="00:00:16.520">
   <property name="kdenlive:id">100</property>
  </entry>
  <entry producer="producer219" in="00:00:18.400" out="00:00:20.080">
   <property name="kdenlive:id">100</property>
  </entry>
  <entry producer="producer219" in="00:00:26.960" out="00:00:28.640">
   <property name="kdenlive:id">100</property>
  </entry>
  <entry producer="producer219" in="00:00:36.480" out="00:00:40.240">
   <property name="kdenlive:id">100</property>
  </entry>
  <entry producer="producer219" in="00:00:53.560" out="00:00:54.280">
   <property name="kdenlive:id">100</property>
  </entry>
  <entry producer="producer219" in="00:00:55.240" out="00:00:59.520">
   <property name="kdenlive:id">100</property>
  </entry>
  <entry producer="producer219" in="00:01:00.760" out="00:01:02.360">
   <property name="kdenlive:id">100</property>
  </entry>
  <entry producer="producer219" in="00:01:02.800" out="00:01:05.200">
   <property name="kdenlive:id">100</property>
  </entry>
  <entry producer="producer218" in="00:03:32.760" out="00:03:36.280">
   <property name="kdenlive:id">35</property>
  </entry>
  <entry producer="producer218" in="00:03:43.600" out="00:03:44.840">
   <property name="kdenlive:id">35</property>
  </entry>
  <entry producer="producer220" in="00:00:00.000" out="00:00:01.760">
   <property name="kdenlive:id">68</property>
  </entry>
  <entry producer="producer220" in="00:00:03.720" out="00:00:05.560">
   <property name="kdenlive:id">68</property>
  </entry>
  <entry producer="producer221" in="00:00:10.160" out="00:00:14.080">
   <property name="kdenlive:id">36</property>
  </entry>
  <entry producer="producer221" in="00:00:14.120" out="00:00:16.400">
   <property name="kdenlive:id">36</property>
  </entry>
  <entry producer="producer221" in="00:00:21.120" out="00:00:25.320">
   <property name="kdenlive:id">36</property>
  </entry>
  <entry producer="producer222" in="00:00:00.640" out="00:00:02.960">
   <property name="kdenlive:id">37</property>
  </entry>
  <entry producer="producer222" in="00:00:04.960" out="00:00:08.440">
   <property name="kdenlive:id">37</property>
  </entry>
  <entry producer="producer222" in="00:00:09.080" out="00:00:13.400">
   <property name="kdenlive:id">37</property>
  </entry>
  <entry producer="producer222" in="00:00:14.600" out="00:00:20.440">
   <property name="kdenlive:id">37</property>
  </entry>
  <entry producer="producer222" in="00:00:28.640" out="00:00:32.960">
   <property name="kdenlive:id">37</property>
  </entry>
  <entry producer="producer222" in="00:00:37.880" out="00:00:40.360">
   <property name="kdenlive:id">37</property>
  </entry>
  <entry producer="producer223" in="00:00:00.360" out="00:00:04.000">
   <property name="kdenlive:id">38</property>
  </entry>
  <blank length="00:00:00.040"/>
  <entry producer="producer224" in="00:00:00.720" out="00:00:06.160">
   <property name="kdenlive:id">162</property>
  </entry>
  <entry producer="producer223" in="00:00:36.840" out="00:00:39.000">
   <property name="kdenlive:id">38</property>
  </entry>
  <entry producer="producer225" in="00:00:00.880" out="00:00:08.760">
   <property name="kdenlive:id">39</property>
  </entry>
  <entry producer="producer226" in="00:00:02.000" out="00:00:06.880">
   <property name="kdenlive:id">40</property>
  </entry>
  <entry producer="producer226" in="00:00:11.600" out="00:00:12.560">
   <property name="kdenlive:id">40</property>
  </entry>
  <entry producer="producer226" in="00:00:13.120" out="00:00:18.840">
   <property name="kdenlive:id">40</property>
  </entry>
  <entry producer="producer226" in="00:00:21.240" out="00:00:24.520">
   <property name="kdenlive:id">40</property>
  </entry>
  <entry producer="producer227" in="00:00:14.440" out="00:00:16.240">
   <property name="kdenlive:id">41</property>
  </entry>
  <entry producer="producer227" in="00:00:17.600" out="00:00:21.680">
   <property name="kdenlive:id">41</property>
  </entry>
  <entry producer="producer227" in="00:00:21.720" out="00:00:24.760">
   <property name="kdenlive:id">41</property>
  </entry>
  <entry producer="producer228" in="00:00:00.360" out="00:00:03.560">
   <property name="kdenlive:id">101</property>
  </entry>
  <entry producer="producer228" in="00:00:06.760" out="00:00:11.120">
   <property name="kdenlive:id">101</property>
  </entry>
  <entry producer="producer228" in="00:00:14.320" out="00:00:18.000">
   <property name="kdenlive:id">101</property>
  </entry>
  <entry producer="producer228" in="00:00:19.920" out="00:00:22.040">
   <property name="kdenlive:id">101</property>
  </entry>
  <entry producer="producer228" in="00:00:23.520" out="00:00:26.280">
   <property name="kdenlive:id">101</property>
  </entry>
  <entry producer="producer229" in="00:00:00.000" out="00:00:02.280">
   <property name="kdenlive:id">113</property>
  </entry>
  <entry producer="producer229" in="00:00:03.360" out="00:00:05.560">
   <property name="kdenlive:id">113</property>
  </entry>
  <entry producer="producer230" in="00:00:24.680" out="00:00:31.840">
   <property name="kdenlive:id">42</property>
  </entry>
  <entry producer="producer230" in="00:00:32.720" out="00:00:36.680">
   <property name="kdenlive:id">42</property>
  </entry>
  <entry producer="producer230" in="00:00:40.480" out="00:00:45.280">
   <property name="kdenlive:id">42</property>
  </entry>
  <entry producer="producer230" in="00:00:46.240" out="00:00:48.520">
   <property name="kdenlive:id">42</property>
  </entry>
  <entry producer="producer231" in="00:00:00.000" out="00:00:03.760">
   <property name="kdenlive:id">52</property>
  </entry>
  <entry producer="producer231" in="00:00:04.520" out="00:00:05.360">
   <property name="kdenlive:id">52</property>
  </entry>
  <entry producer="producer232" in="00:00:03.040" out="00:00:06.120">
   <property name="kdenlive:id">132</property>
  </entry>
  <entry producer="producer232" in="00:00:06.560" out="00:00:08.120">
   <property name="kdenlive:id">132</property>
  </entry>
  <entry producer="producer232" in="00:00:10.440" out="00:00:14.840">
   <property name="kdenlive:id">132</property>
  </entry>
  <entry producer="producer233" in="00:00:01.520" out="00:00:03.440">
   <property name="kdenlive:id">133</property>
  </entry>
  <entry producer="producer234" in="00:00:31.720" out="00:00:32.960">
   <property name="kdenlive:id">43</property>
  </entry>
  <entry producer="producer235" in="00:00:00.520" out="00:00:05.440">
   <property name="kdenlive:id">51</property>
  </entry>
  <entry producer="producer236" in="00:00:16.120" out="00:00:22.640">
   <property name="kdenlive:id">53</property>
  </entry>
  <entry producer="producer236" in="00:00:23.440" out="00:00:25.680">
   <property name="kdenlive:id">53</property>
  </entry>
  <entry producer="producer237" in="00:00:05.400" out="00:00:10.440">
   <property name="kdenlive:id">54</property>
  </entry>
  <entry producer="producer237" in="00:00:10.840" out="00:00:11.640">
   <property name="kdenlive:id">54</property>
  </entry>
  <entry producer="producer238" in="00:00:06.920" out="00:00:09.600">
   <property name="kdenlive:id">134</property>
  </entry>
  <entry producer="producer239" in="00:00:00.000" out="00:00:04.720">
   <property name="kdenlive:id">55</property>
  </entry>
  <entry producer="producer239" in="00:00:20.520" out="00:00:21.960">
   <property name="kdenlive:id">55</property>
  </entry>
  <entry producer="producer239" in="00:00:22.400" out="00:00:26.920">
   <property name="kdenlive:id">55</property>
  </entry>
  <entry producer="producer239" in="00:00:38.800" out="00:00:41.960">
   <property name="kdenlive:id">55</property>
  </entry>
  <entry producer="producer239" in="00:00:48.600" out="00:00:50.440">
   <property name="kdenlive:id">55</property>
  </entry>
  <entry producer="producer239" in="00:00:53.880" out="00:00:57.800">
   <property name="kdenlive:id">55</property>
  </entry>
  <entry producer="producer239" in="00:01:02.760" out="00:01:06.680">
   <property name="kdenlive:id">55</property>
  </entry>
  <entry producer="producer239" in="00:01:11.560" out="00:01:13.920">
   <property name="kdenlive:id">55</property>
  </entry>
  <entry producer="producer239" in="00:01:31.720" out="00:01:35.240">
   <property name="kdenlive:id">55</property>
  </entry>
  <entry producer="producer239" in="00:01:37.520" out="00:01:40.040">
   <property name="kdenlive:id">55</property>
  </entry>
  <entry producer="producer239" in="00:01:40.960" out="00:01:44.680">
   <property name="kdenlive:id">55</property>
  </entry>
  <entry producer="producer239" in="00:01:48.720" out="00:01:50.760">
   <property name="kdenlive:id">55</property>
  </entry>
  <entry producer="producer239" in="00:01:53.240" out="00:01:55.640">
   <property name="kdenlive:id">55</property>
  </entry>
  <entry producer="producer239" in="00:01:55.680" out="00:02:02.960">
   <property name="kdenlive:id">55</property>
  </entry>
  <entry producer="producer240" in="00:00:04.120" out="00:00:07.080">
   <property name="kdenlive:id">102</property>
  </entry>
  <entry producer="producer241" in="00:00:05.000" out="00:00:09.960">
   <property name="kdenlive:id">136</property>
  </entry>
  <entry producer="producer241" in="00:00:14.320" out="00:00:18.560">
   <property name="kdenlive:id">136</property>
  </entry>
  <entry producer="producer241" in="00:00:21.320" out="00:00:23.160">
   <property name="kdenlive:id">136</property>
  </entry>
  <entry producer="producer240" in="00:00:28.200" out="00:00:29.960">
   <property name="kdenlive:id">102</property>
  </entry>
  <entry producer="producer240" in="00:00:30.800" out="00:00:32.920">
   <property name="kdenlive:id">102</property>
  </entry>
  <entry producer="producer240" in="00:00:34.120" out="00:00:36.000">
   <property name="kdenlive:id">102</property>
  </entry>
  <entry producer="producer242" in="00:00:00.560" out="00:00:06.160">
   <property name="kdenlive:id">166</property>
  </entry>
  <entry producer="producer243" in="00:00:01.080" out="00:00:06.320">
   <property name="kdenlive:id">168</property>
  </entry>
  <blank length="00:00:00.120"/>
  <entry producer="producer244" in="00:00:00.000" out="00:00:02.360">
   <property name="kdenlive:id">115</property>
  </entry>
  <entry producer="producer244" in="00:00:04.240" out="00:00:05.560">
   <property name="kdenlive:id">115</property>
  </entry>
  <entry producer="producer245" in="00:00:29.080" out="00:00:33.000">
   <property name="kdenlive:id">61</property>
  </entry>
  <entry producer="producer245" in="00:00:33.520" out="00:00:34.720">
   <property name="kdenlive:id">61</property>
  </entry>
  <entry producer="producer245" in="00:00:35.200" out="00:00:36.440">
   <property name="kdenlive:id">61</property>
  </entry>
  <entry producer="producer245" in="00:00:36.920" out="00:00:38.000">
   <property name="kdenlive:id">61</property>
  </entry>
  <entry producer="producer245" in="00:00:44.760" out="00:00:46.720">
   <property name="kdenlive:id">61</property>
  </entry>
  <entry producer="producer245" in="00:00:49.920" out="00:00:50.840">
   <property name="kdenlive:id">61</property>
  </entry>
  <entry producer="producer245" in="00:00:51.320" out="00:00:54.080">
   <property name="kdenlive:id">61</property>
  </entry>
  <entry producer="producer246" in="00:00:00.960" out="00:00:11.600">
   <property name="kdenlive:id">58</property>
  </entry>
  <entry producer="producer245" in="00:01:06.160" out="00:01:10.400">
   <property name="kdenlive:id">61</property>
  </entry>
  <entry producer="producer245" in="00:01:19.000" out="00:01:24.840">
   <property name="kdenlive:id">61</property>
  </entry>
  <entry producer="producer247" in="00:00:00.000" out="00:00:08.640">
   <property name="kdenlive:id">59</property>
  </entry>
  <entry producer="producer247" in="00:00:16.720" out="00:00:19.920">
   <property name="kdenlive:id">59</property>
  </entry>
  <entry producer="producer245" in="00:01:47.200" out="00:01:51.320">
   <property name="kdenlive:id">61</property>
  </entry>
  <entry producer="producer248" in="00:00:01.080" out="00:00:03.000">
   <property name="kdenlive:id">60</property>
  </entry>
  <entry producer="producer249" in="00:00:00.800" out="00:00:04.400">
   <property name="kdenlive:id">62</property>
  </entry>
  <entry producer="producer249" in="00:00:07.320" out="00:00:10.680">
   <property name="kdenlive:id">62</property>
  </entry>
  <entry producer="producer249" in="00:00:20.920" out="00:00:31.440">
   <property name="kdenlive:id">62</property>
  </entry>
  <entry producer="producer250" in="00:00:01.440" out="00:00:06.800">
   <property name="kdenlive:id">161</property>
  </entry>
  <entry producer="producer251" in="00:00:10.080" out="00:00:21.040">
   <property name="kdenlive:id">97</property>
  </entry>
 </playlist>
 <playlist id="playlist5"/>
 <tractor id="tractor2" in="00:00:00.000" out="00:08:17.400">
  <property name="kdenlive:trackheight">69</property>
  <property name="kdenlive:timeline_active">1</property>
  <property name="kdenlive:collapsed">28</property>
  <property name="kdenlive:thumbs_format"/>
  <property name="kdenlive:audio_rec"/>
  <track hide="audio" producer="playlist4"/>
  <track producer="playlist5"/>
  <filter id="filter7" out="00:08:17.440">
   <property name="version">0.4</property>
   <property name="mlt_service">frei0r.curves</property>
   <property name="kdenlive_id">frei0r.bezier_curves</property>
   <property name="0">0.5</property>
   <property name="4">1</property>
   <property name="5">-1.348892;-0.371150#0.000000;0.053691#0.125723;0.093289|0.874277;0.926846#1.000000;1.000000#2.222347;1.711244</property>
   <property name="kdenlive:collapsed">0</property>
   <property name="disable">1</property>
  </filter>
 </tractor>
 <producer id="producer254" in="00:00:00.000" out="00:00:03.960">
  <property name="length">00:00:04.000</property>
  <property name="eof">pause</property>
  <property name="resource">vid_files/10_chapters/switch/switch%03d.png</property>
  <property name="ttl">1</property>
  <property name="aspect_ratio">1</property>
  <property name="progressive">1</property>
  <property name="seekable">1</property>
  <property name="meta.media.width">1920</property>
  <property name="meta.media.height">1080</property>
  <property name="mlt_service">qimage</property>
  <property name="kdenlive:clipname">switch</property>
  <property name="luma_duration">25</property>
  <property name="fade">0</property>
  <property name="crop">0</property>
  <property name="loop">0</property>
  <property name="kdenlive:duration">00:00:04.000</property>
  <property name="kdenlive:folderid">-1</property>
  <property name="kdenlive:id">44</property>
  <property name="kdenlive:file_hash">161c2e0e6a3cb3bb54b7638878c837e7</property>
  <property name="global_feed">1</property>
  <property name="xml">was here</property>
  <property name="set.test_audio">1</property>
  <property name="set.test_image">0</property>
 </producer>
 <producer id="producer255" in="00:00:00.000" out="00:00:03.960">
  <property name="length">00:00:04.000</property>
  <property name="eof">pause</property>
  <property name="resource">vid_files/2_mnist/input_output/input_output%03d.png</property>
  <property name="ttl">1</property>
  <property name="aspect_ratio">1</property>
  <property name="progressive">1</property>
  <property name="seekable">1</property>
  <property name="meta.media.width">1920</property>
  <property name="meta.media.height">1080</property>
  <property name="mlt_service">qimage</property>
  <property name="kdenlive:clipname">input_output</property>
  <property name="luma_duration">25</property>
  <property name="fade">0</property>
  <property name="crop">0</property>
  <property name="loop">0</property>
  <property name="kdenlive:duration">00:00:04.000</property>
  <property name="kdenlive:folderid">-1</property>
  <property name="kdenlive:id">2</property>
  <property name="kdenlive:file_hash">b400e500bd9df20cbc082d76059bb9ad</property>
  <property name="global_feed">1</property>
  <property name="xml">was here</property>
  <property name="set.test_audio">1</property>
  <property name="set.test_image">0</property>
 </producer>
 <producer id="producer256" in="00:00:00.000" out="00:00:03.960">
  <property name="length">00:00:04.000</property>
  <property name="eof">pause</property>
  <property name="resource">vid_files/2_mnist/input_output_number/input_output_number%03d.png</property>
  <property name="ttl">1</property>
  <property name="aspect_ratio">1</property>
  <property name="progressive">1</property>
  <property name="seekable">1</property>
  <property name="meta.media.width">1920</property>
  <property name="meta.media.height">1080</property>
  <property name="mlt_service">qimage</property>
  <property name="kdenlive:clipname">input_output_number</property>
  <property name="luma_duration">25</property>
  <property name="fade">0</property>
  <property name="crop">0</property>
  <property name="loop">0</property>
  <property name="kdenlive:duration">00:00:04.000</property>
  <property name="kdenlive:folderid">-1</property>
  <property name="kdenlive:id">3</property>
  <property name="kdenlive:file_hash">8223e61eb59516ae64a1ea051d998d48</property>
  <property name="global_feed">1</property>
  <property name="xml">was here</property>
  <property name="set.test_audio">1</property>
  <property name="set.test_image">0</property>
 </producer>
 <producer id="producer257" in="00:00:00.000" out="00:00:05.160">
  <property name="length">00:00:05.200</property>
  <property name="eof">pause</property>
  <property name="resource">vid_files/2_mnist/r1/r%04d.png?begin=1000</property>
  <property name="ttl">1</property>
  <property name="aspect_ratio">1</property>
  <property name="progressive">1</property>
  <property name="seekable">1</property>
  <property name="begin">1000</property>
  <property name="meta.media.width">1920</property>
  <property name="meta.media.height">1080</property>
  <property name="mlt_service">qimage</property>
  <property name="kdenlive:clipname">r</property>
  <property name="luma_duration">25</property>
  <property name="fade">0</property>
  <property name="crop">0</property>
  <property name="loop">0</property>
  <property name="kdenlive:duration">00:00:05.200</property>
  <property name="kdenlive:folderid">-1</property>
  <property name="kdenlive:id">9</property>
  <property name="kdenlive:file_hash">f13706e9189c4616a56419188ff9b893</property>
  <property name="global_feed">1</property>
  <property name="xml">was here</property>
  <property name="set.test_audio">1</property>
  <property name="set.test_image">0</property>
 </producer>
 <producer id="producer258" in="00:00:00.000" out="00:00:05.960">
  <property name="length">00:00:06.000</property>
  <property name="eof">pause</property>
  <property name="resource">vid_files/2_mnist/dataset/dataset%03d.png</property>
  <property name="ttl">1</property>
  <property name="aspect_ratio">1</property>
  <property name="progressive">1</property>
  <property name="seekable">1</property>
  <property name="meta.media.width">1920</property>
  <property name="meta.media.height">1080</property>
  <property name="mlt_service">qimage</property>
  <property name="kdenlive:clipname">dataset</property>
  <property name="luma_duration">25</property>
  <property name="fade">0</property>
  <property name="crop">0</property>
  <property name="loop">0</property>
  <property name="kdenlive:duration">00:00:06.000</property>
  <property name="kdenlive:folderid">-1</property>
  <property name="kdenlive:id">4</property>
  <property name="kdenlive:file_hash">d6d8e10bc2e302178261a1b2e1cac62d</property>
  <property name="global_feed">1</property>
  <property name="xml">was here</property>
  <property name="set.test_audio">1</property>
  <property name="set.test_image">0</property>
 </producer>
 <producer id="producer259" in="00:00:00.000" out="00:00:03.960">
  <property name="length">00:00:04.000</property>
  <property name="eof">pause</property>
  <property name="resource">vid_files/2_mnist/feed_dataset/feed_dataset%03d.png</property>
  <property name="ttl">1</property>
  <property name="aspect_ratio">1</property>
  <property name="progressive">1</property>
  <property name="seekable">1</property>
  <property name="meta.media.width">1920</property>
  <property name="meta.media.height">1080</property>
  <property name="mlt_service">qimage</property>
  <property name="kdenlive:clipname">feed_dataset</property>
  <property name="luma_duration">25</property>
  <property name="fade">0</property>
  <property name="crop">0</property>
  <property name="loop">0</property>
  <property name="kdenlive:duration">00:00:04.000</property>
  <property name="kdenlive:folderid">-1</property>
  <property name="kdenlive:id">75</property>
  <property name="kdenlive:file_hash">c43a99b7af369d99cb86490db0adc669</property>
  <property name="global_feed">1</property>
  <property name="xml">was here</property>
  <property name="set.test_audio">1</property>
  <property name="set.test_image">0</property>
 </producer>
 <producer id="producer260" in="00:00:00.000" out="00:00:03.960">
  <property name="length">00:00:04.000</property>
  <property name="eof">pause</property>
  <property name="resource">vid_files/2_mnist/data_set_split/data_set_split%03d.png</property>
  <property name="ttl">1</property>
  <property name="aspect_ratio">1</property>
  <property name="progressive">1</property>
  <property name="seekable">1</property>
  <property name="meta.media.width">1920</property>
  <property name="meta.media.height">1080</property>
  <property name="mlt_service">qimage</property>
  <property name="kdenlive:clipname">data_set_split</property>
  <property name="luma_duration">25</property>
  <property name="fade">0</property>
  <property name="crop">0</property>
  <property name="loop">0</property>
  <property name="kdenlive:duration">00:00:04.000</property>
  <property name="kdenlive:folderid">-1</property>
  <property name="kdenlive:id">5</property>
  <property name="kdenlive:file_hash">1f0086936402f1c15d01227903ee7a20</property>
  <property name="global_feed">1</property>
  <property name="xml">was here</property>
  <property name="set.test_audio">1</property>
  <property name="set.test_image">0</property>
 </producer>
 <producer id="producer261" in="00:00:00.000" out="00:00:03.960">
  <property name="length">00:00:04.000</property>
  <property name="eof">pause</property>
  <property name="resource">vid_files/3_bias_variance_decompose/intro/intro%03d.png</property>
  <property name="ttl">1</property>
  <property name="aspect_ratio">1</property>
  <property name="progressive">1</property>
  <property name="seekable">1</property>
  <property name="meta.media.width">1920</property>
  <property name="meta.media.height">1080</property>
  <property name="mlt_service">qimage</property>
  <property name="kdenlive:clipname">intro</property>
  <property name="luma_duration">25</property>
  <property name="fade">0</property>
  <property name="crop">0</property>
  <property name="loop">0</property>
  <property name="kdenlive:duration">00:00:04.000</property>
  <property name="kdenlive:folderid">-1</property>
  <property name="kdenlive:id">10</property>
  <property name="kdenlive:file_hash">80965f98039fd3332cc356ca7e57009c</property>
  <property name="global_feed">1</property>
  <property name="xml">was here</property>
  <property name="set.test_audio">1</property>
  <property name="set.test_image">0</property>
 </producer>
 <producer id="producer262" in="00:00:00.000" out="00:00:02.760">
  <property name="length">00:00:02.800</property>
  <property name="eof">pause</property>
  <property name="resource">vid_files/3_bias_variance_decompose/thrower_var/thrower_var%03d.png</property>
  <property name="ttl">1</property>
  <property name="aspect_ratio">1</property>
  <property name="progressive">1</property>
  <property name="seekable">1</property>
  <property name="meta.media.width">1920</property>
  <property name="meta.media.height">1080</property>
  <property name="mlt_service">qimage</property>
  <property name="kdenlive:clipname">thrower_var</property>
  <property name="luma_duration">25</property>
  <property name="fade">0</property>
  <property name="crop">0</property>
  <property name="loop">0</property>
  <property name="kdenlive:duration">00:00:02.800</property>
  <property name="kdenlive:folderid">-1</property>
  <property name="kdenlive:id">12</property>
  <property name="kdenlive:file_hash">2f258abd6f59c7e654ad748cda7e23bc</property>
  <property name="global_feed">1</property>
  <property name="xml">was here</property>
  <property name="set.test_audio">1</property>
  <property name="set.test_image">0</property>
 </producer>
 <producer id="producer263" in="00:00:00.000" out="00:00:02.760">
  <property name="length">00:00:02.800</property>
  <property name="eof">pause</property>
  <property name="resource">vid_files/3_bias_variance_decompose/thrower_both/thrower_both%03d.png</property>
  <property name="ttl">1</property>
  <property name="aspect_ratio">1</property>
  <property name="progressive">1</property>
  <property name="seekable">1</property>
  <property name="meta.media.width">1920</property>
  <property name="meta.media.height">1080</property>
  <property name="mlt_service">qimage</property>
  <property name="kdenlive:clipname">thrower_both</property>
  <property name="luma_duration">25</property>
  <property name="fade">0</property>
  <property name="crop">0</property>
  <property name="loop">0</property>
  <property name="kdenlive:duration">00:00:02.800</property>
  <property name="kdenlive:folderid">-1</property>
  <property name="kdenlive:id">73</property>
  <property name="kdenlive:file_hash">610f37948f4b01c7f68acac602229213</property>
  <property name="global_feed">1</property>
  <property name="xml">was here</property>
  <property name="set.test_audio">1</property>
  <property name="set.test_image">0</property>
 </producer>
 <producer id="producer264" in="00:00:00.000" out="00:00:02.360">
  <property name="length">00:00:02.400</property>
  <property name="eof">pause</property>
  <property name="resource">vid_files/10_chapters/underfit/underfit%03d.png</property>
  <property name="ttl">1</property>
  <property name="aspect_ratio">1</property>
  <property name="progressive">1</property>
  <property name="seekable">1</property>
  <property name="meta.media.width">1920</property>
  <property name="meta.media.height">300</property>
  <property name="mlt_service">qimage</property>
  <property name="kdenlive:clipname">underfit</property>
  <property name="luma_duration">25</property>
  <property name="fade">0</property>
  <property name="crop">0</property>
  <property name="loop">0</property>
  <property name="kdenlive:duration">00:00:02.400</property>
  <property name="kdenlive:folderid">-1</property>
  <property name="kdenlive:id">148</property>
  <property name="kdenlive:file_hash">b55737a9e99503ad704815e9613fd922</property>
  <property name="global_feed">1</property>
  <property name="xml">was here</property>
  <property name="set.test_audio">1</property>
  <property name="set.test_image">0</property>
 </producer>
 <producer id="producer265" in="00:00:00.000" out="00:00:01.960">
  <property name="length">00:00:02.000</property>
  <property name="eof">pause</property>
  <property name="resource">vid_files/10_chapters/switch_white/switch_white%03d.png</property>
  <property name="ttl">1</property>
  <property name="aspect_ratio">1</property>
  <property name="progressive">1</property>
  <property name="seekable">1</property>
  <property name="meta.media.width">1920</property>
  <property name="meta.media.height">1080</property>
  <property name="mlt_service">qimage</property>
  <property name="kdenlive:clipname">switch_white</property>
  <property name="luma_duration">25</property>
  <property name="fade">0</property>
  <property name="crop">0</property>
  <property name="loop">0</property>
  <property name="kdenlive:duration">00:00:02.000</property>
  <property name="kdenlive:folderid">-1</property>
  <property name="kdenlive:id">46</property>
  <property name="kdenlive:file_hash">23e29cf534864da9bdbd4882f32876b4</property>
  <property name="global_feed">1</property>
  <property name="xml">was here</property>
  <property name="set.test_audio">1</property>
  <property name="set.test_image">0</property>
 </producer>
 <playlist id="playlist6">
  <entry producer="producer1" in="00:00:00.000" out="00:00:00.000">
   <property name="kdenlive:id">17</property>
  </entry>
  <entry producer="producer2" in="00:00:00.000" out="00:00:00.600">
   <property name="kdenlive:id">18</property>
  </entry>
  <entry producer="producer3" in="00:00:00.000" out="00:00:00.600">
   <property name="kdenlive:id">19</property>
  </entry>
  <entry producer="producer4" in="00:00:00.000" out="00:00:00.080">
   <property name="kdenlive:id">20</property>
  </entry>
  <entry producer="producer5" in="00:00:00.000" out="00:00:00.240">
   <property name="kdenlive:id">21</property>
  </entry>
  <entry producer="producer6" in="00:00:00.000" out="00:00:00.240">
   <property name="kdenlive:id">22</property>
  </entry>
  <entry producer="producer7" in="00:00:00.000" out="00:00:00.400">
   <property name="kdenlive:id">23</property>
  </entry>
  <entry producer="producer8" in="00:00:00.000" out="00:00:00.040">
   <property name="kdenlive:id">24</property>
  </entry>
  <entry producer="producer9" in="00:00:00.000" out="00:00:00.800">
   <property name="kdenlive:id">25</property>
  </entry>
  <blank length="00:00:07.560"/>
  <entry producer="producer254" in="00:00:00.000" out="00:00:03.960">
   <property name="kdenlive:id">44</property>
  </entry>
  <blank length="00:00:01.840"/>
  <entry producer="producer254" in="00:00:00.000" out="00:00:03.960">
   <property name="kdenlive:id">44</property>
  </entry>
  <blank length="00:00:07.920"/>
  <entry producer="producer255" in="00:00:00.000" out="00:00:03.960">
   <property name="kdenlive:id">2</property>
  </entry>
  <entry producer="producer256" in="00:00:00.000" out="00:00:03.960">
   <property name="kdenlive:id">3</property>
  </entry>
  <entry producer="producer257" in="00:00:00.000" out="00:00:05.160">
   <property name="kdenlive:id">9</property>
  </entry>
  <blank length="00:00:02.480"/>
  <entry producer="producer258" in="00:00:00.000" out="00:00:02.080">
   <property name="kdenlive:id">4</property>
  </entry>
  <entry producer="producer103" in="00:00:00.000" out="00:00:04.960">
   <property name="kdenlive:id">105</property>
  </entry>
  <entry producer="producer258" in="00:00:02.120" out="00:00:03.400">
   <property name="kdenlive:id">4</property>
  </entry>
  <entry producer="producer104" in="00:00:00.000" out="00:00:03.680">
   <property name="kdenlive:id">106</property>
  </entry>
  <entry producer="producer258" in="00:00:03.720" out="00:00:05.960">
   <property name="kdenlive:id">4</property>
  </entry>
  <entry producer="producer102" in="00:00:00.000" out="00:00:01.920">
   <property name="kdenlive:id">104</property>
  </entry>
  <entry producer="producer259" in="00:00:00.000" out="00:00:03.960">
   <property name="kdenlive:id">75</property>
  </entry>
  <blank length="00:00:04.080"/>
  <entry producer="producer47" in="00:00:00.000" out="00:00:07.000">
   <property name="kdenlive:id">49</property>
  </entry>
  <blank length="00:00:16.240"/>
  <entry producer="producer62" in="00:00:00.000" out="00:00:07.960">
   <property name="kdenlive:id">64</property>
  </entry>
  <blank length="00:00:25.440"/>
  <entry producer="producer260" in="00:00:00.000" out="00:00:03.960">
   <property name="kdenlive:id">5</property>
  </entry>
  <entry producer="producer105" in="00:00:00.000" out="00:00:03.080">
   <property name="kdenlive:id">107</property>
  </entry>
  <blank length="00:00:09.640"/>
  <entry producer="producer62" in="00:00:00.000" out="00:00:21.920">
   <property name="kdenlive:id">64</property>
  </entry>
  <blank length="00:00:02.640"/>
  <entry producer="producer254" in="00:00:00.000" out="00:00:03.960">
   <property name="kdenlive:id">44</property>
  </entry>
  <blank length="00:00:00.040"/>
  <entry producer="producer254" in="00:00:00.000" out="00:00:03.960">
   <property name="kdenlive:id">44</property>
  </entry>
  <blank length="00:00:06.720"/>
  <entry producer="producer261" in="00:00:00.000" out="00:00:03.960">
   <property name="kdenlive:id">10</property>
  </entry>
  <entry producer="producer68" in="00:00:00.000" out="00:00:07.840">
   <property name="kdenlive:id">70</property>
  </entry>
  <entry producer="producer21" in="00:00:00.000" out="00:00:02.480">
   <property name="kdenlive:id">11</property>
  </entry>
  <entry producer="producer67" in="00:00:00.000" out="00:00:07.680">
   <property name="kdenlive:id">69</property>
  </entry>
  <blank length="00:00:05.080"/>
  <entry producer="producer261" in="00:00:00.000" out="00:00:03.960">
   <property name="kdenlive:id">10</property>
  </entry>
  <entry producer="producer262" in="00:00:00.000" out="00:00:01.720">
   <property name="kdenlive:id">12</property>
  </entry>
  <entry producer="producer69" in="00:00:00.000" out="00:00:11.120">
   <property name="kdenlive:id">71</property>
  </entry>
  <blank length="00:00:11.520"/>
  <entry producer="producer263" in="00:00:00.000" out="00:00:01.560">
   <property name="kdenlive:id">73</property>
  </entry>
  <entry producer="producer72" in="00:00:00.000" out="00:00:01.600">
   <property name="kdenlive:id">74</property>
  </entry>
  <entry producer="producer263" in="00:00:01.600" out="00:00:02.760">
   <property name="kdenlive:id">73</property>
  </entry>
  <entry producer="producer62" in="00:00:00.000" out="00:00:15.000">
   <property name="kdenlive:id">64</property>
  </entry>
  <blank length="00:00:07.520"/>
  <entry producer="producer254" in="00:00:00.000" out="00:00:03.960">
   <property name="kdenlive:id">44</property>
  </entry>
  <entry producer="producer254" in="00:00:00.000" out="00:00:03.960">
   <property name="kdenlive:id">44</property>
  </entry>
  <blank length="00:00:03.440"/>
  <entry producer="producer62" in="00:00:00.000" out="00:00:10.800">
   <property name="kdenlive:id">64</property>
  </entry>
  <entry producer="producer62" in="00:00:00.000" out="00:00:06.960">
   <property name="kdenlive:id">64</property>
  </entry>
  <blank length="00:00:03.880"/>
  <entry producer="producer62" in="00:00:00.000" out="00:00:07.200">
   <property name="kdenlive:id">64</property>
  </entry>
  <entry producer="producer62" in="00:00:00.000" out="00:00:19.720">
   <property name="kdenlive:id">64</property>
  </entry>
  <entry producer="producer62" in="00:00:00.000" out="00:00:10.960">
   <property name="kdenlive:id">64</property>
  </entry>
  <blank length="00:00:01.000"/>
  <entry producer="producer264" in="00:00:00.000" out="00:00:02.360">
   <property name="kdenlive:id">148</property>
  </entry>
  <blank length="00:00:00.800"/>
  <entry producer="producer62" in="00:00:00.000" out="00:00:09.520">
   <property name="kdenlive:id">64</property>
  </entry>
  <blank length="00:00:05.400"/>
  <entry producer="producer62" in="00:00:00.000" out="00:00:19.960">
   <property name="kdenlive:id">64</property>
  </entry>
  <blank length="00:00:01.720"/>
  <entry producer="producer62" in="00:00:00.000" out="00:00:31.040">
   <property name="kdenlive:id">64</property>
  </entry>
  <blank length="00:00:01.280"/>
  <entry producer="producer254" in="00:00:00.000" out="00:00:03.960">
   <property name="kdenlive:id">44</property>
  </entry>
  <blank length="00:00:10.800"/>
  <entry producer="producer265" in="00:00:00.000" out="00:00:01.960">
   <property name="kdenlive:id">46</property>
  </entry>
  <blank length="00:00:08.840"/>
  <entry producer="producer265" in="00:00:00.000" out="00:00:01.960">
   <property name="kdenlive:id">46</property>
  </entry>
  <blank length="00:00:08.040"/>
  <entry producer="producer265" in="00:00:00.000" out="00:00:01.960">
   <property name="kdenlive:id">46</property>
  </entry>
  <blank length="00:00:10.080"/>
  <entry producer="producer265" in="00:00:00.000" out="00:00:01.960">
   <property name="kdenlive:id">46</property>
  </entry>
  <blank length="00:00:14.120"/>
  <entry producer="producer62" in="00:00:00.000" out="00:00:08.400">
   <property name="kdenlive:id">64</property>
  </entry>
 </playlist>
 <playlist id="playlist7"/>
 <tractor id="tractor3" in="00:00:00.000" out="00:08:01.000">
  <property name="kdenlive:trackheight">69</property>
  <property name="kdenlive:timeline_active">1</property>
  <property name="kdenlive:collapsed">28</property>
  <property name="kdenlive:thumbs_format"/>
  <property name="kdenlive:audio_rec"/>
  <track hide="audio" producer="playlist6"/>
  <track producer="playlist7"/>
 </tractor>
 <producer id="producer267" in="00:00:00.000" out="00:00:01.960">
  <property name="length">00:00:02.000</property>
  <property name="eof">pause</property>
  <property name="resource">vid_files/10_chapters/switch_white/switch_white%03d.png</property>
  <property name="ttl">1</property>
  <property name="aspect_ratio">1</property>
  <property name="progressive">1</property>
  <property name="seekable">1</property>
  <property name="meta.media.width">1920</property>
  <property name="meta.media.height">1080</property>
  <property name="mlt_service">qimage</property>
  <property name="kdenlive:clipname">switch_white</property>
  <property name="luma_duration">25</property>
  <property name="fade">0</property>
  <property name="crop">0</property>
  <property name="loop">0</property>
  <property name="kdenlive:duration">00:00:02.000</property>
  <property name="kdenlive:folderid">-1</property>
  <property name="kdenlive:id">46</property>
  <property name="kdenlive:file_hash">1d0594fa10e9926fed62864afd5af554</property>
  <property name="global_feed">1</property>
  <property name="xml">was here</property>
  <property name="set.test_audio">1</property>
  <property name="set.test_image">0</property>
 </producer>
 <producer id="producer269" in="00:00:00.000" out="00:00:07.960">
  <property name="length">00:00:08.000</property>
  <property name="eof">pause</property>
  <property name="resource">vid_files/9_pol_example/train_error_graph_theory/train_error_graph_theory%03d.png</property>
  <property name="ttl">1</property>
  <property name="aspect_ratio">1</property>
  <property name="progressive">1</property>
  <property name="seekable">1</property>
  <property name="meta.media.width">1500</property>
  <property name="meta.media.height">600</property>
  <property name="mlt_service">qimage</property>
  <property name="kdenlive:clipname">train_error_graph_theory</property>
  <property name="luma_duration">25</property>
  <property name="fade">0</property>
  <property name="crop">0</property>
  <property name="loop">0</property>
  <property name="kdenlive:duration">00:00:08.000</property>
  <property name="kdenlive:folderid">-1</property>
  <property name="kdenlive:id">63</property>
  <property name="kdenlive:file_hash">a7555c74aed5c426aba453d04e64bb3b</property>
  <property name="global_feed">1</property>
  <property name="xml">was here</property>
  <property name="set.test_audio">1</property>
  <property name="set.test_image">0</property>
 </producer>
 <producer id="producer270" in="00:00:00.000" out="00:00:04.760">
  <property name="length">00:00:04.800</property>
  <property name="eof">pause</property>
  <property name="resource">vid_files/0_draw/arrow/arrow%03d.png</property>
  <property name="ttl">1</property>
  <property name="aspect_ratio">1</property>
  <property name="progressive">1</property>
  <property name="seekable">1</property>
  <property name="meta.media.width">800</property>
  <property name="meta.media.height">800</property>
  <property name="mlt_service">qimage</property>
  <property name="kdenlive:clipname">arrow</property>
  <property name="luma_duration">25</property>
  <property name="fade">0</property>
  <property name="crop">0</property>
  <property name="loop">0</property>
  <property name="kdenlive:duration">00:00:04.800</property>
  <property name="kdenlive:folderid">-1</property>
  <property name="kdenlive:id">78</property>
  <property name="kdenlive:file_hash">7bc9d11c6ab316ea4471b769bb8a7ca3</property>
  <property name="global_feed">1</property>
  <property name="xml">was here</property>
  <property name="set.test_audio">1</property>
  <property name="set.test_image">0</property>
 </producer>
 <producer id="producer271" in="00:00:00.000" out="00:00:07.960">
  <property name="length">00:00:08.000</property>
  <property name="eof">pause</property>
  <property name="resource">vid_files/9_pol_example/train_error_graph_theory_val/train_error_graph_theory_val%03d.png</property>
  <property name="ttl">1</property>
  <property name="aspect_ratio">1</property>
  <property name="progressive">1</property>
  <property name="seekable">1</property>
  <property name="meta.media.width">1500</property>
  <property name="meta.media.height">600</property>
  <property name="mlt_service">qimage</property>
  <property name="kdenlive:clipname">train_error_graph_theory_val</property>
  <property name="luma_duration">25</property>
  <property name="fade">0</property>
  <property name="crop">0</property>
  <property name="loop">0</property>
  <property name="kdenlive:duration">00:00:08.000</property>
  <property name="kdenlive:folderid">-1</property>
  <property name="kdenlive:id">65</property>
  <property name="kdenlive:file_hash">e096fd76c9c1926c50df72e9862fdfa7</property>
  <property name="global_feed">1</property>
  <property name="xml">was here</property>
  <property name="set.test_audio">1</property>
  <property name="set.test_image">0</property>
 </producer>
 <producer id="producer272" in="00:00:00.000" out="00:00:06.360">
  <property name="length">00:00:06.400</property>
  <property name="eof">pause</property>
  <property name="resource">vid_files/3_bias_variance_decompose/totale/totale%03d.png</property>
  <property name="ttl">1</property>
  <property name="aspect_ratio">1</property>
  <property name="progressive">1</property>
  <property name="seekable">1</property>
  <property name="meta.media.width">1920</property>
  <property name="meta.media.height">200</property>
  <property name="mlt_service">qimage</property>
  <property name="kdenlive:clipname">totale</property>
  <property name="luma_duration">25</property>
  <property name="fade">0</property>
  <property name="crop">0</property>
  <property name="loop">0</property>
  <property name="kdenlive:duration">00:00:06.400</property>
  <property name="kdenlive:folderid">-1</property>
  <property name="kdenlive:id">110</property>
  <property name="kdenlive:file_hash">6f2b14d93a82b077965b30159835c487</property>
  <property name="global_feed">1</property>
  <property name="xml">was here</property>
  <property name="set.test_audio">1</property>
  <property name="set.test_image">0</property>
 </producer>
 <producer id="producer273" in="00:00:00.000" out="00:00:03.960">
  <property name="length">00:00:04.000</property>
  <property name="eof">pause</property>
  <property name="resource">vid_files/3_bias_variance_decompose/intro/intro%03d.png</property>
  <property name="ttl">1</property>
  <property name="aspect_ratio">1</property>
  <property name="progressive">1</property>
  <property name="seekable">1</property>
  <property name="meta.media.width">1920</property>
  <property name="meta.media.height">1080</property>
  <property name="mlt_service">qimage</property>
  <property name="kdenlive:clipname">intro</property>
  <property name="luma_duration">25</property>
  <property name="fade">0</property>
  <property name="crop">0</property>
  <property name="loop">0</property>
  <property name="kdenlive:duration">00:00:04.000</property>
  <property name="kdenlive:folderid">-1</property>
  <property name="kdenlive:id">10</property>
  <property name="kdenlive:file_hash">ed0c137f943194f9f62e8970782fea72</property>
  <property name="global_feed">1</property>
  <property name="xml">was here</property>
  <property name="set.test_audio">1</property>
  <property name="set.test_image">0</property>
 </producer>
 <producer id="producer274" in="00:00:00.000" out="00:00:07.960">
  <property name="length">00:00:08.000</property>
  <property name="eof">pause</property>
  <property name="resource">vid_files/9_pol_example/train_error_graph_theory_val_vb/train_error_graph_theory_val_vb%03d.png</property>
  <property name="ttl">1</property>
  <property name="aspect_ratio">1</property>
  <property name="progressive">1</property>
  <property name="seekable">1</property>
  <property name="meta.media.width">1500</property>
  <property name="meta.media.height">600</property>
  <property name="mlt_service">qimage</property>
  <property name="kdenlive:clipname">train_error_graph_theory_val_vb</property>
  <property name="luma_duration">25</property>
  <property name="fade">0</property>
  <property name="crop">0</property>
  <property name="loop">0</property>
  <property name="kdenlive:duration">00:00:08.000</property>
  <property name="kdenlive:folderid">-1</property>
  <property name="kdenlive:id">72</property>
  <property name="kdenlive:file_hash">c4a7265ecab85364a7197930947a1f39</property>
  <property name="global_feed">1</property>
  <property name="xml">was here</property>
  <property name="set.test_audio">1</property>
  <property name="set.test_image">0</property>
 </producer>
 <producer id="producer275" in="00:00:00.000" out="00:00:03.960">
  <property name="length">00:00:04.000</property>
  <property name="eof">pause</property>
  <property name="resource">vid_files/9_pol_example/draw_true_fuction/draw_true_fuction%03d.png</property>
  <property name="ttl">1</property>
  <property name="aspect_ratio">1</property>
  <property name="progressive">1</property>
  <property name="seekable">1</property>
  <property name="meta.media.width">1500</property>
  <property name="meta.media.height">600</property>
  <property name="mlt_service">qimage</property>
  <property name="kdenlive:clipname">draw_true_fuction</property>
  <property name="luma_duration">25</property>
  <property name="fade">0</property>
  <property name="crop">0</property>
  <property name="loop">0</property>
  <property name="kdenlive:duration">00:00:04.000</property>
  <property name="kdenlive:folderid">-1</property>
  <property name="kdenlive:id">83</property>
  <property name="kdenlive:file_hash">9f335f3efda2700d76d482b50e015266</property>
  <property name="global_feed">1</property>
  <property name="xml">was here</property>
  <property name="set.test_audio">1</property>
  <property name="set.test_image">0</property>
 </producer>
 <producer id="producer276" in="00:00:00.000" out="00:00:08.080">
  <property name="length">203</property>
  <property name="eof">pause</property>
  <property name="resource">0.985222:vid_files/9_pol_example/fitting_2_poly/fitting_2_poly%03d.png</property>
  <property name="aspect_ratio">1</property>
  <property name="ttl">1</property>
  <property name="meta.media.width">1500</property>
  <property name="meta.media.height">600</property>
  <property name="warp_speed">0.985222</property>
  <property name="warp_resource">vid_files/9_pol_example/fitting_2_poly/fitting_2_poly%03d.png</property>
  <property name="mlt_service">timewarp</property>
  <property name="audio_index">0</property>
  <property name="set.test_audio">1</property>
  <property name="set.test_image">0</property>
  <property name="kdenlive:id">89</property>
  <property name="warp_pitch">0</property>
 </producer>
 <producer id="producer277" in="00:00:00.000" out="00:00:02.360">
  <property name="length">00:00:02.400</property>
  <property name="eof">pause</property>
  <property name="resource">vid_files/10_chapters/overfit/overfit%03d.png</property>
  <property name="ttl">1</property>
  <property name="aspect_ratio">1</property>
  <property name="progressive">1</property>
  <property name="seekable">1</property>
  <property name="meta.media.width">1920</property>
  <property name="meta.media.height">300</property>
  <property name="mlt_service">qimage</property>
  <property name="kdenlive:clipname">overfit</property>
  <property name="luma_duration">25</property>
  <property name="fade">0</property>
  <property name="crop">0</property>
  <property name="loop">0</property>
  <property name="kdenlive:duration">00:00:02.400</property>
  <property name="kdenlive:folderid">-1</property>
  <property name="kdenlive:id">149</property>
  <property name="kdenlive:file_hash">c2566a098df57050a47c1cad273000be</property>
  <property name="global_feed">1</property>
  <property name="xml">was here</property>
  <property name="set.test_audio">1</property>
  <property name="set.test_image">0</property>
 </producer>
 <producer id="producer278" in="00:00:00.000" out="00:00:16.800">
  <property name="length">500</property>
  <property name="eof">pause</property>
  <property name="resource">vid_files/9_pol_example/train_error_02/train_error_%05d.png?begin=2000</property>
  <property name="ttl">1</property>
  <property name="aspect_ratio">1</property>
  <property name="progressive">1</property>
  <property name="seekable">1</property>
  <property name="begin">2000</property>
  <property name="meta.media.width">1301</property>
  <property name="meta.media.height">592</property>
  <property name="mlt_service">qimage</property>
  <property name="kdenlive:clipname">train_error_</property>
  <property name="luma_duration">25</property>
  <property name="fade">0</property>
  <property name="crop">0</property>
  <property name="loop">0</property>
  <property name="kdenlive:duration">00:00:16.840</property>
  <property name="kdenlive:folderid">-1</property>
  <property name="kdenlive:id">90</property>
  <property name="kdenlive:file_hash">4f49ea9e9e874f068bbdd27da87c8f90</property>
  <property name="global_feed">1</property>
  <property name="xml">was here</property>
  <property name="set.test_audio">1</property>
  <property name="set.test_image">0</property>
 </producer>
 <producer id="producer268" in="00:00:00.000" out="00:00:03.960">
  <property name="length">00:00:04.000</property>
  <property name="eof">pause</property>
  <property name="resource">vid_files/10_chapters/switch/switch%03d.png</property>
  <property name="ttl">1</property>
  <property name="aspect_ratio">1</property>
  <property name="progressive">1</property>
  <property name="seekable">1</property>
  <property name="meta.media.width">1920</property>
  <property name="meta.media.height">1080</property>
  <property name="mlt_service">qimage</property>
  <property name="kdenlive:clipname">switch</property>
  <property name="luma_duration">25</property>
  <property name="fade">0</property>
  <property name="crop">0</property>
  <property name="loop">0</property>
  <property name="kdenlive:duration">00:00:04.000</property>
  <property name="kdenlive:folderid">-1</property>
  <property name="kdenlive:id">44</property>
  <property name="kdenlive:file_hash">161c2e0e6a3cb3bb54b7638878c837e7</property>
  <property name="global_feed">1</property>
  <property name="xml">was here</property>
  <property name="set.test_audio">1</property>
  <property name="set.test_image">0</property>
 </producer>
 <playlist id="playlist8">
  <blank length="00:00:02.440"/>
  <entry producer="producer267" in="00:00:00.000" out="00:00:01.960">
   <property name="kdenlive:id">46</property>
  </entry>
  <blank length="00:00:23.280"/>
  <entry producer="producer267" in="00:00:00.000" out="00:00:01.960">
   <property name="kdenlive:id">46</property>
  </entry>
  <blank length="00:00:11.280"/>
  <entry producer="producer267" in="00:00:00.000" out="00:00:01.960">
   <property name="kdenlive:id">46</property>
  </entry>
  <blank length="00:00:00.440"/>
  <entry producer="producer267" in="00:00:00.000" out="00:00:01.960">
   <property name="kdenlive:id">46</property>
  </entry>
  <blank length="00:00:18.400"/>
  <entry producer="producer267" in="00:00:00.000" out="00:00:01.960">
   <property name="kdenlive:id">46</property>
  </entry>
  <blank length="00:00:02.320"/>
  <entry producer="producer267" in="00:00:00.000" out="00:00:01.960">
   <property name="kdenlive:id">46</property>
  </entry>
  <blank length="00:00:04.800"/>
  <entry producer="producer267" in="00:00:00.000" out="00:00:01.960">
   <property name="kdenlive:id">46</property>
  </entry>
  <blank length="00:00:15.160"/>
  <entry producer="producer269" in="00:00:00.000" out="00:00:07.960">
   <property name="kdenlive:id">63</property>
  </entry>
  <blank length="00:00:26.320"/>
  <entry producer="producer270" in="00:00:01.200" out="00:00:04.280">
   <property name="kdenlive:id">78</property>
  </entry>
  <entry producer="producer270" in="00:00:01.200" out="00:00:04.280">
   <property name="kdenlive:id">78</property>
  </entry>
  <blank length="00:00:09.640"/>
  <entry producer="producer271" in="00:00:00.000" out="00:00:07.960">
   <property name="kdenlive:id">65</property>
  </entry>
  <entry producer="producer107" in="00:00:00.000" out="00:00:05.520">
   <property name="kdenlive:id">109</property>
  </entry>
  <blank length="00:00:01.440"/>
  <entry producer="producer272" in="00:00:00.000" out="00:00:06.360">
   <property name="kdenlive:id">110</property>
  </entry>
  <entry producer="producer110" in="00:00:00.000" out="00:00:00.520">
   <property name="kdenlive:id">112</property>
  </entry>
  <blank length="00:00:16.840"/>
  <entry producer="producer267" in="00:00:00.000" out="00:00:01.960">
   <property name="kdenlive:id">46</property>
  </entry>
  <blank length="00:00:01.560"/>
  <entry producer="producer75" in="00:00:00.000" out="00:00:02.680">
   <property name="kdenlive:id">77</property>
   <filter id="filter8">
    <property name="rotate_center">1</property>
    <property name="mlt_service">qtblend</property>
    <property name="kdenlive_id">qtblend</property>
    <property name="rect">00:00:00.000=1206 387 192 108 1.000000</property>
    <property name="rotation">00:00:00.000=0</property>
    <property name="compositing">0</property>
    <property name="distort">0</property>
    <property name="kdenlive:collapsed">0</property>
   </filter>
  </entry>
  <blank length="00:00:02.160"/>
  <entry producer="producer79" in="00:00:00.000" out="00:00:04.960">
   <property name="kdenlive:id">81</property>
   <filter id="filter9" in="00:00:04.080" out="00:00:04.960">
    <property name="start">1</property>
    <property name="mlt_service">brightness</property>
    <property name="kdenlive_id">fade_to_black</property>
    <property name="end">0</property>
    <property name="alpha">-1</property>
   </filter>
  </entry>
  <blank length="00:00:04.000"/>
  <entry producer="producer78" in="00:00:00.000" out="00:00:05.200">
   <property name="kdenlive:id">80</property>
   <filter id="filter10" out="00:00:00.800">
    <property name="start">0</property>
    <property name="mlt_service">brightness</property>
    <property name="kdenlive_id">fade_from_black</property>
    <property name="end">1</property>
    <property name="alpha">-1</property>
   </filter>
  </entry>
  <blank length="00:00:04.240"/>
  <entry producer="producer267" in="00:00:00.000" out="00:00:01.960">
   <property name="kdenlive:id">46</property>
  </entry>
  <blank length="00:00:07.680"/>
  <entry producer="producer80" in="00:00:00.000" out="00:00:08.040">
   <property name="kdenlive:id">82</property>
   <filter id="filter11" out="00:00:01.320">
    <property name="start">0</property>
    <property name="mlt_service">brightness</property>
    <property name="kdenlive_id">fade_from_black</property>
    <property name="end">1</property>
    <property name="alpha">-1</property>
   </filter>
  </entry>
  <blank length="00:00:08.120"/>
  <entry producer="producer273" in="00:00:00.000" out="00:00:03.960">
   <property name="kdenlive:id">10</property>
  </entry>
  <blank length="00:00:03.840"/>
  <entry producer="producer274" in="00:00:00.000" out="00:00:07.960">
   <property name="kdenlive:id">72</property>
  </entry>
  <entry producer="producer112" in="00:00:00.000" out="00:00:07.000">
   <property name="kdenlive:id">114</property>
  </entry>
  <blank length="00:00:18.960"/>
  <entry producer="producer275" in="00:00:00.000" out="00:00:03.960">
   <property name="kdenlive:id">83</property>
  </entry>
  <entry producer="producer82" in="00:00:00.000" out="00:00:06.800">
   <property name="kdenlive:id">84</property>
  </entry>
  <entry producer="producer82" in="00:00:00.000" out="00:00:06.960">
   <property name="kdenlive:id">84</property>
  </entry>
  <blank length="00:00:03.880"/>
  <entry producer="producer82" in="00:00:00.000" out="00:00:07.200">
   <property name="kdenlive:id">84</property>
  </entry>
  <blank length="00:00:03.320"/>
  <entry producer="producer115" in="00:00:00.000" out="00:00:02.760">
   <property name="kdenlive:id">117</property>
  </entry>
  <entry producer="producer115" in="00:00:00.000" out="00:00:01.560">
   <property name="kdenlive:id">117</property>
  </entry>
  <entry producer="producer276" in="00:00:00.000" out="00:00:08.080">
   <property name="kdenlive:id">89</property>
  </entry>
  <blank length="00:00:01.200"/>
  <entry producer="producer119" in="00:00:00.000" out="00:00:01.440">
   <property name="kdenlive:id">121</property>
  </entry>
  <entry producer="producer118" in="00:00:00.000" out="00:00:07.280">
   <property name="kdenlive:id">120</property>
  </entry>
  <entry producer="producer123" in="00:00:00.000" out="00:00:00.680">
   <property name="kdenlive:id">125</property>
  </entry>
  <entry producer="producer123" in="00:00:00.000" out="00:00:04.160">
   <property name="kdenlive:id">125</property>
  </entry>
  <blank length="00:00:04.200"/>
  <entry producer="producer124" in="00:00:00.000" out="00:00:09.520">
   <property name="kdenlive:id">126</property>
  </entry>
  <entry producer="producer277" in="00:00:00.000" out="00:00:02.360">
   <property name="kdenlive:id">149</property>
  </entry>
  <blank length="00:00:03.000"/>
  <entry producer="producer278" in="00:00:00.000" out="00:00:19.960">
   <property name="kdenlive:id">90</property>
  </entry>
  <blank length="00:00:01.720"/>
  <entry producer="producer278" in="00:00:00.000" out="00:00:19.960">
   <property name="kdenlive:id">90</property>
   <filter id="filter12">
    <property name="rotate_center">1</property>
    <property name="mlt_service">qtblend</property>
    <property name="kdenlive_id">qtblend</property>
    <property name="rect">00:00:00.000=384 216 1152 648 1.000000</property>
    <property name="rotation">00:00:00.000=0</property>
    <property name="compositing">0</property>
    <property name="distort">0</property>
    <property name="kdenlive:collapsed">0</property>
   </filter>
  </entry>
  <entry producer="producer150" in="00:00:00.000" out="00:00:11.040">
   <property name="kdenlive:id">152</property>
  </entry>
  <blank length="00:01:05.160"/>
  <entry producer="producer126" in="00:00:00.000" out="00:00:06.360">
   <property name="kdenlive:id">128</property>
  </entry>
  <blank length="00:00:16.480"/>
  <entry producer="producer268" in="00:00:00.000" out="00:00:03.960">
   <property name="kdenlive:id">44</property>
  </entry>
 </playlist>
 <playlist id="playlist9"/>
 <tractor id="tractor4" in="00:00:00.000" out="00:08:19.440">
  <property name="kdenlive:trackheight">69</property>
  <property name="kdenlive:timeline_active">1</property>
  <property name="kdenlive:collapsed">28</property>
  <property name="kdenlive:thumbs_format"/>
  <property name="kdenlive:audio_rec"/>
  <track hide="audio" producer="playlist8"/>
  <track producer="playlist9"/>
 </tractor>
 <producer id="producer280" in="00:00:00.000" out="00:00:00.760">
  <property name="length">00:00:00.800</property>
  <property name="eof">pause</property>
  <property name="resource">vid_files/10_chapters/graph_intro/graph_intro%03d.png</property>
  <property name="ttl">1</property>
  <property name="aspect_ratio">1</property>
  <property name="progressive">1</property>
  <property name="seekable">1</property>
  <property name="meta.media.width">1920</property>
  <property name="meta.media.height">1080</property>
  <property name="mlt_service">qimage</property>
  <property name="kdenlive:clipname">graph_intro</property>
  <property name="luma_duration">25</property>
  <property name="fade">0</property>
  <property name="crop">0</property>
  <property name="loop">0</property>
  <property name="kdenlive:duration">00:00:00.800</property>
  <property name="kdenlive:folderid">-1</property>
  <property name="kdenlive:id">67</property>
  <property name="kdenlive:file_hash">1da2d41ecb8eec03b356cbd3f353fb16</property>
  <property name="global_feed">1</property>
  <property name="xml">was here</property>
  <property name="set.test_audio">1</property>
  <property name="set.test_image">0</property>
 </producer>
 <producer id="producer281" in="00:00:00.000" out="00:00:02.360">
  <property name="length">00:00:02.400</property>
  <property name="eof">pause</property>
  <property name="resource">vid_files/10_chapters/texts/texts%03d.png</property>
  <property name="ttl">1</property>
  <property name="aspect_ratio">1</property>
  <property name="progressive">1</property>
  <property name="seekable">1</property>
  <property name="meta.media.width">1920</property>
  <property name="meta.media.height">300</property>
  <property name="mlt_service">qimage</property>
  <property name="kdenlive:clipname">texts</property>
  <property name="luma_duration">25</property>
  <property name="fade">0</property>
  <property name="crop">0</property>
  <property name="loop">0</property>
  <property name="kdenlive:duration">00:00:02.400</property>
  <property name="kdenlive:folderid">-1</property>
  <property name="kdenlive:id">137</property>
  <property name="kdenlive:file_hash">7a7439d6de9e64bfbe451c743956220f</property>
  <property name="global_feed">1</property>
  <property name="xml">was here</property>
  <property name="set.test_audio">1</property>
  <property name="set.test_image">0</property>
 </producer>
 <producer id="producer282" in="00:00:00.000" out="00:00:01.960">
  <property name="length">00:00:02.000</property>
  <property name="eof">pause</property>
  <property name="resource">vid_files/10_chapters/switch_white/switch_white%03d.png</property>
  <property name="ttl">1</property>
  <property name="aspect_ratio">1</property>
  <property name="progressive">1</property>
  <property name="seekable">1</property>
  <property name="meta.media.width">1920</property>
  <property name="meta.media.height">1080</property>
  <property name="mlt_service">qimage</property>
  <property name="kdenlive:clipname">switch_white</property>
  <property name="luma_duration">25</property>
  <property name="fade">0</property>
  <property name="crop">0</property>
  <property name="loop">0</property>
  <property name="kdenlive:duration">00:00:02.000</property>
  <property name="kdenlive:folderid">-1</property>
  <property name="kdenlive:id">46</property>
  <property name="kdenlive:file_hash">23e29cf534864da9bdbd4882f32876b4</property>
  <property name="global_feed">1</property>
  <property name="xml">was here</property>
  <property name="set.test_audio">1</property>
  <property name="set.test_image">0</property>
 </producer>
 <producer id="producer283" in="00:00:00.000" out="00:00:04.760">
  <property name="length">00:00:04.800</property>
  <property name="eof">pause</property>
  <property name="resource">vid_files/0_draw/arrow/arrow%03d.png</property>
  <property name="ttl">1</property>
  <property name="aspect_ratio">1</property>
  <property name="progressive">1</property>
  <property name="seekable">1</property>
  <property name="meta.media.width">800</property>
  <property name="meta.media.height">800</property>
  <property name="mlt_service">qimage</property>
  <property name="kdenlive:clipname">arrow</property>
  <property name="luma_duration">25</property>
  <property name="fade">0</property>
  <property name="crop">0</property>
  <property name="loop">0</property>
  <property name="kdenlive:duration">00:00:04.800</property>
  <property name="kdenlive:folderid">-1</property>
  <property name="kdenlive:id">78</property>
  <property name="kdenlive:file_hash">7bc9d11c6ab316ea4471b769bb8a7ca3</property>
  <property name="global_feed">1</property>
  <property name="xml">was here</property>
  <property name="set.test_audio">1</property>
  <property name="set.test_image">0</property>
 </producer>
 <producer id="producer284" in="00:00:00.000" out="00:00:04.000">
  <property name="length">00:00:04.040</property>
  <property name="eof">pause</property>
  <property name="resource">/home/renec/Drive/Higgsino/ASSETS/C4D/remndered/NO/NO %04d.png</property>
  <property name="ttl">1</property>
  <property name="aspect_ratio">1</property>
  <property name="progressive">1</property>
  <property name="seekable">1</property>
  <property name="meta.media.width">1920</property>
  <property name="meta.media.height">1080</property>
  <property name="mlt_service">qimage</property>
  <property name="kdenlive:clipname">NO </property>
  <property name="luma_duration">25</property>
  <property name="fade">0</property>
  <property name="crop">0</property>
  <property name="loop">0</property>
  <property name="kdenlive:duration">00:00:04.040</property>
  <property name="kdenlive:folderid">-1</property>
  <property name="kdenlive:id">111</property>
  <property name="kdenlive:file_hash">07333e8f45a810a48ad220fc5c213765</property>
  <property name="global_feed">1</property>
  <property name="xml">was here</property>
  <property name="set.test_audio">1</property>
  <property name="set.test_image">0</property>
 </producer>
 <producer id="producer285" in="00:00:00.000" out="00:00:02.360">
  <property name="length">00:00:02.400</property>
  <property name="eof">pause</property>
  <property name="resource">vid_files/10_chapters/t_totale/t_totale%03d.png</property>
  <property name="ttl">1</property>
  <property name="aspect_ratio">1</property>
  <property name="progressive">1</property>
  <property name="seekable">1</property>
  <property name="meta.media.width">1920</property>
  <property name="meta.media.height">300</property>
  <property name="mlt_service">qimage</property>
  <property name="kdenlive:clipname">t_totale</property>
  <property name="luma_duration">25</property>
  <property name="fade">0</property>
  <property name="crop">0</property>
  <property name="loop">0</property>
  <property name="kdenlive:duration">00:00:02.400</property>
  <property name="kdenlive:folderid">-1</property>
  <property name="kdenlive:id">142</property>
  <property name="kdenlive:file_hash">e6a03c643279ece1ee447f4a1bf9efd1</property>
  <property name="global_feed">1</property>
  <property name="xml">was here</property>
  <property name="set.test_audio">1</property>
  <property name="set.test_image">0</property>
 </producer>
 <producer id="producer286" in="00:00:00.000" out="00:00:02.360">
  <property name="length">00:00:02.400</property>
  <property name="eof">pause</property>
  <property name="resource">vid_files/10_chapters/t_bias/t_bias%03d.png</property>
  <property name="ttl">1</property>
  <property name="aspect_ratio">1</property>
  <property name="progressive">1</property>
  <property name="seekable">1</property>
  <property name="meta.media.width">1920</property>
  <property name="meta.media.height">300</property>
  <property name="mlt_service">qimage</property>
  <property name="kdenlive:clipname">t_bias</property>
  <property name="luma_duration">25</property>
  <property name="fade">0</property>
  <property name="crop">0</property>
  <property name="loop">0</property>
  <property name="kdenlive:duration">00:00:02.400</property>
  <property name="kdenlive:folderid">-1</property>
  <property name="kdenlive:id">140</property>
  <property name="kdenlive:file_hash">73dfbb2bf2d9e8afee8937e2ec70a7e0</property>
  <property name="global_feed">1</property>
  <property name="xml">was here</property>
  <property name="set.test_audio">1</property>
  <property name="set.test_image">0</property>
 </producer>
 <producer id="producer287" in="00:00:00.000" out="00:00:06.360">
  <property name="length">00:00:06.400</property>
  <property name="eof">pause</property>
  <property name="resource">vid_files/3_bias_variance_decompose/totale/totale%03d.png</property>
  <property name="ttl">1</property>
  <property name="aspect_ratio">1</property>
  <property name="progressive">1</property>
  <property name="seekable">1</property>
  <property name="meta.media.width">1920</property>
  <property name="meta.media.height">200</property>
  <property name="mlt_service">qimage</property>
  <property name="kdenlive:clipname">totale</property>
  <property name="luma_duration">25</property>
  <property name="fade">0</property>
  <property name="crop">0</property>
  <property name="loop">0</property>
  <property name="kdenlive:duration">00:00:06.400</property>
  <property name="kdenlive:folderid">-1</property>
  <property name="kdenlive:id">110</property>
  <property name="kdenlive:file_hash">73c40b915717865f56d08534a4caff07</property>
  <property name="global_feed">1</property>
  <property name="xml">was here</property>
  <property name="set.test_audio">1</property>
  <property name="set.test_image">0</property>
 </producer>
 <producer id="producer288" in="00:00:00.000" out="00:00:03.960">
  <property name="length">00:00:04.000</property>
  <property name="eof">pause</property>
  <property name="resource">vid_files/9_pol_example/draw_data_points/draw_data_points%03d.png</property>
  <property name="ttl">1</property>
  <property name="aspect_ratio">1</property>
  <property name="progressive">1</property>
  <property name="seekable">1</property>
  <property name="meta.media.width">1500</property>
  <property name="meta.media.height">600</property>
  <property name="mlt_service">qimage</property>
  <property name="kdenlive:clipname">draw_data_points</property>
  <property name="luma_duration">25</property>
  <property name="fade">0</property>
  <property name="crop">0</property>
  <property name="loop">0</property>
  <property name="kdenlive:duration">00:00:04.000</property>
  <property name="kdenlive:folderid">-1</property>
  <property name="kdenlive:id">85</property>
  <property name="kdenlive:file_hash">81fe8ccb953b4ff1acd015b99b33a34e</property>
  <property name="global_feed">1</property>
  <property name="xml">was here</property>
  <property name="set.test_audio">1</property>
  <property name="set.test_image">0</property>
 </producer>
 <producer id="producer289" in="00:00:00.000" out="00:00:19.960">
  <property name="length">00:00:20.000</property>
  <property name="eof">pause</property>
  <property name="resource">vid_files/10_chapters/pol_degree/pol_degree%03d.png</property>
  <property name="ttl">1</property>
  <property name="aspect_ratio">1</property>
  <property name="progressive">1</property>
  <property name="seekable">1</property>
  <property name="meta.media.width">1920</property>
  <property name="meta.media.height">500</property>
  <property name="mlt_service">qimage</property>
  <property name="kdenlive:clipname">pol_degree</property>
  <property name="luma_duration">25</property>
  <property name="fade">0</property>
  <property name="crop">0</property>
  <property name="loop">0</property>
  <property name="kdenlive:duration">00:00:20.000</property>
  <property name="kdenlive:folderid">-1</property>
  <property name="kdenlive:id">151</property>
  <property name="kdenlive:file_hash">a24ad17493941c63c5de965b642ee72d</property>
  <property name="global_feed">1</property>
  <property name="xml">was here</property>
  <property name="set.test_audio">1</property>
  <property name="set.test_image">0</property>
 </producer>
 <producer id="producer290" in="00:00:00.000" out="00:00:19.960">
  <property name="length">00:00:20.000</property>
  <property name="eof">pause</property>
  <property name="resource">vid_files/9_pol_example/res/res%03d.png</property>
  <property name="ttl">1</property>
  <property name="aspect_ratio">1</property>
  <property name="progressive">1</property>
  <property name="seekable">1</property>
  <property name="meta.media.width">1500</property>
  <property name="meta.media.height">600</property>
  <property name="mlt_service">qimage</property>
  <property name="kdenlive:clipname">res</property>
  <property name="luma_duration">25</property>
  <property name="fade">0</property>
  <property name="crop">0</property>
  <property name="loop">0</property>
  <property name="kdenlive:duration">00:00:20.000</property>
  <property name="kdenlive:folderid">-1</property>
  <property name="kdenlive:id">92</property>
  <property name="kdenlive:file_hash">1ef63a0f10b97e28d34016b7310f66e5</property>
  <property name="global_feed">1</property>
  <property name="xml">was here</property>
  <property name="set.test_audio">1</property>
  <property name="set.test_image">0</property>
 </producer>
 <producer id="producer291" in="00:00:00.000" out="00:00:02.360">
  <property name="length">00:00:02.400</property>
  <property name="eof">pause</property>
  <property name="resource">vid_files/10_chapters/low_error/low_error%03d.png</property>
  <property name="ttl">1</property>
  <property name="aspect_ratio">1</property>
  <property name="progressive">1</property>
  <property name="seekable">1</property>
  <property name="meta.media.width">1920</property>
  <property name="meta.media.height">300</property>
  <property name="mlt_service">qimage</property>
  <property name="kdenlive:clipname">low_error</property>
  <property name="luma_duration">25</property>
  <property name="fade">0</property>
  <property name="crop">0</property>
  <property name="loop">0</property>
  <property name="kdenlive:duration">00:00:02.400</property>
  <property name="kdenlive:folderid">-1</property>
  <property name="kdenlive:id">154</property>
  <property name="kdenlive:file_hash">06cc2af7af78aa31db36458112af5ffa</property>
  <property name="global_feed">1</property>
  <property name="xml">was here</property>
  <property name="set.test_audio">1</property>
  <property name="set.test_image">0</property>
 </producer>
 <producer id="producer292" in="00:00:00.000" out="00:00:02.360">
  <property name="length">00:00:02.400</property>
  <property name="eof">pause</property>
  <property name="resource">vid_files/10_chapters/high_error/high_error%03d.png</property>
  <property name="ttl">1</property>
  <property name="aspect_ratio">1</property>
  <property name="progressive">1</property>
  <property name="seekable">1</property>
  <property name="meta.media.width">1920</property>
  <property name="meta.media.height">300</property>
  <property name="mlt_service">qimage</property>
  <property name="kdenlive:clipname">high_error</property>
  <property name="luma_duration">25</property>
  <property name="fade">0</property>
  <property name="crop">0</property>
  <property name="loop">0</property>
  <property name="kdenlive:duration">00:00:02.400</property>
  <property name="kdenlive:folderid">-1</property>
  <property name="kdenlive:id">153</property>
  <property name="kdenlive:file_hash">3673e21dcd0295139367e4aa5e690a80</property>
  <property name="global_feed">1</property>
  <property name="xml">was here</property>
  <property name="set.test_audio">1</property>
  <property name="set.test_image">0</property>
 </producer>
 <producer id="producer293" in="00:00:00.000" out="00:00:02.360">
  <property name="length">00:00:02.400</property>
  <property name="eof">pause</property>
  <property name="resource">vid_files/10_chapters/is_bi/is_bi%03d.png</property>
  <property name="ttl">1</property>
  <property name="aspect_ratio">1</property>
  <property name="progressive">1</property>
  <property name="seekable">1</property>
  <property name="meta.media.width">1920</property>
  <property name="meta.media.height">300</property>
  <property name="mlt_service">qimage</property>
  <property name="kdenlive:clipname">is_bi</property>
  <property name="luma_duration">25</property>
  <property name="fade">0</property>
  <property name="crop">0</property>
  <property name="loop">0</property>
  <property name="kdenlive:duration">00:00:02.400</property>
  <property name="kdenlive:folderid">-1</property>
  <property name="kdenlive:id">160</property>
  <property name="kdenlive:file_hash">0d09318bc190e737c8ac58e68d388fb7</property>
  <property name="global_feed">1</property>
  <property name="xml">was here</property>
  <property name="set.test_audio">1</property>
  <property name="set.test_image">0</property>
 </producer>
 <producer id="producer294" in="00:00:00.000" out="00:00:02.360">
  <property name="length">00:00:02.400</property>
  <property name="eof">pause</property>
  <property name="resource">vid_files/10_chapters/underfit/underfit%03d.png</property>
  <property name="ttl">1</property>
  <property name="aspect_ratio">1</property>
  <property name="progressive">1</property>
  <property name="seekable">1</property>
  <property name="meta.media.width">1920</property>
  <property name="meta.media.height">300</property>
  <property name="mlt_service">qimage</property>
  <property name="kdenlive:clipname">underfit</property>
  <property name="luma_duration">25</property>
  <property name="fade">0</property>
  <property name="crop">0</property>
  <property name="loop">0</property>
  <property name="kdenlive:duration">00:00:02.400</property>
  <property name="kdenlive:folderid">-1</property>
  <property name="kdenlive:id">148</property>
  <property name="kdenlive:file_hash">b55737a9e99503ad704815e9613fd922</property>
  <property name="global_feed">1</property>
  <property name="xml">was here</property>
  <property name="set.test_audio">1</property>
  <property name="set.test_image">0</property>
 </producer>
 <producer id="producer295" in="00:00:00.000" out="00:00:02.360">
  <property name="length">00:00:02.400</property>
  <property name="eof">pause</property>
  <property name="resource">vid_files/10_chapters/overfit/overfit%03d.png</property>
  <property name="ttl">1</property>
  <property name="aspect_ratio">1</property>
  <property name="progressive">1</property>
  <property name="seekable">1</property>
  <property name="meta.media.width">1920</property>
  <property name="meta.media.height">300</property>
  <property name="mlt_service">qimage</property>
  <property name="kdenlive:clipname">overfit</property>
  <property name="luma_duration">25</property>
  <property name="fade">0</property>
  <property name="crop">0</property>
  <property name="loop">0</property>
  <property name="kdenlive:duration">00:00:02.400</property>
  <property name="kdenlive:folderid">-1</property>
  <property name="kdenlive:id">149</property>
  <property name="kdenlive:file_hash">c2566a098df57050a47c1cad273000be</property>
  <property name="global_feed">1</property>
  <property name="xml">was here</property>
  <property name="set.test_audio">1</property>
  <property name="set.test_image">0</property>
 </producer>
 <playlist id="playlist10">
  <blank length="00:01:32.520"/>
  <entry producer="producer280" in="00:00:00.000" out="00:00:00.760">
   <property name="kdenlive:id">67</property>
  </entry>
  <blank length="00:00:02.720"/>
  <entry producer="producer281" in="00:00:00.000" out="00:00:01.040">
   <property name="kdenlive:id">137</property>
  </entry>
  <entry producer="producer281" in="00:00:01.080" out="00:00:01.480">
   <property name="kdenlive:id">137</property>
  </entry>
  <entry producer="producer281" in="00:00:01.080" out="00:00:01.480">
   <property name="kdenlive:id">137</property>
  </entry>
  <entry producer="producer281" in="00:00:01.080" out="00:00:01.480">
   <property name="kdenlive:id">137</property>
  </entry>
  <entry producer="producer281" in="00:00:01.520" out="00:00:02.360">
   <property name="kdenlive:id">137</property>
  </entry>
  <blank length="00:00:25.120"/>
  <entry producer="producer282" in="00:00:00.000" out="00:00:01.960">
   <property name="kdenlive:id">46</property>
  </entry>
  <blank length="00:00:05.320"/>
  <entry producer="producer282" in="00:00:00.000" out="00:00:01.960">
   <property name="kdenlive:id">46</property>
  </entry>
  <blank length="00:00:07.400"/>
  <entry producer="producer282" in="00:00:00.000" out="00:00:01.960">
   <property name="kdenlive:id">46</property>
  </entry>
  <blank length="00:00:06.440"/>
  <entry producer="producer283" in="00:00:00.000" out="00:00:04.760">
   <property name="kdenlive:id">78</property>
  </entry>
  <blank length="00:00:00.520"/>
  <entry producer="producer282" in="00:00:00.000" out="00:00:01.960">
   <property name="kdenlive:id">46</property>
  </entry>
  <blank length="00:00:04.920"/>
  <entry producer="producer284" in="00:00:00.000" out="00:00:02.400">
   <property name="kdenlive:id">111</property>
  </entry>
  <blank length="00:00:20.400"/>
  <entry producer="producer283" in="00:00:00.000" out="00:00:02.680">
   <property name="kdenlive:id">78</property>
   <filter id="filter14">
    <property name="rotate_center">1</property>
    <property name="mlt_service">qtblend</property>
    <property name="kdenlive_id">qtblend</property>
    <property name="rect">00:00:00.000=1014 521 576 324 1.000000</property>
    <property name="rotation">00:00:00.000=90</property>
    <property name="compositing">0</property>
    <property name="distort">0</property>
    <property name="kdenlive:collapsed">0</property>
   </filter>
  </entry>
  <blank length="00:00:04.600"/>
  <entry producer="producer143" in="00:00:00.000" out="00:00:02.520">
   <property name="kdenlive:id">139</property>
   <filter id="filter15">
    <property name="rotate_center">1</property>
    <property name="mlt_service">qtblend</property>
    <property name="kdenlive_id">qtblend</property>
    <property name="rect">00:00:00.000=1073 488 345 194 1.000000</property>
    <property name="rotation">00:00:00.000=0</property>
    <property name="compositing">0</property>
    <property name="distort">0</property>
    <property name="kdenlive:collapsed">0</property>
   </filter>
   <filter id="filter16" in="00:00:01.640" out="00:00:02.520">
    <property name="start">1</property>
    <property name="mlt_service">brightness</property>
    <property name="kdenlive_id">fade_to_black</property>
    <property name="end">0</property>
    <property name="alpha">-1</property>
   </filter>
  </entry>
  <blank length="00:00:08.160"/>
  <entry producer="producer282" in="00:00:00.000" out="00:00:01.960">
   <property name="kdenlive:id">46</property>
  </entry>
  <blank length="00:00:20.000"/>
  <entry producer="producer282" in="00:00:00.000" out="00:00:01.960">
   <property name="kdenlive:id">46</property>
  </entry>
  <blank length="00:00:06.200"/>
  <entry producer="producer282" in="00:00:00.000" out="00:00:01.960">
   <property name="kdenlive:id">46</property>
  </entry>
  <blank length="00:00:11.680"/>
  <entry producer="producer285" in="00:00:00.000" out="00:00:02.360">
   <property name="kdenlive:id">142</property>
   <filter id="filter17">
    <property name="rotate_center">1</property>
    <property name="mlt_service">qtblend</property>
    <property name="kdenlive_id">qtblend</property>
    <property name="rect">00:00:00.000=310 -184 1920 1080 1.000000</property>
    <property name="rotation">00:00:00.000=0</property>
    <property name="compositing">0</property>
    <property name="distort">0</property>
    <property name="kdenlive:collapsed">0</property>
   </filter>
  </entry>
  <blank length="00:00:00.760"/>
  <entry producer="producer286" in="00:00:00.000" out="00:00:02.360">
   <property name="kdenlive:id">140</property>
  </entry>
  <blank length="00:00:00.760"/>
  <entry producer="producer287" in="00:00:00.000" out="00:00:02.800">
   <property name="kdenlive:id">110</property>
   <filter id="filter18">
    <property name="rotate_center">1</property>
    <property name="mlt_service">qtblend</property>
    <property name="kdenlive_id">qtblend</property>
    <property name="rect">00:00:00.000=0 -466 1920 1080 1.000000</property>
    <property name="rotation">00:00:00.000=0</property>
    <property name="compositing">0</property>
    <property name="distort">0</property>
    <property name="kdenlive:collapsed">0</property>
   </filter>
  </entry>
  <entry producer="producer287" in="00:00:02.840" out="00:00:03.160">
   <property name="kdenlive:id">110</property>
   <filter id="filter19">
    <property name="rotate_center">1</property>
    <property name="mlt_service">qtblend</property>
    <property name="kdenlive_id">qtblend</property>
    <property name="rect">71=0 -466 1920 1080 1.000000</property>
    <property name="rotation">71=0</property>
    <property name="compositing">0</property>
    <property name="distort">0</property>
    <property name="kdenlive:collapsed">0</property>
   </filter>
  </entry>
  <entry producer="producer287" in="00:00:02.840" out="00:00:03.160">
   <property name="kdenlive:id">110</property>
   <filter id="filter20">
    <property name="rotate_center">1</property>
    <property name="mlt_service">qtblend</property>
    <property name="kdenlive_id">qtblend</property>
    <property name="rect">00:00:02.840=0 -466 1920 1080 1.000000</property>
    <property name="rotation">00:00:02.840=0</property>
    <property name="compositing">0</property>
    <property name="distort">0</property>
    <property name="kdenlive:collapsed">0</property>
   </filter>
  </entry>
  <entry producer="producer287" in="00:00:02.840" out="00:00:03.160">
   <property name="kdenlive:id">110</property>
   <filter id="filter21">
    <property name="rotate_center">1</property>
    <property name="mlt_service">qtblend</property>
    <property name="kdenlive_id">qtblend</property>
    <property name="rect">00:00:02.840=0 -466 1920 1080 1.000000</property>
    <property name="rotation">00:00:02.840=0</property>
    <property name="compositing">0</property>
    <property name="distort">0</property>
   </filter>
  </entry>
  <blank length="00:00:18.040"/>
  <entry producer="producer282" in="00:00:00.000" out="00:00:01.760">
   <property name="kdenlive:id">46</property>
  </entry>
  <blank length="00:00:09.920"/>
  <entry producer="producer84" in="00:00:00.000" out="00:00:06.960">
   <property name="kdenlive:id">86</property>
   <filter id="filter22">
    <property name="rotate_center">1</property>
    <property name="mlt_service">qtblend</property>
    <property name="kdenlive_id">qtblend</property>
    <property name="rect">00:00:00.000=288 -171 1344 756 1.000000</property>
    <property name="rotation">00:00:00.000=0</property>
    <property name="compositing">0</property>
    <property name="distort">0</property>
    <property name="kdenlive:collapsed">0</property>
   </filter>
   <filter id="filter23" out="00:00:02.320">
    <property name="start">0</property>
    <property name="mlt_service">brightness</property>
    <property name="kdenlive_id">fade_from_black</property>
    <property name="end">1</property>
    <property name="alpha">-1</property>
    <property name="kdenlive:collapsed">0</property>
   </filter>
  </entry>
  <blank length="00:00:04.720"/>
  <entry producer="producer114" in="00:00:00.000" out="00:00:06.360">
   <property name="kdenlive:id">116</property>
  </entry>
  <entry producer="producer288" in="00:00:00.000" out="00:00:03.960">
   <property name="kdenlive:id">85</property>
  </entry>
  <blank length="00:00:02.960"/>
  <entry producer="producer115" in="00:00:00.000" out="00:00:01.560">
   <property name="kdenlive:id">117</property>
   <filter id="filter24">
    <property name="rotate_center">1</property>
    <property name="mlt_service">qtblend</property>
    <property name="kdenlive_id">qtblend</property>
    <property name="rect">00:00:00.000=0 0 1920 1080 1.000000;00:00:00.760=0 0 1920 1080 1.000000;00:00:01.520=0 0 1920 1080 0.000000</property>
    <property name="rotation">00:00:00.000=0;00:00:00.760=0;00:00:01.520=0</property>
    <property name="compositing">0</property>
    <property name="distort">0</property>
    <property name="kdenlive:collapsed">0</property>
   </filter>
  </entry>
  <entry producer="producer144" in="00:00:00.000" out="00:00:04.960">
   <property name="kdenlive:id">118</property>
   <filter id="filter25">
    <property name="rotate_center">1</property>
    <property name="mlt_service">qtblend</property>
    <property name="kdenlive_id">qtblend</property>
    <property name="rect">00:00:00.000=672 56 576 324 1.000000</property>
    <property name="rotation">00:00:00.000=0</property>
    <property name="compositing">0</property>
    <property name="distort">0</property>
    <property name="kdenlive:collapsed">0</property>
   </filter>
  </entry>
  <entry producer="producer145" in="00:00:00.000" out="00:00:02.240">
   <property name="kdenlive:id">119</property>
   <filter id="filter26">
    <property name="rotate_center">1</property>
    <property name="mlt_service">qtblend</property>
    <property name="kdenlive_id">qtblend</property>
    <property name="rect">00:00:00.000=96 -386 1728 972 1.000000</property>
    <property name="rotation">00:00:00.000=0</property>
    <property name="compositing">0</property>
    <property name="distort">0</property>
    <property name="kdenlive:collapsed">0</property>
   </filter>
   <filter id="filter27" out="00:00:01.120">
    <property name="start">0</property>
    <property name="mlt_service">brightness</property>
    <property name="kdenlive_id">fade_from_black</property>
    <property name="end">1</property>
    <property name="alpha">-1</property>
    <property name="kdenlive:collapsed">0</property>
   </filter>
  </entry>
  <entry producer="producer282" in="00:00:00.000" out="00:00:01.760">
   <property name="kdenlive:id">46</property>
  </entry>
  <entry producer="producer120" in="00:00:00.000" out="00:00:07.480">
   <property name="kdenlive:id">122</property>
   <filter id="filter28">
    <property name="rotate_center">1</property>
    <property name="mlt_service">qtblend</property>
    <property name="kdenlive_id">qtblend</property>
    <property name="rect">00:00:00.000=288 -286 1344 756 0.000000;00:00:02.480=288 -286 1344 756 1.000000</property>
    <property name="rotation">00:00:00.000=0;00:00:02.480=0</property>
    <property name="compositing">0</property>
    <property name="distort">0</property>
    <property name="kdenlive:collapsed">0</property>
   </filter>
   <filter id="filter29" in="00:00:06.800" out="00:00:07.480">
    <property name="start">1</property>
    <property name="mlt_service">brightness</property>
    <property name="kdenlive_id">fade_to_black</property>
    <property name="end">0</property>
    <property name="alpha">-1</property>
   </filter>
  </entry>
  <entry producer="producer123" in="00:00:00.000" out="00:00:00.640">
   <property name="kdenlive:id">125</property>
   <filter id="filter30">
    <property name="rotate_center">1</property>
    <property name="mlt_service">qtblend</property>
    <property name="kdenlive_id">qtblend</property>
    <property name="rect">00:00:00.000=0 0 1920 1080 0.000000;00:00:00.600=0 0 1920 1080 1.000000;00:00:00.640=0 0 1920 1080 1.000000</property>
    <property name="rotation">00:00:00.000=0;00:00:00.600=0;00:00:00.640=0</property>
    <property name="compositing">0</property>
    <property name="distort">0</property>
    <property name="kdenlive:collapsed">0</property>
   </filter>
  </entry>
  <blank length="00:00:00.800"/>
  <entry producer="producer121" in="00:00:00.000" out="00:00:04.080">
   <property name="kdenlive:id">123</property>
   <filter id="filter31">
    <property name="rotate_center">1</property>
    <property name="mlt_service">qtblend</property>
    <property name="kdenlive_id">qtblend</property>
    <property name="rect">00:00:00.000=384 -206 1152 648 0.000000;00:00:00.480=384 -206 1152 648 1.000000</property>
    <property name="rotation">00:00:00.000=0;00:00:00.480=0</property>
    <property name="compositing">0</property>
    <property name="distort">0</property>
    <property name="kdenlive:collapsed">0</property>
   </filter>
  </entry>
  <blank length="00:00:06.960"/>
  <entry producer="producer122" in="00:00:00.000" out="00:00:06.760">
   <property name="kdenlive:id">124</property>
   <filter id="filter32">
    <property name="rotate_center">1</property>
    <property name="mlt_service">qtblend</property>
    <property name="kdenlive_id">qtblend</property>
    <property name="rect">00:00:00.000=384 -200 1152 648 0.000000;00:00:00.640=384 -200 1152 648 1.000000</property>
    <property name="rotation">00:00:00.000=0;00:00:00.640=0</property>
    <property name="compositing">0</property>
    <property name="distort">0</property>
    <property name="kdenlive:collapsed">0</property>
   </filter>
  </entry>
  <blank length="00:00:05.400"/>
  <entry producer="producer289" in="00:00:00.000" out="00:00:19.960">
   <property name="kdenlive:id">151</property>
  </entry>
  <blank length="00:00:01.720"/>
  <entry producer="producer290" in="00:00:00.000" out="00:00:19.960">
   <property name="kdenlive:id">92</property>
   <filter id="filter33">
    <property name="rotate_center">1</property>
    <property name="mlt_service">qtblend</property>
    <property name="kdenlive_id">qtblend</property>
    <property name="rect">00:00:00.000=288 -73 1344 756 1.000000</property>
    <property name="rotation">00:00:00.000=0</property>
    <property name="compositing">0</property>
    <property name="distort">0</property>
    <property name="kdenlive:collapsed">0</property>
   </filter>
  </entry>
  <blank length="00:00:00.960"/>
  <entry producer="producer291" in="00:00:00.000" out="00:00:02.360">
   <property name="kdenlive:id">154</property>
   <filter id="filter34">
    <property name="rotate_center">1</property>
    <property name="mlt_service">qtblend</property>
    <property name="kdenlive_id">qtblend</property>
    <property name="rect">00:00:00.000=0 505 1920 1080 1.000000</property>
    <property name="rotation">00:00:00.000=0</property>
    <property name="compositing">0</property>
    <property name="distort">0</property>
    <property name="kdenlive:collapsed">0</property>
   </filter>
  </entry>
  <blank length="00:00:00.800"/>
  <entry producer="producer292" in="00:00:00.000" out="00:00:02.360">
   <property name="kdenlive:id">153</property>
   <filter id="filter35">
    <property name="rotate_center">1</property>
    <property name="mlt_service">qtblend</property>
    <property name="kdenlive_id">qtblend</property>
    <property name="rect">00:00:00.000=1161 514 1920 1080 1.000000</property>
    <property name="rotation">00:00:00.000=0</property>
    <property name="compositing">0</property>
    <property name="distort">0</property>
    <property name="kdenlive:collapsed">0</property>
   </filter>
  </entry>
  <entry producer="producer293" in="00:00:00.000" out="00:00:02.080">
   <property name="kdenlive:id">160</property>
   <filter id="filter36">
    <property name="rotate_center">1</property>
    <property name="mlt_service">qtblend</property>
    <property name="kdenlive_id">qtblend</property>
    <property name="rect">00:00:00.000=590 -288 1920 1080 1.000000</property>
    <property name="rotation">00:00:00.000=0</property>
    <property name="compositing">0</property>
    <property name="distort">0</property>
    <property name="kdenlive:collapsed">0</property>
   </filter>
  </entry>
  <entry producer="producer292" in="00:00:00.000" out="00:00:02.360">
   <property name="kdenlive:id">153</property>
   <filter id="filter37">
    <property name="rotate_center">1</property>
    <property name="mlt_service">qtblend</property>
    <property name="kdenlive_id">qtblend</property>
    <property name="rect">00:00:00.000=1161 514 1920 1080 1.000000</property>
    <property name="rotation">00:00:00.000=0</property>
    <property name="compositing">0</property>
    <property name="distort">0</property>
    <property name="kdenlive:collapsed">0</property>
   </filter>
  </entry>
  <blank length="00:00:17.120"/>
  <entry producer="producer294" in="00:00:00.000" out="00:00:02.360">
   <property name="kdenlive:id">148</property>
   <filter id="filter38">
    <property name="rotate_center">1</property>
    <property name="mlt_service">qtblend</property>
    <property name="kdenlive_id">qtblend</property>
    <property name="rect">00:00:00.000=171 -473 1920 1080 1.000000</property>
    <property name="rotation">00:00:00.000=-39</property>
    <property name="compositing">0</property>
    <property name="distort">0</property>
    <property name="kdenlive:collapsed">0</property>
   </filter>
  </entry>
  <blank length="00:00:19.440"/>
  <entry producer="producer295" in="00:00:00.000" out="00:00:02.360">
   <property name="kdenlive:id">149</property>
   <filter id="filter39">
    <property name="rotate_center">1</property>
    <property name="mlt_service">qtblend</property>
    <property name="kdenlive_id">qtblend</property>
    <property name="rect">00:00:00.000=317 -569 1920 1080 1.000000</property>
    <property name="rotation">00:00:00.000=-41</property>
    <property name="compositing">0</property>
    <property name="distort">0</property>
    <property name="kdenlive:collapsed">0</property>
   </filter>
  </entry>
  <blank length="00:00:26.240"/>
  <entry producer="producer127" in="00:00:00.000" out="00:00:05.960">
   <property name="kdenlive:id">129</property>
   <filter id="filter40">
    <property name="rotate_center">1</property>
    <property name="mlt_service">qtblend</property>
    <property name="kdenlive_id">qtblend</property>
    <property name="rect">00:00:00.000=0 0 1920 1080 0.000000;00:00:03.920=0 0 1920 1080 1.000000</property>
    <property name="rotation">00:00:00.000=0;00:00:03.920=0</property>
    <property name="compositing">0</property>
    <property name="distort">0</property>
    <property name="kdenlive:collapsed">0</property>
   </filter>
  </entry>
 </playlist>
 <playlist id="playlist11"/>
 <tractor id="tractor5" in="00:00:00.000" out="00:08:01.000">
  <property name="kdenlive:trackheight">69</property>
  <property name="kdenlive:timeline_active">1</property>
  <property name="kdenlive:collapsed">28</property>
  <property name="kdenlive:thumbs_format"/>
  <property name="kdenlive:audio_rec"/>
  <track hide="audio" producer="playlist10"/>
  <track producer="playlist11"/>
 </tractor>
 <producer id="producer297" in="00:00:00.000" out="00:00:01.960">
  <property name="length">00:00:02.000</property>
  <property name="eof">pause</property>
  <property name="resource">vid_files/10_chapters/switch_white/switch_white%03d.png</property>
  <property name="ttl">1</property>
  <property name="aspect_ratio">1</property>
  <property name="progressive">1</property>
  <property name="seekable">1</property>
  <property name="meta.media.width">1920</property>
  <property name="meta.media.height">1080</property>
  <property name="mlt_service">qimage</property>
  <property name="kdenlive:clipname">switch_white</property>
  <property name="luma_duration">25</property>
  <property name="fade">0</property>
  <property name="crop">0</property>
  <property name="loop">0</property>
  <property name="kdenlive:duration">00:00:02.000</property>
  <property name="kdenlive:folderid">-1</property>
  <property name="kdenlive:id">46</property>
  <property name="kdenlive:file_hash">23e29cf534864da9bdbd4882f32876b4</property>
  <property name="global_feed">1</property>
  <property name="xml">was here</property>
  <property name="set.test_audio">1</property>
  <property name="set.test_image">0</property>
 </producer>
 <producer id="producer298" in="00:00:00.000" out="00:00:02.360">
  <property name="length">00:00:02.400</property>
  <property name="eof">pause</property>
  <property name="resource">vid_files/10_chapters/t1/t%04d.png?begin=1000</property>
  <property name="ttl">1</property>
  <property name="aspect_ratio">1</property>
  <property name="progressive">1</property>
  <property name="seekable">1</property>
  <property name="begin">1000</property>
  <property name="meta.media.width">1920</property>
  <property name="meta.media.height">300</property>
  <property name="mlt_service">qimage</property>
  <property name="kdenlive:clipname">t</property>
  <property name="luma_duration">25</property>
  <property name="fade">0</property>
  <property name="crop">0</property>
  <property name="loop">0</property>
  <property name="kdenlive:duration">00:00:02.400</property>
  <property name="kdenlive:folderid">-1</property>
  <property name="kdenlive:id">138</property>
  <property name="kdenlive:file_hash">2ee70a9465c8ec844fa5220f43327666</property>
  <property name="global_feed">1</property>
  <property name="xml">was here</property>
  <property name="set.test_audio">1</property>
  <property name="set.test_image">0</property>
 </producer>
 <producer id="producer299" in="00:00:00.000" out="00:00:02.360">
  <property name="length">00:00:02.400</property>
  <property name="eof">pause</property>
  <property name="resource">vid_files/10_chapters/t_variance/t_variance%03d.png</property>
  <property name="ttl">1</property>
  <property name="aspect_ratio">1</property>
  <property name="progressive">1</property>
  <property name="seekable">1</property>
  <property name="meta.media.width">1920</property>
  <property name="meta.media.height">300</property>
  <property name="mlt_service">qimage</property>
  <property name="kdenlive:clipname">t_variance</property>
  <property name="luma_duration">25</property>
  <property name="fade">0</property>
  <property name="crop">0</property>
  <property name="loop">0</property>
  <property name="kdenlive:duration">00:00:02.400</property>
  <property name="kdenlive:folderid">-1</property>
  <property name="kdenlive:id">141</property>
  <property name="kdenlive:file_hash">46faa2651e1e7d45c80ef5f14a3fd07f</property>
  <property name="global_feed">1</property>
  <property name="xml">was here</property>
  <property name="set.test_audio">1</property>
  <property name="set.test_image">0</property>
 </producer>
 <producer id="producer300" in="00:00:00.000" out="00:00:02.360">
  <property name="length">00:00:02.400</property>
  <property name="eof">pause</property>
  <property name="resource">vid_files/10_chapters/t3/t%04d.png?begin=3000</property>
  <property name="ttl">1</property>
  <property name="aspect_ratio">1</property>
  <property name="progressive">1</property>
  <property name="seekable">1</property>
  <property name="begin">3000</property>
  <property name="meta.media.width">1920</property>
  <property name="meta.media.height">300</property>
  <property name="mlt_service">qimage</property>
  <property name="kdenlive:clipname">t</property>
  <property name="luma_duration">25</property>
  <property name="fade">0</property>
  <property name="crop">0</property>
  <property name="loop">0</property>
  <property name="kdenlive:duration">00:00:02.400</property>
  <property name="kdenlive:folderid">-1</property>
  <property name="kdenlive:id">147</property>
  <property name="kdenlive:file_hash">d1ef8bcf7dc8d20f6a58b6fc55132821</property>
  <property name="global_feed">1</property>
  <property name="xml">was here</property>
  <property name="set.test_audio">1</property>
  <property name="set.test_image">0</property>
 </producer>
 <producer id="producer301" in="00:00:00.000" out="00:00:02.360">
  <property name="length">00:00:02.400</property>
  <property name="eof">pause</property>
  <property name="resource">vid_files/10_chapters/t2/t%04d.png?begin=2000</property>
  <property name="ttl">1</property>
  <property name="aspect_ratio">1</property>
  <property name="progressive">1</property>
  <property name="seekable">1</property>
  <property name="begin">2000</property>
  <property name="meta.media.width">1920</property>
  <property name="meta.media.height">300</property>
  <property name="mlt_service">qimage</property>
  <property name="kdenlive:clipname">t</property>
  <property name="luma_duration">25</property>
  <property name="fade">0</property>
  <property name="crop">0</property>
  <property name="loop">0</property>
  <property name="kdenlive:duration">00:00:02.400</property>
  <property name="kdenlive:folderid">-1</property>
  <property name="kdenlive:id">146</property>
  <property name="kdenlive:file_hash">49059551ed1e390ce7d0e902c2c0493a</property>
  <property name="global_feed">1</property>
  <property name="xml">was here</property>
  <property name="set.test_audio">1</property>
  <property name="set.test_image">0</property>
 </producer>
 <producer id="producer302" in="00:00:00.000" out="00:00:04.760">
  <property name="length">00:00:04.800</property>
  <property name="eof">pause</property>
  <property name="resource">vid_files/0_draw/arrow/arrow%03d.png</property>
  <property name="ttl">1</property>
  <property name="aspect_ratio">1</property>
  <property name="progressive">1</property>
  <property name="seekable">1</property>
  <property name="meta.media.width">800</property>
  <property name="meta.media.height">800</property>
  <property name="mlt_service">qimage</property>
  <property name="kdenlive:clipname">arrow</property>
  <property name="luma_duration">25</property>
  <property name="fade">0</property>
  <property name="crop">0</property>
  <property name="loop">0</property>
  <property name="kdenlive:duration">00:00:04.800</property>
  <property name="kdenlive:folderid">-1</property>
  <property name="kdenlive:id">78</property>
  <property name="kdenlive:file_hash">7bc9d11c6ab316ea4471b769bb8a7ca3</property>
  <property name="global_feed">1</property>
  <property name="xml">was here</property>
  <property name="set.test_audio">1</property>
  <property name="set.test_image">0</property>
 </producer>
 <producer id="producer303" in="00:00:00.000" out="00:00:06.360">
  <property name="length">00:00:06.400</property>
  <property name="eof">pause</property>
  <property name="resource">vid_files/3_bias_variance_decompose/totale/totale%03d.png</property>
  <property name="ttl">1</property>
  <property name="aspect_ratio">1</property>
  <property name="progressive">1</property>
  <property name="seekable">1</property>
  <property name="meta.media.width">1920</property>
  <property name="meta.media.height">200</property>
  <property name="mlt_service">qimage</property>
  <property name="kdenlive:clipname">totale</property>
  <property name="luma_duration">25</property>
  <property name="fade">0</property>
  <property name="crop">0</property>
  <property name="loop">0</property>
  <property name="kdenlive:duration">00:00:06.400</property>
  <property name="kdenlive:folderid">-1</property>
  <property name="kdenlive:id">110</property>
  <property name="kdenlive:file_hash">73c40b915717865f56d08534a4caff07</property>
  <property name="global_feed">1</property>
  <property name="xml">was here</property>
  <property name="set.test_audio">1</property>
  <property name="set.test_image">0</property>
 </producer>
 <producer id="producer304" in="00:00:00.000" out="00:00:02.360">
  <property name="length">00:00:02.400</property>
  <property name="eof">pause</property>
  <property name="resource">vid_files/10_chapters/overfit/overfit%03d.png</property>
  <property name="ttl">1</property>
  <property name="aspect_ratio">1</property>
  <property name="progressive">1</property>
  <property name="seekable">1</property>
  <property name="meta.media.width">1920</property>
  <property name="meta.media.height">300</property>
  <property name="mlt_service">qimage</property>
  <property name="kdenlive:clipname">overfit</property>
  <property name="luma_duration">25</property>
  <property name="fade">0</property>
  <property name="crop">0</property>
  <property name="loop">0</property>
  <property name="kdenlive:duration">00:00:02.400</property>
  <property name="kdenlive:folderid">-1</property>
  <property name="kdenlive:id">149</property>
  <property name="kdenlive:file_hash">c2566a098df57050a47c1cad273000be</property>
  <property name="global_feed">1</property>
  <property name="xml">was here</property>
  <property name="set.test_audio">1</property>
  <property name="set.test_image">0</property>
 </producer>
 <producer id="producer305" in="00:00:00.000" out="00:00:02.360">
  <property name="length">00:00:02.400</property>
  <property name="eof">pause</property>
  <property name="resource">vid_files/10_chapters/high_error/high_error%03d.png</property>
  <property name="ttl">1</property>
  <property name="aspect_ratio">1</property>
  <property name="progressive">1</property>
  <property name="seekable">1</property>
  <property name="meta.media.width">1920</property>
  <property name="meta.media.height">300</property>
  <property name="mlt_service">qimage</property>
  <property name="kdenlive:clipname">high_error</property>
  <property name="luma_duration">25</property>
  <property name="fade">0</property>
  <property name="crop">0</property>
  <property name="loop">0</property>
  <property name="kdenlive:duration">00:00:02.400</property>
  <property name="kdenlive:folderid">-1</property>
  <property name="kdenlive:id">153</property>
  <property name="kdenlive:file_hash">3673e21dcd0295139367e4aa5e690a80</property>
  <property name="global_feed">1</property>
  <property name="xml">was here</property>
  <property name="set.test_audio">1</property>
  <property name="set.test_image">0</property>
 </producer>
 <producer id="producer306" in="00:00:00.000" out="00:00:03.960">
  <property name="length">00:00:04.000</property>
  <property name="eof">pause</property>
  <property name="resource">vid_files/10_chapters/switch/switch%03d.png</property>
  <property name="ttl">1</property>
  <property name="aspect_ratio">1</property>
  <property name="progressive">1</property>
  <property name="seekable">1</property>
  <property name="meta.media.width">1920</property>
  <property name="meta.media.height">1080</property>
  <property name="mlt_service">qimage</property>
  <property name="kdenlive:clipname">switch</property>
  <property name="luma_duration">25</property>
  <property name="fade">0</property>
  <property name="crop">0</property>
  <property name="loop">0</property>
  <property name="kdenlive:duration">00:00:04.000</property>
  <property name="kdenlive:folderid">-1</property>
  <property name="kdenlive:id">44</property>
  <property name="kdenlive:file_hash">161c2e0e6a3cb3bb54b7638878c837e7</property>
  <property name="global_feed">1</property>
  <property name="xml">was here</property>
  <property name="set.test_audio">1</property>
  <property name="set.test_image">0</property>
 </producer>
 <playlist id="playlist12">
  <blank length="00:01:31.320"/>
  <entry producer="producer297" in="00:00:00.000" out="00:00:01.960">
   <property name="kdenlive:id">46</property>
  </entry>
  <blank length="00:00:06.120"/>
  <entry producer="producer297" in="00:00:00.000" out="00:00:01.960">
   <property name="kdenlive:id">46</property>
  </entry>
  <blank length="00:00:48.560"/>
  <entry producer="producer298" in="00:00:00.000" out="00:00:02.360">
   <property name="kdenlive:id">138</property>
   <filter id="filter42">
    <property name="rotate_center">1</property>
    <property name="mlt_service">qtblend</property>
    <property name="kdenlive_id">qtblend</property>
    <property name="rect">00:00:00.000=870 -203 1920 1080 1.000000</property>
    <property name="rotation">00:00:00.000=0</property>
    <property name="compositing">0</property>
    <property name="distort">0</property>
    <property name="kdenlive:collapsed">0</property>
   </filter>
  </entry>
  <blank length="00:00:10.840"/>
  <entry producer="producer297" in="00:00:00.000" out="00:00:01.960">
   <property name="kdenlive:id">46</property>
  </entry>
  <blank length="00:01:26.400"/>
  <entry producer="producer299" in="00:00:00.000" out="00:00:02.360">
   <property name="kdenlive:id">141</property>
   <filter id="filter43">
    <property name="rotate_center">1</property>
    <property name="mlt_service">qtblend</property>
    <property name="kdenlive_id">qtblend</property>
    <property name="rect">00:00:00.000=1400 0 1920 1080 1.000000</property>
    <property name="rotation">00:00:00.000=0</property>
    <property name="compositing">0</property>
    <property name="distort">0</property>
    <property name="kdenlive:collapsed">0</property>
   </filter>
  </entry>
  <blank length="00:00:01.480"/>
  <entry producer="producer297" in="00:00:00.000" out="00:00:01.760">
   <property name="kdenlive:id">46</property>
  </entry>
  <blank length="00:00:35.400"/>
  <entry producer="producer297" in="00:00:00.000" out="00:00:01.760">
   <property name="kdenlive:id">46</property>
  </entry>
  <blank length="00:00:02.200"/>
  <entry producer="producer297" in="00:00:00.000" out="00:00:01.760">
   <property name="kdenlive:id">46</property>
  </entry>
  <blank length="00:00:11.520"/>
  <entry producer="producer300" in="00:00:00.000" out="00:00:02.360">
   <property name="kdenlive:id">147</property>
   <filter id="filter44">
    <property name="rotate_center">1</property>
    <property name="mlt_service">qtblend</property>
    <property name="kdenlive_id">qtblend</property>
    <property name="rect">00:00:00.000=626 155 1920 1080 1.000000</property>
    <property name="rotation">00:00:00.000=0</property>
    <property name="compositing">0</property>
    <property name="distort">0</property>
    <property name="kdenlive:collapsed">0</property>
   </filter>
  </entry>
  <blank length="00:00:07.360"/>
  <entry producer="producer297" in="00:00:00.000" out="00:00:01.760">
   <property name="kdenlive:id">46</property>
  </entry>
  <blank length="00:00:04.120"/>
  <entry producer="producer301" in="00:00:00.000" out="00:00:02.360">
   <property name="kdenlive:id">146</property>
   <filter id="filter45">
    <property name="rotate_center">1</property>
    <property name="mlt_service">qtblend</property>
    <property name="kdenlive_id">qtblend</property>
    <property name="rect">00:00:00.000=764 119 1920 1080 1.000000</property>
    <property name="rotation">00:00:00.000=0</property>
    <property name="compositing">0</property>
    <property name="distort">0</property>
    <property name="kdenlive:collapsed">0</property>
   </filter>
  </entry>
  <blank length="00:00:03.880"/>
  <entry producer="producer302" in="00:00:00.000" out="00:00:02.640">
   <property name="kdenlive:id">78</property>
  </entry>
  <entry producer="producer297" in="00:00:00.000" out="00:00:01.760">
   <property name="kdenlive:id">46</property>
  </entry>
  <blank length="00:00:02.440"/>
  <entry producer="producer297" in="00:00:00.000" out="00:00:01.760">
   <property name="kdenlive:id">46</property>
  </entry>
  <blank length="00:00:02.360"/>
  <entry producer="producer302" in="00:00:00.000" out="00:00:04.760">
   <property name="kdenlive:id">78</property>
  </entry>
  <blank length="00:00:00.400"/>
  <entry producer="producer297" in="00:00:00.000" out="00:00:01.760">
   <property name="kdenlive:id">46</property>
  </entry>
  <blank length="00:00:03.600"/>
  <entry producer="producer297" in="00:00:00.000" out="00:00:01.960">
   <property name="kdenlive:id">46</property>
  </entry>
  <blank length="00:00:17.560"/>
  <entry producer="producer297" in="00:00:00.000" out="00:00:01.960">
   <property name="kdenlive:id">46</property>
  </entry>
  <blank length="00:00:00.240"/>
  <entry producer="producer297" in="00:00:00.000" out="00:00:01.960">
   <property name="kdenlive:id">46</property>
  </entry>
  <blank length="00:00:04.040"/>
  <entry producer="producer303" in="00:00:00.000" out="00:00:03.080">
   <property name="kdenlive:id">110</property>
   <filter id="filter46">
    <property name="rotate_center">1</property>
    <property name="mlt_service">qtblend</property>
    <property name="kdenlive_id">qtblend</property>
    <property name="rect">00:00:00.000=0 -466 1920 1080 1.000000</property>
    <property name="rotation">00:00:00.000=0</property>
    <property name="compositing">0</property>
    <property name="distort">0</property>
    <property name="kdenlive:collapsed">0</property>
   </filter>
  </entry>
  <entry producer="producer303" in="00:00:03.120" out="00:00:03.280">
   <property name="kdenlive:id">110</property>
   <filter id="filter47">
    <property name="rotate_center">1</property>
    <property name="mlt_service">qtblend</property>
    <property name="kdenlive_id">qtblend</property>
    <property name="rect">00:00:03.120=0 -466 1920 1080 1.000000</property>
    <property name="rotation">00:00:03.120=0</property>
    <property name="compositing">0</property>
    <property name="distort">0</property>
    <property name="kdenlive:collapsed">0</property>
   </filter>
  </entry>
  <entry producer="producer303" in="00:00:03.120" out="00:00:03.280">
   <property name="kdenlive:id">110</property>
   <filter id="filter48">
    <property name="rotate_center">1</property>
    <property name="mlt_service">qtblend</property>
    <property name="kdenlive_id">qtblend</property>
    <property name="rect">00:00:03.120=0 -466 1920 1080 1.000000</property>
    <property name="rotation">00:00:03.120=0</property>
    <property name="compositing">0</property>
    <property name="distort">0</property>
    <property name="kdenlive:collapsed">0</property>
   </filter>
  </entry>
  <entry producer="producer303" in="00:00:03.120" out="00:00:03.280">
   <property name="kdenlive:id">110</property>
   <filter id="filter49">
    <property name="rotate_center">1</property>
    <property name="mlt_service">qtblend</property>
    <property name="kdenlive_id">qtblend</property>
    <property name="rect">00:00:03.120=0 -466 1920 1080 1.000000</property>
    <property name="rotation">00:00:03.120=0</property>
    <property name="compositing">0</property>
    <property name="distort">0</property>
    <property name="kdenlive:collapsed">0</property>
   </filter>
  </entry>
  <entry producer="producer303" in="00:00:03.120" out="00:00:03.280">
   <property name="kdenlive:id">110</property>
   <filter id="filter50">
    <property name="rotate_center">1</property>
    <property name="mlt_service">qtblend</property>
    <property name="kdenlive_id">qtblend</property>
    <property name="rect">00:00:03.120=0 -466 1920 1080 1.000000</property>
    <property name="rotation">00:00:03.120=0</property>
    <property name="compositing">0</property>
    <property name="distort">0</property>
   </filter>
  </entry>
  <entry producer="producer303" in="00:00:03.120" out="00:00:03.280">
   <property name="kdenlive:id">110</property>
   <filter id="filter51">
    <property name="rotate_center">1</property>
    <property name="mlt_service">qtblend</property>
    <property name="kdenlive_id">qtblend</property>
    <property name="rect">00:00:03.120=0 -466 1920 1080 1.000000</property>
    <property name="rotation">00:00:03.120=0</property>
    <property name="compositing">0</property>
    <property name="distort">0</property>
    <property name="kdenlive:collapsed">0</property>
   </filter>
  </entry>
  <entry producer="producer303" in="00:00:03.120" out="00:00:03.280">
   <property name="kdenlive:id">110</property>
   <filter id="filter52">
    <property name="rotate_center">1</property>
    <property name="mlt_service">qtblend</property>
    <property name="kdenlive_id">qtblend</property>
    <property name="rect">00:00:03.120=0 -466 1920 1080 1.000000</property>
    <property name="rotation">00:00:03.120=0</property>
    <property name="compositing">0</property>
    <property name="distort">0</property>
   </filter>
  </entry>
  <entry producer="producer303" in="00:00:03.120" out="00:00:03.280">
   <property name="kdenlive:id">110</property>
   <filter id="filter53">
    <property name="rotate_center">1</property>
    <property name="mlt_service">qtblend</property>
    <property name="kdenlive_id">qtblend</property>
    <property name="rect">00:00:03.120=0 -466 1920 1080 1.000000</property>
    <property name="rotation">00:00:03.120=0</property>
    <property name="compositing">0</property>
    <property name="distort">0</property>
   </filter>
  </entry>
  <entry producer="producer303" in="00:00:03.120" out="00:00:03.280">
   <property name="kdenlive:id">110</property>
   <filter id="filter54">
    <property name="rotate_center">1</property>
    <property name="mlt_service">qtblend</property>
    <property name="kdenlive_id">qtblend</property>
    <property name="rect">00:00:03.120=0 -466 1920 1080 1.000000</property>
    <property name="rotation">00:00:03.120=0</property>
    <property name="compositing">0</property>
    <property name="distort">0</property>
   </filter>
  </entry>
  <entry producer="producer303" in="00:00:03.120" out="00:00:03.280">
   <property name="kdenlive:id">110</property>
   <filter id="filter55">
    <property name="rotate_center">1</property>
    <property name="mlt_service">qtblend</property>
    <property name="kdenlive_id">qtblend</property>
    <property name="rect">00:00:03.120=0 -466 1920 1080 1.000000</property>
    <property name="rotation">00:00:03.120=0</property>
    <property name="compositing">0</property>
    <property name="distort">0</property>
    <property name="kdenlive:collapsed">0</property>
   </filter>
  </entry>
  <blank length="00:00:01.080"/>
  <entry producer="producer302" in="00:00:00.000" out="00:00:04.760">
   <property name="kdenlive:id">78</property>
   <filter id="filter56">
    <property name="rotate_center">1</property>
    <property name="mlt_service">qtblend</property>
    <property name="kdenlive_id">qtblend</property>
    <property name="rect">00:00:00.000=235 136 576 324 1.000000</property>
    <property name="rotation">00:00:00.000=90</property>
    <property name="compositing">0</property>
    <property name="distort">0</property>
    <property name="kdenlive:collapsed">0</property>
   </filter>
  </entry>
  <blank length="00:00:04.080"/>
  <entry producer="producer304" in="00:00:00.000" out="00:00:01.080">
   <property name="kdenlive:id">149</property>
   <filter id="filter57">
    <property name="rotate_center">1</property>
    <property name="mlt_service">qtblend</property>
    <property name="kdenlive_id">qtblend</property>
    <property name="rect">00:00:00.000=612 -394 1920 1080 1.000000</property>
    <property name="rotation">00:00:00.000=0</property>
    <property name="compositing">0</property>
    <property name="distort">0</property>
    <property name="kdenlive:collapsed">0</property>
   </filter>
  </entry>
  <entry producer="producer304" in="00:00:01.120" out="00:00:01.560">
   <property name="kdenlive:id">149</property>
   <filter id="filter58">
    <property name="rotate_center">1</property>
    <property name="mlt_service">qtblend</property>
    <property name="kdenlive_id">qtblend</property>
    <property name="rect">00:00:01.120=612 -394 1920 1080 1.000000</property>
    <property name="rotation">00:00:01.120=0</property>
    <property name="compositing">0</property>
    <property name="distort">0</property>
    <property name="kdenlive:collapsed">0</property>
   </filter>
  </entry>
  <entry producer="producer304" in="00:00:01.120" out="00:00:01.560">
   <property name="kdenlive:id">149</property>
   <filter id="filter59">
    <property name="rotate_center">1</property>
    <property name="mlt_service">qtblend</property>
    <property name="kdenlive_id">qtblend</property>
    <property name="rect">00:00:01.120=612 -394 1920 1080 1.000000</property>
    <property name="rotation">00:00:01.120=0</property>
    <property name="compositing">0</property>
    <property name="distort">0</property>
    <property name="kdenlive:collapsed">0</property>
   </filter>
  </entry>
  <entry producer="producer304" in="00:00:01.120" out="00:00:01.560">
   <property name="kdenlive:id">149</property>
   <filter id="filter60">
    <property name="rotate_center">1</property>
    <property name="mlt_service">qtblend</property>
    <property name="kdenlive_id">qtblend</property>
    <property name="rect">00:00:01.120=612 -394 1920 1080 1.000000</property>
    <property name="rotation">00:00:01.120=0</property>
    <property name="compositing">0</property>
    <property name="distort">0</property>
    <property name="kdenlive:collapsed">0</property>
   </filter>
  </entry>
  <entry producer="producer304" in="00:00:01.120" out="00:00:01.560">
   <property name="kdenlive:id">149</property>
   <filter id="filter61">
    <property name="rotate_center">1</property>
    <property name="mlt_service">qtblend</property>
    <property name="kdenlive_id">qtblend</property>
    <property name="rect">00:00:01.120=612 -394 1920 1080 1.000000</property>
    <property name="rotation">00:00:01.120=0</property>
    <property name="compositing">0</property>
    <property name="distort">0</property>
    <property name="kdenlive:collapsed">0</property>
   </filter>
  </entry>
  <entry producer="producer304" in="00:00:01.120" out="00:00:01.560">
   <property name="kdenlive:id">149</property>
   <filter id="filter62">
    <property name="rotate_center">1</property>
    <property name="mlt_service">qtblend</property>
    <property name="kdenlive_id">qtblend</property>
    <property name="rect">00:00:01.120=612 -394 1920 1080 1.000000</property>
    <property name="rotation">00:00:01.120=0</property>
    <property name="compositing">0</property>
    <property name="distort">0</property>
   </filter>
  </entry>
  <entry producer="producer304" in="00:00:01.120" out="00:00:01.560">
   <property name="kdenlive:id">149</property>
   <filter id="filter63">
    <property name="rotate_center">1</property>
    <property name="mlt_service">qtblend</property>
    <property name="kdenlive_id">qtblend</property>
    <property name="rect">00:00:01.120=612 -394 1920 1080 1.000000</property>
    <property name="rotation">00:00:01.120=0</property>
    <property name="compositing">0</property>
    <property name="distort">0</property>
   </filter>
  </entry>
  <entry producer="producer304" in="00:00:01.120" out="00:00:01.560">
   <property name="kdenlive:id">149</property>
   <filter id="filter64">
    <property name="rotate_center">1</property>
    <property name="mlt_service">qtblend</property>
    <property name="kdenlive_id">qtblend</property>
    <property name="rect">00:00:01.120=612 -394 1920 1080 1.000000</property>
    <property name="rotation">00:00:01.120=0</property>
    <property name="compositing">0</property>
    <property name="distort">0</property>
    <property name="kdenlive:collapsed">0</property>
   </filter>
  </entry>
  <entry producer="producer304" in="00:00:01.120" out="00:00:01.560">
   <property name="kdenlive:id">149</property>
   <filter id="filter65">
    <property name="rotate_center">1</property>
    <property name="mlt_service">qtblend</property>
    <property name="kdenlive_id">qtblend</property>
    <property name="rect">00:00:01.120=612 -394 1920 1080 1.000000</property>
    <property name="rotation">00:00:01.120=0</property>
    <property name="compositing">0</property>
    <property name="distort">0</property>
   </filter>
  </entry>
  <entry producer="producer304" in="00:00:01.120" out="00:00:02.360">
   <property name="kdenlive:id">149</property>
   <filter id="filter66">
    <property name="rotate_center">1</property>
    <property name="mlt_service">qtblend</property>
    <property name="kdenlive_id">qtblend</property>
    <property name="rect">00:00:01.120=612 -394 1920 1080 1.000000</property>
    <property name="rotation">00:00:01.120=0</property>
    <property name="compositing">0</property>
    <property name="distort">0</property>
   </filter>
  </entry>
  <blank length="00:00:00.440"/>
  <entry producer="producer305" in="00:00:00.000" out="00:00:02.040">
   <property name="kdenlive:id">153</property>
   <filter id="filter67">
    <property name="rotate_center">1</property>
    <property name="mlt_service">qtblend</property>
    <property name="kdenlive_id">qtblend</property>
    <property name="rect">00:00:00.000=9 514 1920 1080 1.000000</property>
    <property name="rotation">00:00:00.000=0</property>
    <property name="compositing">0</property>
    <property name="distort">0</property>
    <property name="kdenlive:collapsed">0</property>
   </filter>
  </entry>
  <entry producer="producer306" in="00:00:00.000" out="00:00:03.960">
   <property name="kdenlive:id">44</property>
  </entry>
  <blank length="00:01:02.600"/>
  <entry producer="producer297" in="00:00:00.000" out="00:00:01.960">
   <property name="kdenlive:id">46</property>
  </entry>
  <blank length="00:00:06.320"/>
  <entry producer="producer297" in="00:00:00.000" out="00:00:01.960">
   <property name="kdenlive:id">46</property>
  </entry>
 </playlist>
 <playlist id="playlist13"/>
 <tractor id="tractor6" in="00:00:00.000" out="00:08:02.040">
  <property name="kdenlive:trackheight">69</property>
  <property name="kdenlive:timeline_active">1</property>
  <property name="kdenlive:collapsed">28</property>
  <property name="kdenlive:thumbs_format"/>
  <property name="kdenlive:audio_rec"/>
  <track hide="audio" producer="playlist12"/>
  <track producer="playlist13"/>
 </tractor>
 <producer id="producer307" in="00:00:00.000" out="00:00:02.360">
  <property name="length">00:00:02.400</property>
  <property name="eof">pause</property>
  <property name="resource">vid_files/10_chapters/t2/t%04d.png?begin=2000</property>
  <property name="ttl">1</property>
  <property name="aspect_ratio">1</property>
  <property name="progressive">1</property>
  <property name="seekable">1</property>
  <property name="begin">2000</property>
  <property name="meta.media.width">1920</property>
  <property name="meta.media.height">300</property>
  <property name="mlt_service">qimage</property>
  <property name="kdenlive:clipname">t</property>
  <property name="luma_duration">25</property>
  <property name="fade">0</property>
  <property name="crop">0</property>
  <property name="loop">0</property>
  <property name="kdenlive:duration">00:00:02.400</property>
  <property name="kdenlive:folderid">-1</property>
  <property name="kdenlive:id">146</property>
  <property name="kdenlive:file_hash">49059551ed1e390ce7d0e902c2c0493a</property>
  <property name="global_feed">1</property>
  <property name="xml">was here</property>
  <property name="set.test_audio">1</property>
  <property name="set.test_image">0</property>
 </producer>
 <producer id="producer308" in="00:00:00.000" out="00:00:02.360">
  <property name="length">00:00:02.400</property>
  <property name="eof">pause</property>
  <property name="resource">vid_files/10_chapters/t_bias/t_bias%03d.png</property>
  <property name="ttl">1</property>
  <property name="aspect_ratio">1</property>
  <property name="progressive">1</property>
  <property name="seekable">1</property>
  <property name="meta.media.width">1920</property>
  <property name="meta.media.height">300</property>
  <property name="mlt_service">qimage</property>
  <property name="kdenlive:clipname">t_bias</property>
  <property name="luma_duration">25</property>
  <property name="fade">0</property>
  <property name="crop">0</property>
  <property name="loop">0</property>
  <property name="kdenlive:duration">00:00:02.400</property>
  <property name="kdenlive:folderid">-1</property>
  <property name="kdenlive:id">140</property>
  <property name="kdenlive:file_hash">73dfbb2bf2d9e8afee8937e2ec70a7e0</property>
  <property name="global_feed">1</property>
  <property name="xml">was here</property>
  <property name="set.test_audio">1</property>
  <property name="set.test_image">0</property>
 </producer>
 <producer id="producer309" in="00:00:00.000" out="00:00:02.360">
  <property name="length">00:00:02.400</property>
  <property name="eof">pause</property>
  <property name="resource">vid_files/10_chapters/t_variance/t_variance%03d.png</property>
  <property name="ttl">1</property>
  <property name="aspect_ratio">1</property>
  <property name="progressive">1</property>
  <property name="seekable">1</property>
  <property name="meta.media.width">1920</property>
  <property name="meta.media.height">300</property>
  <property name="mlt_service">qimage</property>
  <property name="kdenlive:clipname">t_variance</property>
  <property name="luma_duration">25</property>
  <property name="fade">0</property>
  <property name="crop">0</property>
  <property name="loop">0</property>
  <property name="kdenlive:duration">00:00:02.400</property>
  <property name="kdenlive:folderid">-1</property>
  <property name="kdenlive:id">141</property>
  <property name="kdenlive:file_hash">46faa2651e1e7d45c80ef5f14a3fd07f</property>
  <property name="global_feed">1</property>
  <property name="xml">was here</property>
  <property name="set.test_audio">1</property>
  <property name="set.test_image">0</property>
 </producer>
 <producer id="producer310" in="00:00:00.000" out="00:00:02.360">
  <property name="length">00:00:02.400</property>
  <property name="eof">pause</property>
  <property name="resource">vid_files/10_chapters/t_totale/t_totale%03d.png</property>
  <property name="ttl">1</property>
  <property name="aspect_ratio">1</property>
  <property name="progressive">1</property>
  <property name="seekable">1</property>
  <property name="meta.media.width">1920</property>
  <property name="meta.media.height">300</property>
  <property name="mlt_service">qimage</property>
  <property name="kdenlive:clipname">t_totale</property>
  <property name="luma_duration">25</property>
  <property name="fade">0</property>
  <property name="crop">0</property>
  <property name="loop">0</property>
  <property name="kdenlive:duration">00:00:02.400</property>
  <property name="kdenlive:folderid">-1</property>
  <property name="kdenlive:id">142</property>
  <property name="kdenlive:file_hash">e6a03c643279ece1ee447f4a1bf9efd1</property>
  <property name="global_feed">1</property>
  <property name="xml">was here</property>
  <property name="set.test_audio">1</property>
  <property name="set.test_image">0</property>
 </producer>
 <producer id="producer311" in="00:00:00.000" out="00:00:02.360">
  <property name="length">00:00:02.400</property>
  <property name="eof">pause</property>
  <property name="resource">vid_files/10_chapters/t1/t%04d.png?begin=1000</property>
  <property name="ttl">1</property>
  <property name="aspect_ratio">1</property>
  <property name="progressive">1</property>
  <property name="seekable">1</property>
  <property name="begin">1000</property>
  <property name="meta.media.width">1920</property>
  <property name="meta.media.height">300</property>
  <property name="mlt_service">qimage</property>
  <property name="kdenlive:clipname">t</property>
  <property name="luma_duration">25</property>
  <property name="fade">0</property>
  <property name="crop">0</property>
  <property name="loop">0</property>
  <property name="kdenlive:duration">00:00:02.400</property>
  <property name="kdenlive:folderid">-1</property>
  <property name="kdenlive:id">138</property>
  <property name="kdenlive:file_hash">2ee70a9465c8ec844fa5220f43327666</property>
  <property name="global_feed">1</property>
  <property name="xml">was here</property>
  <property name="set.test_audio">1</property>
  <property name="set.test_image">0</property>
 </producer>
 <producer id="producer312" in="00:00:00.000" out="00:00:01.960">
  <property name="length">00:00:02.000</property>
  <property name="eof">pause</property>
  <property name="resource">vid_files/10_chapters/switch_white/switch_white%03d.png</property>
  <property name="ttl">1</property>
  <property name="aspect_ratio">1</property>
  <property name="progressive">1</property>
  <property name="seekable">1</property>
  <property name="meta.media.width">1920</property>
  <property name="meta.media.height">1080</property>
  <property name="mlt_service">qimage</property>
  <property name="kdenlive:clipname">switch_white</property>
  <property name="luma_duration">25</property>
  <property name="fade">0</property>
  <property name="crop">0</property>
  <property name="loop">0</property>
  <property name="kdenlive:duration">00:00:02.000</property>
  <property name="kdenlive:folderid">-1</property>
  <property name="kdenlive:id">46</property>
  <property name="kdenlive:file_hash">23e29cf534864da9bdbd4882f32876b4</property>
  <property name="global_feed">1</property>
  <property name="xml">was here</property>
  <property name="set.test_audio">1</property>
  <property name="set.test_image">0</property>
 </producer>
 <producer id="producer313" in="00:00:00.000" out="00:00:02.360">
  <property name="length">00:00:02.400</property>
  <property name="eof">pause</property>
  <property name="resource">vid_files/10_chapters/is_var/is_var%03d.png</property>
  <property name="ttl">1</property>
  <property name="aspect_ratio">1</property>
  <property name="progressive">1</property>
  <property name="seekable">1</property>
  <property name="meta.media.width">1920</property>
  <property name="meta.media.height">300</property>
  <property name="mlt_service">qimage</property>
  <property name="kdenlive:clipname">is_var</property>
  <property name="luma_duration">25</property>
  <property name="fade">0</property>
  <property name="crop">0</property>
  <property name="loop">0</property>
  <property name="kdenlive:duration">00:00:02.400</property>
  <property name="kdenlive:folderid">-1</property>
  <property name="kdenlive:id">159</property>
  <property name="kdenlive:file_hash">7fa80990217fdbc9a25ff6ecfcd12a10</property>
  <property name="global_feed">1</property>
  <property name="xml">was here</property>
  <property name="set.test_audio">1</property>
  <property name="set.test_image">0</property>
 </producer>
 <producer id="producer314" in="00:00:00.000" out="00:00:02.360">
  <property name="length">00:00:02.400</property>
  <property name="eof">pause</property>
  <property name="resource">vid_files/10_chapters/underfit/underfit%03d.png</property>
  <property name="ttl">1</property>
  <property name="aspect_ratio">1</property>
  <property name="progressive">1</property>
  <property name="seekable">1</property>
  <property name="meta.media.width">1920</property>
  <property name="meta.media.height">300</property>
  <property name="mlt_service">qimage</property>
  <property name="kdenlive:clipname">underfit</property>
  <property name="luma_duration">25</property>
  <property name="fade">0</property>
  <property name="crop">0</property>
  <property name="loop">0</property>
  <property name="kdenlive:duration">00:00:02.400</property>
  <property name="kdenlive:folderid">-1</property>
  <property name="kdenlive:id">148</property>
  <property name="kdenlive:file_hash">b55737a9e99503ad704815e9613fd922</property>
  <property name="global_feed">1</property>
  <property name="xml">was here</property>
  <property name="set.test_audio">1</property>
  <property name="set.test_image">0</property>
 </producer>
 <playlist id="playlist14">
  <blank length="00:05:08.040"/>
  <entry producer="producer307" in="00:00:00.000" out="00:00:02.360">
   <property name="kdenlive:id">146</property>
  </entry>
  <blank length="00:01:08.160"/>
  <entry producer="producer308" in="00:00:00.000" out="00:00:02.360">
   <property name="kdenlive:id">140</property>
   <filter id="filter68">
    <property name="rotate_center">1</property>
    <property name="mlt_service">qtblend</property>
    <property name="kdenlive_id">qtblend</property>
    <property name="rect">00:00:00.000=544 -84 1920 1080 1.000000</property>
    <property name="rotation">00:00:00.000=0</property>
    <property name="compositing">0</property>
    <property name="distort">0</property>
    <property name="kdenlive:collapsed">0</property>
   </filter>
  </entry>
  <entry producer="producer309" in="00:00:00.000" out="00:00:02.360">
   <property name="kdenlive:id">141</property>
   <filter id="filter69">
    <property name="rotate_center">1</property>
    <property name="mlt_service">qtblend</property>
    <property name="kdenlive_id">qtblend</property>
    <property name="rect">00:00:00.000=529 -193 1920 1080 1.000000</property>
    <property name="rotation">00:00:00.000=0</property>
    <property name="compositing">0</property>
    <property name="distort">0</property>
    <property name="kdenlive:collapsed">0</property>
   </filter>
  </entry>
  <blank length="00:00:00.040"/>
  <entry producer="producer310" in="00:00:00.000" out="00:00:02.360">
   <property name="kdenlive:id">142</property>
   <filter id="filter70">
    <property name="rotate_center">1</property>
    <property name="mlt_service">qtblend</property>
    <property name="kdenlive_id">qtblend</property>
    <property name="rect">00:00:00.000=769 -273 1920 1080 1.000000</property>
    <property name="rotation">00:00:00.000=0</property>
    <property name="compositing">0</property>
    <property name="distort">0</property>
    <property name="kdenlive:collapsed">0</property>
   </filter>
  </entry>
  <blank length="00:00:02.280"/>
  <entry producer="producer311" in="00:00:00.000" out="00:00:02.360">
   <property name="kdenlive:id">138</property>
   <filter id="filter71">
    <property name="rotate_center">1</property>
    <property name="mlt_service">qtblend</property>
    <property name="kdenlive_id">qtblend</property>
    <property name="rect">00:00:00.000=389 -416 1920 1080 1.000000</property>
    <property name="rotation">00:00:00.000=0</property>
    <property name="compositing">0</property>
    <property name="distort">0</property>
    <property name="kdenlive:collapsed">0</property>
   </filter>
  </entry>
  <blank length="00:00:04.960"/>
  <entry producer="producer312" in="00:00:00.000" out="00:00:01.960">
   <property name="kdenlive:id">46</property>
  </entry>
  <blank length="00:00:01.280"/>
  <entry producer="producer313" in="00:00:00.000" out="00:00:02.080">
   <property name="kdenlive:id">159</property>
   <filter id="filter72">
    <property name="rotate_center">1</property>
    <property name="mlt_service">qtblend</property>
    <property name="kdenlive_id">qtblend</property>
    <property name="rect">00:00:00.000=532 -276 1920 1080 1.000000</property>
    <property name="rotation">00:00:00.000=0</property>
    <property name="compositing">0</property>
    <property name="distort">0</property>
    <property name="kdenlive:collapsed">0</property>
   </filter>
  </entry>
  <blank length="00:00:01.120"/>
  <entry producer="producer314" in="00:00:00.000" out="00:00:00.840">
   <property name="kdenlive:id">148</property>
   <filter id="filter73">
    <property name="rotate_center">1</property>
    <property name="mlt_service">qtblend</property>
    <property name="kdenlive_id">qtblend</property>
    <property name="rect">00:00:00.000=507 -391 1920 1080 1.000000</property>
    <property name="rotation">00:00:00.000=0</property>
    <property name="compositing">0</property>
    <property name="distort">0</property>
    <property name="kdenlive:collapsed">0</property>
   </filter>
  </entry>
  <entry producer="producer314" in="00:00:00.880" out="00:00:01.280">
   <property name="kdenlive:id">148</property>
   <filter id="filter74">
    <property name="rotate_center">1</property>
    <property name="mlt_service">qtblend</property>
    <property name="kdenlive_id">qtblend</property>
    <property name="rect">00:00:00.880=507 -391 1920 1080 1.000000</property>
    <property name="rotation">00:00:00.880=0</property>
    <property name="compositing">0</property>
    <property name="distort">0</property>
    <property name="kdenlive:collapsed">0</property>
   </filter>
  </entry>
  <entry producer="producer314" in="00:00:00.880" out="00:00:01.280">
   <property name="kdenlive:id">148</property>
   <filter id="filter75">
    <property name="rotate_center">1</property>
    <property name="mlt_service">qtblend</property>
    <property name="kdenlive_id">qtblend</property>
    <property name="rect">00:00:00.880=507 -391 1920 1080 1.000000</property>
    <property name="rotation">00:00:00.880=0</property>
    <property name="compositing">0</property>
    <property name="distort">0</property>
    <property name="kdenlive:collapsed">0</property>
   </filter>
  </entry>
  <entry producer="producer314" in="00:00:00.880" out="00:00:01.280">
   <property name="kdenlive:id">148</property>
   <filter id="filter76">
    <property name="rotate_center">1</property>
    <property name="mlt_service">qtblend</property>
    <property name="kdenlive_id">qtblend</property>
    <property name="rect">00:00:00.880=507 -391 1920 1080 1.000000</property>
    <property name="rotation">00:00:00.880=0</property>
    <property name="compositing">0</property>
    <property name="distort">0</property>
    <property name="kdenlive:collapsed">0</property>
   </filter>
  </entry>
  <entry producer="producer314" in="00:00:00.880" out="00:00:01.280">
   <property name="kdenlive:id">148</property>
   <filter id="filter77">
    <property name="rotate_center">1</property>
    <property name="mlt_service">qtblend</property>
    <property name="kdenlive_id">qtblend</property>
    <property name="rect">00:00:00.880=507 -391 1920 1080 1.000000</property>
    <property name="rotation">00:00:00.880=0</property>
    <property name="compositing">0</property>
    <property name="distort">0</property>
   </filter>
  </entry>
  <entry producer="producer314" in="00:00:00.880" out="00:00:02.280">
   <property name="kdenlive:id">148</property>
   <filter id="filter78">
    <property name="rotate_center">1</property>
    <property name="mlt_service">qtblend</property>
    <property name="kdenlive_id">qtblend</property>
    <property name="rect">00:00:00.880=507 -391 1920 1080 1.000000</property>
    <property name="rotation">00:00:00.880=0</property>
    <property name="compositing">0</property>
    <property name="distort">0</property>
   </filter>
  </entry>
 </playlist>
 <playlist id="playlist15"/>
 <tractor id="tractor7" in="00:00:00.000" out="00:06:46.040">
  <property name="kdenlive:trackheight">69</property>
  <property name="kdenlive:timeline_active">1</property>
  <property name="kdenlive:collapsed">28</property>
  <property name="kdenlive:thumbs_format"/>
  <property name="kdenlive:audio_rec"/>
  <track hide="audio" producer="playlist14"/>
  <track producer="playlist15"/>
 </tractor>
 <tractor id="tractor8" global_feed="1" in="00:00:00.000" out="00:28:19.480">
  <track producer="black_track"/>
  <track producer="tractor0"/>
  <track producer="tractor1"/>
  <track producer="tractor2"/>
  <track producer="tractor3"/>
  <track producer="tractor4"/>
  <track producer="tractor5"/>
  <track producer="tractor6"/>
  <track producer="tractor7"/>
  <transition id="transition0" in="00:05:43.080" out="00:05:47.840">
   <property name="a_track">6</property>
   <property name="b_track">7</property>
   <property name="rect">00:00:00.000=246 -82 960 540 1.000000</property>
   <property name="compositing">0</property>
   <property name="distort">0</property>
   <property name="rotate_center">1</property>
   <property name="mlt_service">qtblend</property>
   <property name="kdenlive_id">qtblend</property>
   <property name="rotation">00:00:00.000=180</property>
  </transition>
  <transition id="transition1" in="00:05:32.000" out="00:05:34.640">
   <property name="a_track">6</property>
   <property name="b_track">7</property>
   <property name="rect">00:00:00.000=153 -203 1152 648 1.000000;00:00:02.040=153 -203 1152 648 1.000000;00:00:02.640=153 -203 1152 648 0.000000</property>
   <property name="compositing">0</property>
   <property name="distort">0</property>
   <property name="rotate_center">1</property>
   <property name="mlt_service">qtblend</property>
   <property name="kdenlive_id">qtblend</property>
   <property name="rotation">00:00:00.000=180;00:00:02.040=180;00:00:02.640=180</property>
  </transition>
  <transition id="transition2" in="00:05:54.640" out="00:06:14.600">
   <property name="a_track">5</property>
   <property name="b_track">6</property>
   <property name="rect">00:00:00.000=0 -391 1920 1080 1.000000</property>
   <property name="compositing">0</property>
   <property name="distort">0</property>
   <property name="rotate_center">1</property>
   <property name="mlt_service">qtblend</property>
   <property name="kdenlive_id">qtblend</property>
   <property name="rotation">00:00:00.000=0</property>
  </transition>
  <transition id="transition3" in="00:02:29.600" out="00:02:34.360">
   <property name="a_track">5</property>
   <property name="b_track">6</property>
   <property name="rect">00:00:00.000=384 188 1152 648 1.000000</property>
   <property name="compositing">0</property>
   <property name="distort">0</property>
   <property name="rotate_center">1</property>
   <property name="mlt_service">qtblend</property>
   <property name="kdenlive_id">qtblend</property>
   <property name="rotation">00:00:00.000=90</property>
  </transition>
  <transition id="transition4" in="00:04:09.760" out="00:04:12.120">
   <property name="a_track">5</property>
   <property name="b_track">6</property>
   <property name="rect">00:00:00.000=152 0 1920 1080 1.000000</property>
   <property name="compositing">0</property>
   <property name="distort">0</property>
   <property name="rotate_center">1</property>
   <property name="mlt_service">qtblend</property>
   <property name="kdenlive_id">qtblend</property>
   <property name="rotation">00:00:00.000=0</property>
  </transition>
  <transition id="transition5" in="00:02:39.680" out="00:02:44.240">
   <property name="a_track">5</property>
   <property name="b_track">6</property>
   <property name="rect">00:00:00.000=1191 378 576 324 1.000000</property>
   <property name="compositing">0</property>
   <property name="distort">0</property>
   <property name="rotate_center">1</property>
   <property name="mlt_service">qtblend</property>
   <property name="kdenlive_id">qtblend</property>
   <property name="rotation">00:00:00.000=0</property>
  </transition>
  <transition id="transition6" in="00:04:58.320" out="00:05:01.280">
   <property name="a_track">5</property>
   <property name="b_track">6</property>
   <property name="start">0/0:100%x100%</property>
   <property name="factory">loader</property>
   <property name="aligned">0</property>
   <property name="progressive">1</property>
   <property name="mlt_service">composite</property>
   <property name="kdenlive_id">wipe</property>
   <property name="softness">0</property>
   <property name="luma">/usr/share/kdenlive/lumas/HD/curtain.pgm</property>
   <property name="luma_invert">0</property>
   <property name="geometry">0%/0%:100%x100%:0;-1=0%/0%:100%x100%:100</property>
   <property name="fill">1</property>
  </transition>
  <transition id="transition7" in="00:01:36.040" out="00:01:39.280">
   <property name="a_track">5</property>
   <property name="b_track">6</property>
   <property name="rect">00:00:00.000=144 -251 1920 1080 1.000000</property>
   <property name="compositing">0</property>
   <property name="distort">0</property>
   <property name="rotate_center">1</property>
   <property name="mlt_service">qtblend</property>
   <property name="kdenlive_id">qtblend</property>
   <property name="rotation">00:00:00.000=0</property>
  </transition>
  <transition id="transition8" in="00:03:18.560" out="00:03:23.760">
   <property name="a_track">4</property>
   <property name="b_track">5</property>
   <property name="rect">00:00:00.000=480 -23 960 540 1.000000</property>
   <property name="compositing">0</property>
   <property name="distort">0</property>
   <property name="rotate_center">1</property>
   <property name="mlt_service">qtblend</property>
   <property name="kdenlive_id">qtblend</property>
   <property name="rotation">00:00:00.000=0</property>
  </transition>
  <transition id="transition9" in="00:03:09.560" out="00:03:14.520">
   <property name="a_track">4</property>
   <property name="b_track">5</property>
   <property name="rect">00:00:00.000=768 432 384 216 1.000000</property>
   <property name="compositing">0</property>
   <property name="distort">0</property>
   <property name="rotate_center">1</property>
   <property name="mlt_service">qtblend</property>
   <property name="kdenlive_id">qtblend</property>
   <property name="rotation">00:00:00.000=0</property>
  </transition>
  <transition id="transition10" in="00:03:37.720" out="00:03:45.760">
   <property name="a_track">4</property>
   <property name="b_track">5</property>
   <property name="rect">00:00:00.000=192 -179 1536 864 1.000000</property>
   <property name="compositing">0</property>
   <property name="distort">0</property>
   <property name="rotate_center">1</property>
   <property name="mlt_service">qtblend</property>
   <property name="kdenlive_id">qtblend</property>
   <property name="rotation">00:00:00.000=0</property>
  </transition>
  <transition id="transition11" in="00:02:09.560" out="00:02:12.640">
   <property name="a_track">4</property>
   <property name="b_track">5</property>
   <property name="rect">00:00:00.000=639 -32 1152 648 0.000000;00:00:00.040=639 -32 1152 648 0.000000;00:00:00.520=639 -32 1152 648 1.000000</property>
   <property name="compositing">0</property>
   <property name="distort">0</property>
   <property name="rotate_center">1</property>
   <property name="mlt_service">qtblend</property>
   <property name="kdenlive_id">qtblend</property>
   <property name="rotation">00:00:00.000=26;00:00:00.040=26;00:00:00.520=26</property>
  </transition>
  <transition id="transition12" in="00:02:06.440" out="00:02:09.520">
   <property name="a_track">4</property>
   <property name="b_track">5</property>
   <property name="rect">00:00:00.000=204 -32 1152 648 0.000000;00:00:00.880=204 -32 1152 648 1.000000;00:00:02.600=204 -32 1152 648 1.000000;00:00:03.080=204 -32 1152 648 0.000000</property>
   <property name="compositing">0</property>
   <property name="distort">0</property>
   <property name="rotate_center">1</property>
   <property name="mlt_service">qtblend</property>
   <property name="kdenlive_id">qtblend</property>
   <property name="rotation">00:00:00.000=-219;00:00:00.880=-219;00:00:02.600=-219;00:00:03.080=-219</property>
  </transition>
  <transition id="transition13" in="00:06:16.360" out="00:06:36.320">
   <property name="a_track">4</property>
   <property name="b_track">5</property>
   <property name="rect">00:00:00.000=-144 172 2208 1242 1.000000</property>
   <property name="compositing">0</property>
   <property name="distort">0</property>
   <property name="rotate_center">1</property>
   <property name="mlt_service">qtblend</property>
   <property name="kdenlive_id">qtblend</property>
   <property name="rotation">00:00:00.000=0</property>
  </transition>
  <transition id="transition14" in="00:03:57.320" out="00:03:57.880">
   <property name="a_track">4</property>
   <property name="b_track">5</property>
   <property name="start">0/0:100%x100%</property>
   <property name="factory">loader</property>
   <property name="aligned">0</property>
   <property name="progressive">1</property>
   <property name="mlt_service">composite</property>
   <property name="kdenlive_id">wipe</property>
   <property name="softness">0</property>
   <property name="luma"/>
   <property name="luma_invert">0</property>
   <property name="geometry">0%/0%:100%x100%:100;-1=0%/0%:100%x100%:0</property>
   <property name="fill">1</property>
  </transition>
  <transition id="transition15" in="00:01:08.840" out="00:01:15.840">
   <property name="a_track">3</property>
   <property name="b_track">4</property>
   <property name="distort">0</property>
   <property name="rect">0%/0%:100%x100%:100%</property>
   <property name="fill">1</property>
   <property name="mlt_service">affine</property>
   <property name="kdenlive_id">affine</property>
   <property name="geometry">0=-73 -50 2112 1188 100.000000;175=73 -50 2112 1188 100.000000</property>
   <property name="rotate_x">00:00:00.000=0;00:00:07.000=0</property>
   <property name="rotate_y">00:00:00.000=0;00:00:07.000=0</property>
   <property name="rotate_z">00:00:00.000=0;00:00:07.000=0</property>
   <property name="keyed">1</property>
  </transition>
  <transition id="transition16" in="00:05:36.480" out="00:05:38.840">
   <property name="a_track">3</property>
   <property name="b_track">4</property>
   <property name="rect">00:00:00.000=0 246 1920 1080 1.000000</property>
   <property name="compositing">0</property>
   <property name="distort">0</property>
   <property name="rotate_center">1</property>
   <property name="mlt_service">qtblend</property>
   <property name="kdenlive_id">qtblend</property>
   <property name="rotation">00:00:00.000=0</property>
  </transition>
  <transition id="transition17">
   <property name="a_track">0</property>
   <property name="b_track">1</property>
   <property name="mlt_service">mix</property>
   <property name="kdenlive_id">mix</property>
   <property name="internal_added">237</property>
   <property name="always_active">1</property>
   <property name="accepts_blanks">1</property>
   <property name="sum">1</property>
  </transition>
  <transition id="transition18">
   <property name="a_track">0</property>
   <property name="b_track">2</property>
   <property name="mlt_service">mix</property>
   <property name="kdenlive_id">mix</property>
   <property name="internal_added">237</property>
   <property name="always_active">1</property>
   <property name="accepts_blanks">1</property>
   <property name="sum">1</property>
  </transition>
  <transition id="transition19">
   <property name="a_track">0</property>
   <property name="b_track">3</property>
   <property name="compositing">0</property>
   <property name="distort">0</property>
   <property name="rotate_center">0</property>
   <property name="mlt_service">qtblend</property>
   <property name="kdenlive_id">qtblend</property>
   <property name="internal_added">237</property>
   <property name="always_active">1</property>
  </transition>
  <transition id="transition20">
   <property name="a_track">0</property>
   <property name="b_track">4</property>
   <property name="compositing">0</property>
   <property name="distort">0</property>
   <property name="rotate_center">0</property>
   <property name="mlt_service">qtblend</property>
   <property name="kdenlive_id">qtblend</property>
   <property name="internal_added">237</property>
   <property name="always_active">1</property>
  </transition>
  <transition id="transition21">
   <property name="a_track">0</property>
   <property name="b_track">5</property>
   <property name="compositing">0</property>
   <property name="distort">0</property>
   <property name="rotate_center">0</property>
   <property name="mlt_service">qtblend</property>
   <property name="kdenlive_id">qtblend</property>
   <property name="internal_added">237</property>
   <property name="always_active">1</property>
  </transition>
  <transition id="transition22">
   <property name="a_track">0</property>
   <property name="b_track">6</property>
   <property name="compositing">0</property>
   <property name="distort">0</property>
   <property name="rotate_center">0</property>
   <property name="mlt_service">qtblend</property>
   <property name="kdenlive_id">qtblend</property>
   <property name="internal_added">237</property>
   <property name="always_active">1</property>
  </transition>
  <transition id="transition23">
   <property name="a_track">0</property>
   <property name="b_track">7</property>
   <property name="compositing">0</property>
   <property name="distort">0</property>
   <property name="rotate_center">0</property>
   <property name="mlt_service">qtblend</property>
   <property name="kdenlive_id">qtblend</property>
   <property name="internal_added">237</property>
   <property name="always_active">1</property>
  </transition>
  <transition id="transition24">
   <property name="a_track">0</property>
   <property name="b_track">8</property>
   <property name="compositing">0</property>
   <property name="distort">0</property>
   <property name="rotate_center">0</property>
   <property name="mlt_service">qtblend</property>
   <property name="kdenlive_id">qtblend</property>
   <property name="internal_added">237</property>
   <property name="always_active">1</property>
  </transition>
  <filter id="filter79">
   <property name="window">75</property>
   <property name="max_gain">20dB</property>
   <property name="mlt_service">volume</property>
   <property name="internal_added">237</property>
   <property name="disable">1</property>
  </filter>
  <filter id="filter80">
   <property name="channel">-1</property>
   <property name="mlt_service">panner</property>
   <property name="internal_added">237</property>
   <property name="start">0.5</property>
   <property name="disable">1</property>
  </filter>
  <filter id="filter13">
   <property name="iec_scale">0</property>
   <property name="mlt_service">audiolevel</property>
   <property name="disable">1</property>
  </filter>
 </tractor>
</mlt>
